<svg xmlns="http://www.w3.org/2000/svg" viewBox="0 0 500 500"><g id="freepik--Floor--inject-34"><path id="freepik--floor--inject-34" d="M88.17,451.34c-89.37-51.6-89.37-135.26,0-186.86s234.28-51.6,323.66,0,89.37,135.26,0,186.86S177.55,502.94,88.17,451.34Z" style="fill:#fafafa"></path></g><g id="freepik--Window--inject-34"><g id="freepik--window--inject-34"><g id="freepik--window--inject-34"><g id="freepik--Frame--inject-34"><polygon points="475.03 274.87 472.43 276.41 384.11 225.42 386.7 223.87 475.03 274.87" style="fill:#fafafa"></polygon><polygon points="386.7 223.87 472.43 273.36 472.43 86.47 386.7 37 386.7 223.87" style="fill:#fff"></polygon><path d="M379.21,228.25l98.12,56.65V83.64L379.21,27Zm4.9-192.78,88.32,51V276.41l-88.32-51Z" style="fill:#f0f0f0"></path><polygon points="384.11 225.42 386.7 223.87 386.7 37 384.11 35.47 384.11 225.42" style="fill:#e0e0e0"></polygon><polygon points="472.43 208.62 472.43 211.67 384.11 160.68 386.7 159.13 472.43 208.62" style="fill:#fafafa"></polygon><polygon points="472.43 143.85 472.43 146.9 384.11 95.9 386.7 94.35 472.43 143.85" style="fill:#fafafa"></polygon><polygon points="379.21 26.99 381.84 25.48 479.97 82.13 477.33 83.64 379.21 26.99" style="fill:#fafafa"></polygon><polygon points="479.97 82.13 477.33 83.64 477.33 284.9 479.97 283.39 479.97 82.13" style="fill:#e0e0e0"></polygon><polygon points="434.66 64.66 432.02 63.13 432.02 253.09 434.66 251.58 434.66 64.66" style="fill:#e0e0e0"></polygon></g><polygon points="427.12 60.32 432.02 63.13 432.02 253.09 427.12 250.25 427.12 60.32" style="fill:#f0f0f0"></polygon><polygon points="379.21 93.08 379.21 98.73 477.33 155.38 477.33 149.73 379.21 93.08" style="fill:#f0f0f0"></polygon><polygon points="379.21 157.84 379.21 163.49 477.33 220.14 477.33 214.49 379.21 157.84" style="fill:#f0f0f0"></polygon><polygon points="432.02 123.56 434.66 122.04 472.43 143.85 472.43 146.9 432.02 123.56" style="fill:#fafafa"></polygon><polygon points="432.02 188.31 434.66 186.78 472.43 208.59 472.43 211.64 432.02 188.31" style="fill:#fafafa"></polygon></g></g></g><g id="freepik--Pictures--inject-34"><g id="freepik--Picture--inject-34"><g id="freepik--frame--inject-34"><polygon points="35.39 117.39 37.9 118.88 89.26 89.22 86.76 87.73 35.39 117.39" style="fill:#fafafa"></polygon><polygon points="86.76 87.73 37.9 115.93 37.9 64.77 86.76 36.58 86.76 87.73" style="fill:#fff"></polygon><path d="M94,26.93,33.17,62v65L94,92ZM89.26,89.22,37.9,118.88V64.77L89.26,35.11Z" style="fill:#f0f0f0"></path><polygon points="89.26 89.22 86.76 87.73 86.76 36.58 89.26 35.11 89.26 89.22" style="fill:#e0e0e0"></polygon><polygon points="93.98 26.93 91.44 25.48 30.63 60.59 33.17 62.04 93.98 26.93" style="fill:#fafafa"></polygon><polygon points="30.63 60.59 33.17 62.04 33.17 127.06 30.63 125.6 30.63 60.59" style="fill:#e0e0e0"></polygon></g><g id="freepik--Land--inject-34"><polygon points="84.85 86.2 39.8 112.21 39.8 99.2 51.07 73.2 58.08 79.7 55.56 90.6 71.11 57.34 84.85 73.2 84.85 86.2" style="fill:#f0f0f0"></polygon><path d="M57.66,60.64a7.36,7.36,0,0,0-3.33,5.77c0,2.12,1.49,3,3.33,1.92A7.35,7.35,0,0,0,61,62.56C61,60.44,59.5,59.58,57.66,60.64Z" style="fill:#f0f0f0"></path></g></g><g id="freepik--picture--inject-34"><g id="freepik--frame--inject-34"><polygon points="35.39 209.23 37.9 210.72 89.26 181.06 86.76 179.57 35.39 209.23" style="fill:#fafafa"></polygon><polygon points="86.76 179.57 37.9 207.78 37.9 156.61 86.76 128.42 86.76 179.57" style="fill:#fff"></polygon><path d="M94,118.77,33.17,153.88v65L94,183.79Zm-4.72,62.3L37.9,210.72V156.61L89.26,127Z" style="fill:#f0f0f0"></path><polygon points="89.26 181.06 86.76 179.57 86.76 128.42 89.26 126.95 89.26 181.06" style="fill:#e0e0e0"></polygon><polygon points="93.98 118.77 91.44 117.32 30.63 152.43 33.17 153.88 93.98 118.77" style="fill:#fafafa"></polygon><polygon points="30.63 152.43 33.17 153.88 33.17 218.9 30.63 217.44 30.63 152.43" style="fill:#e0e0e0"></polygon></g><g id="freepik--land--inject-34"><polygon points="84.85 178.04 39.8 204.05 39.8 191.05 51.07 165.04 58.08 171.54 55.56 182.44 71.11 149.18 84.85 165.04 84.85 178.04" style="fill:#f0f0f0"></polygon><path d="M57.66,152.48a7.36,7.36,0,0,0-3.33,5.77c0,2.13,1.49,3,3.33,1.93A7.38,7.38,0,0,0,61,154.41C61,152.28,59.5,151.42,57.66,152.48Z" style="fill:#f0f0f0"></path></g></g></g><g id="freepik--Shadows--inject-34"><path id="freepik--Shadow--inject-34" d="M37,409.62c-12.1,7-12.1,18.31,0,25.29s31.71,7,43.8,0,12.1-18.31,0-25.29S49.06,402.64,37,409.62Z" style="fill:#e6e6e6"></path><path id="freepik--shadow--inject-34" d="M346.32,380.81c-28.61,16.52-28.61,43.3,0,59.83s75,16.52,103.63,0,28.61-43.31,0-59.83S374.94,364.29,346.32,380.81Z" style="fill:#e6e6e6"></path><path id="freepik--shadow--inject-34" d="M222.46,351.81,69.6,440c-1.79,1-1.79,2.7,0,3.74l23.92,13.77a7.18,7.18,0,0,0,6.48,0l152.86-88.2c1.79-1,1.79-2.71,0-3.74l-23.92-13.77A7.18,7.18,0,0,0,222.46,351.81Z" style="fill:#e6e6e6"></path><path id="freepik--shadow--inject-34" d="M235.33,366.18,102.1,443.05c-1.42.81-1.42,2.13,0,2.95L121,456.88a5.68,5.68,0,0,0,5.11,0L259.34,380c1.41-.82,1.41-2.14,0-3l-18.89-10.87A5.64,5.64,0,0,0,235.33,366.18Z" style="fill:#e6e6e6"></path><path id="freepik--shadow--inject-34" d="M308.93,374.94,175.69,451.81c-1.41.82-1.41,2.14,0,3l4.33,2.52a5.7,5.7,0,0,0,5.12,0l133.24-76.87c1.41-.82,1.41-2.14,0-3L314,374.94A5.68,5.68,0,0,0,308.93,374.94Z" style="fill:#e6e6e6"></path></g><g id="freepik--Plants--inject-34"><g id="freepik--Plant--inject-34"><g id="freepik--Pot--inject-34"><path d="M40.56,425.19c-9.8-10.11-15.55-35.52-6-43.53H83.18c9.55,8,3.8,33.41-6,43.52a3.57,3.57,0,0,1-.27.28l-.33.33a11.48,11.48,0,0,1-.89.8c-.08.07-.16.12-.23.19-.24.19-.48.38-.74.56a13.65,13.65,0,0,1-1.27.82c-8.06,4.7-21.12,4.7-29.18,0h0a12.1,12.1,0,0,1-1.28-.83c-.24-.17-.46-.34-.68-.52l-.29-.23c-.31-.25-.59-.51-.86-.77l-.39-.38Z" style="fill:#37474f"></path><path d="M79,378.43c11.09,6.47,11.09,17,0,23.45s-29.07,6.48-40.16,0-11.1-17,0-23.45S67.86,372,79,378.43Z" style="fill:#455a64"></path><path d="M73.62,381.54c8.15,4.76,8.15,12.47,0,17.23s-21.35,4.75-29.5,0-8.14-12.47,0-17.23S65.47,376.79,73.62,381.54Z" style="fill:#263238"></path><path d="M44.12,389.72c8.15-4.76,21.35-4.76,29.5,0a13.64,13.64,0,0,1,4.88,4.52,13.74,13.74,0,0,1-4.88,4.53c-8.15,4.75-21.35,4.75-29.5,0a13.74,13.74,0,0,1-4.88-4.53A13.64,13.64,0,0,1,44.12,389.72Z" style="fill:#fafafa"></path></g><g id="freepik--Leaves--inject-34"><path d="M48.8,323.86c2.12,3.84-.84,10.38-7,11.55,1.94-2.71,3.63-6.94,2.08-7.54s.24,3.37-3.21,7c0,0-1.85.88-4.41-1.22,3.84-2.67,5.57-8.23,4.21-7.46-.54.31-1.5,3.07-3.8,4.8s-4.59,1.83-8-1.08c2.06-.33,5-1.12,6.74-3.2,1.23-1.49,1.6-2.45-1.22-.73s-3.72,2.45-6.39,2.33-5-2.92-5-2.92,4.36.45,5.37-.94-3.61.65-6.63-.61a17.74,17.74,0,0,1-5-3.2S18,317.2,19,316.37c2.26,1.73,5.09,4.13,5.53,3.64s-.47-2.33-3.83-4a2.93,2.93,0,0,1,2.73-2.08s1.73.27,4.26,4.81c.54.95,1.73,1.81-.35-1.85a11.89,11.89,0,0,0-3.28-4,4.63,4.63,0,0,1,5.72.59c4.92,4.23,5.1,6.31,5.82,6,.27-.12-.11-1.2-2-3.83a15.78,15.78,0,0,0-3.47-3.74s2.15-2.46,5.61-.13,5.49,7.14,5.73,7.23c.62.23-.3-3.61-1.66-5.69-1.27-1.93-2-2.82-2-2.82a5.14,5.14,0,0,1,5.78,2c2.48,3.26,2.07,8,2.88,7.78s-.62-7.78-.62-7.78S53.2,319.17,48.8,323.86Z" style="fill:#6366F1"></path><path d="M48.8,323.86c2.12,3.84-.84,10.38-7,11.55,1.94-2.71,3.63-6.94,2.08-7.54s.24,3.37-3.21,7c0,0-1.85.88-4.41-1.22,3.84-2.67,5.57-8.23,4.21-7.46-.54.31-1.5,3.07-3.8,4.8s-4.59,1.83-8-1.08c2.06-.33,5-1.12,6.74-3.2,1.23-1.49,1.6-2.45-1.22-.73s-3.72,2.45-6.39,2.33-5-2.92-5-2.92,4.36.45,5.37-.94-3.61.65-6.63-.61a17.74,17.74,0,0,1-5-3.2S18,317.2,19,316.37c2.26,1.73,5.09,4.13,5.53,3.64s-.47-2.33-3.83-4a2.93,2.93,0,0,1,2.73-2.08s1.73.27,4.26,4.81c.54.95,1.73,1.81-.35-1.85a11.89,11.89,0,0,0-3.28-4,4.63,4.63,0,0,1,5.72.59c4.92,4.23,5.1,6.31,5.82,6,.27-.12-.11-1.2-2-3.83a15.78,15.78,0,0,0-3.47-3.74s2.15-2.46,5.61-.13,5.49,7.14,5.73,7.23c.62.23-.3-3.61-1.66-5.69-1.27-1.93-2-2.82-2-2.82a5.14,5.14,0,0,1,5.78,2c2.48,3.26,2.07,8,2.88,7.78s-.62-7.78-.62-7.78S53.2,319.17,48.8,323.86Z" style="opacity:0.2"></path><path d="M38,335.87c1.88-2.41,4.35-5.12,7.57-5.46s6.21,1.38,8.28,3.64a27.12,27.12,0,0,1,4.75,8.11,61.24,61.24,0,0,1,2.93,9.55c3.13,13.48,3.66,27.4,3.17,41.18,0,1.08-.1,2.16-.15,3.24H66c0-.56.07-1.11.09-1.66.31-7.22.35-14.46-.06-21.68a126.07,126.07,0,0,0-3-21.37,63.76,63.76,0,0,0-3.12-10.1,26.79,26.79,0,0,0-5-8.24c-2.39-2.51-5.75-4.25-9.3-3.73s-5.84,3.42-7.81,6.26C37.74,335.71,37.86,336,38,335.87Z" style="fill:#455a64"></path><path d="M57.87,392.56q.36,3.33.61,6.66H60.1c-.06-.87-.12-1.73-.19-2.59-.61-7.51-1.64-15-2.76-22.43S54.87,359.35,54,351.89c-.43-3.61-.83-7.24-1-10.87a46.37,46.37,0,0,1,.38-10.33c.56-3.39,1.72-7.08,4.14-9.63s6.68-3.5,9-.45c0,0,0,0,0-.05-1.41-2.6-5.07-3.23-7.6-2-3,1.42-4.74,4.44-5.88,7.38-2.61,6.81-1.94,14.33-1.23,21.43C53.25,362.49,56.23,377.44,57.87,392.56Z" style="fill:#455a64"></path><path d="M49.14,369.52c.42,3.83.82,7.66,1.09,11.5.36,5,.56,10.07.7,15.11h1.72l-.06-2.27a179,179,0,0,0-2-22.88c-.35-2.14-.82-4.26-1.26-6.39a60.3,60.3,0,0,0-1.68-6.77c-.07-.21-.27-.11-.25.08.24,1.93.67,3.83,1,5.75S48.92,367.56,49.14,369.52Z" style="fill:#455a64"></path><path d="M59.86,357.24c.75-3.27,6.44-8,16.46-8.16a26.2,26.2,0,0,1,10.48,2.11c-6.52.28-15.14,1.31-15.58,3.76s2.9.88,6-.32a37.68,37.68,0,0,1,11-2.78,19.63,19.63,0,0,1,8.46,5.51c-7.09-2.53-15.22-1.31-18.5.46s-3.19,3.25-.41,2.29,8.18-3.05,22.2,0c0,0,2.89,1.91,4,7.71-2.62-2.21-6.36-3.12-9.64-3.78A44,44,0,0,0,84.19,363c-.6,0-1.81.1-2.12.74s.36,1.28.92,1.49a11.28,11.28,0,0,0,3.7.53c1.63,0,3.28.18,4.9.34a47.36,47.36,0,0,1,8,1.18c1.43.39,4.38,4.1,4.23,8.29-3.49-.63-10.83-4.81-16-4.29s1,1.49,5.22,3c3.66,1.32,10.29,4.2,10.29,4.2a82.92,82.92,0,0,1-1.87,10.44,31.53,31.53,0,0,1-10.7.12s-3.44-9.93-6-10.85-.54,3,1.72,6.5,2.92,4.78,2.92,4.78S79.18,391.4,74.94,388c-.15-2.12.12-7.63.17-11.29,0-3.86.91-7.09-.26-7.76s-2.3,2.42-3,6.2a42.81,42.81,0,0,0-.12,11.46s-7.26-1.32-9.77-3.39c-2.88-6.15.46-13.21,1.19-14.27s-.86-4.44-4.48.22a10.72,10.72,0,0,0-1.9,10.07s-5.29-.48-7.5-5C45.73,366.91,48.7,359.37,59.86,357.24Z" style="fill:#6366F1"></path><path d="M59.86,357.24c.75-3.27,6.44-8,16.46-8.16a26.2,26.2,0,0,1,10.48,2.11c-6.52.28-15.14,1.31-15.58,3.76s2.9.88,6-.32a37.68,37.68,0,0,1,11-2.78,19.63,19.63,0,0,1,8.46,5.51c-7.09-2.53-15.22-1.31-18.5.46s-3.19,3.25-.41,2.29,8.18-3.05,22.2,0c0,0,2.89,1.91,4,7.71-2.62-2.21-6.36-3.12-9.64-3.78A44,44,0,0,0,84.19,363c-.6,0-1.81.1-2.12.74s.36,1.28.92,1.49a11.28,11.28,0,0,0,3.7.53c1.63,0,3.28.18,4.9.34a47.36,47.36,0,0,1,8,1.18c1.43.39,4.38,4.1,4.23,8.29-3.49-.63-10.83-4.81-16-4.29s1,1.49,5.22,3c3.66,1.32,10.29,4.2,10.29,4.2a82.92,82.92,0,0,1-1.87,10.44,31.53,31.53,0,0,1-10.7.12s-3.44-9.93-6-10.85-.54,3,1.72,6.5,2.92,4.78,2.92,4.78S79.18,391.4,74.94,388c-.15-2.12.12-7.63.17-11.29,0-3.86.91-7.09-.26-7.76s-2.3,2.42-3,6.2a42.81,42.81,0,0,0-.12,11.46s-7.26-1.32-9.77-3.39c-2.88-6.15.46-13.21,1.19-14.27s-.86-4.44-4.48.22a10.72,10.72,0,0,0-1.9,10.07s-5.29-.48-7.5-5C45.73,366.91,48.7,359.37,59.86,357.24Z" style="opacity:0.25"></path><path d="M39.8,333.44c5-.77,12,.5,15.67,4.57s3.81,9,2.74,11.52-2.3-3.87-6.1-6.95-5.63-2.85-2.41.38,7.42,9.15,8,12.91-3,7.91-4.08,7.6.23-4.12-1.51-9.58-5.35-9.07-8.19-9.94-2.12.07,1.61,4.36,8,12.95,6.2,17-5.92,5.42-7,5,1.67-5.49-.38-12.16-6.49-11.42-8.91-10-.64,3.28,1.62,8.27,5.2,14.95,4.07,18.13-7.09,5.24-8,4.24,1.91-6.38.54-13.38-4.24-9.75-4.55-6.89,3.44,16.46,2.29,18.73-12,5.74-12,5.74-5.55-7-5.86-9.12,4.76-10.51,7.52-12.9-.68-2.64-2.89-1-7.16,7.72-7.58,10.89c-2.79-3.26-5.25-7.38-2.75-10s10-7,14.35-8.49,7.63-5.78,1.83-4.68-15.86,6.35-17.64,10.4c-.68-3.65.34-13.82,6.68-15.46s13-1.12,15-1.78-.54-2.42-5.33-2.72-11.17,0-13.66,3.07c.19-4,.73-8,8.07-8s10.47,3,11.63,2.19-4.56-3.9-8.83-4.18a10,10,0,0,1,10.54-3.35A16.87,16.87,0,0,1,39.8,333.44Z" style="fill:#6366F1"></path><path d="M64.64,316.54c1.44-3.56,6.78-4.76,9.31-3.62-2.73.66-5,2.85-3.52,2.18,3.23-1.39,5.24-2,8.95-1.24A6.33,6.33,0,0,1,84.07,318a22.56,22.56,0,0,0-7.6-1.09c-1.23.07-4.49.57-.48.6,6.3,0,8.65,2.32,8.65,2.32a8.54,8.54,0,0,1,2.26,4.61c-3.28-3.56-8.64-4.17-10.63-4.38s-3.81.81-.53,1.08S85,323.71,86.79,327s.42,8.4.42,8.4-7.31-10.24-10.07-9.06c-.07,1.54,7.72,6.77,9,9.67s-1.66,8.83-1.66,8.83-7.25-.56-9.11-1.8-1.09-9.15-2.07-10.35-3.75,4.82-2.54,10c0,0-3.64.5-4.29-2.37s.75-8.75,2.41-11.39-1-2.1-2.32-.09-3.22,6.46-2.85,9.43c0,0-4.17-2-5.24-4.22s2.92-8.14,4.92-9.6.24-2.7-1.76-1.24-5.28,6-5.64,8.29c-2.13-4.08-2.28-9.24,1.37-13C61.25,314.64,64.64,316.54,64.64,316.54Z" style="fill:#6366F1"></path></g></g></g><g id="freepik--Device--inject-34"><g id="freepik--Mobile--inject-34"><path d="M240,361V54.1c0-7.89-3.92-10.07-7.41-12.08s-9.22-3.23-14.17-.37L91.66,114.82c-5,2.86-9,9.81-9,15.52V437.27c0,5.72,3.58,9.09,7.07,11.1s9.55,4.22,14.5,1.36L231,376.55A16.84,16.84,0,0,0,240,361Z" style="fill:#37474f"></path><path d="M231.92,363.93,101.59,439.18l0-308.25-16.31-9.42a18.35,18.35,0,0,0-2.62,8.83V437.27c0,5.72,3.58,9.09,7.07,11.1s9.55,4.22,14.5,1.36L231,376.55a17.05,17.05,0,0,0,7.76-8.66l-.51-.29Z" style="fill:#263238"></path><path d="M230.78,51.45l-127.1,73.39a13.91,13.91,0,0,0-6.3,10.89V440.16c0,6.14,4.36,8.65,9.68,5.57L230.78,374.3A15.8,15.8,0,0,0,237.91,362V55.57C237.91,51,234.7,49.19,230.78,51.45Z" style="fill:#455a64"></path><path d="M231.71,70.12V354.69a15,15,0,0,1-6.77,11.74L110.35,432.59c-3.73,2.17-6.77.42-6.77-3.9V142a15.16,15.16,0,0,1,4.75-10.21l.65-.58a11.92,11.92,0,0,1,1.37-.94l32.23-18.61,2.1-1.21c1.16-.67,2.1-.13,2.1,1.21s1,1.86,2.25,1.13l37.56-21.68a4.84,4.84,0,0,0,2.25-3.72,4.79,4.79,0,0,1,1.88-3.52l.22-.13,31.53-18.2.67-.39C227.86,62.45,231.71,64.67,231.71,70.12Z"></path><path d="M215.1,358.83a15,15,0,0,0,6.77-11.74V65.9L190.94,83.76l-.22.13a4.79,4.79,0,0,0-1.88,3.52,4.84,4.84,0,0,1-2.25,3.72L149,112.81c-1.24.73-2.25.21-2.25-1.13s-.94-1.88-2.1-1.21l-2.1,1.21-32.23,18.61a11.92,11.92,0,0,0-1.37.94l-.65.58A15.16,15.16,0,0,0,103.58,142v281.2Z" style="fill:#263238"></path><path d="M154.73,101.36,172,91.42c1-.6,1.86-.18,1.86.94A4,4,0,0,1,172,95.44l-17.22,10c-1,.59-1.86.17-1.86-.94A4,4,0,0,1,154.73,101.36Z" style="fill:#263238"></path><path d="M180.79,85.5c1.15-.67,2.09-.13,2.09,1.21a4.66,4.66,0,0,1-2.09,3.63c-1.16.66-2.1.12-2.1-1.21A4.63,4.63,0,0,1,180.79,85.5Z" style="fill:#263238"></path><path d="M94.46,167.17a7.56,7.56,0,0,0-3.32-6,2.19,2.19,0,0,0-2.27-.19c-.41.25-2.05,1.16-2.48,1.42a2.59,2.59,0,0,0-1,2.35v25a7.56,7.56,0,0,0,3.31,6,2.22,2.22,0,0,0,2.19.23c.46-.24,2.13-1.2,2.56-1.46a2.59,2.59,0,0,0,1-2.35Z" style="fill:#455a64"></path><path d="M92,168.59v25c0,2.25-1.48,3.22-3.31,2.16a7.56,7.56,0,0,1-3.31-6v-25c0-2.25,1.48-3.22,3.31-2.16A7.56,7.56,0,0,1,92,168.59Z" style="fill:#37474f"></path><path d="M94.46,210.94a7.57,7.57,0,0,0-3.32-6,2.19,2.19,0,0,0-2.27-.19c-.41.25-2.05,1.16-2.48,1.42a2.6,2.6,0,0,0-1,2.35v25a7.56,7.56,0,0,0,3.31,6,2.25,2.25,0,0,0,2.19.24c.46-.24,2.13-1.21,2.56-1.47a2.58,2.58,0,0,0,1-2.35Z" style="fill:#455a64"></path><path d="M92,212.36v25c0,2.25-1.48,3.22-3.31,2.16a7.56,7.56,0,0,1-3.31-6v-25c0-2.25,1.48-3.22,3.31-2.16A7.56,7.56,0,0,1,92,212.36Z" style="fill:#37474f"></path></g></g><g id="freepik--screen-2--inject-34"><g id="freepik--window-2--inject-34"><g id="freepik--window--inject-34"><path d="M242.08,72.64c-1.58-.9-3.74-.78-6.13.6l-.69.4-32,18.47a1.35,1.35,0,0,0-.22.14,4.82,4.82,0,0,0-1.91,3.57,4.88,4.88,0,0,1-2.28,3.77l-38.13,22-.09,0a1.45,1.45,0,0,0-.62-1.29l-2.2-1.28a1.5,1.5,0,0,0-1.5.16l-2.14,1.23-32.71,18.89a10.55,10.55,0,0,0-1.4,1c-.22.18-.43.38-.65.58a15.36,15.36,0,0,0-4.83,10.36v291c0,2.18.77,3.72,2,4.44l2.22,1.28c1.24.71,3,.61,4.85-.49L240,380.33a15.23,15.23,0,0,0,6.87-11.92V79.53c0-2.75-1-4.69-2.54-5.6Z" style="fill:#6366F1"></path><path d="M124.31,446.54v.57l-.66.38c-1.88,1.1-3.6,1.2-4.84.49l-2.22-1.28c-1.24-.73-2-2.26-2-4.44v-291a14.24,14.24,0,0,1,2.37-7.34l2.62,1.51a13.91,13.91,0,0,0-2.3,7.1v291a5.29,5.29,0,0,0,.94,3.31,2.94,2.94,0,0,0,2.36,1.11,5.77,5.77,0,0,0,2.83-.89Z" style="opacity:0.30000000000000004"></path><path d="M204.62,94.86a4.08,4.08,0,0,0-.8,2.23,4.88,4.88,0,0,1-.85,2.55l-2.64-1.52a4.38,4.38,0,0,0,.8-2.3,4.64,4.64,0,0,1,.86-2.48Z" style="opacity:0.30000000000000004"></path><path d="M120.58,448a2.9,2.9,0,0,1-2.36-1.11,5.27,5.27,0,0,1-.94-3.31v-291a14.93,14.93,0,0,1,4.66-10l.21-.19c.14-.13.28-.26.43-.38a12,12,0,0,1,1.32-.91l32.72-18.89,2.13-1.23a1.5,1.5,0,0,1,.72-.23c.62,0,.68.73.68,1a1.75,1.75,0,0,0,1.7,2,2.71,2.71,0,0,0,1.32-.4l38.13-22a5.39,5.39,0,0,0,2.52-4.2,4.32,4.32,0,0,1,1.71-3.17,1.2,1.2,0,0,1,.17-.11l32-18.48.69-.4A7.5,7.5,0,0,1,242,73.82c2.68,0,4.34,2.19,4.34,5.71V368.41a14.66,14.66,0,0,1-6.63,11.5L123.41,447.06A5.77,5.77,0,0,1,120.58,448Z" style="fill:#fafafa"></path><path d="M242,73.82a7.5,7.5,0,0,0-3.62,1.11l-.69.4-32,18.48a1.2,1.2,0,0,0-.17.11,4.3,4.3,0,0,0-1.71,3.17,5.37,5.37,0,0,1-2.53,4.2l-38.12,22a2.71,2.71,0,0,1-1.32.4,1.75,1.75,0,0,1-1.7-2c0-.31-.06-1-.68-1a1.5,1.5,0,0,0-.72.23l-2.13,1.23L123.9,141a12,12,0,0,0-1.32.91c-.15.12-.29.25-.43.38l-.21.19a14.93,14.93,0,0,0-4.66,10v34.2l129.08-74.55V79.53C246.36,76,244.7,73.82,242,73.82Z" style="fill:#6366F1"></path><g style="opacity:0.30000000000000004"><path d="M242,73.82a7.5,7.5,0,0,0-3.62,1.11l-.69.4-32,18.48a1.2,1.2,0,0,0-.17.11,4.3,4.3,0,0,0-1.71,3.17,5.37,5.37,0,0,1-2.53,4.2l-38.12,22a2.71,2.71,0,0,1-1.32.4,1.75,1.75,0,0,1-1.7-2c0-.31-.06-1-.68-1a1.5,1.5,0,0,0-.72.23l-2.13,1.23L123.9,141a12,12,0,0,0-1.32.91c-.15.12-.29.25-.43.38l-.21.19a14.93,14.93,0,0,0-4.66,10v34.2l129.08-74.55V79.53C246.36,76,244.7,73.82,242,73.82Z" style="fill:#fff"></path></g><path d="M136.58,162.68c0,2.59,1.94,3.57,4.33,2.19L213.49,123a9.29,9.29,0,0,0,4.33-7.19c0-2.59-1.94-3.57-4.33-2.19l-72.58,41.91A9.29,9.29,0,0,0,136.58,162.68Z" style="fill:#fafafa"></path><path d="M128.72,161.13a8.33,8.33,0,0,0-3.48,6.64,6.72,6.72,0,0,0,3.48,5.68s3.48-5.79,3.48-9.7C132.2,161.2,130.65,160,128.72,161.13Zm0,7c-1,.55-1.73,0-1.73-1.32a4.17,4.17,0,0,1,1.73-3.3c1-.56,1.74,0,1.74,1.3A4.16,4.16,0,0,1,128.72,168.08Z" style="fill:#fafafa"></path><path d="M226.21,106.74a.54.54,0,0,0,.25-.06l12.19-7a.49.49,0,0,0,.18-.68.51.51,0,0,0-.68-.19l-12.19,7a.5.5,0,0,0,.25.93Zm11.94,1.32-12.19,7a.51.51,0,0,0-.18.69.5.5,0,0,0,.43.25.45.45,0,0,0,.25-.07l12.19-7a.5.5,0,1,0-.5-.86Zm0-4.64-12.19,7a.51.51,0,0,0-.18.69.5.5,0,0,0,.43.25.55.55,0,0,0,.25-.07l12.19-7a.5.5,0,1,0-.5-.86Z" style="fill:#fafafa"></path><path d="M126.59,152.62a.35.35,0,0,1-.06.19.28.28,0,0,1-.12.14l-.26.15q-.08,0-.12,0a.16.16,0,0,1,0-.13v-4.69l-1,1.64a.26.26,0,0,1-.12.13.12.12,0,0,1-.12,0l-.15-.18a.21.21,0,0,1,0-.15.49.49,0,0,1,.07-.19l1.37-2.18a.25.25,0,0,1,.1-.12l.1-.07.26-.15s.09,0,.12,0a.14.14,0,0,1,.06.13Z" style="fill:#fafafa"></path><path d="M129.27,151.07a.34.34,0,0,1-.05.19.33.33,0,0,1-.12.14l-.26.15q-.08,0-.12,0s-.05-.07-.05-.13v-4.69l-1,1.64a.31.31,0,0,1-.12.13.12.12,0,0,1-.12,0l-.15-.18a.17.17,0,0,1,0-.15.49.49,0,0,1,.07-.19l1.37-2.19a.27.27,0,0,1,.1-.11l.1-.07.26-.15q.08,0,.12,0s.05.06.05.13Z" style="fill:#fafafa"></path><path d="M130.78,146.42a.11.11,0,0,1,.12,0,.16.16,0,0,1,0,.14v.57a.36.36,0,0,1,0,.19.33.33,0,0,1-.12.14l-.43.24a.11.11,0,0,1-.12,0,.18.18,0,0,1,0-.14V147a.49.49,0,0,1,0-.19.58.58,0,0,1,.12-.14Zm0,3q.08,0,.12,0s0,.07,0,.13v.57a.34.34,0,0,1,0,.19.33.33,0,0,1-.12.14l-.43.24a.11.11,0,0,1-.12,0,.18.18,0,0,1,0-.14V150a.49.49,0,0,1,0-.19.38.38,0,0,1,.12-.13Z" style="fill:#fafafa"></path><path d="M132.26,148a.52.52,0,0,0,.37.43.93.93,0,0,0,.65-.14,2.87,2.87,0,0,0,.4-.31,2.08,2.08,0,0,0,.53-.93,1.91,1.91,0,0,0,.08-.59,1.14,1.14,0,0,0-.08-.49.47.47,0,0,0-.21-.26.49.49,0,0,0-.32,0,1.16,1.16,0,0,0-.4.15,2.2,2.2,0,0,0-.39.3c-.09.11-.17.2-.23.29a2.79,2.79,0,0,0-.17.25.55.55,0,0,1-.17.17L132,147a.07.07,0,0,1-.09,0,.13.13,0,0,1-.05-.11l.2-2.95a.32.32,0,0,1,0-.19.24.24,0,0,1,.12-.14l2.25-1.3a.11.11,0,0,1,.12,0,.16.16,0,0,1,.06.14v.3a.35.35,0,0,1-.06.19.28.28,0,0,1-.12.14l-1.86,1.08-.1,1.53a4.08,4.08,0,0,1,.3-.31,2.73,2.73,0,0,1,.47-.33,1.73,1.73,0,0,1,.63-.23.82.82,0,0,1,.52.1.89.89,0,0,1,.34.43,1.85,1.85,0,0,1,.13.76,3.15,3.15,0,0,1-.13.92,4,4,0,0,1-.34.83,3.29,3.29,0,0,1-.52.69,2.88,2.88,0,0,1-.63.5,1.84,1.84,0,0,1-.61.23.85.85,0,0,1-.51,0,.72.72,0,0,1-.36-.31,1.21,1.21,0,0,1-.14-.58.53.53,0,0,1,0-.16.27.27,0,0,1,.1-.11l.3-.17a.11.11,0,0,1,.1,0S132.25,148,132.26,148Z" style="fill:#fafafa"></path><path d="M136,146l.09.22a.34.34,0,0,0,.18.15.62.62,0,0,0,.3,0,1.54,1.54,0,0,0,.49-.21,2,2,0,0,0,.37-.28,2,2,0,0,0,.32-.38A1.92,1.92,0,0,0,138,145a1.84,1.84,0,0,0,.08-.53A1,1,0,0,0,138,144a.38.38,0,0,0-.21-.19.56.56,0,0,0-.31,0,1.59,1.59,0,0,0-.39.17l-.53.31a.13.13,0,0,1-.12,0,.14.14,0,0,1,0-.13v-.31a.5.5,0,0,1,0-.16c0-.06,0-.11.07-.16l1.15-2.31-1.84,1.06q-.08,0-.12,0s-.05-.07-.05-.13v-.31a.36.36,0,0,1,.05-.19.26.26,0,0,1,.12-.13l2.51-1.46a.1.1,0,0,1,.13,0,.17.17,0,0,1,.05.13v.31a.55.55,0,0,1,0,.17c0,.06-.05.12-.09.19l-1.13,2.27a1.79,1.79,0,0,1,.59-.2.68.68,0,0,1,.45.09.69.69,0,0,1,.29.37,1.75,1.75,0,0,1,.11.66,2.74,2.74,0,0,1-.13.85,3.91,3.91,0,0,1-.34.78,2.93,2.93,0,0,1-.51.65,3.05,3.05,0,0,1-.61.49,2.28,2.28,0,0,1-.74.29.91.91,0,0,1-.51,0,.67.67,0,0,1-.3-.32,1.21,1.21,0,0,1-.11-.48.3.3,0,0,1,.05-.16.25.25,0,0,1,.09-.11l.3-.17c.05,0,.08,0,.11,0A.11.11,0,0,1,136,146Z" style="fill:#fafafa"></path><path d="M146,135.92h0m0,0-2,6.71v-2.92L141.85,141l4.16-5.06m0-.5h0a.49.49,0,0,0-.24.08.28.28,0,0,0-.1.09h0l-4.16,5.06a.5.5,0,0,0,0,.64.49.49,0,0,0,.38.18.55.55,0,0,0,.25-.07l1.44-.83v2a.51.51,0,0,0,.43.5H144a.5.5,0,0,0,.48-.35l2-6.68a.52.52,0,0,0,0-.18.49.49,0,0,0-.49-.5Zm0,1h0Z" style="fill:#fafafa"></path><polygon points="214.3 102.14 213.23 102.76 213.23 100.67 214.3 100.05 214.3 102.14" style="fill:#fafafa"></polygon><polygon points="216 101.16 214.93 101.78 214.93 98.79 216 98.17 216 101.16" style="fill:#fafafa"></polygon><polygon points="217.69 100.18 216.63 100.8 216.63 96.68 217.69 96.06 217.69 100.18" style="fill:#fafafa"></polygon><polygon points="219.39 99.2 218.32 99.82 218.32 94.6 219.39 93.99 219.39 99.2" style="fill:#6366F1"></polygon><path d="M226.84,89.55A8,8,0,0,0,224,92.71l.71.56a6,6,0,0,1,2.12-2.38,1.9,1.9,0,0,1,2.13-.07l.71-1.38A2.54,2.54,0,0,0,226.84,89.55ZM225,93.49l.65.52a3.48,3.48,0,0,1,1.2-1.35,1.07,1.07,0,0,1,1.21,0l.65-1.26a1.63,1.63,0,0,0-1.86.06A5.16,5.16,0,0,0,225,93.49Zm1,.76.89.72.9-1.77a.82.82,0,0,0-.9,0A2.4,2.4,0,0,0,226,94.25Z" style="fill:#fafafa"></path><path d="M239.75,82.23c.38-.22.69,0,.69.53v3.37a1.66,1.66,0,0,1-.69,1.32l-6,3.47c-.38.23-.69,0-.69-.52V87a1.66,1.66,0,0,1,.69-1.32l6-3.48m0-.29-6,3.48a2.19,2.19,0,0,0-.91,1.74v3.36c0,.67.41,1,.91.69l6-3.47a2.19,2.19,0,0,0,.91-1.74V82.63c0-.67-.41-1-.91-.69Z" style="fill:#6366F1"></path><path d="M237.31,88l-3.39,2c-.15.08-.28,0-.28-.22V87a.69.69,0,0,1,.28-.54l3.39-2c.16-.09.28,0,.28.21v2.79A.66.66,0,0,1,237.31,88Z" style="fill:#fafafa"></path><path d="M241.3,84.86l-.24.14V83.17l.24-.13c.13-.08.24.26.24.77A1.68,1.68,0,0,1,241.3,84.86Z" style="fill:#6366F1"></path><path d="M242,74.31h0c2.41,0,3.85,2,3.85,5.22V368.41a14.33,14.33,0,0,1-6.38,11.07L123.17,446.64a5.26,5.26,0,0,1-2.59.82c-1.76,0-2.81-1.47-2.81-3.93v-291a14.39,14.39,0,0,1,4.5-9.63l.22-.2c.13-.13.27-.25.38-.35a10.73,10.73,0,0,1,1.28-.87l32.72-18.9,2.13-1.22a1,1,0,0,1,.47-.17c.19,0,.19.49.19.55a2.24,2.24,0,0,0,2.19,2.46,3.09,3.09,0,0,0,1.56-.47l38.13-22a5.9,5.9,0,0,0,2.77-4.62,3.86,3.86,0,0,1,1.5-2.78l.14-.08,32-18.48.68-.39a6.94,6.94,0,0,1,3.38-1m0-1a7.86,7.86,0,0,0-3.87,1.18l-.68.4-32,18.47-.22.14a4.82,4.82,0,0,0-1.91,3.57,4.88,4.88,0,0,1-2.28,3.77l-38.13,22a2.14,2.14,0,0,1-1.07.34c-.72,0-1.21-.54-1.21-1.48s-.48-1.53-1.17-1.53a1.94,1.94,0,0,0-1,.3c-1.18.67-2.13,1.23-2.13,1.23l-32.72,18.89a11.24,11.24,0,0,0-1.4,1c-.22.18-.43.38-.65.58a15.35,15.35,0,0,0-4.82,10.36v291c0,3.11,1.54,4.91,3.79,4.91a6.26,6.26,0,0,0,3.08-.95L240,380.33a15.23,15.23,0,0,0,6.87-11.92V79.53c0-3.92-2-6.2-4.83-6.2Z" style="fill:#6366F1"></path></g><g id="freepik--Text--inject-34"><path d="M133.62,187.53a.12.12,0,0,1,.17,0,.29.29,0,0,1,.07.22v1a.67.67,0,0,1-.07.31.46.46,0,0,1-.17.21l-1.62.93v7.6a.66.66,0,0,1-.07.3.54.54,0,0,1-.17.21l-.73.42c-.07,0-.13,0-.17,0a.29.29,0,0,1-.08-.22V190.9l-1.62.93a.12.12,0,0,1-.17,0,.34.34,0,0,1-.07-.22v-1a.82.82,0,0,1,.07-.3.54.54,0,0,1,.17-.21Z" style="fill:#455a64"></path><path d="M135.94,188.54a1.83,1.83,0,0,1,.9-.28,1.06,1.06,0,0,1,.69.25,1.83,1.83,0,0,1,.47.7,3.65,3.65,0,0,1,.2,1.08,2.73,2.73,0,0,1,0,.31v.77a3.11,3.11,0,0,1,0,.32A6.06,6.06,0,0,1,138,193a6.48,6.48,0,0,1-.46,1.23,5.37,5.37,0,0,1-.69,1,3.53,3.53,0,0,1-.9.75,1.75,1.75,0,0,1-.89.29,1.15,1.15,0,0,1-.7-.25,1.61,1.61,0,0,1-.46-.69,4.06,4.06,0,0,1-.21-1.08c0-.08,0-.18,0-.3s0-.25,0-.38,0-.26,0-.39,0-.24,0-.33a5.87,5.87,0,0,1,.21-1.3,6.33,6.33,0,0,1,.46-1.24,5.56,5.56,0,0,1,.7-1.06A3.32,3.32,0,0,1,135.94,188.54ZM137,191a1.88,1.88,0,0,0-.13-.64.56.56,0,0,0-.26-.3.53.53,0,0,0-.33,0,1.3,1.3,0,0,0-.37.16,2.17,2.17,0,0,0-.37.27,1.81,1.81,0,0,0-.33.42,2.78,2.78,0,0,0-.26.6,3.52,3.52,0,0,0-.13.79c0,.08,0,.17,0,.28s0,.23,0,.35,0,.24,0,.35,0,.2,0,.26a1.88,1.88,0,0,0,.13.64.68.68,0,0,0,.26.31.46.46,0,0,0,.33,0,1.44,1.44,0,0,0,.37-.15,1.84,1.84,0,0,0,.37-.27,1.81,1.81,0,0,0,.33-.42,2.36,2.36,0,0,0,.26-.6,3.62,3.62,0,0,0,.13-.79,2.18,2.18,0,0,0,0-.28v-.7A2.1,2.1,0,0,0,137,191Z" style="fill:#455a64"></path><path d="M141.76,192.66a1.58,1.58,0,0,1-.5.21,1,1,0,0,1-.38,0,.83.83,0,0,1-.29-.1,1.54,1.54,0,0,1-.18-.16v2.95a.67.67,0,0,1-.08.3.41.41,0,0,1-.17.21l-.68.4a.13.13,0,0,1-.17,0,.28.28,0,0,1-.07-.22v-9.09a.66.66,0,0,1,.07-.3.46.46,0,0,1,.17-.21l.68-.4c.07,0,.13,0,.17,0a.28.28,0,0,1,.08.22v.32a4.11,4.11,0,0,1,.18-.38,3.7,3.7,0,0,1,.29-.44,4.88,4.88,0,0,1,.38-.43,3.08,3.08,0,0,1,.5-.37,1.28,1.28,0,0,1,.82-.2,1,1,0,0,1,.62.36,2.2,2.2,0,0,1,.41.81,4.73,4.73,0,0,1,.16,1.13c0,.13,0,.29,0,.48s0,.35,0,.49a7.66,7.66,0,0,1-.16,1.32,7.26,7.26,0,0,1-.41,1.27,5.16,5.16,0,0,1-.62,1.08A2.71,2.71,0,0,1,141.76,192.66Zm.84-3.83a5.08,5.08,0,0,0,0-.78c0-.58-.15-.94-.36-1.09a.67.67,0,0,0-.75,0,2,2,0,0,0-.74.83,3.27,3.27,0,0,0-.34,1.35,4.28,4.28,0,0,0,0,.54,3.71,3.71,0,0,0,0,.51,1.27,1.27,0,0,0,.34.94.63.63,0,0,0,.74,0,2,2,0,0,0,.75-.83A3.45,3.45,0,0,0,142.6,188.83Z" style="fill:#455a64"></path><path d="M149.5,178.36c.75-.44,1.32-.5,1.71-.19a2.36,2.36,0,0,1,.59,1.9,6,6,0,0,1-.3,1.9,4.78,4.78,0,0,1-.89,1.57l1.24,2.7a.35.35,0,0,1,0,.14.61.61,0,0,1-.06.25.35.35,0,0,1-.14.17l-.76.44c-.12.07-.21.08-.27,0a.38.38,0,0,1-.12-.17l-1.18-2.55-1.2.69v3.23a.66.66,0,0,1-.07.3.44.44,0,0,1-.17.22l-.73.42a.14.14,0,0,1-.17,0,.28.28,0,0,1-.07-.22v-8.95a.66.66,0,0,1,.07-.3.54.54,0,0,1,.17-.21Zm-1.35,5.14,1.31-.75a2.58,2.58,0,0,0,.82-.75,2.24,2.24,0,0,0,.3-1.23q0-.78-.3-.87a1.2,1.2,0,0,0-.82.21l-1.31.76Z" style="fill:#455a64"></path><path d="M152.58,182.68a8.06,8.06,0,0,1,.15-1.55,7.22,7.22,0,0,1,.45-1.45,5.38,5.38,0,0,1,.69-1.2,3.36,3.36,0,0,1,.92-.82,1.52,1.52,0,0,1,.91-.24,1.09,1.09,0,0,1,.7.36,2,2,0,0,1,.44.86,4.43,4.43,0,0,1,.16,1.26v.63a.66.66,0,0,1-.07.3.54.54,0,0,1-.17.21l-3,1.74a1.23,1.23,0,0,0,.09.51.48.48,0,0,0,.23.27.45.45,0,0,0,.33.06,1,1,0,0,0,.39-.14,2,2,0,0,0,.47-.36,2.13,2.13,0,0,0,.29-.4l.16-.25a.94.94,0,0,1,.18-.14l.71-.41a.14.14,0,0,1,.18,0,.28.28,0,0,1,.07.22,2.24,2.24,0,0,1-.14.58,4.63,4.63,0,0,1-.39.82,5.18,5.18,0,0,1-.65.87,3.39,3.39,0,0,1-.88.72,1.58,1.58,0,0,1-.92.26,1,1,0,0,1-.69-.37,2.26,2.26,0,0,1-.45-.92A6,6,0,0,1,152.58,182.68Zm2.21-3.36a1.68,1.68,0,0,0-.45.38,3,3,0,0,0-.31.48,2.81,2.81,0,0,0-.19.53,2.44,2.44,0,0,0-.09.49l2-1.18c0-.13,0-.26-.07-.4a.74.74,0,0,0-.16-.32.46.46,0,0,0-.3-.13A.87.87,0,0,0,154.79,179.32Z" style="fill:#455a64"></path><path d="M160.53,179.63a.3.3,0,0,0-.06-.22.29.29,0,0,0-.22,0,1.59,1.59,0,0,0-.42.08l-.67.16a1.52,1.52,0,0,1-.66,0,.74.74,0,0,1-.41-.24,1,1,0,0,1-.22-.51,3.17,3.17,0,0,1-.07-.73,3.25,3.25,0,0,1,.13-.89,4.18,4.18,0,0,1,.36-.92,4.34,4.34,0,0,1,.58-.84,3.08,3.08,0,0,1,.79-.65,2.13,2.13,0,0,1,.78-.3,1.1,1.1,0,0,1,.59.06.78.78,0,0,1,.38.36,1.26,1.26,0,0,1,.15.57.56.56,0,0,1-.06.3.55.55,0,0,1-.18.21l-.69.4c-.09.05-.16.07-.2,0l-.15-.09a.38.38,0,0,0-.22,0,1,1,0,0,0-.4.15,2,2,0,0,0-.48.4.86.86,0,0,0-.21.57.42.42,0,0,0,.05.22.21.21,0,0,0,.19.08,1.71,1.71,0,0,0,.39-.05l.64-.15c.54-.14.91-.08,1.13.17a1.77,1.77,0,0,1,.33,1.2,3.28,3.28,0,0,1-.14.89,4.38,4.38,0,0,1-.39.93,4,4,0,0,1-.63.86,3.63,3.63,0,0,1-.84.68,2.18,2.18,0,0,1-.84.31,1.12,1.12,0,0,1-.62-.1.85.85,0,0,1-.38-.39,1.48,1.48,0,0,1-.15-.6.66.66,0,0,1,.07-.3A.42.42,0,0,1,158,181l.7-.41c.09-.05.16-.05.2,0l.15.13a.36.36,0,0,0,.24.08.9.9,0,0,0,.46-.17l.28-.18a3.2,3.2,0,0,0,.27-.25,1.79,1.79,0,0,0,.2-.28A.67.67,0,0,0,160.53,179.63Z" style="fill:#455a64"></path><path d="M164.24,176.94a.9.9,0,0,0,.15.6c.09.12.28.1.55-.06l.55-.32a.14.14,0,0,1,.17,0,.28.28,0,0,1,.07.22v.91a.7.7,0,0,1-.07.31.54.54,0,0,1-.17.21l-.67.38c-.56.33-1,.37-1.3.12s-.45-.8-.45-1.67v-3l-.6.34a.12.12,0,0,1-.17,0,.28.28,0,0,1-.07-.22v-.91a.7.7,0,0,1,.07-.31.54.54,0,0,1,.17-.21l.6-.34v-2.26a.66.66,0,0,1,.07-.3.38.38,0,0,1,.17-.21l.68-.4a.15.15,0,0,1,.18,0,.35.35,0,0,1,.07.23v2.25l1.16-.67a.14.14,0,0,1,.17,0,.28.28,0,0,1,.07.22v.91a.7.7,0,0,1-.07.31.54.54,0,0,1-.17.21l-1.16.67Z" style="fill:#455a64"></path><path d="M166.61,172.75a4.08,4.08,0,0,1,.17-.72,4.69,4.69,0,0,1,.37-.84,4.53,4.53,0,0,1,.58-.82,3.45,3.45,0,0,1,.81-.65,2.07,2.07,0,0,1,.83-.29.87.87,0,0,1,.63.18,1.33,1.33,0,0,1,.41.67,3.9,3.9,0,0,1,.14,1.17v4.08a.66.66,0,0,1-.07.3.46.46,0,0,1-.17.21l-.68.4a.12.12,0,0,1-.17,0,.26.26,0,0,1-.07-.22v-.45a4.31,4.31,0,0,1-.55,1,3,3,0,0,1-.9.8,1.58,1.58,0,0,1-.7.24.69.69,0,0,1-.51-.15,1,1,0,0,1-.32-.5,2.66,2.66,0,0,1-.11-.8,3.47,3.47,0,0,1,.44-1.75,5,5,0,0,1,1.18-1.42l1.47-1.23c0-.38-.09-.6-.25-.67a.71.71,0,0,0-.6.12,1,1,0,0,0-.35.29,2.62,2.62,0,0,0-.25.41,2.21,2.21,0,0,1-.14.24l-.15.12-.84.49a.14.14,0,0,1-.15,0S166.6,172.85,166.61,172.75Zm1.51,3a2.31,2.31,0,0,0,.54-.45,2.85,2.85,0,0,0,.4-.58,3,3,0,0,0,.24-.64,2.32,2.32,0,0,0,.09-.62v-.14l-1.23,1a2.72,2.72,0,0,0-.53.59,1.17,1.17,0,0,0-.16.6c0,.2.06.3.19.32A.74.74,0,0,0,168.12,175.79Z" style="fill:#455a64"></path><path d="M171.71,168.41a.67.67,0,0,1,.07-.31.46.46,0,0,1,.17-.21l.68-.39c.07,0,.13,0,.17,0a.28.28,0,0,1,.08.22v3.52a2.31,2.31,0,0,0,.23,1.2q.22.36.75.06a1.73,1.73,0,0,0,.73-.92,4,4,0,0,0,.25-1.47V166.6a.7.7,0,0,1,.07-.31.54.54,0,0,1,.17-.21l.69-.39a.12.12,0,0,1,.17,0,.34.34,0,0,1,.07.22v6.46a.82.82,0,0,1-.07.3.47.47,0,0,1-.17.21l-.69.4a.14.14,0,0,1-.17,0,.3.3,0,0,1-.07-.23v-.31a6.56,6.56,0,0,1-.51.87,2.52,2.52,0,0,1-.74.68,1.46,1.46,0,0,1-.91.26.86.86,0,0,1-.58-.37,2.28,2.28,0,0,1-.3-.86,7.2,7.2,0,0,1-.09-1.19Z" style="fill:#455a64"></path><path d="M179.44,165.23a1.86,1.86,0,0,0-.78.82,3.1,3.1,0,0,0-.24,1.33V171a.66.66,0,0,1-.07.3.54.54,0,0,1-.17.21l-.69.4a.14.14,0,0,1-.17,0,.32.32,0,0,1-.07-.22V165.2a.82.82,0,0,1,.07-.3.54.54,0,0,1,.17-.21l.69-.39a.12.12,0,0,1,.17,0,.28.28,0,0,1,.07.22v.32a4.59,4.59,0,0,1,.5-.8,2.41,2.41,0,0,1,.7-.59l.4-.23a.13.13,0,0,1,.17,0,.29.29,0,0,1,.08.22v.92a.67.67,0,0,1-.08.3.37.37,0,0,1-.17.21Z" style="fill:#455a64"></path><path d="M180.94,164.47a4.53,4.53,0,0,1,.17-.72,4,4,0,0,1,.37-.83,4.53,4.53,0,0,1,.58-.82,3.22,3.22,0,0,1,.81-.65,1.93,1.93,0,0,1,.83-.29.87.87,0,0,1,.63.18,1.33,1.33,0,0,1,.41.67,4.25,4.25,0,0,1,.14,1.17v4.08a.66.66,0,0,1-.07.3.46.46,0,0,1-.17.21l-.68.39c-.07,0-.13,0-.17,0a.28.28,0,0,1-.08-.22v-.46a3.76,3.76,0,0,1-.54,1,2.84,2.84,0,0,1-.91.81,1.54,1.54,0,0,1-.69.24.74.74,0,0,1-.51-.15,1,1,0,0,1-.32-.51,2.31,2.31,0,0,1-.11-.8,3.5,3.5,0,0,1,.44-1.75,4.78,4.78,0,0,1,1.18-1.41l1.46-1.24q0-.57-.24-.66a.7.7,0,0,0-.6.11,1.17,1.17,0,0,0-.35.3,2.62,2.62,0,0,0-.25.41,1.36,1.36,0,0,1-.14.23.58.58,0,0,1-.15.13l-.84.48a.12.12,0,0,1-.15,0C180.94,164.64,180.93,164.57,180.94,164.47Zm1.5,3a1.94,1.94,0,0,0,.55-.44,2.92,2.92,0,0,0,.4-.59,2.62,2.62,0,0,0,.24-.64,2.23,2.23,0,0,0,.08-.61v-.14l-1.22,1a2.3,2.3,0,0,0-.53.59,1.17,1.17,0,0,0-.16.6c0,.19.06.3.19.32A.78.78,0,0,0,182.44,167.51Z" style="fill:#455a64"></path><path d="M190.47,164a.66.66,0,0,1-.07.3.42.42,0,0,1-.17.21l-.69.4a.14.14,0,0,1-.17,0,.35.35,0,0,1-.07-.23v-3.52a2.09,2.09,0,0,0-.25-1.18c-.17-.24-.43-.25-.77-.05a1.85,1.85,0,0,0-.76.93,3.88,3.88,0,0,0-.27,1.49v3.52a.66.66,0,0,1-.07.3.42.42,0,0,1-.17.21l-.69.4a.14.14,0,0,1-.17,0,.3.3,0,0,1-.07-.23v-6.45a.7.7,0,0,1,.07-.31.54.54,0,0,1,.17-.21l.69-.39a.12.12,0,0,1,.17,0,.29.29,0,0,1,.07.22v.32a5.5,5.5,0,0,1,.55-.91,2.52,2.52,0,0,1,.75-.67,1.54,1.54,0,0,1,.91-.27.88.88,0,0,1,.6.37,2.16,2.16,0,0,1,.32.85,7.08,7.08,0,0,1,.09,1.18Z" style="fill:#455a64"></path><path d="M193.2,160.22a.9.9,0,0,0,.15.6c.1.12.28.1.55-.06l.55-.32a.12.12,0,0,1,.17,0,.26.26,0,0,1,.07.22v.91a.73.73,0,0,1-.07.31.46.46,0,0,1-.17.21l-.67.38c-.56.33-1,.37-1.3.12s-.45-.8-.45-1.67v-3l-.59.34a.14.14,0,0,1-.18,0,.32.32,0,0,1-.07-.22v-.91a.82.82,0,0,1,.07-.31.48.48,0,0,1,.18-.21l.59-.34V154a.73.73,0,0,1,.07-.31.44.44,0,0,1,.17-.2l.69-.4a.14.14,0,0,1,.17,0,.29.29,0,0,1,.07.22v2.26l1.16-.67a.13.13,0,0,1,.17,0,.3.3,0,0,1,.07.23v.91a.73.73,0,0,1-.07.31.39.39,0,0,1-.17.2l-1.16.67Z" style="fill:#455a64"></path><path d="M198.12,157.92a.29.29,0,0,0-.06-.21.28.28,0,0,0-.22-.05,2,2,0,0,0-.42.07l-.67.16a1.5,1.5,0,0,1-.65,0,.69.69,0,0,1-.42-.25,1,1,0,0,1-.22-.5,3.93,3.93,0,0,1-.07-.73,3.61,3.61,0,0,1,.13-.89,4.1,4.1,0,0,1,.37-.93,3.94,3.94,0,0,1,.58-.84,2.84,2.84,0,0,1,.78-.64,2.42,2.42,0,0,1,.79-.31,1.13,1.13,0,0,1,.59.06.86.86,0,0,1,.37.36,1.51,1.51,0,0,1,.16.57.66.66,0,0,1-.07.3.46.46,0,0,1-.18.22l-.69.4a.24.24,0,0,1-.2,0l-.15-.09a.45.45,0,0,0-.22,0,1,1,0,0,0-.4.16,1.83,1.83,0,0,0-.48.4.83.83,0,0,0-.21.56.46.46,0,0,0,.05.23.23.23,0,0,0,.19.08,2.43,2.43,0,0,0,.39-.05l.64-.16c.54-.13.91-.07,1.13.17a1.8,1.8,0,0,1,.33,1.21,3.18,3.18,0,0,1-.13.88,4,4,0,0,1-.4.94,5.05,5.05,0,0,1-.62.86,3.45,3.45,0,0,1-.85.67,2.16,2.16,0,0,1-.84.32,1.07,1.07,0,0,1-.61-.1.89.89,0,0,1-.39-.4,1.47,1.47,0,0,1-.15-.59.73.73,0,0,1,.07-.31.48.48,0,0,1,.18-.21l.69-.4c.09,0,.16-.06.2,0l.16.13a.37.37,0,0,0,.23.09,1,1,0,0,0,.46-.17,2.68,2.68,0,0,0,.55-.43,1.37,1.37,0,0,0,.2-.29A.67.67,0,0,0,198.12,157.92Z" style="fill:#455a64"></path></g><g id="freepik--option-2--inject-34"><polygon points="124.66 212.09 238.4 146.42 238.4 244.61 124.66 310.28 124.66 212.09" style="fill:#fafafa"></polygon><path d="M124.66,310.78a.47.47,0,0,1-.25-.07.5.5,0,0,1-.25-.43V212.09a.49.49,0,0,1,.25-.43L238.15,146a.5.5,0,0,1,.5,0,.5.5,0,0,1,.25.43v98.19a.49.49,0,0,1-.25.43L124.91,310.71A.43.43,0,0,1,124.66,310.78Zm.5-.5h0Zm0-97.9v97L237.9,244.32v-97Z" style="fill:#e0e0e0"></path><polygon points="158.87 285.83 128.72 303.24 128.72 289.05 158.87 271.64 158.87 285.83" style="fill:#e0e0e0"></polygon><path d="M132.37,293.68a1.67,1.67,0,0,0,.21-.52,2,2,0,0,0,0-.4.75.75,0,0,0-.13-.49c-.09-.1-.23-.09-.44,0a1.06,1.06,0,0,0-.42.47,2.63,2.63,0,0,0-.2.67.52.52,0,0,1-.06.2.27.27,0,0,1-.1.11l-.41.24a.11.11,0,0,1-.11,0,.18.18,0,0,1,0-.14,3,3,0,0,1,.13-.76,3.56,3.56,0,0,1,.28-.73,2.85,2.85,0,0,1,.41-.63,1.94,1.94,0,0,1,.52-.44,1,1,0,0,1,.57-.17.62.62,0,0,1,.4.2,1.08,1.08,0,0,1,.24.45,2.35,2.35,0,0,1,.08.6c0,.13,0,.27,0,.39a2.07,2.07,0,0,1-.07.41,4,4,0,0,1-.17.48,5.57,5.57,0,0,1-.3.6l-1,1.94,1.47-.84a.07.07,0,0,1,.1,0,.17.17,0,0,1,0,.13v.58a.41.41,0,0,1,0,.18.2.2,0,0,1-.1.12l-2.47,1.43a.08.08,0,0,1-.1,0s0-.07,0-.13v-.49a.87.87,0,0,1,.05-.28l.09-.19Z" style="fill:#455a64"></path><path d="M136.81,290.74v1.45a5.63,5.63,0,0,1-.1.93,4,4,0,0,1-.24.84,2.69,2.69,0,0,1-.43.71,2.36,2.36,0,0,1-.66.55,1.25,1.25,0,0,1-.65.21.55.55,0,0,1-.43-.22,1.27,1.27,0,0,1-.25-.56,4.78,4.78,0,0,1-.09-.82c0-.2,0-.43,0-.7s0-.5,0-.71a7.3,7.3,0,0,1,.09-.94,4,4,0,0,1,.25-.85,2.75,2.75,0,0,1,.43-.72,2.22,2.22,0,0,1,.65-.56,1.25,1.25,0,0,1,.66-.21.55.55,0,0,1,.43.22,1.26,1.26,0,0,1,.24.56A3.83,3.83,0,0,1,136.81,290.74Zm-2.13,2.64a1.49,1.49,0,0,0,.18.8c.1.15.28.16.52,0a1.14,1.14,0,0,0,.53-.63,3.15,3.15,0,0,0,.18-1c0-.21,0-.44,0-.69s0-.48,0-.68a1.59,1.59,0,0,0-.18-.8c-.1-.16-.28-.16-.53,0a1.17,1.17,0,0,0-.52.63,2.9,2.9,0,0,0-.18,1c0,.21,0,.44,0,.69S134.67,293.18,134.68,293.38Z" style="fill:#455a64"></path><path d="M137.58,291.91a.08.08,0,0,1-.1,0,.22.22,0,0,1,0-.13v-.54a.53.53,0,0,1,0-.17.36.36,0,0,1,.1-.13l1.62-.93a.08.08,0,0,1,.1,0s0,.07,0,.13v.54a.38.38,0,0,1,0,.17.34.34,0,0,1-.1.13Z" style="fill:#455a64"></path><path d="M142.4,285.38s.08,0,.1,0a.17.17,0,0,1,.05.13v.58a.72.72,0,0,1,0,.19,1.42,1.42,0,0,0-.08.18l-.77,1.7a.86.86,0,0,1,.43-.07.55.55,0,0,1,.33.14.88.88,0,0,1,.21.37,2.06,2.06,0,0,1,.07.6,3.1,3.1,0,0,1-.1.81,4,4,0,0,1-.3.73,3.56,3.56,0,0,1-.46.62,2.46,2.46,0,0,1-.57.45,1.56,1.56,0,0,1-.64.23.76.76,0,0,1-.46-.08.66.66,0,0,1-.27-.32,1.2,1.2,0,0,1-.11-.47.24.24,0,0,1,0-.18.2.2,0,0,1,.1-.12l.42-.24a.06.06,0,0,1,.08,0,.3.3,0,0,1,.07.11.48.48,0,0,0,.09.14.21.21,0,0,0,.14.07.44.44,0,0,0,.22,0,1.35,1.35,0,0,0,.32-.14,1.39,1.39,0,0,0,.52-.5,1.2,1.2,0,0,0,.2-.68c0-.25-.06-.38-.2-.41a.74.74,0,0,0-.52.14l-.44.25a.09.09,0,0,1-.1,0,.18.18,0,0,1,0-.13v-.58a.43.43,0,0,1,0-.19,1.59,1.59,0,0,1,.08-.18l.74-1.63-1.46.85s-.08,0-.1,0a.17.17,0,0,1-.05-.13V287a.41.41,0,0,1,.05-.18.2.2,0,0,1,.1-.12Z" style="fill:#455a64"></path><path d="M146.09,285.38c0,.1,0,.21,0,.34v.76c0,.13,0,.24,0,.35a7,7,0,0,1-.09.93,3.4,3.4,0,0,1-.25.84,2.69,2.69,0,0,1-.43.71,2.32,2.32,0,0,1-.65.55,1.25,1.25,0,0,1-.66.21.57.57,0,0,1-.43-.22,1.26,1.26,0,0,1-.24-.56,4.78,4.78,0,0,1-.09-.82c0-.2,0-.43,0-.7s0-.5,0-.71a7.3,7.3,0,0,1,.09-.94,4,4,0,0,1,.24-.85,3.05,3.05,0,0,1,.43-.72,2.39,2.39,0,0,1,.66-.56,1.22,1.22,0,0,1,.65-.21.55.55,0,0,1,.43.22,1.16,1.16,0,0,1,.25.56A4.67,4.67,0,0,1,146.09,285.38ZM144,288a1.71,1.71,0,0,0,.18.8c.11.15.28.16.53,0a1.17,1.17,0,0,0,.52-.63,3.13,3.13,0,0,0,.19-1c0-.21,0-.44,0-.69s0-.48,0-.68a1.57,1.57,0,0,0-.19-.8c-.1-.16-.28-.16-.52,0a1.18,1.18,0,0,0-.53.63,3.45,3.45,0,0,0-.18,1c0,.21,0,.44,0,.69S144,287.81,144,288Z" style="fill:#455a64"></path><path d="M149.75,284.05l1-3.27.07-.17a.4.4,0,0,1,.16-.18l.36-.21a.08.08,0,0,1,.1,0,.17.17,0,0,1,0,.13v5.26a.39.39,0,0,1,0,.18.25.25,0,0,1-.1.12l-.43.25a.08.08,0,0,1-.1,0s0-.07,0-.13v-3.18l-.69,2.23-.07.18a.44.44,0,0,1-.13.14l-.27.15a.11.11,0,0,1-.12,0,.25.25,0,0,1-.08-.1l-.69-1.43v3.18a.39.39,0,0,1,0,.18.25.25,0,0,1-.1.12l-.43.25a.09.09,0,0,1-.1,0,.2.2,0,0,1,0-.14v-5.26a.39.39,0,0,1,0-.18.25.25,0,0,1,.1-.12l.36-.21c.07,0,.13,0,.16,0l.07.09Z" style="fill:#455a64"></path><path d="M152.45,285.28a.08.08,0,0,1-.1,0s0-.07,0-.13v-5.26a.39.39,0,0,1,0-.18.25.25,0,0,1,.1-.12l.43-.25a.08.08,0,0,1,.1,0,.17.17,0,0,1,0,.13v5.26a.39.39,0,0,1,0,.18.25.25,0,0,1-.1.12Z" style="fill:#455a64"></path><path d="M156.25,283.09c-.06,0-.11,0-.14,0L156,283l-1.48-2.53v3.35a.39.39,0,0,1,0,.18.34.34,0,0,1-.1.13l-.43.24a.08.08,0,0,1-.1,0,.17.17,0,0,1,0-.13V279a.37.37,0,0,1,0-.17.28.28,0,0,1,.1-.13l.37-.21c.06,0,.1,0,.14,0l.06.08,1.49,2.53v-3.36a.33.33,0,0,1,0-.17.28.28,0,0,1,.1-.13l.43-.24s.07,0,.1,0a.17.17,0,0,1,0,.13v5.26a.39.39,0,0,1,0,.18.34.34,0,0,1-.1.13Z" style="fill:#455a64"></path><polygon points="196.6 264.04 166.46 281.45 166.46 267.27 196.6 249.86 196.6 264.04" style="fill:#e0e0e0"></polygon><path d="M170.22,275a.08.08,0,0,1-.1,0s0-.07,0-.13v-1l-1.64,1s-.08,0-.1,0a.17.17,0,0,1,0-.13v-.58a.78.78,0,0,1,0-.22c0-.07,0-.15.08-.23l1.62-4a.6.6,0,0,1,.22-.33l.4-.24a.08.08,0,0,1,.1,0,.17.17,0,0,1,0,.13v3.26l.46-.26a.08.08,0,0,1,.1,0,.17.17,0,0,1,0,.13v.58a.39.39,0,0,1,0,.18.25.25,0,0,1-.1.12l-.46.27v1a.39.39,0,0,1,0,.18.25.25,0,0,1-.1.12Zm-.14-2.14v-1.74l-.91,2.26Z" style="fill:#455a64"></path><path d="M172.49,272.47s.08,0,.1,0a.17.17,0,0,1,0,.13v.8a.41.41,0,0,1,0,.18.2.2,0,0,1-.1.12L172,274a.09.09,0,0,1-.1,0,.18.18,0,0,1,0-.14v-.79a.39.39,0,0,1,0-.18.25.25,0,0,1,.1-.12Z" style="fill:#455a64"></path><path d="M173.46,267.67a.58.58,0,0,1,0-.18.32.32,0,0,1,.1-.12l2-1.15s.08,0,.1,0a.15.15,0,0,1,.05.12v.58a.41.41,0,0,1-.05.18.27.27,0,0,1-.1.13l-1.48.86-.06,1.07a1.75,1.75,0,0,1,.28-.27l.23-.15a1.34,1.34,0,0,1,.55-.19.6.6,0,0,1,.44.11.79.79,0,0,1,.29.42,2.18,2.18,0,0,1,.11.74,4.08,4.08,0,0,1-.11,1,3,3,0,0,1-.3.78,2.71,2.71,0,0,1-.44.61,2.63,2.63,0,0,1-.54.42,1.65,1.65,0,0,1-.62.23.63.63,0,0,1-.44-.11.77.77,0,0,1-.26-.36,1.8,1.8,0,0,1-.1-.55.39.39,0,0,1,0-.18.26.26,0,0,1,.11-.12l.43-.25a.08.08,0,0,1,.09,0,.15.15,0,0,1,.06.11.45.45,0,0,0,.1.24.26.26,0,0,0,.16.1.47.47,0,0,0,.2,0,1.58,1.58,0,0,0,.23-.11,1.29,1.29,0,0,0,.49-.54,1.7,1.7,0,0,0,.18-.79.6.6,0,0,0-.18-.51.44.44,0,0,0-.49,0,1.35,1.35,0,0,0-.25.18l-.15.17a1,1,0,0,1-.11.15.43.43,0,0,1-.12.11l-.48.28s-.08,0-.1,0a.17.17,0,0,1,0-.13Z" style="fill:#455a64"></path><path d="M183.85,267.47a.09.09,0,0,1,.1,0,.17.17,0,0,1,0,.13v.53a.39.39,0,0,1,0,.18.34.34,0,0,1-.1.13.66.66,0,0,1-1.09-.36,3.88,3.88,0,0,1-.24-1.06c0-.45-.07-1-.07-1.59s0-1.16.07-1.66a7.56,7.56,0,0,1,.24-1.33,3.54,3.54,0,0,1,.43-1,2,2,0,0,1,.66-.64.08.08,0,0,1,.1,0,.17.17,0,0,1,0,.13v.54a.35.35,0,0,1,0,.17.34.34,0,0,1-.1.13,1.16,1.16,0,0,0-.35.43,2.72,2.72,0,0,0-.22.68,7,7,0,0,0-.11.93c0,.35,0,.75,0,1.19s0,.84,0,1.17a4.81,4.81,0,0,0,.11.81.82.82,0,0,0,.22.43A.33.33,0,0,0,183.85,267.47Z" style="fill:#455a64"></path><path d="M184.11,263.14a.26.26,0,0,1,0-.14.48.48,0,0,1,.06-.18l1.15-2.06a1,1,0,0,1,.08-.14.24.24,0,0,1,.1-.1l.41-.24a.09.09,0,0,1,.1,0,.18.18,0,0,1,.05.14v5.26a.34.34,0,0,1-.05.17.2.2,0,0,1-.1.13l-.43.25a.08.08,0,0,1-.1,0,.22.22,0,0,1,0-.13v-4l-.75,1.33a.27.27,0,0,1-.1.11.1.1,0,0,1-.1,0Z" style="fill:#455a64"></path><path d="M186.91,259.9a.41.41,0,0,1,.05-.18.25.25,0,0,1,.1-.12l2-1.15a.08.08,0,0,1,.1,0,.17.17,0,0,1,0,.13v.58a.39.39,0,0,1,0,.18.25.25,0,0,1-.1.12l-1.49.86-.06,1.07a1.63,1.63,0,0,1,.28-.26L188,261a1.42,1.42,0,0,1,.55-.2.6.6,0,0,1,.44.11.91.91,0,0,1,.3.42,2.23,2.23,0,0,1,.1.75,4.06,4.06,0,0,1-.11.95,3.41,3.41,0,0,1-.29.78,2.61,2.61,0,0,1-.45.61,2.18,2.18,0,0,1-.54.42,1.49,1.49,0,0,1-.62.23.63.63,0,0,1-.44-.1.76.76,0,0,1-.25-.37,1.54,1.54,0,0,1-.1-.55.3.3,0,0,1,0-.18.25.25,0,0,1,.1-.12l.43-.25a.07.07,0,0,1,.09,0,.17.17,0,0,1,.06.11.59.59,0,0,0,.1.25.29.29,0,0,0,.16.09.28.28,0,0,0,.2,0,.8.8,0,0,0,.23-.11,1.15,1.15,0,0,0,.49-.53,1.66,1.66,0,0,0,.19-.8.59.59,0,0,0-.19-.51c-.12-.09-.28-.08-.49,0s-.18.13-.25.18a2,2,0,0,0-.15.18l-.1.14a.6.6,0,0,1-.12.11l-.49.28a.08.08,0,0,1-.1,0,.2.2,0,0,1,0-.14Z" style="fill:#455a64"></path><path d="M192.44,256.49a.08.08,0,0,1,.1,0,.17.17,0,0,1,0,.13v.58a.46.46,0,0,1,0,.19,1.59,1.59,0,0,1-.08.18l-.77,1.7a1,1,0,0,1,.43-.07.55.55,0,0,1,.33.14.78.78,0,0,1,.22.38,2.45,2.45,0,0,1,.07.59,3.1,3.1,0,0,1-.11.81,3,3,0,0,1-.76,1.35,2.46,2.46,0,0,1-.57.45,1.7,1.7,0,0,1-.64.24.79.79,0,0,1-.45-.09.63.63,0,0,1-.28-.32,1.35,1.35,0,0,1-.11-.46.27.27,0,0,1,0-.18.25.25,0,0,1,.1-.12l.42-.25a.06.06,0,0,1,.09,0,.72.72,0,0,1,.07.11.57.57,0,0,0,.08.13.23.23,0,0,0,.14.07.42.42,0,0,0,.22,0,1.27,1.27,0,0,0,.32-.15,1.49,1.49,0,0,0,.53-.5,1.27,1.27,0,0,0,.19-.68c0-.24-.06-.38-.19-.41a.81.81,0,0,0-.53.14l-.43.26s-.08,0-.1,0a.17.17,0,0,1-.05-.13V260a.72.72,0,0,1,0-.19l.08-.18.74-1.62-1.46.84a.08.08,0,0,1-.1,0,.17.17,0,0,1,0-.13v-.58a.39.39,0,0,1,0-.18.25.25,0,0,1,.1-.12Z" style="fill:#455a64"></path><path d="M193.27,262a1.18,1.18,0,0,0,.35-.43,2.65,2.65,0,0,0,.21-.67,6.08,6.08,0,0,0,.11-.94c0-.36,0-.75,0-1.2s0-.83,0-1.16a4,4,0,0,0-.11-.81.82.82,0,0,0-.21-.42.31.31,0,0,0-.35,0,.08.08,0,0,1-.1,0,.14.14,0,0,1,0-.12v-.54a.41.41,0,0,1,0-.18.25.25,0,0,1,.1-.12.79.79,0,0,1,.66-.14.82.82,0,0,1,.43.49,3.58,3.58,0,0,1,.23,1.06,14.55,14.55,0,0,1,.07,1.58c0,.62,0,1.17-.07,1.67a6.92,6.92,0,0,1-.23,1.33,3.74,3.74,0,0,1-.43,1,2,2,0,0,1-.66.63.08.08,0,0,1-.1,0,.16.16,0,0,1,0-.13v-.53a.41.41,0,0,1,0-.18A.34.34,0,0,1,193.27,262Z" style="fill:#455a64"></path><polygon points="179.2 263.85 179.81 265.41 181.19 264.93 180.19 267 180.43 268.98 179.2 268.69 177.96 270.4 178.2 268.15 177.2 267.23 178.58 266.13 179.2 263.85" style="fill:#6366F1"></polygon><polygon points="234.34 242.26 204.19 259.67 204.19 245.48 234.34 228.07 234.34 242.26" style="fill:#e0e0e0"></polygon><path d="M216.2,242.75a.93.93,0,0,1,.46,0,.66.66,0,0,1,.32.17,1,1,0,0,1,.21.31,1.27,1.27,0,0,1,.07.38.24.24,0,0,1,0,.18.2.2,0,0,1-.1.12l-.37.21c-.06,0-.1,0-.13,0a.21.21,0,0,1-.08-.1.49.49,0,0,0-.24-.21.62.62,0,0,0-.48.12,1.71,1.71,0,0,0-.27.2,1.64,1.64,0,0,0-.21.25,1.2,1.2,0,0,0-.15.3,1,1,0,0,0-.05.3.45.45,0,0,0,.06.27.24.24,0,0,0,.19.1,1,1,0,0,0,.33,0l.49-.12a1.85,1.85,0,0,1,.54-.06.65.65,0,0,1,.36.13.7.7,0,0,1,.2.35,2.23,2.23,0,0,1,.06.56,2.87,2.87,0,0,1-.08.64,3.2,3.2,0,0,1-.23.63,3,3,0,0,1-.37.58,2.84,2.84,0,0,1-.49.49v.55a.39.39,0,0,1,0,.18.25.25,0,0,1-.1.12l-.43.25a.08.08,0,0,1-.1,0,.17.17,0,0,1,0-.13v-.55a1.22,1.22,0,0,1-.45.06.7.7,0,0,1-.61-.42,1.24,1.24,0,0,1-.11-.51.3.3,0,0,1,0-.18.25.25,0,0,1,.1-.12l.37-.21c.06,0,.11-.05.14,0a.14.14,0,0,1,.08.1.65.65,0,0,0,.09.16.24.24,0,0,0,.14.1.57.57,0,0,0,.23,0,1.39,1.39,0,0,0,.33-.14l.31-.22a1.46,1.46,0,0,0,.44-.59,1,1,0,0,0,.07-.35.34.34,0,0,0-.08-.25.29.29,0,0,0-.22-.07,2.13,2.13,0,0,0-.37.07l-.52.1a1.53,1.53,0,0,1-.46,0,.55.55,0,0,1-.33-.14.69.69,0,0,1-.19-.35,2.38,2.38,0,0,1-.06-.59,2.73,2.73,0,0,1,.07-.64,4.44,4.44,0,0,1,.22-.61,3.38,3.38,0,0,1,.34-.55,3.12,3.12,0,0,1,.43-.46v-.55a.39.39,0,0,1,0-.18.25.25,0,0,1,.1-.12l.43-.25a.08.08,0,0,1,.1,0,.17.17,0,0,1,0,.13Z" style="fill:#455a64"></path><path d="M219.61,240.78a.93.93,0,0,1,.46,0,.74.74,0,0,1,.33.17,1.1,1.1,0,0,1,.2.31,1.72,1.72,0,0,1,.08.38.39.39,0,0,1,0,.18.26.26,0,0,1-.11.12l-.37.21c-.06,0-.1,0-.13,0a.21.21,0,0,1-.08-.1.49.49,0,0,0-.24-.21.62.62,0,0,0-.48.12,1.64,1.64,0,0,0-.26.2,1.27,1.27,0,0,0-.22.25,1.68,1.68,0,0,0-.15.3,1,1,0,0,0,0,.3.45.45,0,0,0,.06.27.24.24,0,0,0,.19.1,1,1,0,0,0,.33,0l.49-.12a1.88,1.88,0,0,1,.54-.06.59.59,0,0,1,.36.14.67.67,0,0,1,.2.34,2.23,2.23,0,0,1,.06.56,2.39,2.39,0,0,1-.08.64,3.2,3.2,0,0,1-.23.63,3.5,3.5,0,0,1-.36.58,3.31,3.31,0,0,1-.5.49v.55a.39.39,0,0,1,0,.18.25.25,0,0,1-.1.12l-.43.25a.08.08,0,0,1-.1,0,.17.17,0,0,1,0-.13V247a1.22,1.22,0,0,1-.45.06.7.7,0,0,1-.61-.42,1.24,1.24,0,0,1-.11-.51.39.39,0,0,1,0-.18.25.25,0,0,1,.1-.12l.37-.21c.06,0,.11-.05.14,0a.14.14,0,0,1,.08.1,1.29,1.29,0,0,0,.09.16.28.28,0,0,0,.14.1.57.57,0,0,0,.23,0,1.39,1.39,0,0,0,.33-.14l.31-.22a1.33,1.33,0,0,0,.26-.27A1.65,1.65,0,0,0,220,245a.81.81,0,0,0,.07-.35.39.39,0,0,0-.07-.25.29.29,0,0,0-.23-.06,1.48,1.48,0,0,0-.37.06l-.52.1a1.53,1.53,0,0,1-.46,0,.55.55,0,0,1-.33-.14.78.78,0,0,1-.19-.35,2.38,2.38,0,0,1-.06-.59,2.29,2.29,0,0,1,.08-.64,2.79,2.79,0,0,1,.22-.61,3.08,3.08,0,0,1,.33-.55,3.12,3.12,0,0,1,.43-.46v-.55a.39.39,0,0,1,0-.18.25.25,0,0,1,.1-.12l.43-.25a.08.08,0,0,1,.1,0,.17.17,0,0,1,0,.13Z" style="fill:#455a64"></path><path d="M223,238.81a.89.89,0,0,1,.45,0,.74.74,0,0,1,.33.17.92.92,0,0,1,.2.31,1.29,1.29,0,0,1,.08.38.39.39,0,0,1,0,.18.32.32,0,0,1-.1.12l-.37.21c-.06,0-.11,0-.14,0a.21.21,0,0,1-.08-.1.39.39,0,0,0-.24-.21.62.62,0,0,0-.48.12,1.64,1.64,0,0,0-.26.2,1.71,1.71,0,0,0-.22.25,1.68,1.68,0,0,0-.15.3,1,1,0,0,0,0,.3.45.45,0,0,0,.06.27.24.24,0,0,0,.19.1,1,1,0,0,0,.33,0l.5-.12a1.82,1.82,0,0,1,.53-.06.65.65,0,0,1,.36.13.72.72,0,0,1,.21.35,2.9,2.9,0,0,1,.05.56,2.85,2.85,0,0,1-.07.64,4,4,0,0,1-.23.63,3.56,3.56,0,0,1-.37.58,3.78,3.78,0,0,1-.49.49v.55a.41.41,0,0,1-.05.18.2.2,0,0,1-.1.12l-.42.25a.09.09,0,0,1-.11,0,.22.22,0,0,1,0-.13V245a1.22,1.22,0,0,1-.45.06.62.62,0,0,1-.36-.12.75.75,0,0,1-.25-.3,1.24,1.24,0,0,1-.11-.51.39.39,0,0,1,0-.18.26.26,0,0,1,.11-.12l.37-.21c.06,0,.1-.05.13,0s.06,0,.08.1l.09.16a.31.31,0,0,0,.15.1.52.52,0,0,0,.22,0,1.63,1.63,0,0,0,.34-.14l.3-.22a1.33,1.33,0,0,0,.26-.27,1.14,1.14,0,0,0,.18-.32.81.81,0,0,0,.07-.35.34.34,0,0,0-.07-.25.32.32,0,0,0-.23-.07,2.32,2.32,0,0,0-.37.07l-.51.1a1.6,1.6,0,0,1-.47,0,.5.5,0,0,1-.32-.14.7.7,0,0,1-.2-.35,2.38,2.38,0,0,1-.06-.59,2.74,2.74,0,0,1,.08-.64,3.32,3.32,0,0,1,.55-1.16,3.77,3.77,0,0,1,.43-.46v-.55a.58.58,0,0,1,0-.18.26.26,0,0,1,.11-.12l.42-.25s.08,0,.1,0a.17.17,0,0,1,.05.13Z" style="fill:#455a64"></path><path d="M130,279l25.84-14.92c.72-.41,1.3-.1,1.3.69a2.79,2.79,0,0,1-1.3,2.18L130,281.91c-.72.41-1.3.11-1.3-.69A2.79,2.79,0,0,1,130,279Z" style="fill:#e0e0e0"></path><path d="M130.76,269.38l40.6-23.44c1.13-.65,2-.17,2,1.08a4.42,4.42,0,0,1-2,3.43l-40.6,23.44c-1.12.65-2,.17-2-1.08A4.44,4.44,0,0,1,130.76,269.38Z" style="fill:#455a64"></path><polygon points="128.72 265.72 128.72 214.12 234.38 153.12 234.38 204.77 128.72 265.72" style="fill:#6366F1"></polygon><polygon points="128.72 265.72 128.72 214.12 234.38 153.12 234.38 204.77 128.72 265.72" style="fill:#fff;opacity:0.7000000000000001"></polygon></g><g id="freepik--option-1--inject-34"><polygon points="124.66 314.97 238.4 249.3 238.4 347.49 124.66 413.16 124.66 314.97" style="fill:#fafafa"></polygon><path d="M124.66,413.66a.47.47,0,0,1-.25-.07.5.5,0,0,1-.25-.43V315a.52.52,0,0,1,.25-.44l113.74-65.66a.5.5,0,0,1,.5,0,.5.5,0,0,1,.25.43v98.19a.49.49,0,0,1-.25.43L124.91,413.59A.43.43,0,0,1,124.66,413.66Zm.5-.5h0Zm0-97.9v97L237.9,347.2v-97Z" style="fill:#e0e0e0"></path><polygon points="158.87 388.71 128.72 406.12 128.72 391.93 158.87 374.52 158.87 388.71" style="fill:#e0e0e0"></polygon><path d="M132.37,396.56a1.67,1.67,0,0,0,.21-.52,2,2,0,0,0,0-.4.75.75,0,0,0-.13-.49c-.09-.1-.23-.09-.44,0a1.06,1.06,0,0,0-.42.47,2.63,2.63,0,0,0-.2.67.52.52,0,0,1-.06.2.27.27,0,0,1-.1.11l-.41.24a.11.11,0,0,1-.11,0,.18.18,0,0,1,0-.14,3,3,0,0,1,.13-.76,3.89,3.89,0,0,1,.28-.74,3,3,0,0,1,.41-.62,1.94,1.94,0,0,1,.52-.44,1,1,0,0,1,.57-.17.62.62,0,0,1,.4.2,1.08,1.08,0,0,1,.24.45,2.35,2.35,0,0,1,.08.6c0,.13,0,.27,0,.39a2.07,2.07,0,0,1-.07.41,4,4,0,0,1-.17.48,5.57,5.57,0,0,1-.3.6l-1,1.94,1.47-.84a.07.07,0,0,1,.1,0,.17.17,0,0,1,0,.13v.58a.41.41,0,0,1,0,.18.2.2,0,0,1-.1.12l-2.47,1.43a.08.08,0,0,1-.1,0s0-.07,0-.13V400a.87.87,0,0,1,.05-.28l.09-.19Z" style="fill:#455a64"></path><path d="M136.81,393.62v1.45a5.63,5.63,0,0,1-.1.93,4,4,0,0,1-.24.84,2.69,2.69,0,0,1-.43.71,2.36,2.36,0,0,1-.66.55,1.25,1.25,0,0,1-.65.21.55.55,0,0,1-.43-.22,1.27,1.27,0,0,1-.25-.56,4.78,4.78,0,0,1-.09-.82c0-.2,0-.43,0-.7s0-.5,0-.71a7.3,7.3,0,0,1,.09-.94,4,4,0,0,1,.25-.85,2.75,2.75,0,0,1,.43-.72,2.22,2.22,0,0,1,.65-.56A1.25,1.25,0,0,1,136,392a.55.55,0,0,1,.43.22,1.26,1.26,0,0,1,.24.56A3.83,3.83,0,0,1,136.81,393.62Zm-2.13,2.64a1.49,1.49,0,0,0,.18.8c.1.15.28.16.52,0a1.14,1.14,0,0,0,.53-.63,3.15,3.15,0,0,0,.18-1c0-.21,0-.44,0-.69s0-.48,0-.68a1.59,1.59,0,0,0-.18-.8c-.1-.16-.28-.16-.53,0a1.17,1.17,0,0,0-.52.63,2.9,2.9,0,0,0-.18,1c0,.21,0,.44,0,.69S134.67,396.05,134.68,396.26Z" style="fill:#455a64"></path><path d="M137.58,394.79a.08.08,0,0,1-.1,0,.22.22,0,0,1,0-.13v-.54a.58.58,0,0,1,0-.18.42.42,0,0,1,.1-.12l1.62-.93a.08.08,0,0,1,.1,0s0,.07,0,.13v.53a.39.39,0,0,1,0,.18.34.34,0,0,1-.1.13Z" style="fill:#455a64"></path><path d="M142.4,388.26s.08,0,.1,0a.17.17,0,0,1,.05.13V389a.72.72,0,0,1,0,.19l-.08.17-.77,1.71a1,1,0,0,1,.43-.08.63.63,0,0,1,.33.15.88.88,0,0,1,.21.37,2.06,2.06,0,0,1,.07.6,3.1,3.1,0,0,1-.1.81,4,4,0,0,1-.3.73,3.56,3.56,0,0,1-.46.62,2.46,2.46,0,0,1-.57.45,1.56,1.56,0,0,1-.64.23.76.76,0,0,1-.46-.08.66.66,0,0,1-.27-.32,1.2,1.2,0,0,1-.11-.47.24.24,0,0,1,0-.18.2.2,0,0,1,.1-.12l.42-.24a.06.06,0,0,1,.08,0,.3.3,0,0,1,.07.11.48.48,0,0,0,.09.14.26.26,0,0,0,.14.07.44.44,0,0,0,.22,0,1.35,1.35,0,0,0,.32-.14,1.47,1.47,0,0,0,.52-.5,1.2,1.2,0,0,0,.2-.68c0-.25-.06-.38-.2-.41a.74.74,0,0,0-.52.14l-.44.25a.09.09,0,0,1-.1,0,.2.2,0,0,1,0-.14v-.57a.43.43,0,0,1,0-.19,1.59,1.59,0,0,1,.08-.18l.74-1.63-1.46.85s-.08,0-.1,0a.17.17,0,0,1-.05-.13v-.58a.41.41,0,0,1,.05-.18.2.2,0,0,1,.1-.12Z" style="fill:#455a64"></path><path d="M146.09,388.26c0,.1,0,.21,0,.34v.76c0,.13,0,.24,0,.35a7,7,0,0,1-.09.93,3.4,3.4,0,0,1-.25.84,2.69,2.69,0,0,1-.43.71,2.32,2.32,0,0,1-.65.55,1.25,1.25,0,0,1-.66.21.57.57,0,0,1-.43-.22,1.26,1.26,0,0,1-.24-.56,4.78,4.78,0,0,1-.09-.82c0-.2,0-.43,0-.7s0-.5,0-.71a7.3,7.3,0,0,1,.09-.94,4,4,0,0,1,.24-.85,3.05,3.05,0,0,1,.43-.72,2.39,2.39,0,0,1,.66-.56,1.22,1.22,0,0,1,.65-.21.55.55,0,0,1,.43.22,1.16,1.16,0,0,1,.25.56A4.67,4.67,0,0,1,146.09,388.26ZM144,390.9a1.71,1.71,0,0,0,.18.8c.11.15.28.16.53,0a1.17,1.17,0,0,0,.52-.63,3.13,3.13,0,0,0,.19-1c0-.21,0-.44,0-.69s0-.48,0-.68a1.57,1.57,0,0,0-.19-.8c-.1-.16-.28-.16-.52,0a1.18,1.18,0,0,0-.53.63,3.45,3.45,0,0,0-.18,1c0,.21,0,.44,0,.69S144,390.69,144,390.9Z" style="fill:#455a64"></path><path d="M149.75,386.93l1-3.27.07-.17a.4.4,0,0,1,.16-.18l.36-.21a.08.08,0,0,1,.1,0,.17.17,0,0,1,0,.13v5.26a.39.39,0,0,1,0,.18.25.25,0,0,1-.1.12l-.43.25a.08.08,0,0,1-.1,0s0-.07,0-.13v-3.18l-.69,2.23c0,.05,0,.11-.07.17a.39.39,0,0,1-.13.15l-.27.15q-.08,0-.12,0a.18.18,0,0,1-.08-.09l-.69-1.43v3.18a.39.39,0,0,1,0,.18.25.25,0,0,1-.1.12l-.43.25a.08.08,0,0,1-.1,0s0-.07,0-.13v-5.26a.39.39,0,0,1,0-.18.25.25,0,0,1,.1-.12l.36-.21c.07,0,.13,0,.16,0l.07.09Z" style="fill:#455a64"></path><path d="M152.45,388.16a.08.08,0,0,1-.1,0s0-.07,0-.13v-5.26a.39.39,0,0,1,0-.18.25.25,0,0,1,.1-.12l.43-.25a.08.08,0,0,1,.1,0,.17.17,0,0,1,0,.13v5.26a.39.39,0,0,1,0,.18.25.25,0,0,1-.1.12Z" style="fill:#455a64"></path><path d="M156.25,386c-.06,0-.11,0-.14,0l-.07-.07-1.48-2.53v3.35a.39.39,0,0,1,0,.18.34.34,0,0,1-.1.13l-.43.24a.08.08,0,0,1-.1,0,.17.17,0,0,1,0-.13v-5.27a.37.37,0,0,1,0-.17.24.24,0,0,1,.1-.13l.37-.21c.06,0,.1,0,.14,0l.06.08,1.49,2.53V380.6a.39.39,0,0,1,0-.18.31.31,0,0,1,.1-.12l.43-.25a.08.08,0,0,1,.1,0,.17.17,0,0,1,0,.13v5.26a.39.39,0,0,1,0,.18.34.34,0,0,1-.1.13Z" style="fill:#455a64"></path><polygon points="196.6 366.92 166.46 384.33 166.46 370.15 196.6 352.74 196.6 366.92" style="fill:#e0e0e0"></polygon><path d="M170.22,377.9a.08.08,0,0,1-.1,0s0-.07,0-.13v-1l-1.64,1s-.08,0-.1,0a.17.17,0,0,1,0-.13V377a.78.78,0,0,1,0-.22c0-.07,0-.15.08-.23l1.62-4.05a.61.61,0,0,1,.22-.32l.4-.24a.08.08,0,0,1,.1,0,.17.17,0,0,1,0,.13v3.26l.46-.26a.08.08,0,0,1,.1,0,.17.17,0,0,1,0,.13v.58a.39.39,0,0,1,0,.18.25.25,0,0,1-.1.12l-.46.27v1a.39.39,0,0,1,0,.18.25.25,0,0,1-.1.12Zm-.14-2.14V374l-.91,2.26Z" style="fill:#455a64"></path><path d="M172.49,375.35s.08,0,.1,0a.16.16,0,0,1,0,.13v.8a.41.41,0,0,1,0,.18.2.2,0,0,1-.1.12l-.49.28a.09.09,0,0,1-.1,0,.18.18,0,0,1,0-.14v-.79a.39.39,0,0,1,0-.18.34.34,0,0,1,.1-.13Z" style="fill:#455a64"></path><path d="M173.46,370.55a.58.58,0,0,1,0-.18.32.32,0,0,1,.1-.12l2-1.15s.08,0,.1,0a.15.15,0,0,1,.05.12v.58a.41.41,0,0,1-.05.18.27.27,0,0,1-.1.13l-1.48.85-.06,1.08a1.75,1.75,0,0,1,.28-.27l.23-.15a1.34,1.34,0,0,1,.55-.19.6.6,0,0,1,.44.11.79.79,0,0,1,.29.42,2.18,2.18,0,0,1,.11.74,4.08,4.08,0,0,1-.11,1,3,3,0,0,1-.3.78,2.45,2.45,0,0,1-.44.6,2.37,2.37,0,0,1-.54.43,1.65,1.65,0,0,1-.62.23.63.63,0,0,1-.44-.11.77.77,0,0,1-.26-.36,1.8,1.8,0,0,1-.1-.55.39.39,0,0,1,0-.18.26.26,0,0,1,.11-.12l.43-.25a.08.08,0,0,1,.09,0,.15.15,0,0,1,.06.11.45.45,0,0,0,.1.24.26.26,0,0,0,.16.1.47.47,0,0,0,.2,0,1.58,1.58,0,0,0,.23-.11,1.29,1.29,0,0,0,.49-.54,1.73,1.73,0,0,0,.18-.79.6.6,0,0,0-.18-.51.44.44,0,0,0-.49,0,1.35,1.35,0,0,0-.25.18l-.15.17a1,1,0,0,1-.11.15.43.43,0,0,1-.12.11l-.48.28s-.08,0-.1,0a.17.17,0,0,1,0-.13Z" style="fill:#455a64"></path><path d="M183.85,370.35a.09.09,0,0,1,.1,0s0,.07,0,.13V371a.39.39,0,0,1,0,.18.34.34,0,0,1-.1.13.66.66,0,0,1-1.09-.36,3.88,3.88,0,0,1-.24-1.06c0-.45-.07-1-.07-1.59s0-1.16.07-1.66a7.56,7.56,0,0,1,.24-1.33,3.54,3.54,0,0,1,.43-1,2,2,0,0,1,.66-.64.08.08,0,0,1,.1,0,.17.17,0,0,1,0,.13v.54a.35.35,0,0,1,0,.17.34.34,0,0,1-.1.13,1.16,1.16,0,0,0-.35.43,2.59,2.59,0,0,0-.22.68,7,7,0,0,0-.11.93c0,.35,0,.75,0,1.19s0,.84,0,1.17a4.81,4.81,0,0,0,.11.81.82.82,0,0,0,.22.43A.33.33,0,0,0,183.85,370.35Z" style="fill:#455a64"></path><path d="M184.11,366a.26.26,0,0,1,0-.14.48.48,0,0,1,.06-.18l1.15-2.06a1,1,0,0,1,.08-.14.24.24,0,0,1,.1-.1l.41-.24a.07.07,0,0,1,.1,0,.18.18,0,0,1,.05.14v5.26a.34.34,0,0,1-.05.17.2.2,0,0,1-.1.13l-.43.25a.08.08,0,0,1-.1,0,.22.22,0,0,1,0-.13v-4l-.75,1.33a.27.27,0,0,1-.1.11.1.1,0,0,1-.1,0Z" style="fill:#455a64"></path><path d="M186.91,362.78a.41.41,0,0,1,.05-.18.25.25,0,0,1,.1-.12l2-1.15a.08.08,0,0,1,.1,0,.17.17,0,0,1,0,.13v.58a.39.39,0,0,1,0,.18.25.25,0,0,1-.1.12l-1.49.86-.06,1.07a2.3,2.3,0,0,1,.28-.27l.23-.14a1.42,1.42,0,0,1,.55-.2.6.6,0,0,1,.44.11.91.91,0,0,1,.3.42,2.23,2.23,0,0,1,.1.75,4.06,4.06,0,0,1-.11.95,3.41,3.41,0,0,1-.29.78,2.61,2.61,0,0,1-.45.61,2.18,2.18,0,0,1-.54.42,1.49,1.49,0,0,1-.62.23.63.63,0,0,1-.44-.1.76.76,0,0,1-.25-.37,1.54,1.54,0,0,1-.1-.55.3.3,0,0,1,0-.18.25.25,0,0,1,.1-.12l.43-.25a.07.07,0,0,1,.09,0,.17.17,0,0,1,.06.11.59.59,0,0,0,.1.25.29.29,0,0,0,.16.09.28.28,0,0,0,.2,0,.8.8,0,0,0,.23-.11,1.15,1.15,0,0,0,.49-.53,1.66,1.66,0,0,0,.19-.8.59.59,0,0,0-.19-.51c-.12-.09-.28-.08-.49,0s-.18.13-.25.18a2,2,0,0,0-.15.18l-.1.14a.6.6,0,0,1-.12.11l-.49.28a.07.07,0,0,1-.1,0s0-.07,0-.13Z" style="fill:#455a64"></path><path d="M192.44,359.37a.08.08,0,0,1,.1,0,.17.17,0,0,1,0,.13v.58a.46.46,0,0,1,0,.19,1.59,1.59,0,0,1-.08.18l-.77,1.7a1,1,0,0,1,.43-.07.55.55,0,0,1,.33.14.78.78,0,0,1,.22.38,2.45,2.45,0,0,1,.07.59,3.1,3.1,0,0,1-.11.81,3,3,0,0,1-.76,1.35,2.46,2.46,0,0,1-.57.45,1.7,1.7,0,0,1-.64.24.79.79,0,0,1-.45-.09.63.63,0,0,1-.28-.32,1.41,1.41,0,0,1-.11-.46.27.27,0,0,1,0-.18.25.25,0,0,1,.1-.12l.42-.25a.06.06,0,0,1,.09,0,.72.72,0,0,1,.07.11.57.57,0,0,0,.08.13.23.23,0,0,0,.14.07.42.42,0,0,0,.22,0,1.27,1.27,0,0,0,.32-.15,1.49,1.49,0,0,0,.53-.5,1.27,1.27,0,0,0,.19-.68c0-.24-.06-.38-.19-.41a.81.81,0,0,0-.53.14l-.43.25s-.08,0-.1,0a.17.17,0,0,1-.05-.13v-.58a.72.72,0,0,1,0-.19l.08-.18.74-1.62-1.46.84a.08.08,0,0,1-.1,0,.17.17,0,0,1,0-.13V361a.39.39,0,0,1,0-.18.25.25,0,0,1,.1-.12Z" style="fill:#455a64"></path><path d="M193.27,364.91a1.18,1.18,0,0,0,.35-.43,2.6,2.6,0,0,0,.21-.68,5.8,5.8,0,0,0,.11-.93c0-.36,0-.75,0-1.2s0-.83,0-1.16a4,4,0,0,0-.11-.81.82.82,0,0,0-.21-.42.31.31,0,0,0-.35,0,.08.08,0,0,1-.1,0,.15.15,0,0,1,0-.12v-.54a.41.41,0,0,1,0-.18.25.25,0,0,1,.1-.12.79.79,0,0,1,.66-.14.82.82,0,0,1,.43.49,3.51,3.51,0,0,1,.23,1.06,14.55,14.55,0,0,1,.07,1.58c0,.62,0,1.17-.07,1.67a6.92,6.92,0,0,1-.23,1.33,3.74,3.74,0,0,1-.43,1,2,2,0,0,1-.66.63.08.08,0,0,1-.1,0,.16.16,0,0,1,0-.13v-.53a.41.41,0,0,1,0-.18A.34.34,0,0,1,193.27,364.91Z" style="fill:#455a64"></path><polygon points="179.2 366.73 179.81 368.29 181.19 367.81 180.19 369.88 180.43 371.86 179.2 371.57 177.96 373.28 178.2 371.03 177.2 370.11 178.58 369 179.2 366.73" style="fill:#6366F1"></polygon><polygon points="234.34 345.14 204.19 362.55 204.19 348.36 234.34 330.95 234.34 345.14" style="fill:#e0e0e0"></polygon><path d="M216.2,345.63a.93.93,0,0,1,.46,0,.66.66,0,0,1,.32.17,1,1,0,0,1,.21.31,1.27,1.27,0,0,1,.07.38.24.24,0,0,1,0,.18.2.2,0,0,1-.1.12l-.37.21a.14.14,0,0,1-.13,0,.21.21,0,0,1-.08-.1.44.44,0,0,0-.24-.21.62.62,0,0,0-.48.12,1.71,1.71,0,0,0-.27.2,1.64,1.64,0,0,0-.21.25,1.2,1.2,0,0,0-.15.3,1,1,0,0,0-.05.3.45.45,0,0,0,.06.27.24.24,0,0,0,.19.1,1,1,0,0,0,.33,0l.49-.12a1.85,1.85,0,0,1,.54-.06.65.65,0,0,1,.36.13.7.7,0,0,1,.2.35,2.23,2.23,0,0,1,.06.56,2.87,2.87,0,0,1-.08.64,3.2,3.2,0,0,1-.23.63,3,3,0,0,1-.37.58,2.84,2.84,0,0,1-.49.49V352a.39.39,0,0,1,0,.18.25.25,0,0,1-.1.12l-.43.25a.08.08,0,0,1-.1,0,.17.17,0,0,1,0-.13v-.55a1.22,1.22,0,0,1-.45.06.7.7,0,0,1-.36-.12.68.68,0,0,1-.25-.3,1.24,1.24,0,0,1-.11-.51.3.3,0,0,1,0-.18.25.25,0,0,1,.1-.12l.37-.21c.06,0,.11-.05.14,0a.14.14,0,0,1,.08.1.65.65,0,0,0,.09.16.24.24,0,0,0,.14.1.57.57,0,0,0,.23,0,1.39,1.39,0,0,0,.33-.14l.31-.22a1.66,1.66,0,0,0,.26-.27,2,2,0,0,0,.18-.32,1,1,0,0,0,.07-.35.34.34,0,0,0-.08-.25.29.29,0,0,0-.22-.07,2.13,2.13,0,0,0-.37.07l-.52.1a1.53,1.53,0,0,1-.46,0,.55.55,0,0,1-.33-.14.69.69,0,0,1-.19-.35,2.38,2.38,0,0,1-.06-.59,2.73,2.73,0,0,1,.07-.64,4.44,4.44,0,0,1,.22-.61,3.38,3.38,0,0,1,.34-.55,3.12,3.12,0,0,1,.43-.46v-.55a.39.39,0,0,1,0-.18.25.25,0,0,1,.1-.12l.43-.25a.08.08,0,0,1,.1,0,.17.17,0,0,1,0,.13Z" style="fill:#455a64"></path><path d="M219.61,343.66a.93.93,0,0,1,.46,0,.74.74,0,0,1,.33.17,1.1,1.1,0,0,1,.2.31,1.72,1.72,0,0,1,.08.38.39.39,0,0,1,0,.18.26.26,0,0,1-.11.12l-.37.21c-.06,0-.1.05-.13,0a.21.21,0,0,1-.08-.1.49.49,0,0,0-.24-.21.62.62,0,0,0-.48.12,1.64,1.64,0,0,0-.26.2,1.27,1.27,0,0,0-.22.25,1.68,1.68,0,0,0-.15.3,1,1,0,0,0,0,.3.45.45,0,0,0,.06.27.24.24,0,0,0,.19.1,1,1,0,0,0,.33,0l.49-.12a1.88,1.88,0,0,1,.54-.06.65.65,0,0,1,.36.13.7.7,0,0,1,.2.35,2.23,2.23,0,0,1,.06.56,2.39,2.39,0,0,1-.08.64,3.2,3.2,0,0,1-.23.63,3.5,3.5,0,0,1-.36.58,3.31,3.31,0,0,1-.5.49V350a.39.39,0,0,1,0,.18.25.25,0,0,1-.1.12l-.43.25a.08.08,0,0,1-.1,0,.17.17,0,0,1,0-.13v-.55a1.22,1.22,0,0,1-.45.06.7.7,0,0,1-.61-.42,1.24,1.24,0,0,1-.11-.51.39.39,0,0,1,0-.18.25.25,0,0,1,.1-.12l.37-.21c.06,0,.11,0,.14,0a.14.14,0,0,1,.08.1,1.29,1.29,0,0,0,.09.16.28.28,0,0,0,.14.1.57.57,0,0,0,.23,0,1.39,1.39,0,0,0,.33-.14l.31-.22a1.33,1.33,0,0,0,.26-.27,1.65,1.65,0,0,0,.18-.32.81.81,0,0,0,.07-.35.39.39,0,0,0-.07-.25.33.33,0,0,0-.23-.07,2.32,2.32,0,0,0-.37.07l-.52.1a1.53,1.53,0,0,1-.46,0,.55.55,0,0,1-.33-.14.78.78,0,0,1-.19-.35,2.38,2.38,0,0,1-.06-.59,2.29,2.29,0,0,1,.08-.64,3.32,3.32,0,0,1,.55-1.16,3.12,3.12,0,0,1,.43-.46v-.55a.39.39,0,0,1,0-.18.25.25,0,0,1,.1-.12l.43-.25a.08.08,0,0,1,.1,0,.17.17,0,0,1,0,.13Z" style="fill:#455a64"></path><path d="M223,341.69a.89.89,0,0,1,.45,0,.74.74,0,0,1,.33.17.92.92,0,0,1,.2.31,1.29,1.29,0,0,1,.08.38.39.39,0,0,1,0,.18.32.32,0,0,1-.1.12l-.37.21a.16.16,0,0,1-.14,0,.21.21,0,0,1-.08-.1.39.39,0,0,0-.24-.21.62.62,0,0,0-.48.12,1.64,1.64,0,0,0-.26.2,1.71,1.71,0,0,0-.22.25,1.68,1.68,0,0,0-.15.3,1,1,0,0,0,0,.3.45.45,0,0,0,.06.27.24.24,0,0,0,.19.1,1,1,0,0,0,.33,0l.5-.12a1.82,1.82,0,0,1,.53-.06.65.65,0,0,1,.36.13.72.72,0,0,1,.21.35,2.9,2.9,0,0,1,.05.56,2.85,2.85,0,0,1-.07.64,4,4,0,0,1-.23.63,3.56,3.56,0,0,1-.37.58,3.78,3.78,0,0,1-.49.49V348a.41.41,0,0,1-.05.18.2.2,0,0,1-.1.12l-.42.25a.09.09,0,0,1-.11,0,.22.22,0,0,1,0-.13v-.55a1.22,1.22,0,0,1-.45.06.7.7,0,0,1-.36-.12.75.75,0,0,1-.25-.3,1.24,1.24,0,0,1-.11-.51.39.39,0,0,1,0-.18.26.26,0,0,1,.11-.12l.37-.21c.06,0,.1-.05.13,0s.06,0,.08.1l.09.16a.31.31,0,0,0,.15.1.52.52,0,0,0,.22,0,1.63,1.63,0,0,0,.34-.14l.3-.22a1.33,1.33,0,0,0,.26-.27,1.14,1.14,0,0,0,.18-.32.81.81,0,0,0,.07-.35.34.34,0,0,0-.07-.25.32.32,0,0,0-.23-.07,2.32,2.32,0,0,0-.37.07l-.51.1a1.6,1.6,0,0,1-.47,0,.5.5,0,0,1-.32-.14.7.7,0,0,1-.2-.35,2.38,2.38,0,0,1-.06-.59,2.74,2.74,0,0,1,.08-.64,3.32,3.32,0,0,1,.55-1.16,3.77,3.77,0,0,1,.43-.46v-.55a.58.58,0,0,1,0-.18.26.26,0,0,1,.11-.12l.42-.25s.08,0,.1,0a.17.17,0,0,1,.05.13Z" style="fill:#455a64"></path><path d="M130,381.92,155.86,367c.72-.41,1.3-.1,1.3.69a2.79,2.79,0,0,1-1.3,2.18L130,384.79c-.72.41-1.3.11-1.3-.69A2.79,2.79,0,0,1,130,381.92Z" style="fill:#e0e0e0"></path><path d="M130.76,372.26l40.6-23.44c1.13-.65,2-.17,2,1.08a4.42,4.42,0,0,1-2,3.43l-40.6,23.44c-1.12.65-2,.17-2-1.08A4.44,4.44,0,0,1,130.76,372.26Z" style="fill:#455a64"></path><polygon points="128.72 368.6 128.72 317 234.38 256 234.38 307.65 128.72 368.6" style="fill:#6366F1"></polygon><polygon points="128.72 368.6 128.72 317 234.38 256 234.38 307.65 128.72 368.6" style="fill:#fff;opacity:0.7000000000000001"></polygon></g><g id="freepik--Icons--inject-34"><path d="M135.87,418.45,131,426.66l1.22-.7v6.45l2.5-1.45v-4.25l2.3-1.32v4.25l2.5-1.45v-6.45l1.21-.7Z" style="fill:#455a64"></path><path d="M171.48,408.54l-2.23-2.13A8.85,8.85,0,0,0,170,403c0-2.53-1.34-3.82-3-2.87s-3,3.78-3,6.31,1.34,3.82,3,2.87a5.14,5.14,0,0,0,1.7-1.83l2.25,2.16a.2.2,0,0,0,.26,0,.68.68,0,0,0,.27-.32A.84.84,0,0,0,171.48,408.54Zm-4.48-.36c-1.23.71-2.24-.25-2.24-2.14s1-4,2.24-4.73,2.23.26,2.23,2.15S168.23,407.47,167,408.18Z" style="fill:#455a64"></path><path d="M200.12,382.46a1.48,1.48,0,0,1,.74,0,1.05,1.05,0,0,1,.52.28,1.32,1.32,0,0,1,.33.5,2.58,2.58,0,0,1,.13.6.63.63,0,0,1-.07.3.45.45,0,0,1-.16.19l-.6.35c-.1.05-.17.07-.22,0a.36.36,0,0,1-.13-.16.68.68,0,0,0-.39-.34c-.17-.07-.43,0-.77.2a2.07,2.07,0,0,0-.42.31,2.3,2.3,0,0,0-.35.42,2.08,2.08,0,0,0-.24.47,1.67,1.67,0,0,0-.08.49.83.83,0,0,0,.09.44.38.38,0,0,0,.3.15,1.56,1.56,0,0,0,.54,0l.8-.18a2.61,2.61,0,0,1,.87-.1,1,1,0,0,1,.57.21,1.08,1.08,0,0,1,.33.56,3.73,3.73,0,0,1,.1.9,4.61,4.61,0,0,1-.13,1,5.42,5.42,0,0,1-.37,1,5,5,0,0,1-.59.93,5.43,5.43,0,0,1-.8.79v.89a.65.65,0,0,1-.07.29.47.47,0,0,1-.16.2l-.69.4a.12.12,0,0,1-.16,0,.25.25,0,0,1-.07-.21v-.89a1.89,1.89,0,0,1-.72.11,1.29,1.29,0,0,1-.59-.19,1.19,1.19,0,0,1-.4-.5,1.94,1.94,0,0,1-.17-.81.54.54,0,0,1,.06-.3.46.46,0,0,1,.17-.19l.59-.34c.1-.06.17-.08.23-.05a.24.24,0,0,1,.12.16,1.35,1.35,0,0,0,.15.26.39.39,0,0,0,.23.16.61.61,0,0,0,.36,0,1.61,1.61,0,0,0,.54-.22,4.1,4.1,0,0,0,.5-.35,2.12,2.12,0,0,0,.41-.44,2.16,2.16,0,0,0,.29-.51,1.32,1.32,0,0,0,.12-.57.55.55,0,0,0-.12-.4.5.5,0,0,0-.37-.11,3.38,3.38,0,0,0-.6.1l-.82.18a2.23,2.23,0,0,1-.75.05.88.88,0,0,1-.53-.22,1.21,1.21,0,0,1-.31-.56,3.67,3.67,0,0,1-.1-1,4,4,0,0,1,.13-1,5.1,5.1,0,0,1,.89-1.88,4.8,4.8,0,0,1,.69-.73v-.89a.59.59,0,0,1,.07-.29.37.37,0,0,1,.16-.2l.69-.4a.12.12,0,0,1,.16,0,.27.27,0,0,1,.07.21Z" style="fill:#455a64"></path><path d="M231.12,370.82c1.53-.88,2.78-3.53,2.78-5.89s-1.25-3.57-2.78-2.68-2.79,3.53-2.79,5.89S229.58,371.71,231.12,370.82Zm0-7.42c1.12-.65,2,.23,2,2a5.38,5.38,0,0,1-2,4.31c-1.13.65-2-.23-2-2A5.36,5.36,0,0,1,231.12,363.4Zm2.49,6.88-5,2.89a4.83,4.83,0,0,0-1.83,3.88v1.6c0,.31.16.48.37.36l7.91-4.57a1,1,0,0,0,.38-.79v-1.6C235.45,370.49,234.62,369.7,233.61,370.28Zm1.09,3.22-7.16,4.13v-1a2.85,2.85,0,0,1,1.08-2.29l5-2.88c.6-.35,1.09.12,1.09,1Z" style="fill:#455a64"></path></g></g></g><g id="freepik--Character--inject-34"><g id="freepik--character--inject-34"><g id="freepik--Chair--inject-34"><path d="M410.19,299.07V431.68a1.67,1.67,0,0,1-.92,1.52,3.8,3.8,0,0,1-3.51,0,1.7,1.7,0,0,1-.94-1.52V299.07Z" style="fill:#37474f"></path><path d="M378.58,394.51h0c-7.93-4.57-12.29-10.72-12.29-17.3s4.36-12.73,12.29-17.31c15.95-9.21,41.91-9.21,57.86,0,7.93,4.58,12.29,10.72,12.29,17.31s-4.36,12.73-12.29,17.3-18.45,6.91-28.93,6.91S386.55,399.12,378.58,394.51Zm1-32.81c-7.26,4.19-11.25,9.7-11.25,15.51s4,11.31,11.25,15.5h0c15.38,8.88,40.4,8.88,55.78,0,7.26-4.19,11.25-9.7,11.25-15.5s-4-11.32-11.25-15.51c-7.69-4.44-17.79-6.66-27.89-6.66S387.31,357.26,379.62,361.7Z" style="fill:#37474f"></path><path d="M367.37,416l10.06-124.79-.2-.6h5.68L372.72,416.19a1.8,1.8,0,0,1-.92,1.39A3.56,3.56,0,0,1,370,418a3.52,3.52,0,0,1-1.75-.43A1.62,1.62,0,0,1,367.37,416Z" style="fill:#37474f"></path><path d="M447.3,416,437.24,291.16l.19-.6h-5.68L442,416.19a1.78,1.78,0,0,0,.92,1.39,3.8,3.8,0,0,0,3.51,0A1.64,1.64,0,0,0,447.3,416Z" style="fill:#37474f"></path><path d="M433.55,264.28c-14.17-8.18-37.14-8.18-51.3,0-7.09,4.09-10.62,9.45-10.62,14.81v6.58c0,5.36,3.53,10.72,10.62,14.81,14.16,8.18,37.13,8.18,51.3,0,7.08-4.09,10.62-9.45,10.61-14.81v-6.58C444.17,273.73,440.63,268.37,433.55,264.28Z" style="fill:#263238"></path><path d="M433.55,261.09c-14.17-8.18-37.14-8.18-51.3,0-7.09,4.09-10.62,9.45-10.62,14.81v6.58c0,5.36,3.53,10.72,10.62,14.81,14.16,8.18,37.13,8.18,51.3,0,7.08-4.09,10.62-9.45,10.61-14.81V275.9C444.17,270.54,440.63,265.18,433.55,261.09Z" style="fill:#6366F1"></path><path d="M433.55,261.09c-14.17-8.18-37.14-8.18-51.3,0-7.09,4.09-10.62,9.45-10.62,14.81v6.58c0,5.36,3.53,10.72,10.62,14.81,14.16,8.18,37.13,8.18,51.3,0,7.08-4.09,10.62-9.45,10.61-14.81V275.9C444.17,270.54,440.63,265.18,433.55,261.09Z" style="opacity:0.5"></path><path d="M382.25,290.71c-14.17-8.18-14.17-21.44,0-29.62s37.13-8.18,51.3,0,14.16,21.44,0,29.62S396.41,298.88,382.25,290.71Z" style="fill:#6366F1"></path><path d="M382.25,290.71c-14.17-8.18-14.17-21.44,0-29.62s37.13-8.18,51.3,0,14.16,21.44,0,29.62S396.41,298.88,382.25,290.71Z" style="opacity:0.30000000000000004"></path></g><g id="freepik--character--inject-34"><g id="freepik--Bottom--inject-34"><path d="M365,339.26s9.42,15.41,10.82,21.87c1.46,6.72,3.46,8.7,3.51,16.27,0,1.65-.31,5-.31,6.34a2,2,0,0,0,2.13,2.13c3.05.13,7-6.19,8.39-12.59a179.88,179.88,0,0,0,2.38-22.16,9.31,9.31,0,0,0-1.7-4.6,14.89,14.89,0,0,0-1.75-2.24c-1.46-2.79-2.84-8.33-4.29-12.08Z" style="fill:#ffbda7"></path><path d="M398.7,356.37a6.92,6.92,0,0,1,1.15,2.09c.29,1.35-2,6.3-3,8.12a11,11,0,0,0-1,8.07c.88,4.3-.36,8.78-2.57,12.81a30.1,30.1,0,0,1-13.23,12.08c-6.79,3.36-9.89.19-9.89.19s-2.78-3.09-1.67-4.72S398.7,356.37,398.7,356.37Z" style="fill:#263238"></path><path d="M388.49,344.28c.21,0,.59-.17,1.26.42.25.22,2.08,3.22,3.43,4.73s4.71,4.26,5.52,6.94c-.79,5.56-5.16,10.06-5.1,15.18s.93,10.94-5.77,18.31-14.49,9.29-17.59,8.13-3.34-4.25-.32-10.69c3.2-6.83,3.87-20.62,3.87-20.63a44.87,44.87,0,0,0-.18-5.79c-.15-1.84-1-3.71-1.44-5.52a4.21,4.21,0,0,1-.05-2.6A4.4,4.4,0,0,1,374,351a18.81,18.81,0,0,1,3.73-2,6.36,6.36,0,0,1,4.15-.17c1,.33,1.82,1,2.81,1.21a3.68,3.68,0,0,0,3.66-1.29,3.14,3.14,0,0,0,.46-3.63A7.8,7.8,0,0,0,388.49,344.28Z" style="fill:#455a64"></path><path d="M391.53,384.23s-4-5.58-12.12-4.22-10.3,6-11.15,8.61c-1,3.15-1.69,8.67,1.92,9.64,3.91,1,8-.15,14.13-4.55S391.53,384.23,391.53,384.23Z" style="fill:#fafafa"></path><path d="M386.05,359.88a.85.85,0,0,1-.74.12c-1.37-.44-8.27-.75-11.57,3.48-.56-.32-.58-1.07-.11-2.22,4.08-3.62,10.61-3.36,12.25-2.83a.78.78,0,0,1,.5,1A.87.87,0,0,1,386.05,359.88Z" style="fill:#fafafa"></path><path d="M373.68,368.38a2.57,2.57,0,0,1,.1-2.32c4.09-3.16,10.16-2.9,11.74-2.39a.78.78,0,0,1,.49,1,.85.85,0,0,1-.32.42.86.86,0,0,1-.75.11C383.62,364.81,377.07,364.52,373.68,368.38Z" style="fill:#fafafa"></path><path d="M372.14,380a4.73,4.73,0,0,1,.56-3.13c4.09-3.46,10.46-3.2,12.09-2.68a.78.78,0,0,1,.49,1,.85.85,0,0,1-.32.42.87.87,0,0,1-.75.12C382.77,375.24,375.17,374.93,372.14,380Z" style="fill:#fafafa"></path><path d="M385.32,370.35a.85.85,0,0,1-.74.12c-1.35-.43-8.11-.73-11.45,3.35a2.9,2.9,0,0,1,.29-2.53c4.09-3.16,10.15-2.89,11.73-2.39a.79.79,0,0,1,.5,1A.89.89,0,0,1,385.32,370.35Z" style="fill:#fafafa"></path><path d="M361.06,360.71s-.07,20.67-2.51,29.08-3.74,12.5-7.89,19.24c-.9,1.46-3.05,4.27-3.79,5.46a2,2,0,0,0,.71,3.06c2.63,1.81,12.35.76,17.1-4.17s8.26-14.35,10.95-18.13c1-1.42,1.95-2.86,2.82-4.36s.35-2.62.21-4.07c-.07-.7-.48-2.58-.48-2.58.19-3.51,1.33-9.16,1.85-12.63Z" style="fill:#ffbda7"></path><path d="M382.56,399.14a7.43,7.43,0,0,1,.15,2.5c-.33,1.39-4.75,5-6.44,6.34a11.52,11.52,0,0,0-4.51,7.21c-1.09,4.47-4.26,8.16-8.16,11a31.59,31.59,0,0,1-17.91,5.53c-7.93.14-9.45-4.24-9.45-4.24s-1.24-4.17.53-5.22S382.56,399.14,382.56,399.14Z" style="fill:#263238"></path><path d="M378.29,383.14c.22.05.63.1,1,1,.14.32.53,4,1.14,6s2.56,6.13,2.13,9c-3.24,4.91-9.38,7.21-11.61,12.09s-4,10.76-13.64,14.75-17.86,2.31-20.28-.17-1.26-5.51,4.47-10.26c6.08-5,12.87-17.78,12.88-17.79a46.28,46.28,0,0,0,2.41-5.55c.69-1.82.72-4,1.11-5.88a4.35,4.35,0,0,1,1.11-2.48,4.52,4.52,0,0,1,2.58-.87,19.86,19.86,0,0,1,4.42-.21,6.76,6.76,0,0,1,4,1.7c.76.74,1.28,1.73,2.11,2.4a3.84,3.84,0,0,0,4,.41,3.29,3.29,0,0,0,2.06-3.23A7.25,7.25,0,0,0,378.29,383.14Z" style="fill:#455a64"></path><path d="M363.33,422.3s-1.26-7.05-9.59-9.41-12.42,1.05-14.4,3.17c-2.36,2.53-5.47,7.45-2.48,10,3.23,2.73,7.67,3.45,15.39,2S363.33,422.3,363.33,422.3Z" style="fill:#fafafa"></path><path d="M369,396.81a.88.88,0,0,1-.76-.22c-1.1-1-7.49-4.4-12.5-1.87-.39-.55-.07-1.28.89-2.15,5.48-1.61,11.53,1.56,12.85,2.79a.83.83,0,0,1,0,1.2A.89.89,0,0,1,369,396.81Z" style="fill:#fafafa"></path><path d="M353.51,399.32a2.67,2.67,0,0,1,1.14-2.14c5.28-1.17,10.9,1.79,12.17,3a.81.81,0,0,1,0,1.19.91.91,0,0,1-1.25,0C364.51,400.39,358.45,397.19,353.51,399.32Z" style="fill:#fafafa"></path><path d="M346.89,409.58a4.89,4.89,0,0,1,1.93-2.7c5.41-1.45,11.33,1.64,12.63,2.86a.82.82,0,0,1,0,1.2,1,1,0,0,1-.5.25.88.88,0,0,1-.75-.23C359.05,409.88,352,406.19,346.89,409.58Z" style="fill:#fafafa"></path><path d="M363.65,406.4a.9.9,0,0,1-.76-.23c-1.08-1-7.34-4.31-12.33-1.94A3,3,0,0,1,352,402c5.29-1.17,10.91,1.79,12.18,3a.83.83,0,0,1,0,1.2A1,1,0,0,1,363.65,406.4Z" style="fill:#fafafa"></path><path d="M384.22,238.34c-7.27,7.39-30.68,29.17-40.59,41.87-2.87,3.66-3.31,8-1,16.77,3.1,12,19.38,51.84,19.38,51.84,1.69,2.12,3.28-2.69,3.28-2.69l36.16-65.22Z" style="fill:#37474f"></path><path d="M361.86,335.6c9.11-10.52,34.43-69.76,34.43-69.76l-1.47-.07c-8.77-3.88-13.42-12.37-13.42-12.37.67,7.35,4.39,11,7.1,13.72-2.31,2.75-13.39,15.8-22.56,25.84-2.3,2.52-4.58,5.54-4.72,10.44C360.91,315.14,361.23,333.34,361.86,335.6Z" style="fill:#263238"></path><path d="M386.87,238.86h0l50.26,1.38c3.25,9.42,5.54,22.93,3.47,29.08s-7.46,14.4-14.54,18.83c-14.05,8.79-30.23,20-33.54,22.26-2.5,1.72-2.91,7.34-3,14.55-.09,7.56.73,13.33-4,29.94-4.67,16.27-5.59,19.77-5.59,19.77s-10.83,2.93-19.19-2.31c0,0,1.57-53.43,2.18-63.1.34-5.4-.08-8.15,5.46-14.92,4.75-5.81,26.47-28.57,26.47-28.57S382.84,254.15,386.87,238.86Z" style="fill:#37474f"></path></g><g id="freepik--Top--inject-34"><g id="freepik--Arm--inject-34"><g id="freepik--arm--inject-34"><path d="M390.5,173c-5.24.83-9.22.85-13.82,7.36-4.72,6.66-10.16,14.86-17.26,25.08l-17.55-8.85-7.52,12.19s18.78,12.88,25.78,15.48c5.24,2,6.56-.34,10.6-4.31,4.49-4.42,17.73-18.87,17.73-18.87Z" style="fill:#ffbda7"></path><path d="M391.06,172.62c-6.37.73-9.78,2.17-11.82,4.1s-20.13,28.35-20.13,28.35l-3.32-1.43s2.62,3,.49,9.9-5.29,6-5.29,6a80.37,80.37,0,0,0,9.42,5.35c3.45,1.44,5.31.48,9-3s19.71-20.67,19.71-20.67Z" style="fill:#6366F1"></path><path d="M391.06,172.62c-6.37.73-9.78,2.17-11.82,4.1s-20.13,28.35-20.13,28.35l-3.32-1.43s2.62,3,.49,9.9-5.29,6-5.29,6a80.37,80.37,0,0,0,9.42,5.35c3.45,1.44,5.31.48,9-3s19.71-20.67,19.71-20.67Z" style="opacity:0.15"></path><path d="M359.11,205.07c3,1.11,6.4,4.47,6.9,6.2-.77-4.81-4.6-6.75-6-7.49Z" style="opacity:0.35000000000000003"></path></g><g id="freepik--Tablet--inject-34"><path d="M323,174.74h0l1.59-1v0a1.61,1.61,0,0,1,1.48,0l14.75,6.34a5.72,5.72,0,0,1,3,3.71l6.61,33.52a1.47,1.47,0,0,1-.44,1.6h0L348.38,220v0a1.6,1.6,0,0,1-1.49,0l-14.75-6.33a5.74,5.74,0,0,1-3-3.72c-1.3-6.59-5.31-26.93-6.61-33.51C322.36,175.56,322.58,175,323,174.74Z" style="fill:#455a64"></path><path d="M340.78,182.26a5.46,5.46,0,0,1,1.46,2.6l6.62,33.5a1.56,1.56,0,0,1-.38,1.58l1.54-1h0a1.47,1.47,0,0,0,.44-1.6l-6.61-33.52a5.51,5.51,0,0,0-1.34-2.46Z" style="fill:#263238"></path><path d="M348.85,218.37l-6.61-33.52a5.73,5.73,0,0,0-3-3.72l-14.74-6.33c-1.38-.59-2.25.12-2,1.59,1.3,6.58,5.32,26.92,6.61,33.51a5.74,5.74,0,0,0,3,3.72L346.89,220C348.26,220.54,349.14,219.83,348.85,218.37Z" style="fill:#37474f"></path><path d="M341.28,191.55l-1.23-6.27a1.11,1.11,0,0,0-.57-.7l-2.77-1.18c-.26-.11-.42,0-.37.29.25,1.24,1,5,1.24,6.28a1.08,1.08,0,0,0,.56.69l2.78,1.19C341.17,192,341.34,191.83,341.28,191.55Z" style="fill:#455a64"></path><path d="M339.7,186.69a2.65,2.65,0,0,0-1.44-1.72c-.66-.29-1.09,0-1,.69a2.68,2.68,0,0,0,1.44,1.72C339.41,187.67,339.84,187.36,339.7,186.69Z" style="fill:#263238"></path><path d="M340.29,189.85a2.68,2.68,0,0,0-1.44-1.72c-.66-.29-1.1,0-1,.69a2.65,2.65,0,0,0,1.44,1.72C340,190.83,340.42,190.52,340.29,189.85Z" style="fill:#263238"></path><path d="M323.58,196.11c-1.28-2.08-1.13-2.33-.29-3.29a6.26,6.26,0,0,1,5.24-2.24c1.74.18,3.49.27,4.36.79s0,2.36-2.33,2.71c-3.63.55-3.67,1.52-3.67,1.52s3.33-.5,4.66-.49a34.15,34.15,0,0,1,5.18,1.16c1.48.34,1.65,2.31-1,2.8l2.72.63c1.91.44,2.5,1.52.9,2.61a2.91,2.91,0,0,1-1.8.53s2.06.14,2,.83c0,2-1.32,2.39-5.56,3.31-4,.87-5,2.94-4.32,4.47,0,0-1.53-1-2.88-2.12-1-.79-1.82-1.66-1.23-3.25,0,0-2.27-.12-2.31-1.53a7.2,7.2,0,0,1,.76-3,2.47,2.47,0,0,1-1.09-2.41,4,4,0,0,1,1-2.4Z" style="fill:#ffbda7"></path><path d="M335.78,199.07a12.46,12.46,0,0,0-2.49-.45,8.13,8.13,0,0,0-2.47.6,29.69,29.69,0,0,0-4.54,2,29.39,29.39,0,0,0,4.78-1.34,12.38,12.38,0,0,1,2.27-.72C334.09,199.12,335,199.16,335.78,199.07Z" style="fill:#f0997a"></path><path d="M337.6,202.84a5.48,5.48,0,0,0-2.7-.27,14.71,14.71,0,0,0-2.64.63,26.11,26.11,0,0,0-4.89,2.19,50.35,50.35,0,0,0,5.12-1.49A14.11,14.11,0,0,1,337.6,202.84Z" style="fill:#f0997a"></path></g></g><path d="M438.58,245c-4.24-12.36-7-19.5-7.07-23.43,0,0,3.56-19.72,4.07-24.37,1.33-12.09-.84-17.77-3.27-19.06a90,90,0,0,0-9-3c-8.37-2.38-20.37-2.68-28.17-2.56-2.93.15-3.83.25-3.83.25a72.22,72.22,0,0,0-10.51,9.59c-6.2,7.19-8.14,12-7.15,19.42a17.72,17.72,0,0,0,4.11,8.71c.47,3.58,1.25,13.73,1.25,13.73-.09,4,.19,3.89-1.83,13.49C383.5,256.74,425.76,255.56,438.58,245Z" style="fill:#fafafa"></path><g id="freepik--Head--inject-34"><path d="M419.66,123.28a10.53,10.53,0,0,1,11.63,2.43c2.9,3.12,3.57,7.65,4,11.89q1.21,11,1.82,22.07c.18,3.3.79,6.57,1.09,9.88q.5,5.59.8,11.19a4.1,4.1,0,0,1-.5,2.77,3.67,3.67,0,0,1-2.28,1.14,16.93,16.93,0,0,1-12.12-2.11c-5.66-3.46-8.83-10.15-9.26-16.77A54.87,54.87,0,0,1,416.06,153a88.34,88.34,0,0,1,1.94-9.28c.55-1.93,1.23-3.82,1.67-5.77a25,25,0,0,0-.28-12.15" style="fill:#263238"></path><path d="M423.93,123.21a12.31,12.31,0,0,1,4.07,6.54,3.4,3.4,0,0,1,0,2.07,2.54,2.54,0,0,1-2.67,1.38,5.13,5.13,0,0,1-2.8-1.49,10.59,10.59,0,0,1-3.18-6c-.17-1.06-.06-2.74,1-3.39C421.48,121.56,423,122.46,423.93,123.21Z" style="fill:#6366F1"></path><path d="M384.36,139.19c-2.46-5.2-.42-12.26,2.23-15.62,3.82-4.87,9.94-7.1,19.27-6.81,7.09.23,15.67,3.13,17.22,10.35,6.66,3.13,4.61,12.31,3,16.19-3.43,8.16-8.46,14.61-8.42,18.9Z" style="fill:#263238"></path><path d="M388.17,128.1c-1.59,1.25-4.21,4.74-3.81,11.09.21,1.92-.4,4.3-.4,7.89,0,13.58,3.76,16.42,7.44,18,2.19,1,3.4,1.11,6.89,1.07v6.3s-5.23,4.16-1.62,15h0c16.49-11.18,21-16,21-16l.11-15.33h0c.09.07,2.18,1.91,5.6,0,3.7-2,5.14-8.25,2.71-11.12s-5.89-1.1-7.42,1.44-5.33,1.84-4.2-2c-1.73-.82-3.9-2.59-2.31-9.68a7.83,7.83,0,0,0-2-6.48c-2.88-2.55-8.47-2-11.63,1.22C394.22,126,391.45,125.52,388.17,128.1Z" style="fill:#ffbda7"></path><path d="M401.69,153.32l-6.27,2.22a3.19,3.19,0,0,0,4.13,2.1A3.51,3.51,0,0,0,401.69,153.32Z" style="fill:#b16668"></path><path d="M398.1,157.79a2.93,2.93,0,0,1,3.69-2.87,3.5,3.5,0,0,1-2.24,2.72A3.31,3.31,0,0,1,398.1,157.79Z" style="fill:#f28f8f"></path><polygon points="396.67 139.49 395.83 151.61 389.77 148.75 396.67 139.49" style="fill:#f0997a"></polygon><path d="M398.29,166.17c4.36-.24,13.67-2.63,15.94-8.42,0,0-.34,4.13-5.68,7.33-4.22,2.52-10.24,3-10.24,3Z" style="fill:#f0997a"></path><path d="M401.62,143.3a1.93,1.93,0,1,0,1.74-2.09A1.91,1.91,0,0,0,401.62,143.3Z" style="fill:#263238"></path><path d="M387.23,142.82a1.93,1.93,0,1,0,1.44-2.32A1.93,1.93,0,0,0,387.23,142.82Z" style="fill:#263238"></path><path d="M388,135.27a2.76,2.76,0,0,1,3.33,2l-5.36,1.29A2.76,2.76,0,0,1,388,135.27Z" style="fill:#263238"></path><path d="M406,136.29a2.75,2.75,0,0,1,1.46,3.62l-5.07-2.16A2.76,2.76,0,0,1,406,136.29Z" style="fill:#263238"></path><path d="M389.36,120.82h20.69c14,5.5,8.84,23.48,5.91,25.67-8.31-3.5-7.77-11.79-7.15-16.51-4.21,4-11.23,6.86-14.52,7.2,1.52-1.84,2.8-6.39,2.8-6.39a16.9,16.9,0,0,1-6.54,7.09c-5.11,2.94-8.6,1-8.6,1S380.21,126.37,389.36,120.82Z" style="fill:#263238"></path></g><path d="M416.42,170.57a43.2,43.2,0,0,1-1.88,7.79c-1.68,5.39-2.29,9.71-2.62,21.26s3.87,65.53,2.64,78.6c8.58,0,22.27-5.7,28.66-12.62a147.36,147.36,0,0,0-4.64-26.11c-3.07-11.66-6.26-12.6-5.61-18.85s5.21-31.33.14-44a50.4,50.4,0,0,1-7.5-1.5C417.47,173.14,416.42,170.57,416.42,170.57Z" style="fill:#6366F1"></path><path d="M416.42,170.57a43.2,43.2,0,0,1-1.88,7.79c-1.68,5.39-2.29,9.71-2.62,21.26s3.87,65.53,2.64,78.6c8.58,0,22.27-5.7,28.66-12.62a147.36,147.36,0,0,0-4.64-26.11c-3.07-11.66-6.26-12.6-5.61-18.85s5.21-31.33.14-44a50.4,50.4,0,0,1-7.5-1.5C417.47,173.14,416.42,170.57,416.42,170.57Z" style="fill:#fff;opacity:0.4"></path><path d="M398.13,170l-.3,1.16c0,3.31-6.82,8.58-11.59,16.38s-5.54,15.42-5.21,25.39c.17,5.26-.47,18.14-1.27,29.86l-6.6,6.43c.68-4.8,1.44-9.7,2-12,.86-3.6.8-9.48.8-16.86a66.43,66.43,0,0,0-.59-9.57s-4.73-5.87-2-16.75S391,172.6,391,172.6a28.28,28.28,0,0,1,2.92-.72A16.19,16.19,0,0,0,398.13,170Z" style="fill:#6366F1"></path><path d="M398.13,170l-.3,1.16c0,3.31-6.82,8.58-11.59,16.38s-5.54,15.42-5.21,25.39c.17,5.26-.47,18.14-1.27,29.86l-6.6,6.43c.68-4.8,1.44-9.7,2-12,.86-3.6.8-9.48.8-16.86a66.43,66.43,0,0,0-.59-9.57s-4.73-5.87-2-16.75S391,172.6,391,172.6a28.28,28.28,0,0,1,2.92-.72A16.19,16.19,0,0,0,398.13,170Z" style="fill:#fff;opacity:0.4"></path><path d="M417.68,165.94a16.51,16.51,0,0,0,5.27,8.44s-2.24,10.49-1.85,15.65,1.44,10.13,0,10.1a37.41,37.41,0,0,1-5.71-1.35s3.43,5,3.1,6.6-5.65,19.26-5.65,19.26-2.23-20.46-1.88-26.46,1.43-17,3.56-23.33C416,170.42,417.68,165.94,417.68,165.94Z" style="fill:#6366F1"></path><path d="M380.86,221.79c-.3-5.76-3.31-20.2-3.7-23.09s3.7-5.51,3.7-5.51-2.46.63-3.27,0,4.15-7.83,8.39-12.58,12.33-12,12.33-12l0,3.81a54.33,54.33,0,0,0-6.19,8.14C388.41,186.72,381.49,193.37,380.86,221.79Z" style="fill:#6366F1"></path><g id="freepik--arm--inject-34"><path d="M407.51,200.32c-3-2.64-4.59-3.69-6.06-4.23s-6.57-3.12-8.55-3.78c-1.26-.41-1.93,1.59-.4,3.11,1.17,1.17,4.33,2.83,5.7,3.72s3.93,4.52,3.93,4.52Z" style="fill:#f0997a"></path><path d="M448.23,188.46c-2.82-7.94-7.28-10.77-15-11.62-4.81,11-1,28.43-1,28.43l4.46,12.65s-15.49-5.11-17.56-6.67a101.61,101.61,0,0,1-9.05-8.83c-2.48-2.76-3.83-2.51-5.2-2.41-4.49.33-5.49.63-6.47,1.16a2,2,0,0,0-1,1.66c-1.19.06-2.95-.11-3.32,1.81a5.38,5.38,0,0,0-.19,1.55,1.3,1.3,0,0,0-.8.38c-1.06,1.06.32,5.12,1.32,6.16.7.73,1.76.89,3.18.81,1.21-.07.74-1.33.74-1.33l1.67.23c3.42,2.83,3.22,7.93,7.9,9.4a33.39,33.39,0,0,1,5.75,1.57c10,4.22,23.18,16.89,34.53,17.68,9,.63,10.12-3.57,10.17-9.06C458.42,226.33,450.74,195.54,448.23,188.46Z" style="fill:#ffbda7"></path><path d="M433.11,176.62c4.34.74,8.3,1,11.56,4.62s4.14,6.83,6.44,15.47,4.53,17.48,6.32,26.14,2,14-.77,16.79-8,2.33-10.66,1.84-7.6-2.9-7.6-2.9,2.56-3.53,1.48-10.87S435,217.33,435,217.33l1.51.44s-3.29-8.39-5.58-14.18S429.34,181.65,433.11,176.62Z" style="fill:#6366F1"></path><path d="M433.11,176.62c4.34.74,8.3,1,11.56,4.62s4.14,6.83,6.44,15.47,4.53,17.48,6.32,26.14,2,14-.77,16.79-8,2.33-10.66,1.84-7.6-2.9-7.6-2.9,2.56-3.53,1.48-10.87S435,217.33,435,217.33l1.51.44s-3.29-8.39-5.58-14.18S429.34,181.65,433.11,176.62Z" style="opacity:0.15"></path><path d="M435.52,215.36l.94,2.41c5.31,1.29,10.68,2.7,12.11,4.68C447.07,219.15,443,216.86,435.52,215.36Z" style="opacity:0.35000000000000003"></path><path d="M397.42,202.83l5.35-.67-5.18,0A2.1,2.1,0,0,0,397.42,202.83Z" style="fill:#f0997a"></path><path d="M393.91,206.19l6.13-.33-6.08-.38A3.26,3.26,0,0,0,393.91,206.19Z" style="fill:#f0997a"></path><path d="M394.51,208.92a1.94,1.94,0,0,0,.76.77,3.81,3.81,0,0,0,1,.43l-.08-.06c.14.33.29.65.44,1l.14-.15a1.23,1.23,0,0,0-1,.17,1.58,1.58,0,0,0-.58.75,2,2,0,0,1,.66-.62,1.23,1.23,0,0,1,.84-.08l.23.06-.1-.22c-.14-.33-.28-.65-.43-1l0-.05h-.05a6.15,6.15,0,0,1-1-.35A2.36,2.36,0,0,1,394.51,208.92Z" style="fill:#f0997a"></path><path d="M396.06,209.82a19.18,19.18,0,0,0,2.19.32,2.32,2.32,0,0,0,.67,1.22,12,12,0,0,0,1.1,1.08l-1.67-.23a2.68,2.68,0,0,0-1.83-1.18Z" style="fill:#f0997a"></path></g></g></g></g></g><g id="freepik--speech-bubble--inject-34"><g id="freepik--speech-bubble--inject-34"><g id="freepik--speech-bubble--inject-34"><path d="M345.43,166.39l3.07-5.78L346,153.48v-4.36l7.56,4.36v4.37l-3.25,5.63a.45.45,0,0,1-.22.19h0Z" style="fill:#6366F1"></path><path d="M345.43,166.39l3.07-5.78L346,153.48v-4.36l7.56,4.36v4.37l-3.25,5.63a.45.45,0,0,1-.22.19h0Z" style="opacity:0.30000000000000004"></path><path d="M329.58,103.35a5,5,0,0,1,2.27-3.92l1.84-1.07a5,5,0,0,1,4.54,0l26.49,15.25a5,5,0,0,1,2.26,3.92v43.53a5,5,0,0,1-2.26,3.92l-1.85,1.07a5,5,0,0,1-4.53,0l-9.49-5.45-3.25,5.61a.48.48,0,0,1-.87-.08l-3.43-9.89-9.45-5.44a5,5,0,0,1-2.27-3.93Z" style="fill:#6366F1"></path><path d="M367,161.06a5,5,0,0,1-2.26,3.92l-1.85,1.07a5.06,5.06,0,0,1-4.14.18c1.06.4,1.87-.2,1.87-1.49V121.22a4.63,4.63,0,0,0-.66-2.24l6.38-3.68a4.62,4.62,0,0,1,.66,2.23Z" style="opacity:0.30000000000000004"></path><path d="M329.66,102.71c.26-1,1.14-1.27,2.19-.67l26.49,15.25a4.66,4.66,0,0,1,1.6,1.69l6.37-3.68a4.58,4.58,0,0,0-1.6-1.69L338.23,98.36a5,5,0,0,0-4.53,0l-1.85,1.07A5,5,0,0,0,329.66,102.71Z" style="fill:#fff;opacity:0.30000000000000004"></path></g><g id="freepik--Fork--inject-34"><path d="M344.3,122.66a20.25,20.25,0,0,0-1.69-7.84c-.18-.38-.52-.4-.52,0v6.28c0,.39-.23.57-.52.4a1.25,1.25,0,0,1-.53-1V114a.75.75,0,0,0-.22-.51,4.05,4.05,0,0,0-.57-.41,2.61,2.61,0,0,0-.58-.25c-.13,0-.22.07-.22.25v6.49c0,.39-.24.57-.53.4a1.25,1.25,0,0,1-.52-1v-6.29c0-.36-.34-.72-.52-.55-.92.86-1.57,2.8-1.69,5.89a11.51,11.51,0,0,0,2.94,7.88l-.33,21.28a3.48,3.48,0,0,0,1.45,2.8c.8.46,1.45-.05,1.44-1.13l-.33-21.66C343.3,127.48,344.39,125.32,344.3,122.66Z" style="fill:#fff"></path><path d="M351.51,118.91c0-.7-.68-1.36-1-1a12.18,12.18,0,0,0-1.85,4.17c-.61,2.21-1.08,4.4-1.4,6a9,9,0,0,0,1,5.45l1.11,2.16-.26,17.38a3.42,3.42,0,0,0,1.44,2.79c.8.47,1.45,0,1.44-1.13Z" style="fill:#fff"></path></g></g></g></svg>