<svg width="38" height="38" viewBox="0 0 38 38" fill="none" xmlns="http://www.w3.org/2000/svg">
<path d="M37.0613 6.43993L31.0613 0.43993C30.9219 0.300465 30.7565 0.189827 30.5744 0.11434C30.3923 0.0388536 30.1971 0 30 0C29.8029 0 29.6077 0.0388536 29.4256 0.11434C29.2435 0.189827 29.0781 0.300465 28.9387 0.43993L10.9387 18.4399C10.7995 18.5793 10.6891 18.7448 10.6138 18.9269C10.5385 19.109 10.4998 19.3041 10.5 19.5012V25.5012C10.5 25.899 10.658 26.2805 10.9393 26.5618C11.2206 26.8431 11.6022 27.0012 12 27.0012H18C18.197 27.0013 18.3922 26.9627 18.5743 26.8874C18.7564 26.8121 18.9218 26.7017 19.0613 26.5624L37.0613 8.56243C37.2007 8.42312 37.3114 8.25769 37.3868 8.07559C37.4623 7.89349 37.5012 7.6983 37.5012 7.50118C37.5012 7.30406 37.4623 7.10887 37.3868 6.92677C37.3114 6.74467 37.2007 6.57924 37.0613 6.43993ZM17.3794 24.0012H13.5V20.1218L25.5 8.1218L29.3794 12.0012L17.3794 24.0012ZM31.5 9.88056L27.6206 6.00118L30 3.62181L33.8794 7.50118L31.5 9.88056ZM36 19.5012V34.5012C36 35.2968 35.6839 36.0599 35.1213 36.6225C34.5587 37.1851 33.7956 37.5012 33 37.5012H3C2.20435 37.5012 1.44129 37.1851 0.87868 36.6225C0.31607 36.0599 0 35.2968 0 34.5012V4.50118C0 3.70553 0.31607 2.94247 0.87868 2.37986C1.44129 1.81725 2.20435 1.50118 3 1.50118H18C18.3978 1.50118 18.7794 1.65922 19.0607 1.94052C19.342 2.22182 19.5 2.60336 19.5 3.00118C19.5 3.399 19.342 3.78054 19.0607 4.06184C18.7794 4.34314 18.3978 4.50118 18 4.50118H3V34.5012H33V19.5012C33 19.1034 33.158 18.7218 33.4393 18.4405C33.7206 18.1592 34.1022 18.0012 34.5 18.0012C34.8978 18.0012 35.2794 18.1592 35.5607 18.4405C35.842 18.7218 36 19.1034 36 19.5012Z" fill="currentColor"/>
</svg>
