<svg width="45" height="34" viewBox="0 0 45 34" fill="none" xmlns="http://www.w3.org/2000/svg">
<path d="M44.4006 19.1984C44.243 19.3166 44.0637 19.4026 43.8728 19.4515C43.682 19.5003 43.4834 19.5112 43.2884 19.4833C43.0934 19.4554 42.9058 19.3895 42.7363 19.2891C42.5668 19.1887 42.4188 19.056 42.3006 18.8984C41.3965 17.6831 40.2197 16.6971 38.8649 16.0197C37.5101 15.3423 36.0152 14.9925 34.5006 14.9984C34.2056 14.9984 33.9172 14.9114 33.6714 14.7483C33.4256 14.5852 33.2334 14.3533 33.1187 14.0815C33.0408 13.897 33.0007 13.6987 33.0007 13.4984C33.0007 13.2981 33.0408 13.0998 33.1187 12.9153C33.2334 12.6435 33.4256 12.4116 33.6714 12.2485C33.9172 12.0854 34.2056 11.9984 34.5006 11.9984C35.3422 11.9983 36.1669 11.7622 36.8811 11.3169C37.5953 10.8716 38.1703 10.2349 38.5408 9.47921C38.9112 8.7235 39.0623 7.87904 38.9769 7.04175C38.8915 6.20446 38.573 5.4079 38.0576 4.74255C37.5422 4.0772 36.8505 3.56973 36.0611 3.27779C35.2718 2.98584 34.4163 2.92112 33.592 3.09098C32.7677 3.26083 32.0075 3.65845 31.3979 4.23868C30.7882 4.8189 30.3535 5.55847 30.1431 6.37338C30.0938 6.56421 30.0075 6.74347 29.8889 6.90092C29.7704 7.05838 29.622 7.19095 29.4523 7.29106C29.2825 7.39117 29.0947 7.45687 28.8996 7.4844C28.7044 7.51193 28.5058 7.50075 28.3149 7.45151C28.1241 7.40226 27.9449 7.31591 27.7874 7.19739C27.6299 7.07886 27.4974 6.93049 27.3973 6.76073C27.2971 6.59097 27.2315 6.40316 27.2039 6.20801C27.1764 6.01287 27.1876 5.81421 27.2368 5.62338C27.5289 4.49334 28.0806 3.44706 28.8482 2.56779C29.6157 1.68852 30.5779 1.00052 31.6582 0.558538C32.7384 0.116559 33.9069 -0.0672023 35.0706 0.0218762C36.2344 0.110955 37.3613 0.470414 38.3617 1.07165C39.3621 1.67289 40.2084 2.49932 40.8332 3.48517C41.4579 4.47102 41.844 5.58908 41.9607 6.7504C42.0773 7.91172 41.9213 9.08424 41.5051 10.1747C41.0889 11.2651 40.4239 12.2433 39.5631 13.0315C41.6027 13.9146 43.3758 15.316 44.7062 17.0965C44.8244 17.2545 44.9102 17.4342 44.9588 17.6255C45.0074 17.8167 45.0179 18.0156 44.9895 18.2109C44.9611 18.4061 44.8944 18.5938 44.7934 18.7633C44.6923 18.9327 44.5588 19.0806 44.4006 19.1984ZM34.2981 30.7484C34.4066 30.9191 34.4795 31.11 34.5123 31.3096C34.5451 31.5093 34.5373 31.7135 34.4891 31.91C34.441 32.1065 34.3536 32.2912 34.2322 32.453C34.1109 32.6149 33.958 32.7505 33.7829 32.8517C33.6077 32.953 33.4139 33.0178 33.2131 33.0421C33.0122 33.0665 32.8086 33.0501 32.6143 32.9937C32.42 32.9373 32.2391 32.8422 32.0825 32.7142C31.9259 32.5861 31.7968 32.4276 31.7031 32.2484C30.7582 30.6484 29.4124 29.3224 27.7986 28.4013C26.1848 27.4801 24.3587 26.9956 22.5006 26.9956C20.6424 26.9956 18.8163 27.4801 17.2025 28.4013C15.5887 29.3224 14.243 30.6484 13.2981 32.2484C13.2043 32.4276 13.0752 32.5861 12.9186 32.7142C12.762 32.8422 12.5812 32.9373 12.3869 32.9937C12.1926 33.0501 11.9889 33.0665 11.7881 33.0421C11.5872 33.0178 11.3934 32.953 11.2183 32.8517C11.0431 32.7505 10.8903 32.6149 10.7689 32.453C10.6475 32.2912 10.5601 32.1065 10.512 31.91C10.4639 31.7135 10.456 31.5093 10.4888 31.3096C10.5217 31.11 10.5945 30.9191 10.7031 30.7484C12.1573 28.2497 14.3747 26.2834 17.0293 25.1384C15.5356 23.9947 14.4377 22.4117 13.8902 20.6118C13.3426 18.8119 13.3729 16.8857 13.9767 15.104C14.5804 13.3222 15.7274 11.7744 17.2563 10.6781C18.7852 9.58192 20.6193 8.99237 22.5006 8.99237C24.3819 8.99237 26.2159 9.58192 27.7448 10.6781C29.2737 11.7744 30.4207 13.3222 31.0245 15.104C31.6283 16.8857 31.6585 18.8119 31.1109 20.6118C30.5634 22.4117 29.4656 23.9947 27.9718 25.1384C30.6265 26.2834 32.8438 28.2497 34.2981 30.7484ZM22.5006 23.9984C23.6873 23.9984 24.8473 23.6465 25.834 22.9872C26.8207 22.3279 27.5897 21.3908 28.0438 20.2945C28.498 19.1981 28.6168 17.9917 28.3853 16.8278C28.1538 15.664 27.5823 14.5949 26.7432 13.7557C25.9041 12.9166 24.835 12.3452 23.6711 12.1137C22.5072 11.8822 21.3008 12.001 20.2045 12.4551C19.1081 12.9092 18.171 13.6783 17.5118 14.665C16.8525 15.6517 16.5006 16.8117 16.5006 17.9984C16.5006 19.5897 17.1327 21.1158 18.2579 22.241C19.3831 23.3662 20.9093 23.9984 22.5006 23.9984ZM12.0006 13.4984C12.0006 13.1006 11.8425 12.719 11.5612 12.4377C11.2799 12.1564 10.8984 11.9984 10.5006 11.9984C9.65893 11.9983 8.83419 11.7622 8.12001 11.3169C7.40583 10.8716 6.83085 10.2349 6.46038 9.47921C6.0899 8.7235 5.93879 7.87904 6.02419 7.04175C6.10959 6.20446 6.4281 5.4079 6.94352 4.74255C7.45894 4.0772 8.15063 3.56973 8.94 3.27779C9.72938 2.98584 10.5848 2.92112 11.4091 3.09098C12.2334 3.26083 12.9936 3.65845 13.6033 4.23868C14.2129 4.8189 14.6477 5.55847 14.8581 6.37338C14.9575 6.75877 15.206 7.08887 15.5488 7.29106C15.8917 7.49325 16.3008 7.55096 16.6862 7.45151C17.0716 7.35205 17.4017 7.10357 17.6039 6.76073C17.8061 6.41789 17.8638 6.00877 17.7643 5.62338C17.4723 4.49334 16.9205 3.44706 16.153 2.56779C15.3854 1.68852 14.4232 1.00052 13.343 0.558538C12.2627 0.116559 11.0942 -0.0672023 9.93049 0.0218762C8.76673 0.110955 7.63982 0.470414 6.63943 1.07165C5.63904 1.67289 4.79278 2.49932 4.16798 3.48517C3.54319 4.47102 3.1571 5.58908 3.04045 6.7504C2.92379 7.91172 3.07979 9.08424 3.49603 10.1747C3.91226 11.2651 4.57725 12.2433 5.43807 13.0315C3.40047 13.9155 1.62941 15.3168 0.300569 17.0965C0.0616255 17.4148 -0.0411035 17.8149 0.0149816 18.2089C0.0710667 18.6029 0.281372 18.9585 0.599631 19.1974C0.917891 19.4364 1.31804 19.5391 1.71204 19.483C2.10604 19.4269 2.46163 19.2166 2.70057 18.8984C3.60467 17.6831 4.78147 16.6971 6.13624 16.0197C7.49101 15.3423 8.9859 14.9925 10.5006 14.9984C10.8984 14.9984 11.2799 14.8403 11.5612 14.559C11.8425 14.2777 12.0006 13.8962 12.0006 13.4984Z" fill="currentColor"/>
</svg>
