<svg width="36" height="42" viewBox="0 0 36 42" xmlns="http://www.w3.org/2000/svg">
<path d="M22.499 40.5023C22.499 40.9002 22.3409 41.2817 22.0596 41.563C21.7783 41.8443 21.3968 42.0023 20.999 42.0023H14.999C14.6011 42.0023 14.2196 41.8443 13.9383 41.563C13.657 41.2817 13.499 40.9002 13.499 40.5023C13.499 40.1045 13.657 39.723 13.9383 39.4417C14.2196 39.1604 14.6011 39.0023 14.999 39.0023H20.999C21.3968 39.0023 21.7783 39.1604 22.0596 39.4417C22.3409 39.723 22.499 40.1045 22.499 40.5023ZM17.999 19.5023C18.444 19.5023 18.879 19.3704 19.249 19.1231C19.619 18.8759 19.9074 18.5245 20.0777 18.1134C20.248 17.7022 20.2926 17.2498 20.2057 16.8134C20.1189 16.3769 19.9046 15.976 19.59 15.6613C19.2753 15.3467 18.8744 15.1324 18.4379 15.0456C18.0015 14.9588 17.5491 15.0033 17.1379 15.1736C16.7268 15.3439 16.3754 15.6323 16.1282 16.0023C15.8809 16.3723 15.749 16.8073 15.749 17.2523C15.749 17.8491 15.986 18.4214 16.408 18.8433C16.8299 19.2653 17.4022 19.5023 17.999 19.5023ZM35.9277 27.7205L33.6102 38.1511C33.5003 38.6464 33.2665 39.1058 32.9308 39.4862C32.595 39.8666 32.1683 40.1556 31.6904 40.3263C31.2126 40.4969 30.6993 40.5435 30.1986 40.4619C29.6978 40.3802 29.2259 40.1728 28.8271 39.8592L23.7196 36.0023H12.2821L7.17085 39.8592C6.77201 40.1728 6.30015 40.3802 5.79938 40.4619C5.29862 40.5435 4.78533 40.4969 4.3075 40.3263C3.82968 40.1556 3.40294 39.8666 3.06719 39.4862C2.73145 39.1058 2.49767 38.6464 2.38772 38.1511L0.0702225 27.7205C-0.0280812 27.2728 -0.0231145 26.8087 0.0847465 26.3633C0.192607 25.9179 0.400528 25.5029 0.692722 25.1498L6.04772 18.7261C6.22746 16.3654 6.76942 14.0463 7.6546 11.8505C10.0733 5.78671 14.4046 1.98234 16.1615 0.628588C16.6873 0.221121 17.3337 0 17.999 0C18.6642 0 19.3106 0.221121 19.8365 0.628588C21.5877 1.98234 25.9246 5.78671 28.3433 11.8505C29.2285 14.0463 29.7705 16.3654 29.9502 18.7261L35.3052 25.1498C35.5974 25.5029 35.8053 25.9179 35.9132 26.3633C36.0211 26.8087 36.026 27.2728 35.9277 27.7205ZM12.6421 33.0023H23.3559C27.3159 25.9636 28.0565 19.2248 25.5571 12.9623C23.3521 7.43484 19.2158 3.93984 17.999 3.00234C16.7783 3.93984 12.6421 7.43484 10.4371 12.9623C7.94147 19.2248 8.6821 25.9636 12.6421 33.0023ZM9.8296 34.0992C7.81085 30.4305 6.58585 26.8248 6.1546 23.2823L2.99897 27.0698L5.31647 37.5023L5.35022 37.478L9.8296 34.0992ZM32.999 27.0698L29.8433 23.2823C29.4158 26.8173 28.1934 30.423 26.1759 34.0992L30.6477 37.4742L30.6815 37.4986L32.999 27.0698Z"/>
</svg>
