<svg width="32" height="32" viewBox="0 0 32 32" xmlns="http://www.w3.org/2000/svg">
<path d="M28.7899 23.3863L23.0399 16H25.9999C26.1867 16 26.3697 15.9477 26.5283 15.849C26.6869 15.7504 26.8147 15.6092 26.8972 15.4416C26.9797 15.2741 27.0136 15.0867 26.9951 14.9008C26.9765 14.715 26.9063 14.538 26.7924 14.39L16.7924 1.39001C16.699 1.26863 16.579 1.17034 16.4416 1.1027C16.3042 1.03505 16.153 0.999878 15.9999 0.999878C15.8467 0.999878 15.6956 1.03505 15.5582 1.1027C15.4208 1.17034 15.3008 1.26863 15.2074 1.39001L5.2074 14.39C5.09346 14.538 5.02325 14.715 5.00473 14.9008C4.98621 15.0867 5.02011 15.2741 5.1026 15.4416C5.18509 15.6092 5.31287 15.7504 5.47146 15.849C5.63005 15.9477 5.81311 16 5.9999 16H8.9549L3.2049 23.3863C3.08972 23.5344 3.01856 23.712 2.99954 23.8987C2.98051 24.0853 3.01441 24.2736 3.09733 24.4419C3.18026 24.6103 3.30888 24.7519 3.46849 24.8506C3.62809 24.9493 3.81225 25.001 3.9999 25H14.9999V30C14.9999 30.2652 15.1053 30.5196 15.2928 30.7071C15.4803 30.8946 15.7347 31 15.9999 31C16.2651 31 16.5195 30.8946 16.707 30.7071C16.8945 30.5196 16.9999 30.2652 16.9999 30V25H27.9999C28.1871 25.0001 28.3706 24.9476 28.5295 24.8486C28.6884 24.7495 28.8162 24.6078 28.8986 24.4397C28.9809 24.2715 29.0143 24.0836 28.9951 23.8974C28.9759 23.7112 28.9048 23.5341 28.7899 23.3863ZM6.0449 23L11.7949 15.6138C11.9101 15.4656 11.9812 15.288 12.0003 15.1014C12.0193 14.9147 11.9854 14.7264 11.9025 14.5581C11.8195 14.3897 11.6909 14.2481 11.5313 14.1494C11.3717 14.0508 11.1875 13.999 10.9999 14H8.03115L15.9999 3.64001L23.9686 14H20.9999C20.8128 14.0001 20.6295 14.0528 20.4708 14.1519C20.3121 14.2511 20.1844 14.3928 20.1022 14.5609C20.0201 14.729 19.9867 14.9168 20.006 15.1029C20.0252 15.289 20.0963 15.466 20.2111 15.6138L25.9549 23H6.0449Z" fill="currentColor"/>
</svg>
