<svg width="42" height="39" viewBox="0 0 42 39" xmlns="http://www.w3.org/2000/svg">
<path d="M41.6733 38.4393C41.5503 38.5933 41.3981 38.7215 41.2255 38.8167C41.0528 38.9118 40.8631 38.9719 40.6672 38.9937C40.4713 39.0155 40.2731 38.9984 40.0838 38.9435C39.8945 38.8886 39.7178 38.7969 39.564 38.6737C39.4946 38.6175 32.2852 33.0018 21.0015 33.0018C9.71772 33.0018 2.50647 38.6268 2.43897 38.6756C2.28495 38.7987 2.1082 38.8903 1.91879 38.9451C1.72938 38.9999 1.53104 39.0169 1.33508 38.995C0.939318 38.9509 0.577298 38.7513 0.328657 38.4403C0.0800168 38.1292 -0.0348763 37.7322 0.00925332 37.3364C0.053383 36.9406 0.25292 36.5786 0.56397 36.33C0.869595 36.0862 7.78647 30.6562 18.9933 30.0581C18.4104 27.7354 18.2021 25.3346 18.3765 22.9462C18.7027 18.8756 20.424 13.4531 26.439 9.35622C25.4127 9.1017 24.3574 8.98257 23.3002 9.00185C19.7377 9.1181 17.499 11.1975 16.4565 15.3618C16.3761 15.6871 16.1891 15.976 15.9254 16.1826C15.6617 16.3892 15.3365 16.5016 15.0015 16.5018C14.8788 16.5025 14.7565 16.4874 14.6377 16.4568C14.2519 16.3603 13.9201 16.1145 13.7155 15.7734C13.5109 15.4324 13.4501 15.024 13.5465 14.6381C15.2808 7.70997 19.7546 6.12185 23.2027 6.0131C24.5722 5.9833 25.9394 6.1378 27.2677 6.47247C26.5496 5.2856 25.4996 4.0481 24.0408 3.4256C22.1658 2.6306 19.884 2.97747 17.2327 4.45872C16.8846 4.65266 16.4737 4.70038 16.0905 4.59137C15.7072 4.48237 15.3829 4.22557 15.189 3.87747C14.995 3.52938 14.9473 3.11849 15.0563 2.73522C15.1653 2.35194 15.4221 2.02766 15.7702 1.83372C19.284 -0.125653 22.4677 -0.517528 25.2352 0.671222C27.5771 1.67622 29.1221 3.62997 30.0858 5.35872C31.2446 3.55122 32.6883 2.32685 34.284 1.80747C36.5077 1.08185 38.904 1.67247 41.409 3.56435C41.7123 3.80889 41.9087 4.16189 41.9563 4.54862C42.004 4.93536 41.8993 5.32547 41.6645 5.63638C41.4296 5.94729 41.0829 6.15459 40.6979 6.21441C40.3128 6.27422 39.9196 6.18185 39.6015 5.95685C37.9308 4.69497 36.4571 4.2581 35.2233 4.65747C33.8565 5.0981 32.8102 6.53247 32.154 7.77185C33.5032 8.04535 34.8013 8.52805 36.0015 9.20247C38.7408 10.7681 42.0015 14.0868 42.0015 21.0037C42.0015 21.4015 41.8434 21.7831 41.5621 22.0644C41.2808 22.3457 40.8993 22.5037 40.5015 22.5037C40.1036 22.5037 39.7221 22.3457 39.4408 22.0644C39.1595 21.7831 39.0015 21.4015 39.0015 21.0037C39.0015 16.605 37.4883 13.5037 34.5015 11.8162C34.1536 11.6186 33.7935 11.4433 33.4233 11.2912C34.3678 13.2113 34.699 15.3753 34.3721 17.49C34.1363 19.0545 33.57 20.5508 32.7108 21.8793C32.4809 22.2018 32.1328 22.4203 31.7424 22.487C31.352 22.5538 30.951 22.4634 30.627 22.2357C30.303 22.008 30.0822 21.6613 30.0128 21.2714C29.9433 20.8815 30.031 20.4799 30.2565 20.1543C30.3952 19.95 33.3183 15.5831 29.6452 10.8975C24.5827 13.7493 21.7908 17.8818 21.3652 23.1956C21.1994 25.4976 21.4426 27.8108 22.0833 30.0281C33.8302 30.3675 41.1183 36.09 41.4333 36.3393C41.7424 36.5868 41.9411 36.9465 41.9861 37.3399C42.031 37.7333 41.9186 38.1285 41.6733 38.4393ZM1.50147 21.7518C1.50147 20.7135 1.80938 19.6985 2.38625 18.8351C2.96313 17.9717 3.78307 17.2988 4.74238 16.9015C5.70169 16.5041 6.75729 16.4002 7.77569 16.6027C8.79409 16.8053 9.72956 17.3053 10.4638 18.0395C11.198 18.7738 11.698 19.7092 11.9006 20.7276C12.1032 21.746 11.9992 22.8016 11.6018 23.7609C11.2045 24.7202 10.5316 25.5402 9.66821 26.1171C8.80486 26.6939 7.78982 27.0018 6.75147 27.0018C5.35908 27.0018 4.02373 26.4487 3.03916 25.4642C2.05459 24.4796 1.50147 23.1442 1.50147 21.7518ZM4.50147 21.7518C4.50147 22.1969 4.63343 22.6319 4.88066 23.0019C5.1279 23.3719 5.4793 23.6603 5.89043 23.8306C6.30157 24.0009 6.75397 24.0454 7.19042 23.9586C7.62688 23.8718 8.02779 23.6575 8.34246 23.3428C8.65713 23.0282 8.87142 22.6273 8.95824 22.1908C9.04505 21.7543 9.0005 21.3019 8.8302 20.8908C8.6599 20.4797 8.37151 20.1283 8.0015 19.881C7.63149 19.6338 7.19648 19.5018 6.75147 19.5018C6.15473 19.5018 5.58244 19.7389 5.16048 20.1609C4.73852 20.5828 4.50147 21.1551 4.50147 21.7518Z" fill="currentColor"/>
</svg>
