<svg width="500" height="500" viewBox="0 0 500 500" fill="none" xmlns="http://www.w3.org/2000/svg">
<path d="M250 480.75C379.351 480.75 484.21 420.21 484.21 345.53C484.21 270.85 379.351 210.31 250 210.31C120.649 210.31 15.79 270.85 15.79 345.53C15.79 420.21 120.649 480.75 250 480.75Z" fill="#F0F0F0"/>
<path d="M400.7 328.91C431.009 328.91 455.58 314.726 455.58 297.23C455.58 279.734 431.009 265.55 400.7 265.55C370.39 265.55 345.82 279.734 345.82 297.23C345.82 314.726 370.39 328.91 400.7 328.91Z" fill="#E0E0E0"/>
<path d="M100.3 328.91C130.609 328.91 155.18 314.726 155.18 297.23C155.18 279.734 130.609 265.55 100.3 265.55C69.9905 265.55 45.4199 279.734 45.4199 297.23C45.4199 314.726 69.9905 328.91 100.3 328.91Z" fill="#E0E0E0"/>
<path d="M389.43 150.21V293.79C389.43 295.51 390.57 297.23 392.84 298.55C397.4 301.18 404.78 301.18 409.33 298.55C411.61 297.23 412.75 295.55 412.75 293.79V150.21H389.43Z" fill="#B16668"/>
<path d="M478.35 224.52L406.12 50.08H396.06L323.82 224.53C323.297 225.792 323.061 227.155 323.128 228.519C323.195 229.884 323.565 231.216 324.209 232.421C324.854 233.625 325.758 234.672 326.857 235.484C327.955 236.297 329.22 236.856 330.56 237.12L331.73 237.35C334.02 237.805 336.053 239.109 337.42 241.001C338.787 242.894 339.388 245.233 339.1 247.55C338.903 249.082 339.093 250.639 339.654 252.078C340.214 253.517 341.127 254.792 342.308 255.787C343.489 256.782 344.901 257.465 346.414 257.773C347.928 258.081 349.494 258.004 350.97 257.55L354.54 256.45C356.685 255.789 358.997 255.932 361.043 256.853C363.09 257.773 364.731 259.407 365.66 261.45L369.25 269.37C369.786 270.551 370.564 271.606 371.535 272.466C372.505 273.326 373.646 273.972 374.883 274.362C376.12 274.752 377.425 274.876 378.714 274.728C380.002 274.579 381.244 274.161 382.36 273.5L396.36 265.19C397.786 264.345 399.413 263.899 401.07 263.899C402.728 263.899 404.354 264.345 405.78 265.19L419.78 273.5C420.896 274.161 422.139 274.579 423.427 274.728C424.715 274.876 426.02 274.752 427.257 274.362C428.494 273.972 429.635 273.326 430.606 272.466C431.576 271.606 432.355 270.551 432.89 269.37L436.49 261.45C437.419 259.407 439.061 257.773 441.107 256.853C443.154 255.932 445.466 255.789 447.61 256.45L451.18 257.55C452.656 258.002 454.222 258.076 455.734 257.767C457.246 257.458 458.657 256.775 459.837 255.781C461.018 254.786 461.93 253.512 462.491 252.074C463.053 250.637 463.245 249.081 463.05 247.55C462.76 245.234 463.358 242.895 464.724 241.002C466.089 239.11 468.121 237.805 470.41 237.35L471.6 237.11C472.942 236.848 474.21 236.292 475.31 235.48C476.411 234.668 477.317 233.622 477.963 232.417C478.609 231.212 478.979 229.878 479.046 228.512C479.113 227.146 478.875 225.783 478.35 224.52Z" fill="#407BFF"/>
<path opacity="0.3" d="M478.35 224.52L406.12 50.08H396.06L323.82 224.53C323.297 225.792 323.061 227.155 323.128 228.519C323.195 229.884 323.565 231.216 324.209 232.421C324.854 233.625 325.758 234.672 326.857 235.484C327.955 236.297 329.22 236.856 330.56 237.12L331.73 237.35C334.02 237.805 336.053 239.109 337.42 241.001C338.787 242.894 339.388 245.233 339.1 247.55C338.903 249.082 339.093 250.639 339.654 252.078C340.214 253.517 341.127 254.792 342.308 255.787C343.489 256.782 344.901 257.465 346.414 257.773C347.928 258.081 349.494 258.004 350.97 257.55L354.54 256.45C356.685 255.789 358.997 255.932 361.043 256.853C363.09 257.773 364.731 259.407 365.66 261.45L369.25 269.37C369.786 270.551 370.564 271.606 371.535 272.466C372.505 273.326 373.646 273.972 374.883 274.362C376.12 274.752 377.425 274.876 378.714 274.728C380.002 274.579 381.244 274.161 382.36 273.5L396.36 265.19C397.786 264.345 399.413 263.899 401.07 263.899C402.728 263.899 404.354 264.345 405.78 265.19L419.78 273.5C420.896 274.161 422.139 274.579 423.427 274.728C424.715 274.876 426.02 274.752 427.257 274.362C428.494 273.972 429.635 273.326 430.606 272.466C431.576 271.606 432.355 270.551 432.89 269.37L436.49 261.45C437.419 259.407 439.061 257.773 441.107 256.853C443.154 255.932 445.466 255.789 447.61 256.45L451.18 257.55C452.656 258.002 454.222 258.076 455.734 257.767C457.246 257.458 458.657 256.775 459.837 255.781C461.018 254.786 461.93 253.512 462.491 252.074C463.053 250.637 463.245 249.081 463.05 247.55C462.76 245.234 463.358 242.895 464.724 241.002C466.089 239.11 468.121 237.805 470.41 237.35L471.6 237.11C472.942 236.848 474.21 236.292 475.31 235.48C476.411 234.668 477.317 233.622 477.963 232.417C478.609 231.212 478.979 229.878 479.046 228.512C479.113 227.146 478.875 225.783 478.35 224.52Z" fill="black"/>
<path opacity="0.1" d="M388 69.57L396.07 51.23H406.13L419.46 82.3L463.06 187.58C462.853 188.687 462.302 189.701 461.485 190.477C460.668 191.253 459.627 191.751 458.51 191.9C456.743 192.196 455.156 193.158 454.077 194.589C452.998 196.019 452.509 197.809 452.71 199.59L452.87 200.93C453.003 202.12 452.829 203.324 452.364 204.428C451.898 205.531 451.158 206.497 450.213 207.232C449.267 207.968 448.149 208.448 446.966 208.628C445.782 208.808 444.571 208.681 443.45 208.26L439.88 206.9C438.213 206.27 436.367 206.3 434.721 206.983C433.074 207.667 431.751 208.954 431.02 210.58L426.59 220.53C426.186 221.428 425.597 222.231 424.861 222.886C424.125 223.541 423.259 224.033 422.32 224.33C421.381 224.628 420.389 224.723 419.411 224.611C418.432 224.499 417.488 224.182 416.64 223.68L404.64 215.68C403.559 215.037 402.324 214.698 401.065 214.698C399.807 214.698 398.572 215.037 397.49 215.68L384.12 223.68C383.273 224.182 382.329 224.499 381.35 224.611C380.371 224.723 379.38 224.628 378.441 224.33C377.502 224.033 376.636 223.541 375.9 222.886C375.164 222.231 374.575 221.428 374.17 220.53L369.74 210.58C369.01 208.954 367.686 207.667 366.04 206.983C364.393 206.3 362.548 206.27 360.88 206.9L357.31 208.26C356.19 208.679 354.981 208.804 353.798 208.623C352.616 208.442 351.5 207.961 350.556 207.226C349.612 206.491 348.873 205.526 348.408 204.424C347.943 203.322 347.768 202.119 347.9 200.93L348.05 199.6C348.254 197.818 347.766 196.025 346.687 194.592C345.608 193.16 344.02 192.196 342.25 191.9C341.452 191.792 340.688 191.504 340.017 191.057C339.347 190.61 338.787 190.016 338.38 189.32L388 69.57Z" fill="black"/>
<path d="M462.25 173.8L406.12 43.11H396.06L338.53 173.8C336.46 178 337.64 183.01 342.27 183.8C344.04 184.096 345.628 185.06 346.707 186.492C347.786 187.925 348.274 189.718 348.07 191.5L347.92 192.83C347.788 194.019 347.963 195.222 348.428 196.324C348.892 197.426 349.632 198.391 350.576 199.126C351.519 199.861 352.636 200.342 353.818 200.523C355.001 200.704 356.21 200.579 357.33 200.16L360.9 198.8C362.569 198.17 364.416 198.202 366.062 198.887C367.709 199.573 369.032 200.862 369.76 202.49L374.19 212.43C374.595 213.328 375.184 214.131 375.92 214.786C376.656 215.441 377.522 215.933 378.461 216.23C379.4 216.528 380.391 216.624 381.37 216.511C382.349 216.399 383.293 216.082 384.14 215.58L397.51 207.58C398.592 206.937 399.827 206.598 401.085 206.598C402.344 206.598 403.579 206.937 404.66 207.58L416.66 215.58C417.508 216.082 418.452 216.399 419.431 216.511C420.409 216.624 421.401 216.528 422.34 216.23C423.279 215.933 424.145 215.441 424.881 214.786C425.617 214.131 426.206 213.328 426.61 212.43L431.04 202.43C431.771 200.804 433.094 199.517 434.741 198.833C436.387 198.15 438.233 198.12 439.9 198.75L443.47 200.11C444.591 200.531 445.802 200.658 446.985 200.478C448.169 200.298 449.287 199.818 450.232 199.082C451.178 198.347 451.918 197.381 452.384 196.278C452.849 195.174 453.023 193.97 452.89 192.78L452.73 191.45C452.526 189.668 453.014 187.875 454.094 186.442C455.173 185.01 456.761 184.046 458.53 183.75C463.14 183 464.32 178 462.25 173.8Z" fill="#407BFF"/>
<path opacity="0.2" d="M462.25 173.8L406.12 43.11H396.06L338.53 173.8C336.46 178 337.64 183.01 342.27 183.8C344.04 184.096 345.628 185.06 346.707 186.492C347.786 187.925 348.274 189.718 348.07 191.5L347.92 192.83C347.788 194.019 347.963 195.222 348.428 196.324C348.892 197.426 349.632 198.391 350.576 199.126C351.519 199.861 352.636 200.342 353.818 200.523C355.001 200.704 356.21 200.579 357.33 200.16L360.9 198.8C362.569 198.17 364.416 198.202 366.062 198.887C367.709 199.573 369.032 200.862 369.76 202.49L374.19 212.43C374.595 213.328 375.184 214.131 375.92 214.786C376.656 215.441 377.522 215.933 378.461 216.23C379.4 216.528 380.391 216.624 381.37 216.511C382.349 216.399 383.293 216.082 384.14 215.58L397.51 207.58C398.592 206.937 399.827 206.598 401.085 206.598C402.344 206.598 403.579 206.937 404.66 207.58L416.66 215.58C417.508 216.082 418.452 216.399 419.431 216.511C420.409 216.624 421.401 216.528 422.34 216.23C423.279 215.933 424.145 215.441 424.881 214.786C425.617 214.131 426.206 213.328 426.61 212.43L431.04 202.43C431.771 200.804 433.094 199.517 434.741 198.833C436.387 198.15 438.233 198.12 439.9 198.75L443.47 200.11C444.591 200.531 445.802 200.658 446.985 200.478C448.169 200.298 449.287 199.818 450.232 199.082C451.178 198.347 451.918 197.381 452.384 196.278C452.849 195.174 453.023 193.97 452.89 192.78L452.73 191.45C452.526 189.668 453.014 187.875 454.094 186.442C455.173 185.01 456.761 184.046 458.53 183.75C463.14 183 464.32 178 462.25 173.8Z" fill="black"/>
<path opacity="0.1" d="M396.06 43.11H406.12L447 138.35C446.693 138.624 446.358 138.865 446 139.07L445.69 139.25C444.639 139.839 443.779 140.717 443.214 141.781C442.648 142.845 442.401 144.049 442.5 145.25C442.585 146.254 442.427 147.263 442.04 148.193C441.654 149.123 441.049 149.946 440.278 150.594C439.507 151.242 438.591 151.695 437.608 151.915C436.626 152.135 435.604 152.117 434.63 151.86L432.19 151.22C430.824 150.859 429.376 150.97 428.08 151.535C426.785 152.099 425.717 153.084 425.05 154.33L421.7 160.57C420.919 162.03 419.593 163.122 418.01 163.609C416.428 164.096 414.717 163.938 413.25 163.17L404 158.37C403.102 157.902 402.104 157.658 401.09 157.658C400.077 157.658 399.079 157.902 398.18 158.37L388.94 163.19C387.474 163.961 385.762 164.12 384.179 163.633C382.596 163.146 381.27 162.052 380.49 160.59L377.14 154.35C376.472 153.103 375.403 152.118 374.105 151.553C372.808 150.989 371.358 150.879 369.99 151.24L367.56 151.88C366.586 152.139 365.564 152.16 364.58 151.94C363.597 151.721 362.68 151.268 361.908 150.62C361.136 149.971 360.532 149.147 360.146 148.216C359.76 147.285 359.604 146.274 359.69 145.27C359.789 144.069 359.541 142.866 358.975 141.802C358.41 140.739 357.551 139.86 356.5 139.27L356.18 139.09C355.524 138.715 354.941 138.224 354.46 137.64L396.06 43.11Z" fill="black"/>
<path d="M448.27 122.4L406.08 33.71L405.75 33.18C405.282 32.3566 404.605 31.6719 403.786 31.1956C402.967 30.7193 402.037 30.4684 401.09 30.4684C400.143 30.4684 399.213 30.7193 398.394 31.1956C397.576 31.6719 396.898 32.3566 396.43 33.18L396.09 33.73L353.91 122.4C353.464 123.121 353.169 123.926 353.042 124.764C352.915 125.602 352.959 126.458 353.171 127.279C353.383 128.1 353.759 128.87 354.276 129.542C354.793 130.214 355.441 130.775 356.18 131.19L356.5 131.36C357.551 131.95 358.41 132.829 358.975 133.892C359.541 134.956 359.789 136.159 359.69 137.36C359.604 138.364 359.761 139.375 360.147 140.306C360.533 141.237 361.137 142.062 361.908 142.711C362.68 143.36 363.596 143.814 364.579 144.035C365.563 144.256 366.585 144.237 367.56 143.98L369.99 143.33C371.358 142.971 372.807 143.082 374.104 143.646C375.401 144.21 376.471 145.194 377.14 146.44L380.49 152.69C381.273 154.148 382.6 155.238 384.181 155.725C385.763 156.212 387.473 156.055 388.94 155.29L398.18 150.46C399.079 149.992 400.077 149.748 401.09 149.748C402.103 149.748 403.102 149.992 404 150.46L413.24 155.29C414.708 156.053 416.417 156.208 417.998 155.721C419.579 155.235 420.905 154.146 421.69 152.69L425.04 146.44C425.708 145.195 426.776 144.211 428.071 143.647C429.366 143.083 430.814 142.971 432.18 143.33L434.62 143.98C435.595 144.235 436.616 144.252 437.599 144.03C438.582 143.808 439.497 143.354 440.267 142.706C441.038 142.057 441.642 141.233 442.029 140.303C442.416 139.373 442.574 138.364 442.49 137.36C442.392 136.159 442.64 134.956 443.205 133.892C443.771 132.829 444.63 131.95 445.68 131.36L445.99 131.19C446.73 130.775 447.379 130.215 447.897 129.544C448.415 128.872 448.792 128.102 449.005 127.281C449.218 126.46 449.263 125.604 449.137 124.766C449.01 123.927 448.716 123.122 448.27 122.4Z" fill="#407BFF"/>
<path opacity="0.1" d="M448.27 122.4L406.08 33.71L405.75 33.18C405.282 32.3566 404.605 31.6719 403.786 31.1956C402.967 30.7193 402.037 30.4684 401.09 30.4684C400.143 30.4684 399.213 30.7193 398.394 31.1956C397.576 31.6719 396.898 32.3566 396.43 33.18L396.09 33.73L353.91 122.4C353.464 123.121 353.169 123.926 353.042 124.764C352.915 125.602 352.959 126.458 353.171 127.279C353.383 128.1 353.759 128.87 354.276 129.542C354.793 130.214 355.441 130.775 356.18 131.19L356.5 131.36C357.551 131.95 358.41 132.829 358.975 133.892C359.541 134.956 359.789 136.159 359.69 137.36C359.604 138.364 359.761 139.375 360.147 140.306C360.533 141.237 361.137 142.062 361.908 142.711C362.68 143.36 363.596 143.814 364.579 144.035C365.563 144.256 366.585 144.237 367.56 143.98L369.99 143.33C371.358 142.971 372.807 143.082 374.104 143.646C375.401 144.21 376.471 145.194 377.14 146.44L380.49 152.69C381.273 154.148 382.6 155.238 384.181 155.725C385.763 156.212 387.473 156.055 388.94 155.29L398.18 150.46C399.079 149.992 400.077 149.748 401.09 149.748C402.103 149.748 403.102 149.992 404 150.46L413.24 155.29C414.708 156.053 416.417 156.208 417.998 155.721C419.579 155.235 420.905 154.146 421.69 152.69L425.04 146.44C425.708 145.195 426.776 144.211 428.071 143.647C429.366 143.083 430.814 142.971 432.18 143.33L434.62 143.98C435.595 144.235 436.616 144.252 437.599 144.03C438.582 143.808 439.497 143.354 440.267 142.706C441.038 142.057 441.642 141.233 442.029 140.303C442.416 139.373 442.574 138.364 442.49 137.36C442.392 136.159 442.64 134.956 443.205 133.892C443.771 132.829 444.63 131.95 445.68 131.36L445.99 131.19C446.73 130.775 447.379 130.215 447.897 129.544C448.415 128.872 448.792 128.102 449.005 127.281C449.218 126.46 449.263 125.604 449.137 124.766C449.01 123.927 448.716 123.122 448.27 122.4Z" fill="black"/>
<path d="M395.46 298.29C395.391 296.439 394.607 294.686 393.273 293.401C391.938 292.116 390.158 291.398 388.305 291.398C386.453 291.398 384.672 292.116 383.338 293.401C382.004 294.686 381.219 296.439 381.15 298.29C381.137 298.423 381.137 298.557 381.15 298.69C381.247 299.282 381.489 299.84 381.854 300.316C382.218 300.793 382.694 301.172 383.24 301.42C384.811 302.214 386.546 302.627 388.305 302.627C390.065 302.627 391.8 302.214 393.37 301.42C393.915 301.17 394.39 300.791 394.755 300.315C395.119 299.839 395.361 299.281 395.46 298.69C395.474 298.557 395.474 298.423 395.46 298.29Z" fill="#37474F"/>
<path d="M393.37 301.42C393.915 301.17 394.391 300.791 394.755 300.315C395.119 299.839 395.362 299.281 395.46 298.69C395.474 298.557 395.474 298.423 395.46 298.29C395.424 297.04 395.062 295.822 394.41 294.755C393.757 293.688 392.837 292.811 391.74 292.21C391.74 292.28 395.3 296.71 392.69 299.66C390.9 301.66 384.69 302.07 382 300.46C382.358 300.857 382.776 301.195 383.24 301.46C384.814 302.247 386.551 302.654 388.31 302.647C390.07 302.64 391.803 302.22 393.37 301.42Z" fill="#263238"/>
<path d="M383.89 301.89C383.832 300.588 383.274 299.359 382.333 298.458C381.391 297.558 380.138 297.055 378.835 297.055C377.532 297.055 376.279 297.558 375.338 298.458C374.396 299.359 373.838 300.588 373.78 301.89C373.775 301.94 373.775 301.99 373.78 302.04C373.775 302.087 373.775 302.133 373.78 302.18C373.847 302.597 374.016 302.99 374.273 303.325C374.53 303.66 374.865 303.927 375.25 304.1C376.36 304.662 377.586 304.955 378.83 304.955C380.074 304.955 381.3 304.662 382.41 304.1C382.794 303.924 383.129 303.657 383.387 303.322C383.644 302.988 383.817 302.596 383.89 302.18V301.89Z" fill="#455A64"/>
<path d="M382.41 304.1C382.794 303.924 383.129 303.657 383.387 303.322C383.644 302.988 383.817 302.596 383.89 302.18V301.89C383.871 301.318 383.756 300.754 383.55 300.22C383.67 302.38 382.64 303.7 379.45 304.11C376.26 304.52 374.17 303.16 373.89 302.67C374.169 303.286 374.648 303.79 375.25 304.1C376.36 304.662 377.586 304.955 378.83 304.955C380.074 304.955 381.301 304.662 382.41 304.1Z" fill="#37474F"/>
<path d="M421 296.83C421 295.504 420.473 294.232 419.536 293.294C418.598 292.357 417.326 291.83 416 291.83C414.674 291.83 413.402 292.357 412.465 293.294C411.527 294.232 411 295.504 411 296.83C410.996 296.877 410.996 296.923 411 296.97C410.995 297.016 410.995 297.063 411 297.11C411.065 297.514 411.227 297.896 411.47 298.225C411.714 298.554 412.033 298.82 412.4 299C413.501 299.557 414.717 299.847 415.95 299.847C417.184 299.847 418.4 299.557 419.5 299C419.883 298.824 420.217 298.557 420.473 298.222C420.729 297.887 420.9 297.495 420.97 297.08V296.8L421 296.83Z" fill="#455A64"/>
<path d="M419.5 299C419.883 298.824 420.217 298.557 420.473 298.222C420.729 297.887 420.9 297.495 420.97 297.08V296.8C420.95 296.232 420.835 295.671 420.63 295.14C420.76 297.29 419.74 298.6 416.57 299C413.4 299.4 411.32 298.06 411.05 297.57C411.327 298.185 411.802 298.689 412.4 299C413.501 299.557 414.717 299.847 415.95 299.847C417.184 299.847 418.4 299.557 419.5 299Z" fill="#37474F"/>
<path d="M111.57 150.21V293.79C111.57 295.51 110.43 297.23 108.16 298.55C103.6 301.18 96.22 301.18 91.67 298.55C89.39 297.23 88.25 295.55 88.25 293.79V150.21H111.57Z" fill="#B16668"/>
<path d="M22.6501 224.52L94.8801 50.08H104.94L177.18 224.53C177.703 225.792 177.94 227.155 177.872 228.519C177.805 229.884 177.436 231.216 176.791 232.421C176.146 233.625 175.242 234.672 174.144 235.484C173.045 236.297 171.781 236.856 170.44 237.12L169.27 237.35C166.98 237.805 164.948 239.109 163.58 241.001C162.213 242.894 161.613 245.233 161.9 247.55C162.097 249.082 161.907 250.639 161.347 252.078C160.786 253.517 159.874 254.792 158.692 255.787C157.511 256.782 156.099 257.465 154.586 257.773C153.073 258.081 151.506 258.004 150.03 257.55L146.46 256.45C144.316 255.789 142.004 255.932 139.957 256.853C137.91 257.773 136.269 259.407 135.34 261.45L131.75 269.37C131.215 270.551 130.436 271.606 129.466 272.466C128.495 273.326 127.354 273.972 126.117 274.362C124.88 274.752 123.575 274.876 122.287 274.728C120.998 274.579 119.756 274.161 118.64 273.5L104.64 265.19C103.214 264.345 101.587 263.899 99.9301 263.899C98.2728 263.899 96.646 264.345 95.2201 265.19L81.2201 273.5C80.1043 274.161 78.8617 274.579 77.5734 274.728C76.2851 274.876 74.98 274.752 73.743 274.362C72.5061 273.972 71.3652 273.326 70.3946 272.466C69.4241 271.606 68.6456 270.551 68.1101 269.37L64.5101 261.45C63.5812 259.407 61.9399 257.773 59.8932 256.853C57.8465 255.932 55.5347 255.789 53.3901 256.45L49.8201 257.55C48.3442 258.002 46.7787 258.076 45.2665 257.767C43.7543 257.458 42.3436 256.775 41.1632 255.781C39.9828 254.786 39.0703 253.512 38.509 252.074C37.9478 250.637 37.7556 249.081 37.9501 247.55C38.2401 245.234 37.6421 242.895 36.2765 241.002C34.9109 239.11 32.8791 237.805 30.5901 237.35L29.4001 237.11C28.0579 236.848 26.7907 236.292 25.6902 235.48C24.5898 234.668 23.6837 233.622 23.0376 232.417C22.3914 231.212 22.0215 229.878 21.9544 228.512C21.8874 227.146 22.1251 225.783 22.6501 224.52Z" fill="#407BFF"/>
<path opacity="0.3" d="M22.6501 224.52L94.8801 50.08H104.94L177.18 224.53C177.703 225.792 177.94 227.155 177.872 228.519C177.805 229.884 177.436 231.216 176.791 232.421C176.146 233.625 175.242 234.672 174.144 235.484C173.045 236.297 171.781 236.856 170.44 237.12L169.27 237.35C166.98 237.805 164.948 239.109 163.58 241.001C162.213 242.894 161.613 245.233 161.9 247.55C162.097 249.082 161.907 250.639 161.347 252.078C160.786 253.517 159.874 254.792 158.692 255.787C157.511 256.782 156.099 257.465 154.586 257.773C153.073 258.081 151.506 258.004 150.03 257.55L146.46 256.45C144.316 255.789 142.004 255.932 139.957 256.853C137.91 257.773 136.269 259.407 135.34 261.45L131.75 269.37C131.215 270.551 130.436 271.606 129.466 272.466C128.495 273.326 127.354 273.972 126.117 274.362C124.88 274.752 123.575 274.876 122.287 274.728C120.998 274.579 119.756 274.161 118.64 273.5L104.64 265.19C103.214 264.345 101.587 263.899 99.9301 263.899C98.2728 263.899 96.646 264.345 95.2201 265.19L81.2201 273.5C80.1043 274.161 78.8617 274.579 77.5734 274.728C76.2851 274.876 74.98 274.752 73.743 274.362C72.5061 273.972 71.3652 273.326 70.3946 272.466C69.4241 271.606 68.6456 270.551 68.1101 269.37L64.5101 261.45C63.5812 259.407 61.9399 257.773 59.8932 256.853C57.8465 255.932 55.5347 255.789 53.3901 256.45L49.8201 257.55C48.3442 258.002 46.7787 258.076 45.2665 257.767C43.7543 257.458 42.3436 256.775 41.1632 255.781C39.9828 254.786 39.0703 253.512 38.509 252.074C37.9478 250.637 37.7556 249.081 37.9501 247.55C38.2401 245.234 37.6421 242.895 36.2765 241.002C34.9109 239.11 32.8791 237.805 30.5901 237.35L29.4001 237.11C28.0579 236.848 26.7907 236.292 25.6902 235.48C24.5898 234.668 23.6837 233.622 23.0376 232.417C22.3914 231.212 22.0215 229.878 21.9544 228.512C21.8874 227.146 22.1251 225.783 22.6501 224.52Z" fill="black"/>
<path opacity="0.1" d="M113 69.57L104.93 51.23H94.8799L81.5399 82.3L37.9399 187.58C38.1483 188.687 38.7001 189.7 39.5168 190.475C40.3336 191.251 41.3738 191.749 42.4899 191.9C44.2573 192.196 45.8438 193.158 46.9229 194.589C48.0019 196.019 48.4912 197.809 48.2899 199.59L48.1299 200.93C47.9969 202.12 48.1714 203.324 48.6367 204.428C49.1021 205.531 49.8427 206.497 50.7878 207.232C51.7329 207.968 52.8509 208.448 54.0348 208.628C55.2187 208.808 56.429 208.681 57.5499 208.26L61.1199 206.9C62.7901 206.264 64.6404 206.291 66.2914 206.975C67.9425 207.659 69.2693 208.949 69.9999 210.58L74.4299 220.53C74.8334 221.435 75.4245 222.245 76.1642 222.904C76.9039 223.564 77.7752 224.059 78.7206 224.357C79.6659 224.655 80.6637 224.748 81.648 224.632C82.6322 224.515 83.5805 224.191 84.4299 223.68L96.4299 215.68C97.5117 215.037 98.7467 214.698 100.005 214.698C101.263 214.698 102.498 215.037 103.58 215.68L116.95 223.68C117.799 224.191 118.748 224.515 119.732 224.632C120.716 224.748 121.714 224.655 122.659 224.357C123.605 224.059 124.476 223.564 125.216 222.904C125.955 222.245 126.546 221.435 126.95 220.53L131.38 210.58C132.11 208.954 133.434 207.667 135.08 206.983C136.727 206.3 138.572 206.27 140.24 206.9L143.81 208.26C144.93 208.679 146.139 208.804 147.322 208.623C148.504 208.442 149.621 207.961 150.564 207.226C151.508 206.491 152.248 205.526 152.713 204.424C153.178 203.322 153.352 202.119 153.22 200.93L153.07 199.6C152.866 197.818 153.354 196.025 154.433 194.592C155.513 193.16 157.101 192.196 158.87 191.9C159.669 191.792 160.432 191.504 161.103 191.057C161.774 190.61 162.334 190.016 162.74 189.32L113 69.57Z" fill="black"/>
<path d="M38.7499 173.8L94.8799 43.11H104.94L162.47 173.8C164.54 178 163.36 183.01 158.73 183.8C156.961 184.096 155.373 185.06 154.293 186.492C153.214 187.925 152.726 189.718 152.93 191.5L153.08 192.83C153.212 194.019 153.038 195.222 152.573 196.324C152.108 197.426 151.368 198.391 150.424 199.126C149.481 199.861 148.364 200.342 147.182 200.523C145.999 200.704 144.79 200.579 143.67 200.16L140.1 198.8C138.431 198.17 136.585 198.202 134.938 198.887C133.291 199.573 131.969 200.862 131.24 202.49L126.81 212.43C126.406 213.335 125.815 214.145 125.076 214.804C124.336 215.464 123.465 215.959 122.519 216.257C121.574 216.555 120.576 216.648 119.592 216.532C118.608 216.415 117.659 216.091 116.81 215.58L103.44 207.58C102.358 206.937 101.123 206.598 99.8649 206.598C98.6067 206.598 97.3717 206.937 96.2899 207.58L84.2899 215.58C83.4404 216.091 82.4922 216.415 81.508 216.532C80.5237 216.648 79.5259 216.555 78.5805 216.257C77.6352 215.959 76.7639 215.464 76.0242 214.804C75.2845 214.145 74.6934 213.335 74.2899 212.43L69.8599 202.43C69.1295 200.804 67.806 199.517 66.1595 198.833C64.513 198.15 62.6677 198.12 60.9999 198.75L57.4299 200.11C56.309 200.531 55.0987 200.658 53.9148 200.478C52.7309 200.298 51.6129 199.818 50.6678 199.082C49.7227 198.347 48.982 197.381 48.5167 196.278C48.0514 195.174 47.8769 193.97 48.0099 192.78L48.1699 191.45C48.3739 189.668 47.8859 187.875 46.8066 186.442C45.7273 185.01 44.1392 184.046 42.3699 183.75C37.8599 183 36.6799 178 38.7499 173.8Z" fill="#407BFF"/>
<path opacity="0.2" d="M38.7499 173.8L94.8799 43.11H104.94L162.47 173.8C164.54 178 163.36 183.01 158.73 183.8C156.961 184.096 155.373 185.06 154.293 186.492C153.214 187.925 152.726 189.718 152.93 191.5L153.08 192.83C153.212 194.019 153.038 195.222 152.573 196.324C152.108 197.426 151.368 198.391 150.424 199.126C149.481 199.861 148.364 200.342 147.182 200.523C145.999 200.704 144.79 200.579 143.67 200.16L140.1 198.8C138.431 198.17 136.585 198.202 134.938 198.887C133.291 199.573 131.969 200.862 131.24 202.49L126.81 212.43C126.406 213.335 125.815 214.145 125.076 214.804C124.336 215.464 123.465 215.959 122.519 216.257C121.574 216.555 120.576 216.648 119.592 216.532C118.608 216.415 117.659 216.091 116.81 215.58L103.44 207.58C102.358 206.937 101.123 206.598 99.8649 206.598C98.6067 206.598 97.3717 206.937 96.2899 207.58L84.2899 215.58C83.4404 216.091 82.4922 216.415 81.508 216.532C80.5237 216.648 79.5259 216.555 78.5805 216.257C77.6352 215.959 76.7639 215.464 76.0242 214.804C75.2845 214.145 74.6934 213.335 74.2899 212.43L69.8599 202.43C69.1295 200.804 67.806 199.517 66.1595 198.833C64.513 198.15 62.6677 198.12 60.9999 198.75L57.4299 200.11C56.309 200.531 55.0987 200.658 53.9148 200.478C52.7309 200.298 51.6129 199.818 50.6678 199.082C49.7227 198.347 48.982 197.381 48.5167 196.278C48.0514 195.174 47.8769 193.97 48.0099 192.78L48.1699 191.45C48.3739 189.668 47.8859 187.875 46.8066 186.442C45.7273 185.01 44.1392 184.046 42.3699 183.75C37.8599 183 36.6799 178 38.7499 173.8Z" fill="black"/>
<path opacity="0.1" d="M104.94 43.11H94.88L54 138.35C54.3073 138.624 54.6425 138.865 55 139.07L55.31 139.25C56.3613 139.839 57.221 140.717 57.7866 141.781C58.3523 142.845 58.5999 144.049 58.5 145.25C58.4155 146.254 58.5733 147.263 58.9601 148.193C59.3468 149.123 59.9512 149.946 60.7225 150.594C61.4937 151.242 62.4092 151.695 63.392 151.915C64.3747 152.135 65.3961 152.117 66.37 151.86L68.81 151.22C70.1858 150.849 71.647 150.956 72.9536 151.525C74.2602 152.094 75.3345 153.09 76 154.35L79.35 160.59C80.1313 162.05 81.4575 163.142 83.04 163.629C84.6225 164.116 86.3332 163.958 87.8 163.19L97 158.37C97.8986 157.902 98.8968 157.658 99.91 157.658C100.923 157.658 101.921 157.902 102.82 158.37L112.06 163.19C113.526 163.961 115.238 164.12 116.821 163.633C118.404 163.146 119.731 162.052 120.51 160.59L123.86 154.35C124.528 153.103 125.598 152.118 126.895 151.553C128.192 150.989 129.642 150.879 131.01 151.24L133.44 151.88C134.414 152.139 135.436 152.16 136.42 151.94C137.404 151.721 138.32 151.268 139.092 150.62C139.864 149.971 140.469 149.147 140.855 148.216C141.241 147.285 141.397 146.274 141.31 145.27C141.211 144.069 141.46 142.866 142.025 141.802C142.591 140.739 143.45 139.86 144.5 139.27L144.82 139.09C145.477 138.715 146.059 138.224 146.54 137.64L104.94 43.11Z" fill="black"/>
<path d="M52.7299 122.4L94.9199 33.71L95.2499 33.18C95.7178 32.3566 96.3956 31.6719 97.2141 31.1956C98.0327 30.7193 98.9628 30.4684 99.9099 30.4684C100.857 30.4684 101.787 30.7193 102.606 31.1956C103.424 31.6719 104.102 32.3566 104.57 33.18L104.91 33.73L147.09 122.4C147.536 123.121 147.831 123.926 147.958 124.764C148.085 125.602 148.041 126.458 147.829 127.279C147.617 128.1 147.241 128.87 146.724 129.542C146.207 130.214 145.559 130.775 144.82 131.19L144.5 131.36C143.449 131.95 142.59 132.829 142.025 133.892C141.459 134.956 141.211 136.159 141.31 137.36C141.396 138.364 141.24 139.375 140.854 140.306C140.468 141.237 139.863 142.062 139.092 142.711C138.32 143.36 137.404 143.814 136.421 144.035C135.437 144.256 134.415 144.237 133.44 143.98L131.01 143.33C129.642 142.971 128.193 143.082 126.896 143.646C125.599 144.21 124.53 145.194 123.86 146.44L120.51 152.69C119.727 154.148 118.4 155.238 116.819 155.725C115.237 156.212 113.527 156.055 112.06 155.29L102.82 150.46C101.921 149.992 100.923 149.748 99.9099 149.748C98.8967 149.748 97.8985 149.992 96.9999 150.46L87.7599 155.29C86.2921 156.053 84.5832 156.208 83.0022 155.721C81.4212 155.235 80.095 154.146 79.3099 152.69L75.9999 146.46C75.3319 145.215 74.2643 144.231 72.9691 143.667C71.6738 143.103 70.2263 142.991 68.8599 143.35L66.4199 144C65.4452 144.255 64.4238 144.272 63.4412 144.05C62.4586 143.828 61.5435 143.374 60.7726 142.726C60.0017 142.077 59.3976 141.253 59.0108 140.323C58.6241 139.393 58.466 138.384 58.5499 137.38C58.6485 136.179 58.4003 134.976 57.8348 133.912C57.2693 132.849 56.4103 131.97 55.3599 131.38L55.0499 131.21C54.3036 130.799 53.6487 130.241 53.1247 129.569C52.6008 128.897 52.2187 128.126 52.0018 127.302C51.7849 126.478 51.7375 125.619 51.8627 124.776C51.9878 123.934 52.2829 123.125 52.7299 122.4Z" fill="#407BFF"/>
<path opacity="0.1" d="M52.7299 122.4L94.9199 33.71L95.2499 33.18C95.7178 32.3566 96.3956 31.6719 97.2141 31.1956C98.0327 30.7193 98.9628 30.4684 99.9099 30.4684C100.857 30.4684 101.787 30.7193 102.606 31.1956C103.424 31.6719 104.102 32.3566 104.57 33.18L104.91 33.73L147.09 122.4C147.536 123.121 147.831 123.926 147.958 124.764C148.085 125.602 148.041 126.458 147.829 127.279C147.617 128.1 147.241 128.87 146.724 129.542C146.207 130.214 145.559 130.775 144.82 131.19L144.5 131.36C143.449 131.95 142.59 132.829 142.025 133.892C141.459 134.956 141.211 136.159 141.31 137.36C141.396 138.364 141.24 139.375 140.854 140.306C140.468 141.237 139.863 142.062 139.092 142.711C138.32 143.36 137.404 143.814 136.421 144.035C135.437 144.256 134.415 144.237 133.44 143.98L131.01 143.33C129.642 142.971 128.193 143.082 126.896 143.646C125.599 144.21 124.53 145.194 123.86 146.44L120.51 152.69C119.727 154.148 118.4 155.238 116.819 155.725C115.237 156.212 113.527 156.055 112.06 155.29L102.82 150.46C101.921 149.992 100.923 149.748 99.9099 149.748C98.8967 149.748 97.8985 149.992 96.9999 150.46L87.7599 155.29C86.2921 156.053 84.5832 156.208 83.0022 155.721C81.4212 155.235 80.095 154.146 79.3099 152.69L75.9999 146.46C75.3319 145.215 74.2643 144.231 72.9691 143.667C71.6738 143.103 70.2263 142.991 68.8599 143.35L66.4199 144C65.4452 144.255 64.4238 144.272 63.4412 144.05C62.4586 143.828 61.5435 143.374 60.7726 142.726C60.0017 142.077 59.3976 141.253 59.0108 140.323C58.6241 139.393 58.466 138.384 58.5499 137.38C58.6485 136.179 58.4003 134.976 57.8348 133.912C57.2693 132.849 56.4103 131.97 55.3599 131.38L55.0499 131.21C54.3036 130.799 53.6487 130.241 53.1247 129.569C52.6008 128.897 52.2187 128.126 52.0018 127.302C51.7849 126.478 51.7375 125.619 51.8627 124.776C51.9878 123.934 52.2829 123.125 52.7299 122.4Z" fill="black"/>
<path d="M105.54 298.29C105.61 296.439 106.394 294.686 107.728 293.401C109.062 292.116 110.843 291.398 112.695 291.398C114.548 291.398 116.328 292.116 117.663 293.401C118.997 294.686 119.781 296.439 119.85 298.29C119.864 298.423 119.864 298.557 119.85 298.69C119.753 299.282 119.511 299.84 119.147 300.316C118.782 300.793 118.306 301.172 117.76 301.42C116.19 302.214 114.455 302.627 112.695 302.627C110.936 302.627 109.201 302.214 107.63 301.42C107.085 301.17 106.61 300.791 106.246 300.315C105.882 299.839 105.639 299.281 105.54 298.69C105.527 298.557 105.527 298.423 105.54 298.29Z" fill="#37474F"/>
<path d="M107.63 301.42C107.085 301.17 106.61 300.791 106.246 300.315C105.882 299.839 105.639 299.281 105.54 298.69C105.527 298.557 105.527 298.423 105.54 298.29C105.576 297.04 105.939 295.822 106.591 294.755C107.244 293.688 108.164 292.811 109.26 292.21C109.26 292.28 105.7 296.71 108.26 299.66C110.05 301.66 116.26 302.07 118.95 300.46C118.593 300.857 118.174 301.195 117.71 301.46C116.143 302.239 114.416 302.641 112.666 302.634C110.915 302.628 109.191 302.212 107.63 301.42Z" fill="#263238"/>
<path d="M117.11 301.89C117.168 300.588 117.726 299.359 118.667 298.458C119.609 297.558 120.862 297.055 122.165 297.055C123.468 297.055 124.721 297.558 125.662 298.458C126.604 299.359 127.162 300.588 127.22 301.89C127.225 301.94 127.225 301.99 127.22 302.04C127.224 302.087 127.224 302.133 127.22 302.18C127.153 302.597 126.983 302.99 126.727 303.325C126.47 303.66 126.135 303.927 125.75 304.1C124.64 304.662 123.414 304.955 122.17 304.955C120.926 304.955 119.699 304.662 118.59 304.1C118.206 303.924 117.871 303.657 117.613 303.322C117.356 302.988 117.183 302.596 117.11 302.18V301.89Z" fill="#455A64"/>
<path d="M118.59 304.1C118.206 303.924 117.871 303.657 117.613 303.322C117.356 302.988 117.183 302.596 117.11 302.18V301.89C117.129 301.318 117.244 300.754 117.45 300.22C117.33 302.38 118.36 303.7 121.55 304.11C124.74 304.52 126.83 303.16 127.11 302.67C126.831 303.286 126.351 303.79 125.75 304.1C124.64 304.662 123.414 304.955 122.17 304.955C120.926 304.955 119.699 304.662 118.59 304.1Z" fill="#37474F"/>
<path d="M80 296.83C80 295.504 80.5268 294.232 81.4645 293.294C82.4021 292.357 83.6739 291.83 85 291.83C86.3261 291.83 87.5979 292.357 88.5355 293.294C89.4732 294.232 90 295.504 90 296.83C90.0046 296.877 90.0046 296.923 90 296.97C90.0054 297.016 90.0054 297.063 90 297.11C89.9347 297.514 89.7735 297.896 89.5299 298.225C89.2863 298.554 88.9674 298.82 88.6 299C87.4995 299.557 86.2834 299.847 85.05 299.847C83.8166 299.847 82.6005 299.557 81.5 299C81.1154 298.83 80.7778 298.57 80.5165 298.24C80.2551 297.911 80.0779 297.523 80 297.11V296.83Z" fill="#455A64"/>
<path d="M81.5 299C81.1154 298.83 80.7778 298.57 80.5165 298.24C80.2551 297.911 80.0779 297.523 80 297.11V296.83C80.0203 296.262 80.1353 295.701 80.34 295.17C80.21 297.32 81.23 298.63 84.4 299.03C87.57 299.43 89.65 298.09 89.92 297.6C89.6456 298.199 89.1818 298.691 88.6 299C87.4995 299.557 86.2834 299.847 85.05 299.847C83.8166 299.847 82.6005 299.557 81.5 299Z" fill="#37474F"/>
<path d="M317.61 352.6L290.64 367.25L280.94 378.69L297.34 382.57L317.61 394.21L324.31 381.34L315.85 367.25L317.61 352.6Z" fill="#407BFF"/>
<path opacity="0.3" d="M317.61 352.6L290.64 367.25L280.94 378.69L297.34 382.57L317.61 394.21L324.31 381.34L315.85 367.25L317.61 352.6Z" fill="black"/>
<path d="M317.61 352.6L333.13 354.54L335.07 370.58L324.31 381.34L315.85 367.25L317.61 352.6Z" fill="#407BFF"/>
<path opacity="0.35" d="M317.61 352.6L333.13 354.54L335.07 370.58L324.31 381.34L315.85 367.25L317.61 352.6Z" fill="black"/>
<path d="M354.29 373.4L355.35 385.93L344.42 381.34L330.31 387.16L323.61 394.21L317.61 408.67L311.09 429.13L305.98 410.61L317.61 394.21L328.59 383.81L343.71 379.93L354.29 373.4Z" fill="#407BFF"/>
<path d="M335.95 419.25L356.41 404.79L349.53 389.63L335.95 419.25Z" fill="#407BFF"/>
<g opacity="0.5">
<path d="M354.29 373.4L355.35 385.93L344.42 381.34L330.31 387.16L323.61 394.21L317.61 408.67L311.09 429.13L305.98 410.61L317.61 394.21L328.59 383.81L343.71 379.93L354.29 373.4Z" fill="black"/>
<path d="M335.95 419.25L356.41 404.79L349.53 389.63L335.95 419.25Z" fill="black"/>
</g>
<path d="M301.87 361.15L291.69 371.11L289.05 376.93L298.22 378.17L317.61 394.21L297.34 382.57L280.94 378.69L290.64 367.25L301.87 361.15Z" fill="#407BFF"/>
<path d="M333.13 354.54L331.55 369.53L322.12 377.68L324.31 381.34L335.07 370.58L333.13 354.54Z" fill="#407BFF"/>
<path d="M305.98 410.61L294.34 407.44L270.89 397.92L256.6 385.4L262.77 377.68L271.94 376.93L264.36 379.58L262.77 385.22L270.53 392.27L304.92 407.08L317.61 394.21L305.98 410.61Z" fill="#407BFF"/>
<g opacity="0.25">
<path d="M301.87 361.15L291.69 371.11L289.05 376.93L298.22 378.17L317.61 394.21L297.34 382.57L280.94 378.69L290.64 367.25L301.87 361.15Z" fill="black"/>
<path d="M333.13 354.54L331.55 369.53L322.12 377.68L324.31 381.34L335.07 370.58L333.13 354.54Z" fill="black"/>
<path d="M305.98 410.61L294.34 407.44L270.89 397.92L256.6 385.4L262.77 377.68L271.94 376.93L264.36 379.58L262.77 385.22L270.53 392.27L304.92 407.08L317.61 394.21L305.98 410.61Z" fill="black"/>
</g>
<path d="M290.64 367.25L271.94 376.93L264.36 379.58L262.77 385.22L270.53 392.27L304.92 407.08L308.51 403.44L297.16 391.21H287.99L280.94 378.69L290.64 367.25Z" fill="#407BFF"/>
<path opacity="0.35" d="M290.64 367.25L271.94 376.93L264.36 379.58L262.77 385.22L270.53 392.27L304.92 407.08L308.51 403.44L297.16 391.21H287.99L280.94 378.69L290.64 367.25Z" fill="black"/>
<path d="M333.13 354.54L354.29 373.4L343.71 379.93L328.59 383.81L317.61 394.21L324.31 381.34L335.07 370.58L333.13 354.54Z" fill="#407BFF"/>
<path d="M344.42 381.34L330.31 387.16L323.61 394.21L317.61 408.67L320.61 422.78L335.95 419.25L349.53 389.63L344.42 381.34Z" fill="#407BFF"/>
<path d="M280.94 378.69L287.99 391.21H297.16L297.34 382.57L280.94 378.69Z" fill="#407BFF"/>
<path d="M266.65 406.2L274.06 408.67L278.12 404.79L294.34 407.44L270.89 397.92L266.65 406.2Z" fill="#407BFF"/>
<g opacity="0.45">
<path d="M333.13 354.54L354.29 373.4L343.71 379.93L328.59 383.81L317.61 394.21L324.31 381.34L335.07 370.58L333.13 354.54Z" fill="black"/>
<path d="M344.42 381.34L330.31 387.16L323.61 394.21L317.61 408.67L320.61 422.78L335.95 419.25L349.53 389.63L344.42 381.34Z" fill="black"/>
<path d="M280.94 378.69L287.99 391.21H297.16L297.34 382.57L280.94 378.69Z" fill="black"/>
<path d="M266.65 406.2L274.06 408.67L278.12 404.79L294.34 407.44L270.89 397.92L266.65 406.2Z" fill="black"/>
</g>
<path d="M301.11 409.29L294.34 407.44L287.11 414.67L293.1 424.01L301.11 409.29Z" fill="#407BFF"/>
<path opacity="0.35" d="M301.11 409.29L294.34 407.44L287.11 414.67L293.1 424.01L301.11 409.29Z" fill="black"/>
<path d="M355.35 385.93L363.28 398.62L356.41 404.79L349.53 389.63L344.42 381.34L355.35 385.93Z" fill="#407BFF"/>
<path d="M311.09 429.13L320.61 422.78L317.61 408.67L311.09 429.13Z" fill="#407BFF"/>
<path d="M317.61 394.21L308.51 403.44L297.16 391.21L297.34 382.57L317.61 394.21Z" fill="#407BFF"/>
<path d="M256.6 385.4L252.02 395.45L266.65 406.2L270.89 397.92L256.6 385.4Z" fill="#407BFF"/>
<path d="M311.09 429.13L293.1 424.01L301.11 409.29L305.98 410.61L311.09 429.13Z" fill="#407BFF"/>
<path d="M274.06 408.67L287.11 414.67L294.34 407.44L278.12 404.79L274.06 408.67Z" fill="#407BFF"/>
<g opacity="0.4">
<path d="M355.35 385.93L363.28 398.62L356.41 404.79L349.53 389.63L344.42 381.34L355.35 385.93Z" fill="black"/>
<path d="M311.09 429.13L320.61 422.78L317.61 408.67L311.09 429.13Z" fill="black"/>
<path d="M317.61 394.21L308.51 403.44L297.16 391.21L297.34 382.57L317.61 394.21Z" fill="black"/>
<path d="M256.6 385.4L252.02 395.45L266.65 406.2L270.89 397.92L256.6 385.4Z" fill="black"/>
<path d="M311.09 429.13L293.1 424.01L301.11 409.29L305.98 410.61L311.09 429.13Z" fill="black"/>
<path d="M274.06 408.67L287.11 414.67L294.34 407.44L278.12 404.79L274.06 408.67Z" fill="black"/>
</g>
<path d="M203.44 238.9V196.81C200.45 197.117 197.675 198.506 195.638 200.716C193.601 202.926 192.442 205.805 192.38 208.81V228.81C192.359 230.225 192.639 231.628 193.201 232.927C193.763 234.226 194.594 235.39 195.639 236.344C196.685 237.298 197.921 238.019 199.265 238.459C200.61 238.9 202.033 239.05 203.44 238.9Z" fill="#455A64"/>
<path d="M210.88 253.17L226.18 251.83V159.91L210.88 161.25C208.111 161.533 205.543 162.821 203.659 164.87C201.776 166.919 200.709 169.587 200.66 172.37V243.84C200.635 245.149 200.889 246.449 201.407 247.652C201.924 248.855 202.691 249.935 203.659 250.818C204.626 251.701 205.77 252.367 207.016 252.773C208.261 253.178 209.578 253.314 210.88 253.17Z" fill="#37474F"/>
<path d="M263.13 248.6L218.31 252.52C217.8 252.572 217.284 252.516 216.797 252.355C216.311 252.193 215.863 251.93 215.485 251.584C215.108 251.237 214.807 250.814 214.605 250.343C214.402 249.872 214.302 249.363 214.31 248.85V165C214.33 163.908 214.748 162.862 215.484 162.055C216.22 161.249 217.225 160.739 218.31 160.62L263.13 156.7C263.64 156.648 264.156 156.704 264.643 156.865C265.13 157.027 265.577 157.29 265.955 157.636C266.333 157.983 266.633 158.406 266.835 158.877C267.038 159.348 267.138 159.857 267.13 160.37V244.24C267.105 245.328 266.686 246.37 265.95 247.172C265.214 247.974 264.212 248.481 263.13 248.6Z" fill="#263238"/>
<path d="M263.56 139.21L208.75 144V170.79L263.56 165.99C268.56 165.55 272.63 159.2 272.63 151.8C272.63 144.4 268.57 138.77 263.56 139.21Z" fill="#407BFF"/>
<path opacity="0.15" d="M263.56 139.21L208.75 144V170.79L263.56 165.99C268.56 165.55 272.63 159.2 272.63 151.8C272.63 144.4 268.57 138.77 263.56 139.21Z" fill="black"/>
<path d="M217.747 158.048C218.289 150.645 214.693 144.348 209.713 143.983C204.734 143.619 200.258 149.324 199.715 156.727C199.173 164.13 202.77 170.427 207.749 170.792C212.729 171.156 217.205 165.451 217.747 158.048Z" fill="#407BFF"/>
<path opacity="0.3" d="M217.747 158.048C218.289 150.645 214.693 144.348 209.713 143.983C204.734 143.619 200.258 149.324 199.715 156.727C199.173 164.13 202.77 170.427 207.749 170.792C212.729 171.156 217.205 165.451 217.747 158.048Z" fill="black"/>
<path d="M268.62 374.57C268.27 376.089 268.29 377.67 268.68 379.18C269.351 380.16 270.159 381.039 271.08 381.79C273.224 383.674 275.065 385.876 276.54 388.32C278.294 391.332 280.683 393.925 283.54 395.92C287.319 398.125 291.797 398.805 296.06 397.82C299.94 396.91 302.06 395.39 301.62 392.37C290.45 386.49 279.53 381 268.62 374.57Z" fill="#263238"/>
<path d="M297.32 273.69C285.95 258.69 282.63 254.94 275.08 245.37C272.1 245.801 269.091 246.005 266.08 245.98L271.02 239.08L223.38 239.51C223.38 250.18 223.18 315.38 223.18 315.38C222.92 318.45 220.6 327.24 220.37 338.3C220.04 354.35 223.25 382.6 223.37 385.11C223.51 387.457 223.657 389.79 223.81 392.11C223.94 394.06 224.21 395.48 226.17 396.22C227.805 396.876 229.56 397.179 231.32 397.11C232.854 397.028 234.334 396.515 235.59 395.63C236.79 394.74 236.65 392.51 236.82 391.15C237.02 389.54 237.27 387.94 237.47 386.32C239.08 372.73 243.61 338.6 245.65 322.73C247.15 311.11 249.76 288.62 251.28 275.37C252.65 276.61 254.18 277.9 255.87 279.29C265.23 286.97 276.53 294.29 282.03 298.86C277.82 304.64 274.19 309.65 272.76 320.05C272.37 322.93 272.11 325.82 271.91 328.72C271.43 335.86 271.32 343.01 271.16 350.16C271.1 353.38 271.03 356.6 270.89 359.82C270.83 361.19 270.76 362.56 270.66 363.93C270.53 365.64 270.2 366.93 271.31 368.5C272.032 369.402 272.889 370.188 273.85 370.83C274.301 371.186 274.795 371.485 275.32 371.72C276.701 372.146 278.186 372.09 279.53 371.56C280.404 371.322 281.232 370.94 281.98 370.43C282.621 369.974 283.106 369.331 283.37 368.59C283.542 367.709 283.642 366.817 283.67 365.92C283.87 364.75 284.16 363.59 284.46 362.44C285.38 358.92 286.41 355.44 287.3 351.88C291.58 335.03 299.85 316.74 304.3 302.19C308.88 287.35 307 286.43 297.32 273.69Z" fill="#FFA8A7"/>
<path d="M249.18 418.62C249.55 418.97 249.44 421.41 249.02 422.06C248.6 422.71 246.02 424.95 241.36 425.28C236.93 425.6 232.96 425 230.36 423.35C227.76 421.7 226.49 419.87 226.25 417.35C226.01 414.83 226.25 412.35 225.08 410.44C223.97 408.65 222.19 406.62 221.81 405.65C220.97 403.53 221.81 400.5 221.81 400.5L249.18 418.62Z" fill="#263238"/>
<path d="M273.29 238.78H220.35C217.56 285.94 218.96 329.28 218.96 329.28C218.96 329.28 223.07 333.75 232.44 334.37C242.35 335.03 246.2 332.15 246.2 332.15L255.9 279.32L279.76 299.21C278.159 301.815 276.819 304.572 275.76 307.44C275.76 307.44 278.96 312.86 287.97 315.05C296.98 317.24 301.8 314 301.8 314C301.8 314 308.74 296.15 308.99 291.65C309.24 287.15 306.75 284.76 298.49 273.6C290.23 262.44 273.29 238.78 273.29 238.78Z" fill="#407BFF"/>
<path opacity="0.15" d="M255.9 279.32L257.62 272.62C257.62 272.62 269.85 268.62 276.36 260.36C276.36 260.36 272.83 271.26 261.93 274.66L259.66 279.32L279.76 299.21L255.9 279.32Z" fill="black"/>
<path d="M301.61 390.17C300.23 385.54 296.5 383.67 293.24 380.51C290.611 378.094 288.375 375.284 286.61 372.18C285.454 369.681 284.971 366.923 285.21 364.18C285.34 361.91 286.11 361.03 281.39 361.18C276.67 361.33 275.14 362.5 274.81 364.69C274.48 366.88 274.04 367.47 273.72 366.02C273.4 364.57 274.38 362.62 272.62 361.84C270.86 361.06 270.91 360.09 270.94 359.32C270.962 358.88 270.962 358.44 270.94 358C270.94 358 268.63 358.09 269.45 362.39C270.27 366.69 268.68 368.15 268.45 372.39C268.347 373.496 268.483 374.611 268.85 375.66C270.07 378.38 272.37 379.21 274.24 381.66C276.11 384.11 278.24 387.13 280.35 389.66C281.796 391.429 283.591 392.882 285.623 393.928C287.655 394.974 289.88 395.591 292.16 395.74C296.41 395.85 303 394.8 301.61 390.17Z" fill="#455A64"/>
<path d="M246.54 412C245.12 410.47 244.03 409.3 242.69 407.7C241.889 406.727 241.145 405.708 240.46 404.65C239.811 403.498 239.236 402.306 238.74 401.08C237.738 398.065 237.38 394.872 237.69 391.71C238.1 388.47 239.69 384.58 238.77 384.07C237.85 383.56 237.1 382.82 233.61 382.74C230.12 382.66 225.47 382.57 225.61 385.4C225.75 388.23 226.1 389.55 225.61 389.3C225.12 389.05 225.03 387.15 224.45 386.3C223.87 385.45 223.45 386.21 223.38 385.12C223.31 384.03 223.22 383.37 223.22 383.37C223.22 383.37 221.02 383.56 221.41 386.72C221.793 390.076 221.976 393.452 221.96 396.83C221.87 398.42 221.12 400.9 221.96 402.88C222.533 404.055 223.23 405.165 224.04 406.19C225.427 407.967 226.354 410.059 226.74 412.28C226.86 413.28 226.8 414.28 226.96 415.21C227.242 416.854 227.992 418.382 229.12 419.611C230.248 420.84 231.706 421.718 233.32 422.14C236.395 423.005 239.625 423.165 242.77 422.61C245.68 422.1 249.46 420.91 249.27 417.43C249.012 415.36 248.047 413.442 246.54 412Z" fill="#455A64"/>
<path d="M267.57 157.21C274.97 156.9 278.69 160.74 281.69 171.77C284.03 180.36 288.05 197.29 288.05 197.29L310.81 174.36L322.52 180.96C322.52 180.96 306.32 202.11 296.63 214.41C289.63 223.27 284.18 223.59 279.98 217.88C271.37 206.15 262.44 178.73 262.44 178.73C260.1 170.16 260.5 159.91 267.57 157.21Z" fill="#E9A5A5"/>
<path d="M315.55 158.51C314.991 158.255 314.375 158.151 313.764 158.211C313.153 158.271 312.568 158.491 312.07 158.85C310.637 159.785 309.444 161.044 308.59 162.527C307.735 164.009 307.241 165.671 307.15 167.38C307.09 167.982 307.186 168.589 307.429 169.143C307.673 169.696 308.055 170.178 308.54 170.54C308.83 170.71 310.77 171.76 311.04 171.92C311.597 172.181 312.214 172.287 312.826 172.227C313.439 172.167 314.023 171.944 314.52 171.58C315.956 170.647 317.151 169.389 318.008 167.906C318.864 166.424 319.359 164.76 319.45 163.05C319.511 162.445 319.412 161.834 319.165 161.278C318.918 160.722 318.53 160.24 318.04 159.88C317.75 159.71 315.83 158.67 315.55 158.51Z" fill="#455A64"/>
<path d="M309.6 168.74C309.6 171.88 311.8 173.15 314.52 171.58C315.956 170.647 317.151 169.389 318.008 167.906C318.865 166.424 319.359 164.76 319.45 163.05C319.45 159.91 317.25 158.63 314.52 160.2C313.087 161.137 311.895 162.398 311.04 163.882C310.185 165.366 309.692 167.03 309.6 168.74Z" fill="#37474F"/>
<path d="M345.69 171.18L317.3 160.86C317.117 160.78 316.92 160.739 316.72 160.74C316.156 160.774 315.609 160.949 315.13 161.25C313.881 162.08 312.841 163.189 312.091 164.488C311.342 165.788 310.903 167.243 310.81 168.74C310.81 169.32 310.91 170.53 311.74 170.92L337.12 186.09L345.69 171.18Z" fill="#407BFF"/>
<path opacity="0.5" d="M345.69 171.18L317.3 160.86C317.117 160.78 316.92 160.739 316.72 160.74C316.156 160.774 315.609 160.949 315.13 161.25C313.881 162.08 312.841 163.189 312.091 164.488C311.342 165.788 310.903 167.243 310.81 168.74C310.81 169.32 310.91 170.53 311.74 170.92L337.12 186.09L345.69 171.18Z" fill="black"/>
<path d="M343.11 167.68C341.78 166.91 339.94 167.01 337.9 168.19C335.748 169.593 333.958 171.485 332.675 173.711C331.393 175.937 330.654 178.434 330.52 181C330.52 183.31 331.32 184.93 332.61 185.72C333.04 185.99 335.94 187.55 336.35 187.79C337.69 188.57 339.53 188.46 341.57 187.29C343.731 185.89 345.531 183.998 346.822 181.771C348.113 179.543 348.859 177.041 349 174.47C349 172.15 348.19 170.47 346.88 169.73C346.4 169.48 343.52 167.92 343.11 167.68Z" fill="#455A64"/>
<path d="M334.19 183C334.19 187.7 337.5 189.61 341.57 187.26C343.727 185.863 345.524 183.976 346.815 181.754C348.106 179.532 348.855 177.036 349 174.47C349 169.77 345.69 167.86 341.62 170.21C339.461 171.606 337.663 173.492 336.372 175.714C335.08 177.937 334.333 180.433 334.19 183Z" fill="#37474F"/>
<path d="M338.28 186.44C336.28 186.44 336.01 184.03 336.01 182.99C336.149 180.75 336.805 178.573 337.928 176.629C339.05 174.686 340.609 173.029 342.48 171.79C343.195 171.336 344.014 171.071 344.86 171.02C346.91 171.02 347.13 173.43 347.13 174.47C346.991 176.71 346.334 178.887 345.212 180.831C344.089 182.774 342.531 184.431 340.66 185.67C339.944 186.124 339.126 186.389 338.28 186.44Z" fill="#263238"/>
<path d="M344.71 172.05C344.707 171.716 344.684 171.382 344.64 171.05C343.873 171.136 343.135 171.392 342.48 171.8C340.607 173.038 339.047 174.694 337.923 176.638C336.798 178.581 336.14 180.759 336 183C335.998 183.335 336.022 183.669 336.07 184C336.837 183.912 337.574 183.656 338.23 183.25C340.103 182.012 341.663 180.356 342.788 178.412C343.912 176.469 344.57 174.291 344.71 172.05Z" fill="#407BFF"/>
<path opacity="0.3" d="M344.71 172.05C344.707 171.716 344.684 171.382 344.64 171.05C343.873 171.136 343.135 171.392 342.48 171.8C340.607 173.038 339.047 174.694 337.923 176.638C336.798 178.581 336.14 180.759 336 183C335.998 183.335 336.022 183.669 336.07 184C336.837 183.912 337.574 183.656 338.23 183.25C340.103 182.012 341.663 180.356 342.788 178.412C343.912 176.469 344.57 174.291 344.71 172.05Z" fill="black"/>
<path d="M340.58 174.06C341.96 172.39 343.75 171.83 344.03 172.45C344.31 173.07 343.44 179.11 337.6 182.67C339.542 180.931 341.134 178.836 342.29 176.5C343.19 174.49 342.36 172.85 340.58 174.06Z" fill="#E0E0E0"/>
<path d="M303.26 165.61C302.703 165.349 302.086 165.243 301.473 165.303C300.861 165.363 300.276 165.586 299.78 165.95C298.346 166.884 297.152 168.144 296.295 169.626C295.439 171.108 294.943 172.771 294.85 174.48C294.788 175.082 294.884 175.689 295.13 176.242C295.375 176.794 295.762 177.273 296.25 177.63C296.54 177.81 298.47 178.86 298.75 179.02C299.307 179.281 299.924 179.387 300.537 179.327C301.149 179.267 301.734 179.044 302.23 178.68C303.664 177.746 304.858 176.486 305.715 175.004C306.571 173.522 307.066 171.859 307.16 170.15C307.223 169.544 307.126 168.933 306.878 168.377C306.631 167.82 306.242 167.339 305.75 166.98C305.46 166.81 303.54 165.77 303.26 165.61Z" fill="#455A64"/>
<path d="M297.3 175.83C297.3 178.98 299.51 180.25 302.23 178.68C303.664 177.746 304.858 176.486 305.715 175.004C306.571 173.522 307.066 171.859 307.16 170.15C307.16 167 304.95 165.73 302.23 167.3C300.795 168.234 299.602 169.494 298.745 170.976C297.888 172.458 297.393 174.121 297.3 175.83Z" fill="#37474F"/>
<path d="M328.47 181.12L305.12 168H305.05C304.868 167.916 304.67 167.875 304.47 167.88C303.905 167.909 303.357 168.085 302.88 168.39C301.63 169.218 300.59 170.324 299.84 171.622C299.091 172.92 298.652 174.374 298.56 175.87C298.537 176.233 298.588 176.597 298.708 176.941C298.828 177.284 299.016 177.6 299.26 177.87L319.91 196L328.47 181.12Z" fill="#407BFF"/>
<path opacity="0.5" d="M328.47 181.12L305.12 168H305.05C304.868 167.916 304.67 167.875 304.47 167.88C303.905 167.909 303.357 168.085 302.88 168.39C301.63 169.218 300.59 170.324 299.84 171.622C299.091 172.92 298.652 174.374 298.56 175.87C298.537 176.233 298.588 176.597 298.708 176.941C298.828 177.284 299.016 177.6 299.26 177.87L319.91 196L328.47 181.12Z" fill="black"/>
<path d="M328.18 180.68C327.513 179.828 327.182 178.76 327.25 177.68C327.328 175.511 328.022 173.409 329.25 171.62L319.41 177.29C319.867 177.059 320.361 176.91 320.87 176.85L328.44 181.1L328.18 180.68Z" fill="#263238"/>
<path d="M325.9 177.62C324.56 176.84 322.72 176.95 320.69 178.13C318.542 179.527 316.753 181.412 315.471 183.631C314.189 185.85 313.448 188.341 313.31 190.9C313.31 193.2 314.11 194.83 315.4 195.62C315.83 195.88 318.73 197.45 319.14 197.69C320.47 198.47 322.32 198.36 324.36 197.18C326.506 195.78 328.291 193.895 329.571 191.676C330.852 189.457 331.591 186.968 331.73 184.41C331.73 182.09 330.92 180.41 329.62 179.67C329.19 179.42 326.31 177.86 325.9 177.62Z" fill="#455A64"/>
<path d="M317 192.93C317 197.63 320.3 199.54 324.38 197.18C326.526 195.78 328.311 193.895 329.591 191.676C330.872 189.457 331.611 186.968 331.75 184.41C331.75 179.7 328.45 177.8 324.38 180.15C322.231 181.549 320.442 183.436 319.16 185.656C317.877 187.877 317.137 190.369 317 192.93Z" fill="#37474F"/>
<path d="M321.06 196.38C319.06 196.38 318.8 193.96 318.8 192.93C318.94 190.69 319.597 188.513 320.717 186.569C321.838 184.624 323.392 182.965 325.26 181.72C325.979 181.268 326.802 181.006 327.65 180.96C329.7 180.96 329.92 183.37 329.92 184.41C329.779 186.65 329.121 188.826 327.999 190.769C326.876 192.712 325.319 194.369 323.45 195.61C322.732 196.066 321.909 196.331 321.06 196.38Z" fill="#263238"/>
<path d="M327.5 182C327.499 181.665 327.472 181.331 327.42 181C326.654 181.085 325.917 181.338 325.26 181.74C323.393 182.985 321.838 184.644 320.717 186.589C319.597 188.533 318.941 190.71 318.8 192.95C318.797 193.285 318.821 193.619 318.87 193.95C319.636 193.865 320.373 193.612 321.03 193.21C322.901 191.968 324.459 190.31 325.581 188.365C326.704 186.42 327.36 184.241 327.5 182Z" fill="#407BFF"/>
<path opacity="0.3" d="M327.5 182C327.499 181.665 327.472 181.331 327.42 181C326.654 181.085 325.917 181.338 325.26 181.74C323.393 182.985 321.838 184.644 320.717 186.589C319.597 188.533 318.941 190.71 318.8 192.95C318.797 193.285 318.821 193.619 318.87 193.95C319.636 193.865 320.373 193.612 321.03 193.21C322.901 191.968 324.459 190.31 325.581 188.365C326.704 186.42 327.36 184.241 327.5 182Z" fill="black"/>
<path d="M323.37 184C324.75 182.32 326.54 181.76 326.82 182.38C327.1 183 326.22 189.05 320.39 192.61C322.329 190.868 323.92 188.774 325.08 186.44C326 184.43 325.15 182.78 323.37 184Z" fill="#E0E0E0"/>
<path d="M319.44 165.89L329.27 171.63L319.44 177.31L309.55 171.6L319.44 165.89Z" fill="#37474F"/>
<path d="M333.53 166.73C332.16 161.87 331.2 160.49 325.02 158.6C318.84 156.71 315.87 156.75 313.19 158.6C310.51 160.45 310.81 162.72 314.5 164.28C318.44 165.95 326.5 165.65 329.25 165.17L333.53 166.73Z" fill="#E9A5A5"/>
<path d="M288.05 197.29C285.477 199.524 283.323 202.199 281.69 205.19C282.932 201.442 284.907 197.978 287.5 195L288.05 197.29Z" fill="#F28F8F"/>
<path d="M219 250C226.7 255.61 263.83 259.89 280 248.07C280 248.07 279.63 199.99 278.36 176.07C278.3 174.99 278.23 173.93 278.12 172.91C278.12 172.57 278.03 172.23 278 171.91C277.682 170.059 276.954 168.303 275.87 166.77C274.312 164.382 272.453 162.204 270.34 160.29C269.34 159.34 268.17 158.55 267.07 157.68C266.649 157.295 266.149 157.005 265.605 156.833C265.061 156.66 264.486 156.608 263.92 156.68H262.63H261.26C255.2 156.95 246.51 157.93 239.53 158.82L238.17 159L236.97 159.15C232.18 159.78 228.63 160.3 228.09 160.38H228C226.43 160.78 225 161.16 223.81 161.51C220.61 162.45 222.99 161.64 222.29 164.73C220.22 173.82 220.36 206.73 220.36 206.73L219 250Z" fill="#F5F5F5"/>
<path d="M241.55 124.78L239.38 127.11L238.38 114.97C237.511 114.861 236.629 114.952 235.8 115.237C234.972 115.521 234.219 115.991 233.6 116.61C231.53 118.69 232.6 125.26 235.13 131.7C235.13 131.7 237.53 143.41 238.52 145.34C239.165 146.523 240.239 147.414 241.52 147.83L241.55 124.78Z" fill="#263238"/>
<path d="M241.21 132.29C240.27 132.84 238.94 131.02 237.79 129.8C236.64 128.58 232.87 126.9 230.95 130.86C229.03 134.82 232.55 140.28 235.52 141.24C240.64 142.89 241.44 139.6 241.44 139.6L241.64 158.49C246.95 168.26 265.18 163.41 258.41 156.91V152.11C260.985 152.318 263.572 152.338 266.15 152.17C269.93 151.62 271.5 149.01 272.68 144.94C274.57 138.38 275.31 133.09 273.84 120.17C272.24 106 255.78 105.73 246.84 111.26C237.9 116.79 241.21 132.29 241.21 132.29Z" fill="#FFA8A7"/>
<path d="M278.33 106.47C277.829 105.949 277.142 105.646 276.419 105.63C275.696 105.613 274.995 105.882 274.47 106.38C274.954 104.834 275.177 103.219 275.13 101.6C275.07 99.86 274.33 97.76 272.6 97.52C271.691 97.5019 270.797 97.7524 270.03 98.24C263.45 101.51 256.12 102.89 248.93 104.39C245.59 104.972 242.326 105.928 239.2 107.24C238.446 107.587 237.712 107.974 237 108.4C235 109.64 233 113.48 234.64 115.78C234.738 115.899 234.806 116.04 234.84 116.19L237.9 129.93C239.04 131.03 240.79 134.1 241.26 134.1C243.76 134.1 244.34 121.91 244.83 120.1C245.025 119.585 245.357 119.134 245.791 118.795C246.225 118.456 246.743 118.244 247.29 118.18C248.387 118.072 249.494 118.16 250.56 118.44C255.016 119.282 259.547 119.658 264.08 119.56C267.33 119.64 270.559 119.022 273.55 117.75C276.47 116.35 278.96 113.69 279.4 110.48C279.535 109.774 279.508 109.047 279.323 108.353C279.138 107.659 278.798 107.015 278.33 106.47Z" fill="#263238"/>
<path d="M235.55 116C234.956 116.686 234.114 117.107 233.209 117.172C232.304 117.236 231.411 116.939 230.725 116.345C230.039 115.751 229.618 114.909 229.553 114.004C229.488 113.099 229.786 112.206 230.38 111.52L235.55 116Z" fill="#263238"/>
<path d="M258.43 152.11C258.43 152.11 250 151.24 247.07 149.65C245.356 148.733 243.961 147.317 243.07 145.59C243.498 147.316 244.27 148.939 245.34 150.36C247.48 153.13 258.44 155.25 258.44 155.25L258.43 152.11Z" fill="#F28F8F"/>
<path d="M256 130.29C255.984 130.621 255.872 130.94 255.677 131.207C255.481 131.475 255.211 131.679 254.901 131.794C254.591 131.909 254.253 131.931 253.93 131.856C253.608 131.782 253.314 131.614 253.086 131.373C252.858 131.133 252.706 130.831 252.648 130.505C252.59 130.179 252.629 129.843 252.761 129.539C252.892 129.235 253.11 128.977 253.387 128.795C253.665 128.614 253.989 128.518 254.32 128.52C254.547 128.525 254.77 128.575 254.978 128.667C255.185 128.759 255.372 128.891 255.528 129.055C255.685 129.22 255.807 129.414 255.888 129.626C255.969 129.837 256.007 130.063 256 130.29Z" fill="#263238"/>
<path d="M254.27 123.9L250.64 125.9C250.384 125.403 250.331 124.827 250.491 124.292C250.652 123.756 251.013 123.304 251.5 123.03C251.737 122.898 251.999 122.815 252.269 122.788C252.54 122.76 252.813 122.788 253.072 122.869C253.331 122.951 253.571 123.084 253.777 123.261C253.983 123.439 254.151 123.656 254.27 123.9Z" fill="#263238"/>
<path d="M256.68 142L261.38 143.81C261.276 144.126 261.109 144.417 260.89 144.667C260.67 144.917 260.402 145.119 260.103 145.263C259.803 145.407 259.477 145.489 259.145 145.504C258.813 145.519 258.481 145.466 258.17 145.35C257.538 145.091 257.03 144.598 256.752 143.974C256.475 143.35 256.449 142.643 256.68 142Z" fill="#F28F8F"/>
<path d="M271 125.43L267.72 122.87C267.876 122.648 268.076 122.461 268.307 122.319C268.538 122.177 268.796 122.083 269.065 122.044C269.333 122.004 269.607 122.02 269.869 122.09C270.131 122.16 270.376 122.282 270.59 122.45C271.026 122.8 271.311 123.304 271.387 123.858C271.464 124.413 271.325 124.975 271 125.43Z" fill="#263238"/>
<path d="M269.91 129.91C269.894 130.241 269.782 130.56 269.586 130.827C269.391 131.095 269.121 131.299 268.811 131.414C268.5 131.529 268.163 131.551 267.84 131.476C267.518 131.402 267.224 131.234 266.996 130.993C266.768 130.753 266.616 130.451 266.558 130.125C266.5 129.799 266.539 129.463 266.671 129.159C266.802 128.855 267.02 128.597 267.297 128.415C267.574 128.234 267.899 128.138 268.23 128.14C268.457 128.145 268.68 128.195 268.887 128.287C269.095 128.379 269.282 128.511 269.438 128.675C269.594 128.84 269.716 129.034 269.797 129.246C269.878 129.457 269.916 129.683 269.91 129.91Z" fill="#263238"/>
<path d="M261.77 128.65L262.25 138.81L267.57 137.04L261.77 128.65Z" fill="#F28F8F"/>
<path d="M238.64 159C238.64 159 246.18 170.22 245.42 184.31C243.03 228.7 219.42 236.18 219.42 236.18L219.83 223.26C219.83 223.26 232.83 214.87 234.77 192.43C236.02 177.74 231.77 163.21 228 160.43C228 160.44 231.78 158.37 238.64 159Z" fill="#37474F"/>
<path d="M213.42 233.26C216.99 233.86 221.2 231.84 225.95 225.26C230.529 219.147 234.717 212.751 238.49 206.11C241.43 201.05 243.56 197.28 244.58 194.97C246.38 190.9 249.58 185.97 249.09 181.58C248.852 178.043 247.939 174.584 246.4 171.39C246.076 170.736 245.688 170.116 245.24 169.54C245.021 169.251 244.704 169.053 244.348 168.981C243.993 168.909 243.624 168.969 243.31 169.15L243.88 171C244.02 173 242.88 176.27 240.95 178.82C239.781 180.383 238.439 181.809 236.95 183.07C236.963 181.646 236.754 180.229 236.33 178.87C235.63 176.28 233.45 173.96 232.09 174.3C230.73 174.64 231.58 175.02 231.91 177.76C232.24 180.5 230.6 184.08 231.11 187.97C231.39 190.16 231.36 193.44 230.38 195.3C228.92 198.05 222.25 204.56 222.25 204.56C225.02 190.56 225.36 187.77 226.45 182.31C229.16 172.51 227.45 164.66 224.72 161.17C216.54 162.17 212.14 165.17 210.07 172.51C207.07 183.08 205.74 193.38 205.74 213.81C205.75 224.4 209.17 232.56 213.42 233.26Z" fill="#E9A5A5"/>
<path d="M222.26 204.6C217.7 207.96 214.61 210.9 213.42 215.71C213.42 215.71 213.08 205.86 222.77 202.02L222.26 204.6Z" fill="#F28F8F"/>
<path d="M259 156.86C264.809 159.922 269.57 164.651 272.67 170.44C275.92 176.57 279.04 184.15 279.15 196.63C281.01 180.42 281.23 164.76 267.54 156.63C264.706 156.139 261.803 156.217 259 156.86Z" fill="#37474F"/>
</svg>
