<svg width="500" height="500" viewBox="0 0 500 500" fill="none" xmlns="http://www.w3.org/2000/svg">
<path d="M244.99 478.97C372.016 478.97 474.99 422.947 474.99 353.84C474.99 284.733 372.016 228.71 244.99 228.71C117.965 228.71 14.9902 284.733 14.9902 353.84C14.9902 422.947 117.965 478.97 244.99 478.97Z" fill="#F5F5F5"/>
<path d="M285.61 449.1L167.81 381.09L279.51 316.67L397.31 384.68L285.61 449.1Z" fill="#E6E6E6"/>
<path d="M52.77 379.93L76.24 393.43C77.5657 394.105 79.0323 394.457 80.52 394.457C82.0077 394.457 83.4743 394.105 84.8 393.43L240.72 303.26C243.09 301.9 243.09 299.68 240.72 298.32L217.26 284.81C215.933 284.139 214.467 283.79 212.98 283.79C211.493 283.79 210.027 284.139 208.7 284.81L52.77 375C50.41 376.35 50.41 378.57 52.77 379.93Z" fill="#E6E6E6"/>
<path d="M373.66 331.57C398.242 331.57 418.17 320.064 418.17 305.87C418.17 291.676 398.242 280.17 373.66 280.17C349.078 280.17 329.15 291.676 329.15 305.87C329.15 320.064 349.078 331.57 373.66 331.57Z" fill="#E6E6E6"/>
<path d="M312.53 305.81C320.82 305.81 327.54 301.928 327.54 297.14C327.54 292.352 320.82 288.47 312.53 288.47C304.24 288.47 297.52 292.352 297.52 297.14C297.52 301.928 304.24 305.81 312.53 305.81Z" fill="#E6E6E6"/>
<path d="M67.7999 380.26L59.8899 375.69L59.7999 375.63C59.2194 375.191 58.7618 374.61 58.4711 373.942C58.1804 373.275 58.0663 372.544 58.1399 371.82V128.39L218.74 35.66L226.74 40.3L66.1699 133V376.45C66.1014 377.171 66.2148 377.897 66.4995 378.563C66.7843 379.228 67.2314 379.812 67.7999 380.26Z" fill="#EBEBEB"/>
<path d="M226.77 40.3V283.73C226.655 285.81 226.052 287.833 225.01 289.637C223.968 291.44 222.515 292.973 220.77 294.11L72.1599 379.92C71.5852 380.324 70.9213 380.583 70.2249 380.676C69.5284 380.768 68.82 380.69 68.1599 380.45L67.8199 380.26C67.2507 379.815 66.803 379.233 66.5181 378.569C66.2332 377.905 66.1203 377.179 66.1899 376.46V133L226.77 40.3Z" fill="#F0F0F0"/>
<path d="M218.73 35.66L226.77 40.3L66.1699 133.03L58.1299 128.39L218.73 35.66Z" fill="#FAFAFA"/>
<path d="M66.6699 382.74L64.8199 381.68L64.7299 381.62C64.1516 381.177 63.6957 380.593 63.4052 379.925C63.1148 379.257 62.9994 378.525 63.0699 377.8V132.6L227.69 37.6L229.69 38.73L64.9999 133.72V378.93C64.9351 379.654 65.0542 380.383 65.3462 381.049C65.6381 381.715 66.0934 382.297 66.6699 382.74Z" fill="#407BFF"/>
<path opacity="0.1" d="M66.6699 382.74L64.8199 381.68L64.7299 381.62C64.1516 381.177 63.6957 380.593 63.4052 379.925C63.1148 379.257 62.9994 378.525 63.0699 377.8V132.6L227.69 37.6L229.69 38.73L64.9999 133.72V378.93C64.9351 379.654 65.0542 380.383 65.3462 381.049C65.6381 381.715 66.0934 382.297 66.6699 382.74Z" fill="black"/>
<path d="M229.66 38.69V283.89C229.545 285.97 228.942 287.993 227.9 289.797C226.857 291.6 225.405 293.133 223.66 294.27L70.9997 382.4C70.425 382.804 69.7612 383.063 69.0647 383.156C68.3683 383.248 67.6598 383.17 66.9997 382.93L66.6597 382.74C66.0906 382.295 65.6429 381.713 65.358 381.049C65.0731 380.385 64.9602 379.659 65.0297 378.94V133.73L229.66 38.69Z" fill="#407BFF"/>
<path opacity="0.05" d="M229.66 38.69V283.89C229.545 285.97 228.942 287.993 227.9 289.797C226.857 291.6 225.405 293.133 223.66 294.27L70.9997 382.4C70.425 382.804 69.7612 383.063 69.0647 383.156C68.3683 383.248 67.6598 383.17 66.9997 382.93L66.6597 382.74C66.0906 382.295 65.6429 381.713 65.358 381.049C65.0731 380.385 64.9602 379.659 65.0297 378.94V133.73L229.66 38.69Z" fill="black"/>
<path d="M227.69 37.55L229.66 38.69L65.0398 133.73L63.0698 132.59L227.69 37.55Z" fill="#407BFF"/>
<path opacity="0.4" d="M227.69 37.55L229.66 38.69L65.0398 133.73L63.0698 132.59L227.69 37.55Z" fill="white"/>
<path d="M69.8197 384.55L67.9997 383.49L67.9097 383.43C67.3314 382.989 66.8754 382.407 66.5849 381.741C66.2944 381.074 66.179 380.344 66.2497 379.62V134.41L230.87 39.41L232.87 40.54L68.2497 135.54V380.75C68.1732 381.464 68.2769 382.186 68.5511 382.85C68.8253 383.514 69.2615 384.098 69.8197 384.55Z" fill="#407BFF"/>
<path opacity="0.1" d="M69.8197 384.55L67.9997 383.49L67.9097 383.43C67.3314 382.989 66.8754 382.407 66.5849 381.741C66.2944 381.074 66.179 380.344 66.2497 379.62V134.41L230.87 39.41L232.87 40.54L68.2497 135.54V380.75C68.1732 381.464 68.2769 382.186 68.5511 382.85C68.8253 383.514 69.2615 384.098 69.8197 384.55Z" fill="black"/>
<path d="M232.81 40.5V285.71C232.695 287.788 232.092 289.811 231.05 291.612C230.007 293.414 228.555 294.945 226.81 296.08L74.1798 384.21C73.6069 384.618 72.9429 384.88 72.2457 384.972C71.5484 385.064 70.8392 384.985 70.1798 384.74L69.8398 384.56C69.2706 384.112 68.823 383.529 68.5382 382.863C68.2533 382.197 68.1404 381.471 68.2098 380.75V135.54L232.81 40.5Z" fill="#407BFF"/>
<path d="M230.84 39.37L232.81 40.5L68.1897 135.54L66.2197 134.41L230.84 39.37Z" fill="#407BFF"/>
<path opacity="0.4" d="M230.84 39.37L232.81 40.5L68.1897 135.54L66.2197 134.41L230.84 39.37Z" fill="white"/>
<path d="M79.8399 387.22L71.9299 382.65L71.8399 382.59C71.2609 382.15 70.8044 381.568 70.5138 380.901C70.2232 380.234 70.1082 379.504 70.1799 378.78V135.35L230.78 42.62L238.78 47.26L78.2099 140V383.41C78.1423 384.131 78.2561 384.857 78.5408 385.522C78.8255 386.188 79.2721 386.771 79.8399 387.22Z" fill="#EBEBEB"/>
<path d="M238.81 47.26V290.69C238.695 292.77 238.091 294.793 237.049 296.596C236.007 298.4 234.554 299.932 232.81 301.07L84.1999 386.87C83.6267 387.277 82.9633 387.539 82.2665 387.633C81.5697 387.727 80.8605 387.651 80.1999 387.41L79.8599 387.22C79.292 386.771 78.8455 386.188 78.5608 385.522C78.2761 384.857 78.1623 384.131 78.2299 383.41V140L238.81 47.26Z" fill="#F5F5F5"/>
<path d="M230.78 42.62L238.81 47.26L78.2097 139.98L70.1797 135.35L230.78 42.62Z" fill="#FAFAFA"/>
<g style="mix-blend-mode:multiply">
<path d="M90.25 142.3C92.47 141.02 94.25 142.05 94.25 144.62C94.1759 146.011 93.7752 147.365 93.0802 148.573C92.3853 149.78 91.4157 150.807 90.25 151.57C88.04 152.85 86.25 151.81 86.25 149.25C86.3249 147.859 86.726 146.505 87.4208 145.298C88.1157 144.09 89.0849 143.064 90.25 142.3Z" fill="#E0E0E0"/>
</g>
<path d="M79 110.27C74.63 107.75 70.44 107.38 67.21 109.27C63.98 111.16 62.21 114.94 62.21 120C62.2275 121.917 62.4623 123.826 62.91 125.69L65.59 124.14C65.3184 122.777 65.1811 121.39 65.18 120C65.18 116 66.43 113.15 68.7 111.83C70.97 110.51 74.11 110.83 77.53 112.83C85.16 117.23 91.37 127.98 91.37 136.83C91.4249 138.736 91.0381 140.628 90.24 142.36C89.7103 143.447 88.8766 144.357 87.84 144.98L87.6 145.11C86.933 146.169 86.5032 147.359 86.34 148.6C87.396 148.437 88.413 148.081 89.34 147.55C91.3262 146.363 92.8068 144.488 93.5 142.28C94.0945 140.526 94.382 138.682 94.35 136.83C94.27 127.05 87.4 115.14 79 110.27Z" fill="#455A64"/>
<g style="mix-blend-mode:multiply">
<path d="M109.75 131C111.97 129.72 113.75 130.75 113.75 133.32C113.676 134.711 113.275 136.065 112.58 137.273C111.885 138.48 110.916 139.507 109.75 140.27C107.54 141.55 105.75 140.51 105.75 137.95C105.826 136.559 106.228 135.206 106.923 133.999C107.618 132.792 108.586 131.765 109.75 131Z" fill="#E0E0E0"/>
</g>
<path d="M98.4497 99C94.0897 96.48 89.8997 96.11 86.6597 98C83.4197 99.89 81.6597 103.68 81.6597 108.73C81.6772 110.647 81.912 112.556 82.3597 114.42L84.9997 112.86C84.733 111.496 84.5957 110.11 84.5897 108.72C84.5897 104.72 85.8397 101.87 88.1197 100.55C90.3997 99.23 93.5197 99.55 96.9397 101.55C104.57 105.95 110.78 116.7 110.78 125.55C110.84 127.456 110.453 129.35 109.65 131.08C109.117 132.165 108.284 133.075 107.25 133.7L107.01 133.83C106.343 134.889 105.913 136.079 105.75 137.32C106.803 137.175 107.82 136.835 108.75 136.32C110.734 135.133 112.217 133.263 112.92 131.06C113.504 129.3 113.792 127.455 113.77 125.6C113.78 115.79 106.91 103.88 98.4497 99Z" fill="#455A64"/>
<g style="mix-blend-mode:multiply">
<path d="M129.26 119.78C131.47 118.5 133.26 119.54 133.26 122.1C133.193 123.5 132.795 124.863 132.1 126.08C131.405 127.297 130.431 128.332 129.26 129.1C127.04 130.38 125.26 129.34 125.26 126.79C125.325 125.389 125.722 124.023 126.417 122.804C127.113 121.586 128.087 120.549 129.26 119.78Z" fill="#E0E0E0"/>
</g>
<path d="M118 87.75C113.63 85.23 109.44 84.86 106.2 86.75C102.96 88.64 101.2 92.43 101.2 97.48C101.217 99.3971 101.451 101.306 101.9 103.17L104.58 101.62C104.313 100.256 104.176 98.8698 104.17 97.48C104.17 93.48 105.42 90.63 107.7 89.31C109.98 87.99 113.1 88.31 116.52 90.31C124.15 94.71 130.36 105.46 130.36 114.31C130.42 116.216 130.033 118.11 129.23 119.84C128.697 120.925 127.864 121.835 126.83 122.46L126.6 122.59C125.927 123.647 125.494 124.838 125.33 126.08C126.382 125.932 127.399 125.593 128.33 125.08C130.311 123.892 131.79 122.022 132.49 119.82C133.074 118.06 133.362 116.215 133.34 114.36C133.28 104.53 126.41 92.62 118 87.75Z" fill="#455A64"/>
<g style="mix-blend-mode:multiply">
<path d="M148.76 108.52C150.97 107.24 152.76 108.28 152.76 110.84C152.693 112.24 152.295 113.604 151.6 114.82C150.905 116.037 149.932 117.072 148.76 117.84C146.54 119.12 144.76 118.09 144.76 115.53C144.825 114.129 145.222 112.763 145.917 111.544C146.613 110.326 147.587 109.289 148.76 108.52Z" fill="#E0E0E0"/>
</g>
<path d="M137.46 76.49C133.09 73.97 128.9 73.6 125.67 75.49C122.44 77.38 120.67 81.17 120.67 86.22C120.685 88.1378 120.924 90.0472 121.38 91.91L124 90.34C123.733 88.976 123.596 87.5898 123.59 86.2C123.59 82.2 124.84 79.35 127.12 78.03C129.4 76.71 132.52 77.03 135.94 79.03C143.57 83.43 149.78 94.18 149.78 103.03C149.842 104.939 149.459 106.836 148.66 108.57C148.121 109.651 147.285 110.557 146.25 111.18L146.02 111.31C145.347 112.367 144.914 113.558 144.75 114.8C145.802 114.652 146.819 114.313 147.75 113.8C149.731 112.612 151.21 110.742 151.91 108.54C152.499 106.781 152.787 104.935 152.76 103.08C152.78 93.27 145.91 81.36 137.46 76.49Z" fill="#455A64"/>
<g style="mix-blend-mode:multiply">
<path d="M168.26 97.26C170.47 95.98 172.26 97.02 172.26 99.58C172.193 100.98 171.795 102.343 171.1 103.56C170.405 104.777 169.432 105.812 168.26 106.58C166.04 107.86 164.26 106.83 164.26 104.27C164.325 102.869 164.722 101.503 165.417 100.284C166.113 99.0658 167.087 98.0294 168.26 97.26Z" fill="#E0E0E0"/>
</g>
<path d="M157 65.23C152.63 62.71 148.44 62.34 145.21 64.23C141.98 66.12 140.21 69.91 140.21 74.96C140.225 76.8778 140.464 78.7873 140.92 80.65L143.6 79.1C143.325 77.7371 143.184 76.3504 143.18 74.96C143.18 70.96 144.44 68.11 146.71 66.79C148.98 65.47 152.12 65.79 155.54 67.79C163.17 72.19 169.37 82.94 169.37 91.79C169.432 93.6986 169.049 95.5955 168.25 97.33C167.708 98.4118 166.873 99.3196 165.84 99.95L165.61 100.07C164.942 101.129 164.509 102.319 164.34 103.56C165.391 103.408 166.407 103.069 167.34 102.56C169.321 101.368 170.8 99.494 171.5 97.29C172.09 95.531 172.377 93.6849 172.35 91.83C172.28 82 165.41 70.1 157 65.23Z" fill="#455A64"/>
<g style="mix-blend-mode:multiply">
<path d="M187.76 86C189.98 84.72 191.76 85.76 191.76 88.32C191.694 89.72 191.297 91.0844 190.602 92.3013C189.907 93.5182 188.933 94.5527 187.76 95.32C185.54 96.6 183.76 95.57 183.76 93.01C183.825 91.6085 184.221 90.2423 184.916 89.0237C185.612 87.8051 186.586 86.7688 187.76 86Z" fill="#E0E0E0"/>
</g>
<path d="M176.46 54C172.09 51.48 167.9 51.12 164.67 53C161.44 54.88 159.67 58.68 159.67 63.73C159.682 65.6474 159.917 67.5569 160.37 69.42L163 67.82C162.725 66.4571 162.584 65.0704 162.58 63.68C162.58 59.68 163.84 56.83 166.11 55.51C168.38 54.19 171.52 54.56 174.94 56.51C182.57 60.91 188.77 71.66 188.77 80.51C188.834 82.4187 188.45 84.3159 187.65 86.05C187.112 87.1314 186.28 88.0394 185.25 88.67L185.01 88.79C184.342 89.849 183.909 91.0392 183.74 92.28C184.792 92.132 185.809 91.7932 186.74 91.28C188.734 90.0906 190.225 88.2125 190.93 86C191.519 84.241 191.807 82.3949 191.78 80.54C191.78 70.76 184.91 58.84 176.46 54Z" fill="#455A64"/>
<g style="mix-blend-mode:multiply">
<path d="M207.26 74.74C209.48 73.46 211.26 74.5 211.26 77.06C211.194 78.46 210.797 79.8244 210.102 81.0413C209.407 82.2582 208.433 83.2927 207.26 84.06C205.04 85.34 203.26 84.31 203.26 81.75C203.325 80.3484 203.721 78.9823 204.416 77.7637C205.112 76.5451 206.086 75.5088 207.26 74.74Z" fill="#E0E0E0"/>
</g>
<path d="M196 42.71C191.63 40.19 187.44 39.83 184.21 41.71C180.98 43.59 179.21 47.39 179.21 52.44C179.222 54.3574 179.457 56.2669 179.91 58.13L182.59 56.58C182.315 55.2171 182.174 53.8304 182.17 52.44C182.17 48.44 183.43 45.59 185.7 44.27C187.97 42.95 191.11 43.33 194.53 45.27C202.16 49.67 208.37 60.42 208.37 69.27C208.431 71.1796 208.044 73.0768 207.24 74.81C206.702 75.8914 205.87 76.7994 204.84 77.43L204.6 77.55C203.919 78.593 203.469 79.7692 203.28 81C204.332 80.8521 205.349 80.5132 206.28 80C208.261 78.8075 209.74 76.934 210.44 74.73C211.03 72.971 211.317 71.1249 211.29 69.27C211.28 59.5 204.41 47.59 196 42.71Z" fill="#455A64"/>
<g style="mix-blend-mode:multiply">
<path d="M226.76 63.48C228.98 62.2 230.76 63.24 230.76 65.8C230.694 67.2 230.297 68.5645 229.602 69.7813C228.907 70.9982 227.933 72.0327 226.76 72.8C224.54 74.08 222.76 73.05 222.76 70.49C222.825 69.0885 223.221 67.7223 223.916 66.5037C224.612 65.2851 225.586 64.2488 226.76 63.48Z" fill="#E0E0E0"/>
</g>
<path d="M215.46 31.45C211.09 28.93 206.9 28.57 203.67 30.45C200.44 32.33 198.67 36.13 198.67 41.18C198.681 43.0974 198.916 45.007 199.37 46.87L202 45.3C201.725 43.9371 201.584 42.5504 201.58 41.16C201.58 37.21 202.84 34.31 205.11 32.99C207.38 31.67 210.52 32.05 213.94 33.99C221.57 38.39 227.78 49.15 227.78 57.99C227.835 59.899 227.448 61.7949 226.65 63.53C226.115 64.6133 225.282 65.522 224.25 66.15L224.01 66.28C223.339 67.3332 222.909 68.5215 222.75 69.76C223.802 69.6116 224.819 69.2728 225.75 68.76C227.732 67.5682 229.211 65.6944 229.91 63.49C230.505 61.7324 230.793 59.8853 230.76 58.03C230.78 48.24 223.91 36.33 215.46 31.45Z" fill="#455A64"/>
<g opacity="0.3">
<path d="M90.5195 160.69L226.52 82.18C228.89 80.81 230.81 81.92 230.81 84.65V93.31C230.731 94.7951 230.302 96.2406 229.558 97.5284C228.815 98.8163 227.777 99.9099 226.53 100.72L90.5295 179.23C88.1595 180.6 86.2495 179.49 86.2495 176.76V168.1C86.3293 166.616 86.7575 165.172 87.4993 163.885C88.2412 162.598 89.2759 161.503 90.5195 160.69Z" stroke="#407BFF" stroke-miterlimit="10"/>
<path d="M230.77 88.98L86.2397 172.43" stroke="#407BFF" stroke-miterlimit="10"/>
</g>
<g opacity="0.3">
<path d="M90.5197 188.51L226.52 110C228.89 108.64 230.8 109.74 230.8 112.47V278.74C230.721 280.225 230.292 281.671 229.549 282.958C228.805 284.246 227.767 285.34 226.52 286.15L90.5197 364.66C88.1597 366.03 86.2397 364.92 86.2397 362.19V195.92C86.3207 194.435 86.7504 192.991 87.494 191.703C88.2376 190.416 89.2742 189.322 90.5197 188.51Z" stroke="#407BFF" stroke-miterlimit="10"/>
<path d="M230.77 116.8L86.2397 200.25" stroke="#407BFF" stroke-miterlimit="10"/>
<path d="M230.77 126.07L86.2397 209.52" stroke="#407BFF" stroke-miterlimit="10"/>
<path d="M230.77 135.34L86.2397 218.79" stroke="#407BFF" stroke-miterlimit="10"/>
<path d="M230.77 144.61L86.2397 228.07" stroke="#407BFF" stroke-miterlimit="10"/>
<path d="M230.77 153.88L86.2397 237.34" stroke="#407BFF" stroke-miterlimit="10"/>
<path d="M230.77 163.15L86.2397 246.61" stroke="#407BFF" stroke-miterlimit="10"/>
<path d="M230.77 172.42L86.2397 255.88" stroke="#407BFF" stroke-miterlimit="10"/>
<path d="M230.77 181.7L86.2397 265.15" stroke="#407BFF" stroke-miterlimit="10"/>
<path d="M230.77 190.97L86.2397 274.42" stroke="#407BFF" stroke-miterlimit="10"/>
<path d="M230.77 200.24L86.2397 283.69" stroke="#407BFF" stroke-miterlimit="10"/>
<path d="M230.77 209.51L86.2397 292.96" stroke="#407BFF" stroke-miterlimit="10"/>
<path d="M230.77 218.78L86.2397 302.24" stroke="#407BFF" stroke-miterlimit="10"/>
<path d="M230.77 228.05L86.2397 311.51" stroke="#407BFF" stroke-miterlimit="10"/>
<path d="M230.77 237.32L86.2397 320.78" stroke="#407BFF" stroke-miterlimit="10"/>
<path d="M230.77 246.6L86.2397 330.05" stroke="#407BFF" stroke-miterlimit="10"/>
<path d="M230.77 255.87L86.2397 339.32" stroke="#407BFF" stroke-miterlimit="10"/>
<path d="M230.77 265.14L86.2397 348.59" stroke="#407BFF" stroke-miterlimit="10"/>
<path d="M230.77 274.41L86.2397 357.86" stroke="#407BFF" stroke-miterlimit="10"/>
</g>
<path d="M92.2797 199.28C92.1997 194.59 92.1997 190.87 92.2797 190.16C92.2873 189.683 92.422 189.217 92.6697 188.81C92.6697 188.81 92.6697 188.81 92.7397 188.75C92.8097 188.69 93.0997 188.89 93.4897 189.83C93.7397 190.3 94.1297 191.13 94.3497 191.66C94.5697 192.19 95.1897 193.37 95.6397 194.35C96.4597 196.16 97.0997 197.44 97.4597 198.08L97.6597 198.39V196.86C97.6597 196.02 97.6597 194.07 97.5797 192.57C97.4997 191.07 97.5097 189.04 97.5097 188.08C97.5097 186.14 97.5097 186.03 97.8297 185.86C98.1497 185.69 98.1897 185.76 98.2497 186.01C98.3097 186.26 98.3297 187.28 98.3697 188.59C98.4097 189.9 98.3697 191.92 98.4497 193.02C98.5397 196.36 98.5497 200.19 98.4497 200.52C98.3297 201.07 98.0197 201.36 97.7797 201.16C96.9752 199.891 96.2858 198.552 95.7197 197.16C95.3797 196.4 94.8997 195.37 94.6297 194.89L93.6897 193C93.3097 192.24 93.2097 192 93.1797 192.15C93.1497 192.3 93.1797 198.5 93.2497 200.94C93.3097 202.94 93.2497 203.6 93.0897 203.94C92.9297 204.28 92.7697 204.31 92.6497 204.2C92.5297 204.09 92.3497 203.12 92.2797 199.28Z" fill="#455A64"/>
<path d="M100.31 197.32C100.191 196.826 100.151 196.317 100.19 195.81C100.133 194.925 100.256 194.037 100.55 193.2C100.844 192.426 101.248 191.699 101.75 191.04C101.924 190.759 102.17 190.53 102.461 190.373C102.752 190.217 103.079 190.14 103.41 190.15C103.76 190.193 104.087 190.349 104.342 190.595C104.596 190.84 104.764 191.161 104.82 191.51C104.954 192.431 104.978 193.364 104.89 194.29C104.718 195.706 104.069 197.022 103.05 198.02C102.758 198.328 102.383 198.543 101.97 198.64C101.17 198.81 100.57 198.34 100.31 197.32ZM104.15 193.2C104.186 192.859 104.134 192.515 104 192.2C103.944 192.002 103.848 191.818 103.717 191.659C103.586 191.501 103.424 191.372 103.24 191.28C103.11 191.28 102.95 191.28 102.62 191.5C102.079 191.801 101.68 192.305 101.51 192.9C101.042 193.826 100.875 194.874 101.03 195.9C101.071 196.418 101.243 196.917 101.53 197.35C101.9 197.78 102.32 197.68 103.05 197C103.84 195.897 104.229 194.555 104.15 193.2Z" fill="#455A64"/>
<path d="M107.12 191V188.16L106.98 188.28C106.717 188.577 106.367 188.784 105.98 188.87C105.67 188.87 105.51 188.75 105.58 188.53C105.72 188.13 105.89 187.94 106.46 187.53C106.678 187.402 106.879 187.247 107.06 187.07C107.091 186.737 107.091 186.403 107.06 186.07C107.06 184.52 107.16 181.97 107.23 181.65C107.3 181.33 107.33 181.34 107.42 181.29C107.51 181.24 107.56 181.29 107.64 181.37C107.72 181.45 107.88 182.12 107.95 184.53L108.02 186.32C108.02 186.32 108.24 186.32 108.55 186.13C109.12 185.85 109.29 185.86 109.37 186.2C109.393 186.268 109.4 186.341 109.39 186.412C109.379 186.484 109.352 186.551 109.31 186.61C109.2 186.78 109.1 186.86 108.65 187.12C108.447 187.243 108.253 187.38 108.07 187.53C107.892 189.482 107.869 191.445 108 193.4C108 193.64 108 194.14 108.09 194.49C108.09 195.07 108.09 195.14 108 195.36C107.91 195.58 107.57 195.82 107.42 195.74C107.27 195.66 107.15 194.67 107.12 191Z" fill="#455A64"/>
<path d="M110.19 191.14C110.075 189.05 110.659 186.981 111.85 185.26C112.28 184.69 113 184.02 113.58 184.08C113.712 184.107 113.837 184.16 113.948 184.237C114.059 184.314 114.153 184.412 114.225 184.526C114.297 184.64 114.345 184.767 114.366 184.9C114.388 185.033 114.382 185.169 114.35 185.3C113.892 186.861 113.085 188.297 111.99 189.5C111.25 190.38 111.13 190.61 111.16 190.94C111.25 191.48 111.57 191.94 111.88 191.87C112.953 191.405 113.839 190.596 114.4 189.57C114.56 189.27 114.61 189.22 114.78 189.15C114.95 189.08 115.07 189.15 115.07 189.3C114.819 189.933 114.483 190.529 114.07 191.07C113.17 192.32 112.54 192.85 111.85 192.97C110.8 193.13 110.31 192.57 110.19 191.14ZM113.19 186.5C113.352 186.254 113.436 185.965 113.43 185.67C113.43 185.42 113.43 185.34 113.31 185.31C113.265 185.299 113.218 185.299 113.173 185.309C113.128 185.32 113.086 185.341 113.05 185.37C112.769 185.542 112.53 185.774 112.35 186.05C111.663 187.012 111.248 188.142 111.15 189.32C111.15 189.46 111.15 189.47 111.44 189.18C112.12 188.353 112.706 187.455 113.19 186.5Z" fill="#455A64"/>
<path d="M116.74 189.71C116.31 189.61 116.19 189.45 116.2 189.08C116.21 188.71 116.2 188.78 116.41 188.66C116.621 188.547 116.863 188.505 117.1 188.54C117.631 188.6 118.165 188.461 118.6 188.15C118.824 188.049 119.01 187.879 119.131 187.665C119.251 187.451 119.3 187.204 119.27 186.96C119.27 186.55 119.27 186.5 119.12 186.25C118.818 185.831 118.437 185.474 118 185.2C117.8 185.102 117.623 184.961 117.481 184.789C117.34 184.616 117.237 184.416 117.18 184.2C117.034 183.788 116.991 183.346 117.056 182.914C117.12 182.481 117.29 182.071 117.55 181.72C117.66 181.564 117.803 181.434 117.97 181.34C118.6 180.98 119.6 181.02 119.9 181.57C119.948 181.642 119.974 181.728 119.974 181.815C119.974 181.902 119.948 181.988 119.9 182.06C119.78 182.42 119.52 182.5 119.02 182.26C118.83 182.19 118.02 182.01 118.02 182.86C118.02 183.71 118.21 183.86 119.02 184.3C119.529 184.611 119.92 185.082 120.132 185.64C120.343 186.197 120.364 186.81 120.19 187.38C120.038 187.868 119.78 188.317 119.434 188.694C119.088 189.071 118.663 189.366 118.19 189.56C117.732 189.751 117.227 189.803 116.74 189.71Z" fill="#455A64"/>
<path d="M121.72 181.39C121.753 181.04 121.855 180.7 122.02 180.39C122.17 180.03 122.5 179.75 122.67 179.95C122.776 180.107 122.842 180.288 122.859 180.477C122.877 180.666 122.846 180.856 122.77 181.03C122.702 181.171 122.607 181.298 122.491 181.403C122.374 181.508 122.238 181.588 122.09 181.64C121.91 181.71 121.76 181.57 121.72 181.39ZM121.72 186.85C121.752 186.5 121.854 186.16 122.02 185.85C122.17 185.49 122.5 185.21 122.67 185.41C122.776 185.567 122.842 185.748 122.859 185.937C122.877 186.126 122.846 186.316 122.77 186.49C122.629 186.771 122.386 186.986 122.09 187.09C121.91 187.18 121.76 187 121.72 186.85Z" fill="#455A64"/>
<path d="M165.26 188.86C165.26 188.65 164.89 188.71 164.77 188.76C163.771 189.347 162.9 190.129 162.21 191.06L161.34 192.06C160.58 192.87 160.12 192.94 159.96 192.26C159.96 192.26 159.69 192.04 159.6 192.04C157.54 192.04 156.74 193.84 155.35 195.04C154.86 193.31 153.14 194.95 152.35 196.04C150.75 198.29 147.44 198.95 145.59 201.04C145.59 200.37 145.44 199.71 144.77 199.69C144.793 199.118 144.624 198.555 144.29 198.09C144.25 198.053 144.202 198.026 144.15 198.013C144.098 197.999 144.043 197.998 143.99 198.01C142.39 198.35 141.46 200.51 140.91 202.01C141.02 200.08 141.12 198.14 141.14 196.21C141.14 195.84 140.47 195.97 140.46 196.3C140.35 199.42 139.16 201.68 137.35 204.14C136.895 204.778 136.383 205.374 135.82 205.92C135.079 206.508 134.23 206.943 133.32 207.2C132.958 207.297 132.619 207.464 132.32 207.69C132.05 207.926 131.759 208.137 131.45 208.32C131.29 208.4 131.01 208.32 130.79 208.4C130.119 208.863 129.564 209.476 129.17 210.19C128.57 209.71 128.17 209.77 127.48 210.32C126.96 210.71 126.48 211.5 125.99 211.82C124.69 212.58 125.42 211.68 124.75 210.98C123.88 210.06 122.94 210.91 122.19 211.54C121.279 212.284 120.562 213.238 120.1 214.32C119.92 213.45 119.5 212.72 118.6 212.87C117.25 213.08 116.41 215.56 115.89 216.51C115.328 217.811 114.439 218.944 113.31 219.8C112.716 220.24 112.034 220.547 111.31 220.7C111.1 220.7 110.99 220.55 110.75 220.65C110.388 220.828 110.052 221.053 109.75 221.32C109.06 221.77 110.02 222.12 108.66 221.72C107.78 221.46 107.88 221.13 107.48 220.45C107.39 220.31 107.17 220.34 107.05 220.39C106.461 220.739 105.969 221.231 105.62 221.82C105.06 222.56 103.74 225.07 102.75 225.14C101.1 225.26 101.06 221.06 101.03 220.08C100.97 218.08 101.22 216.08 101.29 214.08C101.29 213.86 100.82 213.86 100.79 214.08C100.317 216.791 99.6484 219.465 98.79 222.08C97.93 224.57 96.6 226.89 96.48 229.57C96.48 229.73 96.81 229.8 96.82 229.65C97.02 226.86 98.48 224.38 99.37 221.78C99.83 220.44 100.21 219.04 100.54 217.64C100.41 219.057 100.41 220.483 100.54 221.9C100.66 222.9 100.65 225.55 101.98 225.84C102.98 226.06 104.12 224.58 104.62 223.98C104.99 223.54 105.86 221.8 106.43 221.58C107.56 221.15 107.32 222.48 107.94 222.94C108.56 223.4 108.94 223.17 109.53 222.73C110.3 222.16 109.98 221.6 111.36 221.32C111.69 221.26 112.04 221.49 112.44 221.32C113.641 220.722 114.673 219.831 115.44 218.73C116.087 217.654 116.659 216.535 117.15 215.38C117.31 215.07 117.82 213.81 118.25 213.73L119.57 215.17C119.57 215.65 119.57 216.12 119.57 216.6C119.57 217.08 120.23 216.83 120.25 216.51C120.38 214.68 121.35 211.81 123.5 211.75C124.76 211.75 124.3 212.32 125.09 213.07C125.164 213.137 125.26 213.175 125.36 213.175C125.46 213.175 125.556 213.137 125.63 213.07C126.26 212.45 127.84 209.84 128.9 210.85C128.945 210.884 128.996 210.908 129.05 210.922C129.105 210.935 129.161 210.937 129.217 210.928C129.272 210.919 129.325 210.898 129.372 210.867C129.419 210.837 129.459 210.797 129.49 210.75C129.75 210.42 130.87 208.48 131.31 209.06C131.44 209.23 131.73 209.15 131.85 209.06C132.4 208.511 133.039 208.058 133.74 207.72C133.98 207.6 134.27 207.59 134.53 207.48C135.701 206.891 136.705 206.018 137.45 204.94C138.656 203.533 139.626 201.939 140.32 200.22C140.24 201.82 140.14 203.42 140.03 205.02C139.6 207.563 139.44 210.144 139.55 212.72C139.55 213.11 140.24 212.93 140.25 212.59C140.36 210.02 140.55 207.45 140.72 204.88C140.82 204.46 140.92 204.04 141.05 203.62C141.43 202.37 141.8 200.62 142.82 199.7C143.61 199.03 144.05 199.4 144.09 200.04C143.949 200.228 143.85 200.444 143.798 200.673C143.746 200.902 143.744 201.14 143.79 201.37C143.84 201.65 144.33 201.49 144.42 201.37C144.463 201.293 144.499 201.213 144.53 201.13C144.87 200.97 144.99 201.07 144.87 201.43C144.75 201.79 144.87 202.05 144.8 202.35C144.73 202.65 145.38 202.52 145.47 202.35C146.35 200.55 149.24 198.91 151.02 198.09C151.425 197.972 151.807 197.786 152.15 197.54C152.25 197.44 154.54 193.94 154.75 195.71C154.75 195.94 155.07 195.99 155.24 195.87C156.24 195.19 156.7 193.87 157.81 193.34C160.5 191.95 158.73 193.45 160.23 193.7C161.17 193.85 164.65 189.56 164.62 189.4C164.68 189.72 165.32 189.52 165.26 189.19V188.86Z" fill="#455A64"/>
<path d="M200.07 167.17C199.368 168.372 198.499 169.47 197.49 170.43C197.04 171.64 195.94 171.99 194.2 171.43C194.094 171.281 193.966 171.149 193.82 171.04C193.66 171.04 193.38 170.91 193.17 170.91C191.87 170.97 191.17 174.43 190.1 172.96C189.99 172.81 189.73 172.88 189.61 172.96C188.837 173.435 188.194 174.095 187.74 174.88C187.56 175.19 187.46 175.77 187.25 175.97L187.1 176.12C186.989 176.129 186.88 176.159 186.78 176.21C186.7 176.21 186.19 176.05 186 176.09C185.62 176.18 185.38 176.57 185.17 176.86C184.809 177.525 184.492 178.213 184.22 178.92C184.156 179.025 184.103 179.135 184.06 179.25C184.098 179.113 184.091 178.967 184.041 178.834C183.991 178.701 183.899 178.588 183.78 178.51C182.78 177.85 181.87 179.41 181.25 180.51C181.04 179.4 180.68 178.23 179.37 178.77C177.79 179.41 177.25 180.77 176.76 182.2C176.76 180.2 176.49 177.28 174.83 177.58C173.73 177.79 172.6 179.83 172.11 180.65C171.42 181.79 171.11 183.49 170.23 184.45C170.04 184.65 170.51 184.79 170.66 184.65C171.89 183.47 172.44 181.15 173.46 179.76C173.88 179.18 174.55 177.96 175.54 178.82C175.82 179.07 175.74 180.2 175.79 180.63C175.94 181.79 175.94 182.94 176.06 184.1C176.06 184.48 176.66 184.28 176.77 184.05C177.12 183.33 177.27 182.59 177.59 181.85C177.753 181.124 178.163 180.477 178.75 180.02C180.06 180.02 180.7 180.53 180.67 181.63C180.74 181.97 181.19 181.84 181.35 181.63C181.77 181.1 183.11 178.39 183.54 179.96C183.59 180.16 183.76 180.19 183.95 180.16C184.95 179.99 185.72 175.86 186.64 177.16C186.75 177.31 187.02 177.25 187.13 177.16C188.13 176.45 188.67 172.8 190.13 174.47C190.17 174.509 190.22 174.537 190.274 174.552C190.329 174.566 190.386 174.565 190.44 174.55C191.28 174.3 191.44 173.55 191.98 172.96C192.52 172.37 192.19 172.38 192.98 172.13C194.42 171.67 193.15 172.13 194.03 172.26C194.63 172.36 194.8 172.61 195.47 172.56C196.284 172.467 197.037 172.084 197.59 171.48C198.23 170.75 198.68 169.84 199.32 169.08C199.857 168.542 200.294 167.912 200.61 167.22C200.7 167 200.17 167 200.07 167.17Z" fill="#455A64"/>
<path d="M221.94 157.25C221.443 157.247 220.959 157.405 220.56 157.7C219.38 158.35 218.27 159.26 217.11 159.96C216.51 160.32 216.01 160.86 215.44 161.21C213.98 162.11 213.57 161.01 212.62 159.98C212.567 159.948 212.507 159.932 212.445 159.932C212.383 159.932 212.323 159.948 212.27 159.98C211.04 160.29 211.08 161.25 210.13 161.85C209.5 162.24 209.53 162.32 209.03 161.6C208.72 161.17 208.71 160.7 208.32 160.29C208.19 160.15 207.97 160.21 207.83 160.29C206.71 160.97 206.06 162.17 205.17 163.11C204.28 164.05 203.17 166.18 201.76 166.67C201.51 166.76 201.76 167.01 201.93 166.96C202.93 166.74 203.41 165.96 204.08 165.16C204.75 164.36 205.42 163.68 206.08 162.94C206.42 162.57 207.08 161.42 207.38 161.32C208.76 160.91 208.27 164.15 210.08 162.95C210.57 162.62 210.64 161.88 211.08 161.54C212.43 160.54 212.33 161.28 213.08 161.79C213.83 162.3 213.96 162.88 214.84 162.67C215.08 162.62 215.22 162.36 215.43 162.26C215.583 162.096 215.717 161.914 215.83 161.72C216.594 160.994 217.5 160.432 218.49 160.07C219.54 159.36 220.56 158.13 221.83 157.86C222.16 157.75 222.39 157.23 221.94 157.25Z" fill="#455A64"/>
<path d="M139.64 223.42C139.18 225.19 136.51 227.53 135.07 225.29C134.44 224.29 134.8 222.15 134.8 221.01V215.71C134.8 214.4 134.8 213.08 134.8 211.71C134.8 211.22 134.02 211.41 134.02 211.81V214.36C134.02 218.58 133.67 222.56 131.68 226.53C131.268 227.596 130.72 228.604 130.05 229.53C128.77 230.93 127.6 230.76 126.82 230.13C126.99 229.81 127.14 229.49 127.3 229.21C127.61 228.69 128.51 227.75 128.23 227.03C127.84 226.03 126.02 226.09 125.51 226.95C125.269 227.464 125.179 228.035 125.25 228.598C125.321 229.161 125.549 229.692 125.91 230.13C125.28 231 124.49 231.91 123.53 230.98C123.441 230.918 123.332 230.891 123.224 230.906C123.117 230.921 123.019 230.976 122.95 231.06C122.45 231.66 122.21 232.41 121.75 233C121.13 233.79 121.08 235 119.81 235C119.559 235.021 119.308 234.946 119.11 234.79C118.48 234.27 119.28 233.09 119.4 232.47C119.641 231.594 119.533 230.659 119.1 229.86C119.051 229.787 118.976 229.736 118.89 229.717C118.804 229.699 118.715 229.714 118.64 229.76C117.787 230.156 117.096 230.833 116.682 231.678C116.269 232.522 116.159 233.484 116.37 234.4C116.48 234.76 116.97 235.26 116.77 235.54C116.57 235.82 115.77 235.85 115.49 235.74C114.989 235.548 114.55 235.223 114.22 234.8C113.34 233.8 111.84 237.8 111.55 238.32C110.86 239.62 110.38 240.83 109.1 241.64C108.873 241.8 108.597 241.878 108.32 241.86C107.72 241.75 107.91 241.1 107.8 240.68C107.8 240.88 107.73 239.68 107.8 239.75C107.8 239.59 107.52 239.59 107.41 239.62C106.68 239.81 106.64 240.26 106.19 240.93C105.98 241.25 105.65 241.83 105.41 242.13C105.308 242.383 105.154 242.612 104.957 242.802C104.761 242.991 104.527 243.137 104.27 243.23H103.72C103.05 243.71 102.54 244.45 101.86 244.9C100.75 245.63 99.79 246.11 99.66 244.34C99.6552 243.77 99.605 243.202 99.51 242.64C99.45 242.37 99.01 242.5 98.9 242.64C98.2019 243.615 97.6213 244.669 97.17 245.78C96.89 246.48 94.95 251.16 94.17 247.98C93.94 246.98 95.17 245.16 95.6 244.27C96.4 242.56 96.48 242.09 99.01 241.83C99.32 241.83 100.24 241.91 100.43 241.91C100.62 241.91 100.62 241.63 100.43 241.62C98.78 241.62 97.73 240.73 96.31 242.01C95.31 242.88 95.01 244.28 94.48 245.4C93.8446 246.363 93.4977 247.487 93.48 248.64C93.6 249.75 94.25 250.53 95.41 249.94C96.09 249.59 96.53 248.56 96.86 247.94C97.6 246.5 98.13 245.05 98.93 243.67C99 244.74 98.93 245.75 99.76 246.59C99.8079 246.637 99.8686 246.668 99.9344 246.681C100 246.693 100.068 246.686 100.13 246.66C101.073 246.176 101.942 245.56 102.71 244.83C103.44 244.26 104.5 244.1 105.16 243.49C105.758 242.756 106.277 241.962 106.71 241.12C106.893 240.893 107.063 240.656 107.22 240.41C107.187 240.776 107.187 241.144 107.22 241.51C107.55 242.89 108.6 242.79 109.61 242.06C110.442 241.35 111.122 240.479 111.61 239.5C112.33 238.31 112.82 236.5 113.77 235.41C113.925 235.754 114.163 236.055 114.461 236.286C114.76 236.517 115.111 236.671 115.483 236.735C115.855 236.799 116.237 236.771 116.595 236.654C116.954 236.536 117.278 236.332 117.54 236.06C117.54 236.06 117.64 235.95 117.69 235.91C118.292 236.1 118.935 236.122 119.549 235.972C120.163 235.822 120.723 235.507 121.17 235.06C121.632 234.577 122.014 234.024 122.3 233.42C122.47 233.04 122.66 232.65 122.85 232.28C123.15 231.733 123.46 231.693 123.78 232.16C124.57 232.16 124.65 232.46 125.42 231.99C125.877 231.681 126.248 231.261 126.5 230.77C126.75 231.01 127.047 231.197 127.372 231.317C127.697 231.438 128.044 231.49 128.39 231.47C130.87 231.19 132.33 227 133.14 225.16C133.473 224.381 133.75 223.579 133.97 222.76C133.91 224 133.97 225.35 134.71 226.16C136.95 228.53 139.83 225.76 140.44 223.44C140.56 222.92 139.75 223 139.64 223.42ZM117.05 232.74C117.25 231.57 118.95 229.81 118.69 231.96C118.619 232.411 118.512 232.856 118.37 233.29C118.29 233.607 118.18 233.915 118.04 234.21C118.018 234.275 117.991 234.338 117.96 234.4C117.07 234.48 116.79 234.21 117.05 232.74ZM125.81 227.8C125.804 227.659 125.838 227.519 125.907 227.395C125.976 227.272 126.077 227.17 126.2 227.1C126.315 227.07 126.435 227.07 126.55 227.1C126.714 227.099 126.874 227.148 127.01 227.24C127.091 227.307 127.156 227.391 127.201 227.486C127.246 227.581 127.269 227.685 127.27 227.79C127.286 228.131 127.168 228.465 126.94 228.72L126.41 229.48L126.31 229.62C126.31 229.62 125.96 228.87 125.93 228.78C125.847 228.528 125.803 228.265 125.8 228C125.796 227.933 125.799 227.866 125.81 227.8Z" fill="#455A64"/>
<path d="M182 196.59H181.75C181.688 196.6 181.63 196.628 181.584 196.671C181.537 196.713 181.505 196.769 181.49 196.83C180.901 198.184 180.082 199.426 179.07 200.5C176.48 203.05 176.58 199.29 176.44 197.97C176.44 197.7 176.08 197.72 175.91 197.83C174.803 198.596 173.949 199.676 173.46 200.93C173.31 201.23 172.46 203.19 172.28 203.13C172.53 203.22 172.15 201.4 171.99 201.13C171.83 200.86 171.73 201.01 171.63 201.05C170.443 201.594 169.393 202.394 168.554 203.394C167.715 204.393 167.109 205.567 166.78 206.83C166.49 206.57 166.12 206.53 165.56 206.83C165 207.13 164.46 208.61 164 208.68C164 208.68 163.45 207.98 163.22 207.92C162.01 207.59 160.55 209.41 159.84 210.1C157.97 211.95 158.95 209.23 157.27 209.1C157.201 209.089 157.131 209.096 157.066 209.121C157.001 209.146 156.944 209.187 156.9 209.24C156.143 210.631 155.291 211.967 154.35 213.24C153.46 214.35 152.74 214.78 152.35 213.02C152.1 211.81 153.13 210.5 153.29 209.28C153.29 209 152.85 209.01 152.73 209.18C150.61 212.18 149.18 215.38 146.58 218.04C146.39 218.23 146.86 218.35 147.01 218.2C149.21 216.05 150.56 213.51 152.16 210.99C151.64 212.58 151.08 214.62 152.33 215.12C153.58 215.62 154.78 213.55 155.27 212.86C155.727 211.938 156.28 211.067 156.92 210.26C157.56 209.69 157.14 209.7 157.8 210.47C158.05 210.76 158.09 211.25 158.44 211.47C158.602 211.617 158.809 211.707 159.028 211.725C159.246 211.743 159.465 211.688 159.65 211.57C160.22 211.23 162.65 206.77 163.41 209.27C163.46 209.42 163.67 209.45 163.8 209.4C164.37 209.19 166.08 206.4 166.62 207.94C166.71 208.22 167.25 208.09 167.26 207.82C167.35 205.82 168.44 204.55 169.72 203.19C170.26 202.62 170.8 201.5 171.63 202.47C171.649 202.889 171.692 203.306 171.76 203.72C171.82 203.92 172.09 203.89 172.23 203.83C174.01 203.02 174.23 200.13 175.75 198.68C175.82 200.22 175.75 202.42 177.87 202.05C178.687 201.821 179.381 201.278 179.8 200.54C180.28 199.88 180.72 199.21 181.21 198.54C181.28 198.44 182.08 197 182.13 196.98C182.5 196.9 182.3 196.55 182 196.59Z" fill="#455A64"/>
<path d="M215.58 178.49C215.309 178.461 215.034 178.49 214.775 178.577C214.517 178.663 214.279 178.804 214.08 178.99C213.68 179.31 213.46 179.81 213.08 180.15C211.08 181.91 210.08 179.98 209.87 178.15C209.82 177.77 209.31 177.97 209.18 178.15C208.36 179.4 208.7 180.79 207.68 182.15C206.88 183.15 203.93 186.8 203.38 183.74C203.32 183.42 202.9 183.51 202.74 183.69C201.97 184.53 201.5 185.56 200.74 186.44C200.31 186.95 199.08 188.37 198.65 188.35C197.5 188.28 197.49 186.53 197.42 185.82C197.42 185.5 196.97 185.59 196.81 185.74C196.43 186.1 193.21 192.83 192.32 192.14C192.08 191.96 191.55 192.3 191.84 192.53C193.54 193.86 195.61 189.11 196.74 186.97C196.74 188.13 196.83 189.32 198.39 189.02C200.51 188.62 201.58 186.18 202.79 184.55C203.27 185.86 204.37 186.24 205.69 185.28C206.852 184.307 207.848 183.152 208.64 181.86C209.01 181.135 209.247 180.349 209.34 179.54C209.64 180.63 210.22 181.61 211.57 181.65C213.42 181.71 213.72 179.09 215.45 178.98C215.79 179 216 178.51 215.58 178.49Z" fill="#455A64"/>
<path d="M123.84 248.65C124.48 247.89 124.94 247.28 125.99 247.27C126.09 247.264 126.19 247.284 126.28 247.33C126.353 247.366 126.415 247.422 126.46 247.49C126.645 247.805 126.898 248.074 127.201 248.278C127.504 248.482 127.848 248.616 128.21 248.67C129.21 248.74 130.96 247.13 132.21 245.44C133.21 245.83 134.96 244.44 135.73 243.73C136.14 243.35 135.55 242.99 135.19 243.33C134.986 243.753 134.668 244.11 134.273 244.363C133.877 244.615 133.419 244.753 132.95 244.76C132.89 244.76 132.81 244.76 132.81 244.69C132.89 244.01 134.36 242.28 133.2 241.79C132.04 241.3 131.4 243.26 131.46 244.01C131.465 244.356 131.543 244.697 131.69 245.01C131.41 245.47 131.11 245.93 130.78 246.37C130.418 246.724 130.038 247.058 129.64 247.37C129.45 247.588 129.209 247.756 128.94 247.86C128.492 247.918 128.037 247.823 127.65 247.59C126.98 247.07 128.15 246.32 128.49 245.91C128.976 245.342 129.386 244.714 129.71 244.04C130.16 243.04 130.37 241.72 128.92 241.67C126.92 241.67 125.87 244.5 126.24 246.6C125.829 246.639 125.427 246.744 125.05 246.91C124.377 247.339 123.796 247.896 123.34 248.55C122.52 249.55 122.13 250.1 122.19 248.41C122.19 248.09 121.68 248.16 121.58 248.41C120.939 250.165 120.061 251.824 118.97 253.34C118.29 254.12 117.25 255 116.46 254.62C117.276 253.401 117.868 252.047 118.21 250.62C118.44 249.62 119.21 246.49 117.31 246.34C115.78 246.22 115.31 249.41 115.09 250.34C114.728 251.777 114.84 253.292 115.41 254.66L115.55 254.87C115.209 255.364 114.828 255.829 114.41 256.26C113.7 256.97 112.72 258.04 111.61 258.03C111.506 258.04 111.401 258.025 111.304 257.986C111.206 257.948 111.119 257.888 111.05 257.81C110.59 257.23 111.7 256.11 111.94 255.58C112.311 254.742 112.439 253.817 112.31 252.91C112.3 252.85 112.27 252.795 112.225 252.755C112.179 252.715 112.121 252.692 112.06 252.69H111.78C111.705 252.684 111.63 252.698 111.561 252.729C111.493 252.761 111.434 252.809 111.39 252.87C110.466 254.203 109.999 255.799 110.06 257.42L109.33 258.22C108.7 258.93 107.49 261.04 106.57 259.28C106.534 259.243 106.49 259.214 106.442 259.197C106.393 259.179 106.341 259.174 106.29 259.18C105.68 259.3 105.61 259.53 105.21 260.07C104.81 260.61 104.38 261.88 103.39 260.98C103.39 260.98 103.39 259.71 103.32 259.54C103.25 259.37 102.85 259.4 102.73 259.54C101.78 260.6 101.35 262.29 100.41 263.38C100.567 262.606 100.787 261.847 101.07 261.11C101.2 260.74 100.54 260.76 100.44 261.06C99.6497 263.22 98.8097 265.6 97.1597 267.24C96.8995 267.655 96.5015 267.966 96.0354 268.118C95.5692 268.27 95.0646 268.253 94.6097 268.07C94.3027 267.579 94.1613 267.002 94.2063 266.424C94.2513 265.846 94.4803 265.298 94.8597 264.86C95.28 263.87 95.9738 263.02 96.8597 262.41C97.7597 261.99 98.1497 262.08 98.0297 262.68C98.0297 262.93 98.5197 262.89 98.5497 262.68C98.6797 261.44 97.5497 261.58 96.6097 261.99C95.0897 262.69 93.2497 265.56 93.3597 267.24C93.4497 268.7 95.0197 269.12 96.2397 268.67C97.9397 268.06 99.0597 266.23 99.8797 264.35C99.9476 264.366 100.018 264.369 100.087 264.357C100.156 264.344 100.221 264.318 100.28 264.28C101.5 263.43 101.96 261.79 102.76 260.5C102.76 261.45 102.63 262.43 103.97 262.18C104.87 262.01 104.97 261.31 105.49 260.72C106.38 259.72 105.78 260.19 106.65 260.72C107.86 261.45 108.65 260 109.31 259.2L110.31 258.12C110.354 258.236 110.411 258.346 110.48 258.45C111.6 259.81 113.04 258.45 113.98 257.59C114.715 256.936 115.385 256.213 115.98 255.43C117.88 257.17 120.42 252.43 121.62 249.9C121.624 250.003 121.653 250.104 121.705 250.193C121.757 250.283 121.83 250.358 121.918 250.412C122.006 250.467 122.106 250.498 122.209 250.505C122.312 250.512 122.416 250.493 122.51 250.45C123 250.17 123.55 249 123.84 248.65ZM111.21 255.65C111.15 255.8 111.08 255.94 111.01 256.08C110.84 256.41 110.75 256.52 110.72 256.08C110.716 255.414 110.845 254.755 111.1 254.14C111.159 253.891 111.296 253.667 111.49 253.5C111.57 253.44 111.71 253.41 111.75 253.5C111.758 253.526 111.758 253.554 111.75 253.58C111.77 253.783 111.77 253.987 111.75 254.19C111.691 254.539 111.576 254.877 111.41 255.19L111.21 255.65ZM115.89 253.88C115.68 253.318 115.589 252.719 115.62 252.12C115.576 250.627 115.835 249.141 116.38 247.75C116.409 247.657 116.453 247.569 116.51 247.49C116.593 247.394 116.706 247.329 116.831 247.303C116.956 247.278 117.085 247.294 117.2 247.35C117.315 247.406 117.418 247.485 117.501 247.584C117.583 247.682 117.644 247.796 117.68 247.92C117.75 248.167 117.781 248.423 117.77 248.68C117.795 249.553 117.676 250.425 117.42 251.26C117.131 251.98 116.797 252.682 116.42 253.36C116.29 253.61 116.15 253.85 116.01 254.08L115.89 253.88ZM127.11 246.18C127.063 246.142 127.025 246.094 127 246.04C126.98 245.951 126.98 245.859 127 245.77C126.985 245.039 127.083 244.311 127.29 243.61C127.53 242.93 128 242.23 128.81 242.27C128.923 242.269 129.034 242.3 129.13 242.36C129.9 242.88 129.13 244.06 128.8 244.59C128.549 244.947 128.268 245.281 127.96 245.59C127.79 245.84 127.37 246.42 127.11 246.23V246.18Z" fill="#455A64"/>
<path d="M138.62 242.6C138.22 242.6 138 243.22 138.5 243.22C139 243.22 139.13 242.6 138.62 242.6Z" fill="black"/>
<path d="M356.82 131.67C352.1 139.67 347.55 146.6 344.36 149.93C338.3 152.75 324.06 157.08 318.48 157.81C317.501 157.928 316.512 157.694 315.69 157.15C313.5 155.71 311.8 155.48 309.49 154.68C307.69 154.06 306.92 153.19 306.58 153.52C306.231 153.929 306.056 154.458 306.091 154.994C306.127 155.53 306.37 156.031 306.77 156.39C307.636 157.213 308.596 157.931 309.63 158.53C307.158 159.137 304.582 159.182 302.09 158.66C297.27 157.39 294.99 159.71 298.25 164.95C299.42 166.82 304.02 169.82 313.34 169.01C316.661 168.824 319.967 168.433 323.24 167.84C332.18 165.93 342.11 164.09 348.24 162.26C350.51 161.365 352.543 159.959 354.18 158.15C364.45 146.44 367.85 138.09 372.36 130.5L372 118.11C364.67 117.89 360.77 125 356.82 131.67Z" fill="#B16668"/>
<path d="M373.21 117.89C371.096 117.594 368.941 117.88 366.978 118.719C365.014 119.558 363.317 120.917 362.07 122.65C357.07 129.05 348.22 144.42 348.22 144.42C348.22 144.42 351.12 152.13 358.93 153.42L371.47 136.42C371.47 136.42 377.41 124.73 373.21 117.89Z" fill="#455A64"/>
<path d="M400.33 290.64H392.15V305.22H400.33V290.64Z" fill="#B16668"/>
<path d="M371.98 289.87L363.8 290.16L363.39 274.73L371.98 274.44V289.87Z" fill="#B16668"/>
<path d="M401.47 164.43C401.47 172.56 400.28 238 400.28 238C400.47 240.34 402.57 244.66 402.12 253.64C401.5 265.85 400.67 297.93 400.67 297.93C399.268 298.652 397.719 299.045 396.142 299.078C394.565 299.111 393.001 298.783 391.57 298.12C391.57 298.12 383.84 253.69 382.37 241.59C381.09 231.03 378.92 195.48 378.92 195.48L374.49 236.82C375.436 241.264 375.772 245.816 375.49 250.35C375.11 255.94 372.49 285.09 372.49 285.09C371.078 285.925 369.493 286.427 367.857 286.557C366.221 286.687 364.577 286.442 363.05 285.84C363.05 285.84 358.4 241.95 358.31 236.84C358.2 231 361 164.34 361 164.34L401.47 164.43Z" fill="#37474F"/>
<path d="M392.15 301V299.8C391.36 300.16 389.55 307.38 386.3 310.46C383.72 312.91 380.21 315.74 379.3 318.46C378.39 321.18 384.2 322.87 386.61 322.46C389.41 321.94 394.26 319.89 395.48 317.98C396.7 316.07 397.27 313.27 398.26 311.88C399.25 310.49 401.53 308.93 402.06 307.31C402.36 306.42 402.01 304.48 401.6 302.84C401.19 301.2 400.81 299.68 400.31 299.84V300.77C399.161 301.714 397.717 302.223 396.23 302.21C395 302.22 392.14 302 392.15 301Z" fill="#263238"/>
<path d="M363.72 287.53C363.29 287.53 362.95 288.17 362.01 289.23C360.621 290.692 358.995 291.91 357.2 292.83C354.14 294.43 348.2 296.88 345.49 298.15C343.81 298.94 343.89 301.05 345.63 302.26C347.37 303.47 351.57 304.33 356.63 303.16C359.38 302.52 362.96 299.88 365.22 300.02C367.48 300.16 371.72 300.13 373.39 298.93C375.06 297.73 374.39 295.17 373.92 292.93C373.4 290.53 372.76 286.79 372 286.93V287.76C371 289.31 365.94 289.94 363.78 288.76L363.72 287.53Z" fill="#263238"/>
<path d="M378.92 195.48C374.667 194.09 370.779 191.767 367.54 188.68C367.54 188.68 369.73 192.97 376.27 196.95L374.87 233.87L378.92 195.48Z" fill="#263238"/>
<path d="M396.9 119.1C396.9 119.1 403.62 120.66 403.16 132.85L401.75 152.27V181.4C395.75 188.21 369.08 187.72 359.96 180.86C359.96 180.86 360.96 146.38 361.61 133.11C362.05 123.67 364.22 118.93 373.49 117.89L384.89 118.39L396.9 119.1Z" fill="#407BFF"/>
<path opacity="0.1" d="M379.05 126.47L377.58 136.7L374.17 136.64L378.02 137.25L379.05 126.47Z" fill="black"/>
<path d="M388.31 93.77C388.374 97.0651 387.127 100.251 384.843 102.627C382.559 105.003 379.425 106.374 376.13 106.44C369.41 106.44 365.43 100.61 363.96 93.77C361.27 81.25 369.41 81.09 376.13 81.09C377.763 81.1225 379.373 81.4763 380.868 82.1312C382.364 82.7861 383.716 83.7292 384.847 84.9067C385.978 86.0842 386.866 87.473 387.46 88.9938C388.054 90.5146 388.343 92.1376 388.31 93.77Z" fill="#263238"/>
<path d="M394.52 98.89C394.52 98.89 392.65 108.03 391.9 109.53C391.416 110.446 390.595 111.137 389.61 111.46L389.74 105.03L394.52 98.89Z" fill="#263238"/>
<path d="M392.17 85.81C392.17 85.81 393.51 85.47 394.93 87.69C396.15 89.6 396.43 93.88 394.52 98.89L391 99.31L392.17 85.81Z" fill="#263238"/>
<path d="M390 99.32C390.7 99.76 391.71 98.32 392.58 97.4C393.45 96.48 396.28 95.16 397.7 98.26C399.12 101.36 396.45 105.62 394.22 106.35C390.36 107.61 389.79 105.03 389.79 105.03L389.49 119.5C384.38 127.41 372.8 127.13 376.96 119.12V114.72C375.246 115.005 373.505 115.096 371.77 114.99C368.94 114.54 367.15 112.21 366.3 108.99C364.92 103.86 364.39 99.72 365.56 89.63C366.85 78.57 379.19 78.46 385.86 82.83C392.53 87.2 390 99.32 390 99.32Z" fill="#B16668"/>
<path d="M391.06 81.43C391.272 80.9731 391.365 80.4703 391.331 79.968C391.297 79.4656 391.137 78.9799 390.866 78.5555C390.595 78.1312 390.222 77.7819 389.78 77.5397C389.339 77.2976 388.844 77.1704 388.34 77.17C387.653 77.1701 386.988 77.4107 386.46 77.85C386.307 77.344 386.021 76.8885 385.632 76.531C385.242 76.1734 384.764 75.9271 384.247 75.8178C383.73 75.7084 383.193 75.74 382.692 75.9093C382.191 76.0786 381.745 76.3793 381.4 76.78C381.142 76.2427 380.758 75.7754 380.281 75.4175C379.804 75.0596 379.248 74.8216 378.66 74.7235C378.072 74.6255 377.468 74.6703 376.901 74.8542C376.334 75.038 375.819 75.3556 375.4 75.78C375.112 74.8928 374.507 74.1427 373.702 73.6725C372.896 73.2023 371.946 73.0448 371.031 73.2301C370.117 73.4155 369.303 73.9306 368.744 74.6774C368.185 75.4243 367.92 76.3506 368 77.28C368 77.42 368 77.55 368 77.69C367.499 77.529 366.976 77.448 366.45 77.45C365.774 77.45 365.104 77.5832 364.479 77.842C363.855 78.1008 363.287 78.4802 362.809 78.9584C362.33 79.4366 361.951 80.0044 361.692 80.6292C361.434 81.254 361.3 81.9237 361.3 82.6C361.3 83.2763 361.434 83.946 361.692 84.5708C361.951 85.1957 362.33 85.7634 362.809 86.2416C363.287 86.7198 363.855 87.0992 364.479 87.358C365.104 87.6168 365.774 87.75 366.45 87.75C367.222 87.7473 367.984 87.5731 368.68 87.24C368.84 88.037 369.261 88.7581 369.876 89.2887C370.492 89.8194 371.267 90.1295 372.079 90.1696C372.891 90.2098 373.693 89.9779 374.358 89.5106C375.023 89.0433 375.513 88.3674 375.75 87.59C375.985 88.0949 376.36 88.5214 376.831 88.8183C377.302 89.1151 377.848 89.2697 378.405 89.2633C378.961 89.257 379.504 89.09 379.968 88.7826C380.432 88.4751 380.798 88.0401 381.02 87.53C381.334 87.9086 381.731 88.2097 382.18 88.4101C382.629 88.6104 383.118 88.7046 383.61 88.6852C384.101 88.6659 384.581 88.5336 385.013 88.2985C385.445 88.0635 385.817 87.7321 386.1 87.33C387.1 87.8 387.37 91.05 387.55 91.99C388.17 95.16 388.68 100.53 389.88 100.55C390.23 100.55 391.58 98.23 392.46 97.4C393.67 96.25 393.92 86.72 393.92 86.72C393.92 86.72 395.64 82.32 391.06 81.43Z" fill="#263238"/>
<path d="M389.51 116.26C388.321 118.69 386.615 120.83 384.51 122.53C382.722 123.856 380.645 124.74 378.45 125.11C380.245 126.339 381.714 127.986 382.73 129.91C384 132.72 393.22 122.98 393 118.91C393 118.91 391.51 114 389.57 113.65L389.51 116.26Z" fill="#455A64"/>
<path d="M378.44 125.11C378.44 125.11 375.67 123.73 376.91 119.11V114.71L375.7 114.87C374.271 116.251 373.256 118.003 372.77 119.93C372.49 121.19 371.77 127.58 373.03 128.85C374.29 130.12 376 125.45 378.44 125.11Z" fill="#455A64"/>
<path d="M376.92 114.72C376.92 114.72 383.24 113.39 385.46 112.17C386.768 111.447 387.83 110.35 388.51 109.02C388.181 110.359 387.589 111.62 386.77 112.73C385.16 114.88 376.92 116.47 376.92 116.47V114.72Z" fill="#9A4A4D"/>
<path d="M378.44 97.67C378.46 97.916 378.551 98.151 378.701 98.3463C378.852 98.5416 379.057 98.6887 379.29 98.7697C379.523 98.8507 379.774 98.862 380.014 98.8023C380.253 98.7425 380.47 98.6144 380.638 98.4334C380.806 98.2524 380.917 98.0265 380.958 97.7833C381 97.54 380.97 97.29 380.871 97.0637C380.773 96.8374 380.611 96.6447 380.405 96.509C380.198 96.3734 379.957 96.3008 379.71 96.3C379.537 96.3065 379.367 96.347 379.209 96.4194C379.051 96.4917 378.909 96.5945 378.791 96.7217C378.673 96.849 378.582 96.9982 378.522 97.1609C378.461 97.3236 378.434 97.4966 378.44 97.67Z" fill="#263238"/>
<path d="M380.48 92.21L383.19 93.77C383.383 93.3837 383.426 92.9394 383.309 92.5235C383.193 92.1077 382.926 91.75 382.56 91.52C382.381 91.4187 382.182 91.3561 381.976 91.3362C381.771 91.3163 381.564 91.3396 381.368 91.4046C381.172 91.4695 380.992 91.5748 380.839 91.7135C380.686 91.8522 380.564 92.0213 380.48 92.21Z" fill="#263238"/>
<path d="M377.49 106.79L374.6 107.92C374.658 108.122 374.758 108.31 374.892 108.471C375.027 108.633 375.193 108.765 375.381 108.858C375.569 108.952 375.774 109.006 375.984 109.017C376.194 109.028 376.404 108.995 376.6 108.92C376.989 108.742 377.297 108.424 377.462 108.029C377.627 107.634 377.637 107.192 377.49 106.79Z" fill="#9A4A4D"/>
<path d="M366.82 93.37L369.29 91.37C369.179 91.1978 369.032 91.0509 368.86 90.9387C368.689 90.8265 368.495 90.7515 368.293 90.7185C368.09 90.6856 367.883 90.6954 367.685 90.7473C367.486 90.7992 367.301 90.8921 367.14 91.02C366.804 91.3014 366.584 91.6983 366.525 92.133C366.466 92.5677 366.571 93.0089 366.82 93.37Z" fill="#263238"/>
<path d="M367.9 97.3C367.922 97.5454 368.014 97.7792 368.166 97.9731C368.318 98.167 368.523 98.3126 368.756 98.3921C368.989 98.4715 369.24 98.4815 369.479 98.4208C369.717 98.3601 369.933 98.2312 370.1 98.05C370.267 97.8688 370.377 97.643 370.418 97.4001C370.459 97.1572 370.428 96.9077 370.33 96.682C370.231 96.4562 370.069 96.264 369.863 96.1287C369.657 95.9935 369.417 95.9209 369.17 95.92C368.819 95.9356 368.489 96.0895 368.251 96.3481C368.013 96.6066 367.887 96.9489 367.9 97.3Z" fill="#263238"/>
<path d="M374.68 96.24L374.54 104.24L369.99 103.2L374.68 96.24Z" fill="#9A4A4D"/>
<path d="M423.92 156C422.01 149.23 415.03 135.91 411.53 129.52C406.53 120.43 401.84 119.18 396.69 119.11C394.79 121.56 394.58 132.99 401.07 139.81C403.56 145.04 411.46 158.44 411.46 158.44C411.27 159.85 405.92 174.74 403.7 179.53C403.292 180.385 402.578 181.055 401.7 181.41C399.4 182.41 398.35 183.64 396.52 185.06C395.08 186.18 393.98 186.34 394.08 186.78C394.254 187.27 394.604 187.678 395.063 187.922C395.523 188.166 396.056 188.23 396.56 188.1C397.677 187.838 398.758 187.442 399.78 186.92C398.77 188.719 397.473 190.34 395.94 191.72C392.45 194.9 392.63 197.56 398.58 198.5C402.31 199.09 405.63 197.23 409.67 189.42C410.83 187.18 412.07 183.78 413.5 180.9C416.5 174.96 417.5 173.68 419.81 169.21C423.26 162.75 424.76 159 423.92 156Z" fill="#B16668"/>
<path d="M395.64 119.1C399.195 118.609 402.804 119.465 405.76 121.5C410.85 124.94 420.99 146.73 420.99 146.73C420.99 146.73 421.25 152.23 407.76 154.01L400.39 140.3C400.39 140.3 393.56 133.72 395.64 119.1Z" fill="#455A64"/>
<path d="M302.4 294.5C302.303 294.244 302.249 293.974 302.24 293.7V295.42C302.235 295.52 302.235 295.62 302.24 295.72V295.79C302.23 295.893 302.23 295.997 302.24 296.1V296.25C302.255 296.334 302.275 296.418 302.3 296.5L302.45 296.89C302.51 297.02 302.58 297.15 302.65 297.28C303.253 298.24 304.103 299.02 305.11 299.54C307.331 300.639 309.78 301.198 312.258 301.171C314.736 301.145 317.173 300.535 319.37 299.39C319.89 299.095 320.37 298.735 320.8 298.32C320.884 298.255 320.961 298.181 321.03 298.1C321.079 298.058 321.122 298.011 321.16 297.96C321.242 297.871 321.319 297.778 321.39 297.68C321.645 297.361 321.854 297.007 322.01 296.63C322.049 296.55 322.079 296.466 322.1 296.38L322.17 296.13C322.204 295.995 322.227 295.858 322.24 295.72C322.24 295.61 322.24 295.51 322.24 295.41C322.236 295.37 322.236 295.33 322.24 295.29V293.29C322.252 293.628 322.212 293.965 322.12 294.29C321.602 292.936 320.586 291.831 319.28 291.2C317.06 290.1 314.611 289.539 312.133 289.564C309.656 289.588 307.219 290.197 305.02 291.34C303.78 292.026 302.845 293.155 302.4 294.5ZM322.4 294.93C322.395 294.884 322.395 294.837 322.4 294.79C322.398 294.837 322.401 294.884 322.41 294.93H322.4Z" fill="#407BFF"/>
<path d="M300.23 87L320.41 86.76V88.76L322.41 293.34C322.423 293.678 322.382 294.015 322.29 294.34C321.802 295.716 320.803 296.851 319.5 297.51C317.303 298.656 314.865 299.266 312.387 299.29C309.909 299.314 307.46 298.752 305.24 297.65C304.232 297.137 303.382 296.359 302.78 295.4C302.617 295.143 302.492 294.864 302.41 294.57C302.313 294.314 302.259 294.044 302.25 293.77C302.246 293.723 302.246 293.677 302.25 293.63V293.56L300.23 87Z" fill="#F0F0F0"/>
<path d="M303.23 91.07C299.23 88.84 299.23 85.15 303.15 82.83C305.349 81.6889 307.786 81.0816 310.264 81.0572C312.741 81.0329 315.189 81.5923 317.41 82.69C321.41 84.92 321.41 88.61 317.5 90.93C315.299 92.0712 312.861 92.6785 310.382 92.7029C307.903 92.7272 305.453 92.1678 303.23 91.07Z" fill="#407BFF"/>
<path d="M304.55 72.48C304.519 72.5618 304.492 72.6453 304.47 72.73L300.47 85.66V85.76C300.442 85.8352 300.419 85.912 300.4 85.99V86.13C299.99 87.88 300.94 89.72 303.29 91.04C305.513 92.1378 307.963 92.6972 310.442 92.6729C312.921 92.6486 315.359 92.0412 317.56 90.9C319.83 89.55 320.76 87.75 320.38 86.03V85.93C320.334 85.76 320.277 85.593 320.21 85.43V85.32L315.98 72.5C315.683 71.743 315.112 71.1254 314.38 70.77C313.11 70.1395 311.709 69.8181 310.291 69.832C308.873 69.8459 307.478 70.1947 306.22 70.85C305.486 71.1749 304.893 71.7536 304.55 72.48Z" fill="#E0E0E0"/>
<path d="M308.21 240.91C308.205 240.919 308.202 240.929 308.202 240.94C308.202 240.951 308.205 240.961 308.21 240.97V241.24C308.262 241.522 308.38 241.787 308.554 242.015C308.727 242.242 308.952 242.426 309.21 242.55C310.002 242.94 310.874 243.138 311.756 243.129C312.639 243.121 313.507 242.905 314.29 242.5C314.542 242.373 314.763 242.191 314.936 241.968C315.109 241.745 315.23 241.486 315.29 241.21V240.86L313.82 80.67L306.65 76.67L308.21 240.91Z" fill="#455A64"/>
<path d="M313.94 92.29L313.82 80.67L306.65 76.67L306.81 92.41C309.169 92.8706 311.598 92.8297 313.94 92.29Z" fill="#37474F"/>
<path d="M306.82 67L303.2 78.69C303.158 78.7937 303.125 78.9007 303.1 79.01C302.78 80.26 303.46 81.58 305.1 82.53C306.67 83.3069 308.402 83.7019 310.154 83.6828C311.905 83.6637 313.628 83.231 315.18 82.42C316.78 81.48 317.45 80.21 317.18 79.01C317.18 79.01 317.18 78.95 317.18 78.93L317.08 78.6L313.19 66.84C313.027 66.4055 312.705 66.0486 312.29 65.84C311.58 65.4774 310.793 65.2884 309.995 65.2884C309.198 65.2884 308.411 65.4774 307.7 65.84C307.481 65.9609 307.289 66.1267 307.137 66.3265C306.986 66.5263 306.878 66.7558 306.82 67Z" fill="#407BFF"/>
<path opacity="0.1" d="M306.82 67L303.2 78.69C303.158 78.7937 303.125 78.9007 303.1 79.01C302.78 80.26 303.46 81.58 305.1 82.53C306.67 83.3069 308.402 83.7019 310.154 83.6828C311.905 83.6637 313.628 83.231 315.18 82.42C316.78 81.48 317.45 80.21 317.18 79.01C317.18 79.01 317.18 78.95 317.18 78.93L317.08 78.6L313.19 66.84C313.027 66.4055 312.705 66.0486 312.29 65.84C311.58 65.4774 310.793 65.2884 309.995 65.2884C309.198 65.2884 308.411 65.4774 307.7 65.84C307.481 65.9609 307.289 66.1267 307.137 66.3265C306.986 66.5263 306.878 66.7558 306.82 67Z" fill="black"/>
<path d="M307.72 65.91C308.431 65.5474 309.217 65.3584 310.015 65.3584C310.813 65.3584 311.599 65.5474 312.31 65.91C312.725 66.1186 313.046 66.4755 313.21 66.91L315.21 72.91C315.52 73.84 315.06 74.85 313.81 75.59C312.678 76.1773 311.425 76.4905 310.15 76.5043C308.875 76.5182 307.614 76.2325 306.47 75.67C305.951 75.4673 305.52 75.0891 305.252 74.6012C304.983 74.1133 304.894 73.5467 305 73L305.07 72.77L306.81 67C306.879 66.7659 306.996 66.5484 307.152 66.3609C307.309 66.1735 307.502 66.02 307.72 65.91Z" fill="#407BFF"/>
<path opacity="0.1" d="M307.75 68.56C306.47 67.84 306.46 66.65 307.75 65.91C308.461 65.5474 309.248 65.3584 310.045 65.3584C310.843 65.3584 311.63 65.5474 312.34 65.91C312.617 66.0044 312.857 66.1828 313.027 66.4204C313.197 66.658 313.288 66.9429 313.288 67.235C313.288 67.5272 313.197 67.812 313.027 68.0496C312.857 68.2872 312.617 68.4657 312.34 68.56C311.629 68.9203 310.843 69.108 310.045 69.108C309.248 69.108 308.462 68.9203 307.75 68.56Z" fill="black"/>
<path d="M308.52 272.09C308.549 272.405 308.663 272.706 308.85 272.961C309.037 273.217 309.289 273.417 309.58 273.54C310.367 273.929 311.234 274.128 312.111 274.119C312.989 274.11 313.852 273.895 314.63 273.49C314.914 273.356 315.157 273.148 315.333 272.887C315.509 272.627 315.612 272.324 315.63 272.01L315.32 241.21C315.26 241.486 315.139 241.745 314.966 241.968C314.793 242.191 314.572 242.373 314.32 242.5C313.536 242.905 312.668 243.121 311.786 243.129C310.904 243.138 310.032 242.94 309.24 242.55C308.982 242.426 308.757 242.242 308.583 242.015C308.41 241.787 308.292 241.522 308.24 241.24L308.52 272.09Z" fill="#FAFAFA"/>
<path d="M309.55 270.62C310.333 270.225 311.198 270.02 312.075 270.02C312.952 270.02 313.817 270.225 314.6 270.62C314.902 270.725 315.165 270.921 315.35 271.182C315.536 271.443 315.636 271.755 315.636 272.075C315.636 272.395 315.536 272.707 315.35 272.968C315.165 273.229 314.902 273.425 314.6 273.53C313.822 273.935 312.959 274.15 312.081 274.159C311.204 274.168 310.336 273.969 309.55 273.58C309.244 273.477 308.978 273.281 308.79 273.019C308.601 272.757 308.5 272.443 308.5 272.12C308.5 271.797 308.601 271.483 308.79 271.221C308.978 270.959 309.244 270.763 309.55 270.66V270.62Z" fill="#F5F5F5"/>
<path d="M303.12 281V281.22L303.25 293.37C303.24 293.463 303.24 293.557 303.25 293.65V293.72C303.373 294.474 303.681 295.187 304.147 295.792C304.613 296.398 305.222 296.878 305.92 297.19C307.92 298.179 310.125 298.682 312.356 298.659C314.586 298.637 316.781 298.089 318.76 297.06C320.53 296.01 321.4 294.65 321.38 293.3L321.26 281C321.265 280.98 321.265 280.96 321.26 280.94V280.87C321.2 279.56 320.31 278.27 318.57 277.29C316.57 276.302 314.365 275.798 312.135 275.821C309.904 275.843 307.71 276.391 305.73 277.42C305.03 277.75 304.424 278.251 303.968 278.877C303.512 279.502 303.22 280.232 303.12 281Z" fill="#407BFF"/>
<path opacity="0.05" d="M303.12 281V281.22L303.25 293.37C303.24 293.463 303.24 293.557 303.25 293.65V293.72C303.373 294.474 303.681 295.187 304.147 295.792C304.613 296.398 305.222 296.878 305.92 297.19C307.92 298.179 310.125 298.682 312.356 298.659C314.586 298.637 316.781 298.089 318.76 297.06C320.53 296.01 321.4 294.65 321.38 293.3L321.26 281C321.265 280.98 321.265 280.96 321.26 280.94V280.87C321.2 279.56 320.31 278.27 318.57 277.29C316.57 276.302 314.365 275.798 312.135 275.821C309.904 275.843 307.71 276.391 305.73 277.42C305.03 277.75 304.424 278.251 303.968 278.877C303.512 279.502 303.22 280.232 303.12 281Z" fill="black"/>
<path opacity="0.1" d="M305.81 284.82C302.24 282.82 302.21 279.49 305.73 277.4C307.71 276.371 309.904 275.823 312.135 275.801C314.366 275.778 316.57 276.282 318.57 277.27C322.14 279.27 322.17 282.6 318.65 284.68C316.672 285.713 314.478 286.264 312.247 286.288C310.016 286.312 307.81 285.809 305.81 284.82Z" fill="black"/>
<path d="M308.4 62.12V67.2C308.409 67.3508 308.459 67.4962 308.546 67.6199C308.632 67.7436 308.752 67.8406 308.89 67.9C309.255 68.0845 309.657 68.1807 310.065 68.1807C310.474 68.1807 310.876 68.0845 311.24 67.9C311.373 67.8365 311.488 67.7395 311.572 67.6185C311.656 67.4975 311.707 67.3568 311.72 67.21L311.77 62.14C311.762 61.8494 311.678 61.566 311.527 61.3178C311.376 61.0696 311.162 60.8652 310.908 60.7248C310.653 60.5844 310.366 60.5129 310.076 60.5173C309.785 60.5217 309.501 60.6019 309.25 60.75C309.006 60.8902 308.801 61.0887 308.653 61.3278C308.504 61.567 308.418 61.8392 308.4 62.12Z" fill="#455A64"/>
<path d="M308.44 61.8C308.431 61.8964 308.431 61.9936 308.44 62.09C308.475 62.2193 308.537 62.3394 308.624 62.4415C308.71 62.5435 308.818 62.625 308.94 62.68C309.305 62.8645 309.707 62.9607 310.115 62.9607C310.524 62.9607 310.926 62.8645 311.29 62.68C311.421 62.6201 311.534 62.5265 311.616 62.4087C311.699 62.291 311.749 62.1534 311.76 62.01V61.91C311.762 61.88 311.762 61.85 311.76 61.82C311.728 61.6384 311.66 61.4651 311.56 61.31C311.449 61.1207 311.301 60.9552 311.126 60.8231C310.95 60.6909 310.751 60.5947 310.538 60.5399C310.325 60.4851 310.104 60.4728 309.886 60.5037C309.669 60.5346 309.459 60.6081 309.27 60.72C309.063 60.8301 308.881 60.9834 308.738 61.1698C308.595 61.3561 308.493 61.571 308.44 61.8Z" fill="#263238"/>
<path d="M184.06 372.52L289.67 311.55L391.22 370.18L285.61 431.15L184.06 372.52Z" fill="#407BFF"/>
<path opacity="0.3" d="M184.06 372.52L289.67 311.55L391.22 370.18L285.61 431.15L184.06 372.52Z" fill="black"/>
<path d="M184.06 372.52L171.87 365.49L277.48 304.51L289.67 311.55L184.06 372.52Z" fill="#407BFF"/>
<path opacity="0.1" d="M184.06 372.52L171.87 365.49L277.48 304.51L289.67 311.55L184.06 372.52Z" fill="black"/>
<path d="M171.87 365.49V379.56L285.61 445.23V431.15L171.87 365.49Z" fill="#407BFF"/>
<path opacity="0.2" d="M171.87 365.49V379.56L285.61 445.23V431.15L171.87 365.49Z" fill="black"/>
<path d="M285.61 431.15L391.22 370.18V384.25L285.61 445.23V431.15Z" fill="#407BFF"/>
<path d="M371.52 349.35L289.67 311.55L184.06 372.55L285.61 419.46L377 366.66C382.58 363.43 388 357.98 387.66 350.82C384.48 352.41 379.36 353 371.52 349.35Z" fill="#407BFF"/>
<path opacity="0.3" d="M371.52 349.35L289.67 311.55L184.06 372.55L285.61 419.46L377 366.66C382.58 363.43 388 357.98 387.66 350.82C384.48 352.41 379.36 353 371.52 349.35Z" fill="white"/>
<g opacity="0.7">
<path d="M295.68 332.5C295.201 333.008 294.908 333.664 294.85 334.36C294.34 337 293.19 338.36 289.99 340.36C288.45 341.29 288.31 342.02 287.35 343.04C285.11 345.4 284.17 343.6 282.05 342.74C281.44 342.5 280.73 342.88 280.85 343.25C281.33 344.85 284.01 349.31 279.43 349.58C277.07 349.72 276.3 348.37 274.33 347.67C272.1 346.88 273.33 351.67 273.55 352.51C273.738 353.442 273.832 354.39 273.83 355.34C273.89 355.916 273.811 356.497 273.6 357.036C273.39 357.576 273.054 358.057 272.62 358.44C272.095 358.748 271.499 358.917 270.89 358.93C269.275 359.135 267.635 359.009 266.07 358.56C266.33 357.94 266.94 357.56 267.2 356.86C267.479 356.113 267.572 355.31 267.47 354.52C267.234 352.783 266.412 351.178 265.14 349.97C264.07 348.97 260.98 347.46 258.82 348.42C256.66 349.38 257.82 352.42 258.35 353.63C259.17 355.36 261.14 357.09 263.48 358.46C262.227 359.091 260.874 359.497 259.48 359.66C257.21 360.01 255.39 359.87 254.69 361.38C254.33 362.17 255.02 363.52 254.23 364.17C252.76 365.38 251.23 364.09 249.94 364.23C248.23 364.43 247.7 364.73 247.69 365.85C247.69 366.2 248.22 366.72 248.11 367.03L248.39 367.46C247.615 367.605 246.815 367.504 246.1 367.17C245.79 367.09 244.1 366.43 244.1 366.44C243.901 366.368 243.684 366.358 243.479 366.412C243.274 366.465 243.089 366.58 242.95 366.74C242.15 368.39 242.77 369.99 243.1 371.61C240.62 368.21 238.93 364.77 234.24 361.92C231.69 360.38 227.24 358.45 224.06 360.54C219.28 363.73 220.89 372.36 227.43 374.45C227.565 374.473 227.704 374.465 227.836 374.427C227.967 374.389 228.088 374.322 228.19 374.23L228.73 373.72C229.19 373.29 228.47 372.72 227.86 373.23C226.64 374.23 223.63 368.88 223.52 368.51C222.98 366.58 222.81 364.2 224.2 362.37C227.14 358.48 233.43 362.73 235.83 364.73C239.41 367.73 240.47 371.16 243.29 374.32C243.75 374.83 244.9 374.79 245.03 374.19C245.48 372.08 244.03 370 244.48 367.92C246.26 368.74 249.28 370.23 250.41 368.68C250.96 367.94 249.8 367.07 250.16 366.29C250.7 365.1 250.53 365.83 252.22 366.07C252.839 366.2 253.475 366.22 254.1 366.13C254.724 366.02 255.284 365.681 255.67 365.18C257.08 363.56 255.46 361.85 259.11 360.9C261.11 360.36 262.82 360.56 264.62 359.6L265.09 359.32L266.17 359.81C269.27 361.1 273 360.81 274.59 358.73C275.452 357.419 275.83 355.849 275.66 354.29C275.72 353.261 275.72 352.229 275.66 351.2C275.513 350.569 275.309 349.954 275.05 349.36C276.78 350.36 278.29 351.73 280.93 350.93C284.69 349.79 283.83 346.77 283.04 344.56C285.25 345.74 287.26 346.95 288.85 344.33C289.7 342.93 289.98 341.99 291.85 340.88C292.871 340.332 293.835 339.685 294.73 338.95C296.73 337.05 295.55 334.95 297.04 333.04C297.43 332.48 296.28 331.9 295.68 332.5ZM262 355.75C260.5 354.51 259.18 352.64 259.5 351.08C259.7 350.08 260.87 348.89 262.79 349.89C264.52 350.79 265.46 353.36 265.6 354.62C265.682 355.178 265.626 355.747 265.438 356.279C265.249 356.81 264.935 357.288 264.52 357.67C263.641 357.083 262.799 356.442 262 355.75Z" fill="#455A64"/>
<path d="M316.62 347.94C315.955 348.199 315.31 348.506 314.69 348.86C313.441 349.542 312.034 349.887 310.61 349.86L310.68 349.68C311.14 347.98 309.83 345.86 308.05 344.5C307.411 343.926 306.612 343.562 305.759 343.454C304.907 343.347 304.042 343.503 303.28 343.9C301.43 345.01 302.63 347.11 303.74 348.24C304.909 349.377 306.364 350.176 307.95 350.55C307.134 351.214 306.211 351.735 305.22 352.09C303.59 352.74 302.83 352.72 302.77 354.09C302.826 354.817 302.967 355.536 303.19 356.23C303.46 357.61 303.19 359.23 300.19 359.06C298.877 358.956 297.594 358.618 296.4 358.06C295.82 357.82 295.22 358.06 295.17 358.43C295 359.58 295.51 360.74 295.45 361.89C295.29 365.1 290.72 361.89 289.3 360.94C288.56 360.43 287.71 360.94 288 361.49C288.94 363.25 288.51 365.49 288 367.29C287.74 368.22 287.35 370.02 285.93 370.64C285.321 370.913 284.644 370.997 283.986 370.881C283.328 370.765 282.72 370.455 282.24 369.99C283.793 367.42 284.284 364.346 283.61 361.42C283.22 360.04 282.23 358.42 279.43 359.21C276.07 360.21 276.43 362.91 277.08 364.62C277.918 366.623 279.099 368.464 280.57 370.06C278.66 373.24 275.15 375.9 270.7 378.54C270.13 378.89 270.61 379.63 271.39 379.2C275.99 376.66 279.29 374.42 281.62 371C282.403 371.714 283.413 372.127 284.472 372.166C285.531 372.204 286.568 371.866 287.4 371.21C289.91 369.38 290.61 365.84 290.09 363.09C291.64 364.17 293.59 365.22 295.47 364.62C298.03 363.79 297.04 361.17 296.79 359.45C298.73 360.18 301.2 360.85 303.24 360.06C306.24 358.89 304.24 356.62 304.46 355.01C304.67 353.11 307.14 353.31 308.87 352.11C309.331 351.786 309.731 351.383 310.05 350.92C313.1 351.11 316.22 350.14 317.97 348.01C318 347.974 318.022 347.932 318.035 347.886C318.048 347.841 318.052 347.794 318.047 347.747C318.041 347.701 318.026 347.656 318.003 347.615C317.979 347.574 317.948 347.538 317.91 347.51L317.58 347.23C317.05 346.75 316.22 347.56 316.62 347.94ZM280 367C279.23 365.77 277.11 362.54 278.28 361C278.417 360.835 278.583 360.696 278.77 360.59C279.075 360.427 279.41 360.33 279.755 360.304C280.099 360.278 280.445 360.324 280.77 360.44C281.259 360.629 281.677 360.963 281.969 361.398C282.26 361.833 282.411 362.347 282.4 362.87C282.389 363.71 282.322 364.549 282.2 365.38C282.09 366.576 281.772 367.743 281.26 368.83C280.806 368.244 280.386 367.633 280 367ZM304.67 347.42C304.318 347.114 304.087 346.692 304.02 346.23C304.039 345.871 304.189 345.531 304.442 345.275C304.694 345.019 305.032 344.864 305.39 344.84C306.7 344.71 307.44 345.67 308.13 346.57C308.27 346.75 309.54 349.57 308.96 349.46C307.358 349.295 305.859 348.59 304.71 347.46L304.67 347.42Z" fill="#455A64"/>
<path d="M276.591 390.13C277.321 393.13 279.821 395.73 281.681 398.13C283.643 400.774 286.049 403.057 288.791 404.88C289.581 405.38 290.201 404.6 289.911 404.19C289.474 403.379 288.933 402.629 288.301 401.96C288.081 401.76 287.571 401.9 287.301 402.11C285.571 400.41 284.301 398.53 282.851 396.77C281.111 394.71 278.551 392.03 277.771 389.77C277.611 389.13 276.481 389.71 276.591 390.13Z" fill="#455A64"/>
<path d="M292.77 386.7C291.021 386.341 289.221 386.31 287.46 386.61C287.619 386.405 287.818 386.234 288.044 386.108C288.271 385.981 288.521 385.902 288.779 385.875C289.036 385.848 289.297 385.874 289.545 385.95C289.793 386.026 290.023 386.152 290.22 386.32C290.81 386.67 291.59 385.85 291.06 385.52C290.367 385.162 289.592 384.991 288.812 385.022C288.032 385.054 287.273 385.287 286.61 385.7C286.125 385.878 285.696 386.182 285.368 386.581C285.039 386.98 284.822 387.46 284.74 387.97C284.74 387.97 284.74 388.03 284.74 388.06C284.735 388.8 284.816 389.538 284.98 390.26C285.38 392.83 287.31 394.93 289.41 397.19C290.216 398.149 291.244 398.896 292.405 399.367C293.566 399.838 294.824 400.017 296.07 399.89C302.64 399.18 301.07 393.09 298.94 390.77C297.37 389 296.16 387.37 292.77 386.7ZM298.18 397.35C293.62 401.6 288.59 394.48 287.42 392.73C286.775 391.757 286.428 390.617 286.42 389.45C286.447 388.965 286.544 388.486 286.71 388.03C294.56 385.41 302.14 393.66 298.18 397.35Z" fill="#455A64"/>
<path d="M300.31 382.42C300.141 382.37 299.959 382.376 299.794 382.437C299.628 382.499 299.486 382.612 299.39 382.76C299.27 383.06 299.12 383.35 299.01 383.65C298.9 383.95 299.2 383.94 299.47 383.92C299.604 383.919 299.736 383.887 299.856 383.826C299.976 383.765 300.08 383.678 300.16 383.57C300.27 383.41 300.42 383.24 300.54 383.08C300.595 383.03 300.634 382.965 300.653 382.893C300.671 382.82 300.668 382.744 300.643 382.674C300.619 382.604 300.574 382.542 300.515 382.497C300.456 382.452 300.384 382.425 300.31 382.42Z" fill="#455A64"/>
<path d="M312.371 375.17C311.319 374.755 310.179 374.616 309.059 374.767C307.938 374.917 306.875 375.352 305.971 376.03C303.971 377.53 304.541 379.39 305.101 381.13C305.271 381.66 306.451 381.24 306.331 380.83C306.021 380.08 305.825 379.288 305.751 378.48C307.351 380.38 308.751 382.43 310.411 384.41C310.271 384.59 310.141 384.77 309.981 384.94C309.621 385.35 310.481 386.1 311.111 385.59L311.291 385.42C312.69 387.016 314.302 388.412 316.081 389.57C316.901 390.15 317.921 389.24 317.141 388.73C315.303 387.52 313.641 386.063 312.201 384.4C312.671 383.73 313.031 383 313.471 382.33C314.109 381.511 314.6 380.587 314.921 379.6C315.321 378 314.681 376.27 312.371 375.17ZM312.371 376.54C314.371 378.03 313.521 379.74 312.451 381.34C312.031 381.97 311.631 382.63 311.211 383.28C309.611 381.37 308.211 379.4 306.661 377.59C306.58 377.502 306.476 377.439 306.36 377.411C306.244 377.382 306.123 377.389 306.011 377.43C306.011 377.37 306.071 377.31 306.111 377.25C307.251 375.72 310.471 375.11 312.391 376.54H312.371Z" fill="#455A64"/>
<path d="M340.57 368.47C340.025 369.349 339.191 370.011 338.21 370.34C335.82 371.26 333.64 370.13 332 369.05C330.56 368.05 330.19 366.72 329 365.68C328.533 365.188 327.956 364.814 327.316 364.588C326.677 364.363 325.993 364.291 325.32 364.38C321.64 365.2 323.32 369.53 323.82 371.95C322.706 371.276 321.432 370.91 320.13 370.89C319.999 370.875 319.866 370.89 319.742 370.933C319.617 370.976 319.504 371.047 319.41 371.14C319.101 371.569 318.906 372.069 318.845 372.594C318.784 373.12 318.858 373.652 319.06 374.14C317.61 372.94 316.21 371.72 314.79 370.51C314.18 369.98 313.17 370.71 313.66 371.14C316.09 373.27 318.47 375.4 321.15 377.43C321.84 377.96 322.57 377.49 322.27 376.69C322.02 376.05 321.12 375.56 320.72 374.99C320.488 374.715 320.348 374.373 320.321 374.014C320.294 373.655 320.381 373.297 320.57 372.99C320.711 372.836 320.882 372.713 321.074 372.631C321.265 372.548 321.472 372.507 321.68 372.51C322.095 372.515 322.505 372.597 322.89 372.75C323.46 372.95 325.46 374.46 325.4 373.06C325.354 371.699 325.22 370.343 325 369C324.83 368.412 324.83 367.788 325 367.2C325.112 366.937 325.289 366.707 325.515 366.532C325.741 366.357 326.008 366.242 326.29 366.2C326.571 366.162 326.857 366.181 327.13 366.256C327.404 366.332 327.659 366.463 327.88 366.64C328.96 367.49 329.54 368.71 330.56 369.64C331.297 370.325 332.137 370.889 333.05 371.31C336.97 373.03 341.5 370.98 341.73 368.47C341.82 367.93 340.71 368.06 340.57 368.47Z" fill="#455A64"/>
</g>
</svg>
