<svg width="500" height="500" viewBox="0 0 500 500" fill="none" xmlns="http://www.w3.org/2000/svg">
<path d="M500 382.4H0V382.65H500V382.4Z" fill="#E0E0E0"/>
<path d="M381.07 390H363.22V390.25H381.07V390Z" fill="#E0E0E0"/>
<path d="M435.46 389.88H391.89V390.13H435.46V389.88Z" fill="#E0E0E0"/>
<path d="M309.67 394.26H244.7V394.51H309.67V394.26Z" fill="#E0E0E0"/>
<path d="M238.94 394.26H227.72V394.51H238.94V394.26Z" fill="#E0E0E0"/>
<path d="M136.78 389.63H94.7798V389.88H136.78V389.63Z" fill="#E0E0E0"/>
<path d="M172.15 389.63H142.33V389.88H172.15V389.63Z" fill="#E0E0E0"/>
<path d="M102.5 394.14H66.8901V394.39H102.5V394.14Z" fill="#E0E0E0"/>
<path d="M237 337.8H43.91C42.3973 337.797 40.9475 337.195 39.8788 336.124C38.8102 335.053 38.21 333.603 38.21 332.09V60.66C38.2231 59.156 38.8292 57.718 39.8964 56.6582C40.9637 55.5985 42.4059 55.0026 43.91 55H237C238.514 55 239.967 55.6016 241.038 56.6724C242.108 57.7433 242.71 59.1956 242.71 60.71V332.09C242.71 333.604 242.108 335.057 241.038 336.128C239.967 337.198 238.514 337.8 237 337.8ZM43.91 55.2C42.4636 55.2026 41.0774 55.7791 40.0556 56.8027C39.0338 57.8264 38.46 59.2136 38.46 60.66V332.09C38.46 333.536 39.0338 334.924 40.0556 335.947C41.0774 336.971 42.4636 337.547 43.91 337.55H237C238.447 337.547 239.834 336.971 240.858 335.948C241.881 334.924 242.457 333.537 242.46 332.09V60.66C242.457 59.2127 241.881 57.8255 240.858 56.8021C239.834 55.7787 238.447 55.2026 237 55.2H43.91Z" fill="#E0E0E0"/>
<path d="M453.31 337.8H260.21C258.696 337.797 257.246 337.195 256.175 336.125C255.105 335.054 254.503 333.604 254.5 332.09V60.66C254.516 59.1551 255.124 57.7171 256.193 56.6576C257.262 55.5981 258.705 55.0025 260.21 55H453.31C454.812 55.0052 456.252 55.6022 457.317 56.6617C458.382 57.7212 458.987 59.1578 459 60.66V332.09C459 333.601 458.401 335.05 457.335 336.121C456.268 337.191 454.821 337.795 453.31 337.8ZM260.21 55.2C258.763 55.2026 257.375 55.7787 256.352 56.8021C255.329 57.8255 254.753 59.2127 254.75 60.66V332.09C254.753 333.537 255.329 334.924 256.352 335.948C257.375 336.971 258.763 337.547 260.21 337.55H453.31C454.757 337.547 456.145 336.971 457.168 335.948C458.191 334.924 458.767 333.537 458.77 332.09V60.66C458.767 59.2127 458.191 57.8255 457.168 56.8021C456.145 55.7787 454.757 55.2026 453.31 55.2H260.21Z" fill="#E0E0E0"/>
<path d="M285.43 92.4C280.43 81.55 284.43 73.83 296.67 73.83C304.36 73.83 313.9 76.83 323.19 81.83C324.24 79.01 327.19 77.32 331.95 77.32C340.32 77.32 351.86 82.54 360.95 89.91C363.14 88.27 366.31 87.26 370.38 87.1C378.38 86.77 388.09 89.77 396.53 94.65C397.024 94.1808 397.606 93.8145 398.243 93.5725C398.88 93.3304 399.559 93.2174 400.24 93.24C404.86 93.05 411.1 96.08 414.24 100.01C414.43 100.25 414.6 100.49 414.77 100.73H279.2C274.92 96.87 279.65 92.59 285.43 92.4Z" fill="#F5F5F5"/>
<path d="M70.7502 139.55C71.2485 139.498 71.7492 139.471 72.2502 139.47C71.7802 134.27 74.4802 130.95 80.2502 130.95C84.4002 130.95 89.5002 132.68 94.6902 135.62C93.2002 125.52 98.0002 119 108.73 119C117.43 119 128.43 123.27 139.31 130.23C140.26 126.23 143.46 123.89 148.84 123.89C158.3 123.89 171.73 131.23 182.51 141.58C184.84 139.27 188.33 137.84 192.93 137.58C201.93 137.11 213.11 141.32 223.02 148.19C223.487 147.548 224.104 147.03 224.816 146.681C225.529 146.333 226.317 146.164 227.11 146.19C232.04 145.93 238.82 149.72 242.76 154.79H62.8302C58.6002 147.14 62.0002 140.42 70.7502 139.55Z" fill="#F5F5F5"/>
<path d="M323.36 309.29H416.86V258.3H323.36V309.29Z" fill="#E6E6E6"/>
<path d="M323.37 258.29H291.12V309.28H323.37V258.29Z" fill="#E0E0E0"/>
<path d="M322.11 382.4H324.63V215.7H322.11V382.4Z" fill="#F5F5F5"/>
<path d="M289.86 382.4H292.38V215.7H289.86V382.4Z" fill="#F5F5F5"/>
<path d="M415.6 382.4H418.12V215.7H415.6V382.4Z" fill="#F5F5F5"/>
<path d="M418.13 215.69H322.11L353.97 194.19L418.13 215.69Z" fill="#E6E6E6"/>
<path d="M289.86 215.69H322.11L353.97 194.19L289.86 215.69Z" fill="#E0E0E0"/>
<path d="M74.8701 382.4H92.0001C101 366.76 105.93 324.87 93.3501 279.34C91.1987 271.558 88.5942 263.908 85.5501 256.43C80.8201 320.37 60.3001 363.43 74.8701 382.4Z" fill="#F0F0F0"/>
<path d="M106.57 382.4H89.4002C81.4002 370.84 79.0902 339.88 94.5302 306.23C97.2204 300.379 100.308 294.719 103.77 289.29C104.52 336.56 122.34 368.38 106.57 382.4Z" fill="#F0F0F0"/>
<path d="M115.3 333.12C128.63 312.45 127.12 373.37 151.63 346.3C181.73 313.04 224.93 301.9 206.05 327.35C187.17 352.8 198.41 361.63 246.05 333.12C280.62 312.45 216.88 374.42 234.34 372.07C251.8 369.72 278.18 364.89 255.6 382.4H109.17C109.17 382.4 102 353.8 115.3 333.12Z" fill="#EBEBEB"/>
<path d="M410.21 382.4C410.21 382.4 412.97 357.96 393.11 345.4C398.78 363.12 392.98 382.4 392.98 382.4H410.21Z" fill="#EBEBEB"/>
<path d="M399.17 382.4C399.17 382.4 404.78 362.4 425.05 352.16C418.764 361.157 414.715 371.524 413.24 382.4H399.17Z" fill="#EBEBEB"/>
<path d="M260.24 382.4C260.24 382.4 261.24 370.5 272.11 364.4C269.408 369.996 268.208 376.2 268.63 382.4H260.24Z" fill="#F5F5F5"/>
<path d="M254 382.4C254 382.4 254.73 362.4 268 355.17C262.08 365.42 262.42 382.4 262.42 382.4H254Z" fill="#F5F5F5"/>
<path d="M53.8599 382.4C53.8599 382.4 54.3899 377.46 60.1299 374.92C58.7167 377.146 58.0705 379.773 58.2899 382.4H53.8599Z" fill="#F5F5F5"/>
<path d="M444.07 382.4C443.658 378.923 444.14 375.399 445.47 372.16C446.8 368.921 448.934 366.075 451.67 363.89C448.61 368.83 447.67 379.5 449.09 382.4H444.07Z" fill="#EBEBEB"/>
<path d="M109.25 382.4C111.25 371.07 108.64 344.15 86.4302 326.83C95.6002 341.67 98.4302 373.7 94.1902 382.4H109.25Z" fill="#FAFAFA"/>
<path d="M57.1598 382.4C57.1598 382.4 56.7698 374.11 49.7798 371.1C52.9098 375.36 52.7298 382.4 52.7298 382.4H57.1598Z" fill="#F5F5F5"/>
<path d="M250 427.56C357.082 427.56 443.89 422.492 443.89 416.24C443.89 409.988 357.082 404.92 250 404.92C142.917 404.92 56.1099 409.988 56.1099 416.24C56.1099 422.492 142.917 427.56 250 427.56Z" fill="#F5F5F5"/>
<path d="M286.18 158.22C286.18 158.22 209.77 245.49 247.45 410.44H284.5C285.182 410.44 285.854 410.278 286.46 409.966C287.066 409.654 287.589 409.202 287.985 408.648C288.381 408.093 288.639 407.452 288.737 406.777C288.836 406.103 288.771 405.415 288.55 404.77C278.78 376.37 239.4 247.69 295.55 164.92C290.12 161.37 286.18 158.22 286.18 158.22Z" fill="#407BFF"/>
<path opacity="0.3" d="M286.18 158.22C286.18 158.22 209.77 245.49 247.45 410.44H284.5C285.182 410.44 285.854 410.278 286.46 409.966C287.066 409.654 287.589 409.202 287.985 408.648C288.381 408.093 288.639 407.452 288.737 406.777C288.836 406.103 288.771 405.415 288.55 404.77C278.78 376.37 239.4 247.69 295.55 164.92C290.12 161.37 286.18 158.22 286.18 158.22Z" fill="#F5F5F5"/>
<g style="mix-blend-mode:multiply">
<path d="M280.9 192.34C280.45 193.4 280.02 194.46 279.62 195.53C274.135 194.956 268.595 195.195 263.18 196.24C263.77 194.98 264.35 193.75 264.94 192.56C270.227 191.782 275.594 191.708 280.9 192.34Z" fill="#407BFF"/>
<path d="M274.61 210.33C274.3 211.39 274 212.44 273.72 213.51C268.62 211.03 262.84 210.51 257.08 210.51C257.51 209.4 257.94 208.31 258.39 207.23C264.05 207.37 269.57 208 274.61 210.33Z" fill="#407BFF"/>
<path d="M270 230.11C269.79 231.2 269.6 232.29 269.42 233.38C263.01 231.24 256.36 229.91 249.91 231.23C250.26 230.04 250.63 228.86 251.01 227.69C257.29 226.84 263.72 228.07 270 230.11Z" fill="#407BFF"/>
<path d="M266.891 253.75C266.801 254.86 266.72 255.98 266.65 257.1C259.241 254.876 251.454 254.195 243.771 255.1C244.001 253.95 244.25 252.83 244.51 251.71C252.032 250.987 259.623 251.679 266.891 253.75Z" fill="#407BFF"/>
<path d="M266 279.75C257.181 278.17 248.125 278.511 239.45 280.75C239.6 279.55 239.75 278.36 239.92 277.19C248.461 275.155 257.325 274.865 265.98 276.34C266 277.47 266 278.62 266 279.75Z" fill="#407BFF"/>
<path d="M268.05 312.53C257.484 312.78 247.023 314.69 237.05 318.19C237.05 317.01 237.05 315.85 237.1 314.69C246.979 311.362 257.3 309.529 267.72 309.25C267.82 310.35 267.93 311.44 268.05 312.53Z" fill="#407BFF"/>
<path d="M273.68 349.06C261.825 348.065 249.891 348.565 238.16 350.55C238.07 349.44 237.98 348.31 237.9 347.21C249.497 345.296 261.282 344.789 273 345.7C273.25 346.84 273.46 348 273.68 349.06Z" fill="#407BFF"/>
</g>
<g opacity="0.1">
<path d="M280.9 192.34C280.45 193.4 280.02 194.46 279.62 195.53C274.135 194.956 268.595 195.195 263.18 196.24C263.77 194.98 264.35 193.75 264.94 192.56C270.227 191.782 275.594 191.708 280.9 192.34Z" fill="black"/>
<path d="M274.61 210.33C274.3 211.39 274 212.44 273.72 213.51C268.62 211.03 262.84 210.51 257.08 210.51C257.51 209.4 257.94 208.31 258.39 207.23C264.05 207.37 269.57 208 274.61 210.33Z" fill="black"/>
<path d="M270 230.11C269.79 231.2 269.6 232.29 269.42 233.38C263.01 231.24 256.36 229.91 249.91 231.23C250.26 230.04 250.63 228.86 251.01 227.69C257.29 226.84 263.72 228.07 270 230.11Z" fill="black"/>
<path d="M266.891 253.75C266.801 254.86 266.72 255.98 266.65 257.1C259.241 254.876 251.454 254.195 243.771 255.1C244.001 253.95 244.25 252.83 244.51 251.71C252.032 250.987 259.623 251.679 266.891 253.75Z" fill="black"/>
<path d="M266 279.75C257.181 278.17 248.125 278.511 239.45 280.75C239.6 279.55 239.75 278.36 239.92 277.19C248.461 275.155 257.325 274.865 265.98 276.34C266 277.47 266 278.62 266 279.75Z" fill="black"/>
<path d="M268.05 312.53C257.484 312.78 247.023 314.69 237.05 318.19C237.05 317.01 237.05 315.85 237.1 314.69C246.979 311.362 257.3 309.529 267.72 309.25C267.82 310.35 267.93 311.44 268.05 312.53Z" fill="black"/>
<path d="M273.68 349.06C261.825 348.065 249.891 348.565 238.16 350.55C238.07 349.44 237.98 348.31 237.9 347.21C249.497 345.296 261.282 344.789 273 345.7C273.25 346.84 273.46 348 273.68 349.06Z" fill="black"/>
</g>
<path d="M221.07 380.58C221.16 370.435 220.64 360.293 219.51 350.21C219.4 349.1 219.27 347.98 219.11 346.85C217.766 335.993 215.593 325.255 212.61 314.73C212.31 313.65 211.99 312.56 211.61 311.47C209.524 304.581 207.036 297.819 204.16 291.22C203.7 290.22 203.25 289.22 202.77 288.17C200.184 282.552 197.272 277.089 194.05 271.81C193.47 270.88 192.89 269.94 192.29 269.01C188.921 263.728 185.217 258.668 181.2 253.86C180.5 253.03 179.8 252.21 179.08 251.38C175.51 247.275 171.711 243.376 167.7 239.7C166.82 238.9 165.92 238.1 165.01 237.31C156.71 230.146 147.657 223.903 138.01 218.69C141.772 216.106 145.697 213.768 149.76 211.69C151.96 212.29 165.7 218.07 183.03 231.69C184.23 232.63 185.44 233.6 186.67 234.62C189.77 237.19 192.97 239.98 196.21 243.04C197.12 243.91 198.05 244.78 198.96 245.69C203.928 250.55 208.644 255.66 213.09 261C214 262.1 214.91 263.23 215.84 264.38C219.22 268.66 222.59 273.24 225.84 278.15C226.5 279.15 227.14 280.15 227.84 281.15C232.642 288.601 236.984 296.339 240.84 304.32C241.38 305.42 241.91 306.53 242.42 307.65C247.455 318.537 251.661 329.789 255 341.31C255.34 342.42 255.66 343.53 256 344.65C258.599 353.965 260.702 363.412 262.3 372.95C262.47 374.04 262.66 375.14 262.83 376.25C264.6 387.579 265.752 398.996 266.28 410.45H223.81C223.206 410.452 222.607 410.325 222.056 410.078C221.504 409.831 221.01 409.469 220.609 409.017C220.207 408.565 219.906 408.033 219.725 407.456C219.544 406.879 219.488 406.27 219.56 405.67C220.09 401.15 220.8 393.67 221.01 384.08C221 382.94 221.06 381.78 221.07 380.58Z" fill="#407BFF"/>
<path opacity="0.3" d="M221.07 380.58C221.16 370.435 220.64 360.293 219.51 350.21C219.4 349.1 219.27 347.98 219.11 346.85C217.766 335.993 215.593 325.255 212.61 314.73C212.31 313.65 211.99 312.56 211.61 311.47C209.524 304.581 207.036 297.819 204.16 291.22C203.7 290.22 203.25 289.22 202.77 288.17C200.184 282.552 197.272 277.089 194.05 271.81C193.47 270.88 192.89 269.94 192.29 269.01C188.921 263.728 185.217 258.668 181.2 253.86C180.5 253.03 179.8 252.21 179.08 251.38C175.51 247.275 171.711 243.376 167.7 239.7C166.82 238.9 165.92 238.1 165.01 237.31C156.71 230.146 147.657 223.903 138.01 218.69C141.772 216.106 145.697 213.768 149.76 211.69C151.96 212.29 165.7 218.07 183.03 231.69C184.23 232.63 185.44 233.6 186.67 234.62C189.77 237.19 192.97 239.98 196.21 243.04C197.12 243.91 198.05 244.78 198.96 245.69C203.928 250.55 208.644 255.66 213.09 261C214 262.1 214.91 263.23 215.84 264.38C219.22 268.66 222.59 273.24 225.84 278.15C226.5 279.15 227.14 280.15 227.84 281.15C232.642 288.601 236.984 296.339 240.84 304.32C241.38 305.42 241.91 306.53 242.42 307.65C247.455 318.537 251.661 329.789 255 341.31C255.34 342.42 255.66 343.53 256 344.65C258.599 353.965 260.702 363.412 262.3 372.95C262.47 374.04 262.66 375.14 262.83 376.25C264.6 387.579 265.752 398.996 266.28 410.45H223.81C223.206 410.452 222.607 410.325 222.056 410.078C221.504 409.831 221.01 409.469 220.609 409.017C220.207 408.565 219.906 408.033 219.725 407.456C219.544 406.879 219.488 406.27 219.56 405.67C220.09 401.15 220.8 393.67 221.01 384.08C221 382.94 221.06 381.78 221.07 380.58Z" fill="#F5F5F5"/>
<g style="mix-blend-mode:multiply">
<path d="M186.7 234.59C180.118 235.176 173.688 236.905 167.7 239.7C166.82 238.9 165.92 238.1 165.01 237.31C170.695 234.496 176.786 232.59 183.06 231.66C184.26 232.6 185.47 233.57 186.7 234.59Z" fill="#407BFF"/>
<path d="M199 245.66C192.65 247.52 186.18 249.56 181.26 253.86C180.56 253.03 179.86 252.21 179.14 251.38C183.96 247.22 189.99 244.92 196.25 243.01C197.15 243.88 198.08 244.75 199 245.66Z" fill="#407BFF"/>
<path d="M215.84 264.38C207.84 263.77 200.64 267.27 194.1 271.81C193.52 270.88 192.94 269.94 192.34 269.01C198.69 264.66 205.55 261.28 213.09 261.01C214 262.1 214.91 263.23 215.84 264.38Z" fill="#407BFF"/>
<path d="M227.82 281.13C219.282 282.642 211.204 286.094 204.21 291.22C203.75 290.22 203.3 289.22 202.82 288.17C209.708 283.274 217.542 279.868 225.82 278.17C226.52 279.13 227.16 280.12 227.82 281.13Z" fill="#407BFF"/>
<path d="M242.39 307.63C232.029 307.495 221.796 309.935 212.61 314.73C212.31 313.65 211.99 312.56 211.61 311.47C220.638 306.848 230.619 304.393 240.76 304.3C241.35 305.4 241.88 306.51 242.39 307.63Z" fill="#407BFF"/>
<path d="M256 344.65C243.595 344.247 231.222 346.132 219.5 350.21C219.39 349.1 219.26 347.98 219.1 346.85C230.654 342.931 242.802 341.056 255 341.31C255.38 342.42 255.7 343.53 256 344.65Z" fill="#407BFF"/>
<path d="M262.84 376.25C248.58 376.75 234.476 379.389 221 384.08C221 382.94 221.05 381.78 221.06 380.58C234.372 376.075 248.267 373.522 262.31 373C262.48 374 262.67 375.14 262.84 376.25Z" fill="#407BFF"/>
</g>
<g opacity="0.1">
<path d="M186.7 234.59C180.118 235.176 173.688 236.905 167.7 239.7C166.82 238.9 165.92 238.1 165.01 237.31C170.695 234.496 176.786 232.59 183.06 231.66C184.26 232.6 185.47 233.57 186.7 234.59Z" fill="black"/>
<path d="M199 245.66C192.65 247.52 186.18 249.56 181.26 253.86C180.56 253.03 179.86 252.21 179.14 251.38C183.96 247.22 189.99 244.92 196.25 243.01C197.15 243.88 198.08 244.75 199 245.66Z" fill="black"/>
<path d="M215.84 264.38C207.84 263.77 200.64 267.27 194.1 271.81C193.52 270.88 192.94 269.94 192.34 269.01C198.69 264.66 205.55 261.28 213.09 261.01C214 262.1 214.91 263.23 215.84 264.38Z" fill="black"/>
<path d="M227.82 281.13C219.282 282.642 211.204 286.094 204.21 291.22C203.75 290.22 203.3 289.22 202.82 288.17C209.708 283.274 217.542 279.868 225.82 278.17C226.52 279.13 227.16 280.12 227.82 281.13Z" fill="black"/>
<path d="M242.39 307.63C232.029 307.495 221.796 309.935 212.61 314.73C212.31 313.65 211.99 312.56 211.61 311.47C220.638 306.848 230.619 304.393 240.76 304.3C241.35 305.4 241.88 306.51 242.39 307.63Z" fill="black"/>
<path d="M256 344.65C243.595 344.247 231.222 346.132 219.5 350.21C219.39 349.1 219.26 347.98 219.1 346.85C230.654 342.931 242.802 341.056 255 341.31C255.38 342.42 255.7 343.53 256 344.65Z" fill="black"/>
<path d="M262.84 376.25C248.58 376.75 234.476 379.389 221 384.08C221 382.94 221.05 381.78 221.06 380.58C234.372 376.075 248.267 373.522 262.31 373C262.48 374 262.67 375.14 262.84 376.25Z" fill="black"/>
</g>
<path d="M343.26 153.94C367.26 142.12 388.47 137.86 402.26 134.94C376.36 113.77 341.96 122.75 325.73 128.94C336.18 112.77 347 101.16 354.51 92.94C322.03 90.84 299.61 116.66 289.57 131.36C277.17 122.53 242.74 101.92 210.27 118.16C223.06 124.01 242.82 132.83 263.62 149.63C248.72 151.15 208.81 158.4 195.15 192.31C211.97 187.2 240.01 178.36 277.15 180.76L279.04 180.9C313.48 184.19 332.63 199.78 343.83 208.04C343.38 197.48 338.3 189.19 332.21 182.96C364.21 189.57 386.72 202.66 400.74 210.63C394.81 174.53 357.45 158.7 343.26 153.94Z" fill="#407BFF"/>
<path opacity="0.3" d="M343.26 153.94C367.26 142.12 388.47 137.86 402.26 134.94C376.36 113.77 341.96 122.75 325.73 128.94C336.18 112.77 347 101.16 354.51 92.94C322.03 90.84 299.61 116.66 289.57 131.36C277.17 122.53 242.74 101.92 210.27 118.16C223.06 124.01 242.82 132.83 263.62 149.63C248.72 151.15 208.81 158.4 195.15 192.31C211.97 187.2 240.01 178.36 277.15 180.76L279.04 180.9C313.48 184.19 332.63 199.78 343.83 208.04C343.38 197.48 338.3 189.19 332.21 182.96C364.21 189.57 386.72 202.66 400.74 210.63C394.81 174.53 357.45 158.7 343.26 153.94Z" fill="black"/>
<path d="M205.59 215.93C192.72 200.03 170.17 202.7 161.94 204.34C170.32 191.93 179.45 183.97 185.33 178.73C165.28 175.37 150.25 192.06 145.06 198.81C137.27 192.6 121.06 182.46 104 188.92C111.52 193.119 118.651 197.978 125.31 203.44C115.61 202.82 95.7301 203.66 85.3101 219.24C93.1401 218.53 105.19 217.33 119.98 219.72C113.17 224.59 95.7701 239.2 98.5601 259.48C104.75 252.92 114.67 242.21 130.69 233.42C128.092 238.086 127.343 243.557 128.59 248.75C133.23 242.49 140.93 230.99 158.86 223.57L159.8 223.2C179.3 215.83 195.75 216 205.59 215.93Z" fill="#407BFF"/>
<path opacity="0.3" d="M205.59 215.93C192.72 200.03 170.17 202.7 161.94 204.34C170.32 191.93 179.45 183.97 185.33 178.73C165.28 175.37 150.25 192.06 145.06 198.81C137.27 192.6 121.06 182.46 104 188.92C111.52 193.119 118.651 197.978 125.31 203.44C115.61 202.82 95.7301 203.66 85.3101 219.24C93.1401 218.53 105.19 217.33 119.98 219.72C113.17 224.59 95.7701 239.2 98.5601 259.48C104.75 252.92 114.67 242.21 130.69 233.42C128.092 238.086 127.343 243.557 128.59 248.75C133.23 242.49 140.93 230.99 158.86 223.57L159.8 223.2C179.3 215.83 195.75 216 205.59 215.93Z" fill="black"/>
<path d="M389.7 399.21H406.37L398.03 407.55L389.7 399.21Z" fill="#407BFF"/>
<path d="M393.03 416.74H403.04L398.03 415.67L393.03 416.74Z" fill="#407BFF"/>
<path d="M398.57 406.17H397.49V416.21H398.57V406.17Z" fill="#407BFF"/>
<g opacity="0.6">
<path d="M389.7 399.21H406.37L398.03 407.55L389.7 399.21Z" fill="#F5F5F5"/>
<path d="M393.03 416.74H403.04L398.03 415.67L393.03 416.74Z" fill="#F5F5F5"/>
<path d="M398.57 406.17H397.49V416.21H398.57V406.17Z" fill="#F5F5F5"/>
</g>
<g style="mix-blend-mode:multiply">
<path d="M398.03 406.02L401.26 402.8H394.8L398.03 406.02Z" fill="#407BFF"/>
</g>
<path opacity="0.3" d="M398.03 406.02L401.26 402.8H394.8L398.03 406.02Z" fill="#F5F5F5"/>
<path d="M399.47 404C399.427 404.009 399.383 404.009 399.34 404C399.309 403.982 399.282 403.959 399.26 403.931C399.238 403.902 399.222 403.87 399.213 403.836C399.204 403.801 399.201 403.766 399.206 403.73C399.211 403.695 399.222 403.661 399.24 403.63L402.59 397.5C402.624 397.436 402.683 397.389 402.752 397.368C402.822 397.348 402.896 397.356 402.96 397.39C403.024 397.424 403.071 397.483 403.092 397.552C403.112 397.622 403.104 397.696 403.07 397.76L399.71 403.89C399.683 403.927 399.646 403.957 399.604 403.976C399.562 403.996 399.516 404.004 399.47 404Z" fill="#407BFF"/>
<path opacity="0.3" d="M399.47 404C399.427 404.009 399.383 404.009 399.34 404C399.309 403.982 399.282 403.959 399.26 403.931C399.238 403.902 399.222 403.87 399.213 403.836C399.204 403.801 399.201 403.766 399.206 403.73C399.211 403.695 399.222 403.661 399.24 403.63L402.59 397.5C402.624 397.436 402.683 397.389 402.752 397.368C402.822 397.348 402.896 397.356 402.96 397.39C403.024 397.424 403.071 397.483 403.092 397.552C403.112 397.622 403.104 397.696 403.07 397.76L399.71 403.89C399.683 403.927 399.646 403.957 399.604 403.976C399.562 403.996 399.516 404.004 399.47 404Z" fill="#F5F5F5"/>
<path d="M113.3 409.93C112.961 409.921 112.628 409.833 112.329 409.672C112.03 409.511 111.773 409.283 111.579 409.004C111.384 408.726 111.258 408.406 111.209 408.07C111.161 407.734 111.192 407.392 111.3 407.07L116.11 393.07C116.71 391 127.11 357.15 153.22 343.42C165.76 336.83 179.83 336.05 195.04 341.09C244.04 357.33 293.6 365.44 324.17 315.31C324.487 314.86 324.963 314.546 325.502 314.434C326.041 314.321 326.602 314.418 327.072 314.704C327.543 314.99 327.887 315.444 328.035 315.975C328.183 316.505 328.124 317.072 327.87 317.56C313.45 341.2 294.19 354.14 268.98 357.13C248.98 359.51 225.75 355.82 193.68 345.2C179.68 340.54 166.68 341.2 155.23 347.25C130.43 360.25 120.34 393.99 120.23 394.33V394.43L115.41 408.43C115.27 408.876 114.988 409.264 114.607 409.535C114.226 409.806 113.767 409.945 113.3 409.93Z" fill="#407BFF"/>
<path opacity="0.3" d="M113.3 409.93C112.961 409.921 112.628 409.833 112.329 409.672C112.03 409.511 111.773 409.283 111.579 409.004C111.384 408.726 111.258 408.406 111.209 408.07C111.161 407.734 111.192 407.392 111.3 407.07L116.11 393.07C116.71 391 127.11 357.15 153.22 343.42C165.76 336.83 179.83 336.05 195.04 341.09C244.04 357.33 293.6 365.44 324.17 315.31C324.487 314.86 324.963 314.546 325.502 314.434C326.041 314.321 326.602 314.418 327.072 314.704C327.543 314.99 327.887 315.444 328.035 315.975C328.183 316.505 328.124 317.072 327.87 317.56C313.45 341.2 294.19 354.14 268.98 357.13C248.98 359.51 225.75 355.82 193.68 345.2C179.68 340.54 166.68 341.2 155.23 347.25C130.43 360.25 120.34 393.99 120.23 394.33V394.43L115.41 408.43C115.27 408.876 114.988 409.264 114.607 409.535C114.226 409.806 113.767 409.945 113.3 409.93Z" fill="black"/>
<path d="M329.81 317.56C328.716 317.244 327.549 317.286 326.48 317.68C325.412 318.074 324.497 318.799 323.87 319.75C293.5 365.82 246.11 360.32 194.31 343.15C149 328.15 127.14 370.51 120.44 387.25C120.133 388.01 120.005 388.831 120.067 389.648C120.128 390.465 120.377 391.258 120.793 391.964C121.21 392.669 121.784 393.27 122.47 393.718C123.156 394.167 123.936 394.451 124.75 394.55L185 401.91C185 401.91 208.92 348.63 259.33 372.66C309.74 396.69 366 386.46 396.28 336.84L329.81 317.56Z" fill="#407BFF"/>
<path opacity="0.3" d="M329.81 317.56C328.716 317.244 327.549 317.286 326.48 317.68C325.412 318.074 324.497 318.799 323.87 319.75C293.5 365.82 246.11 360.32 194.31 343.15C149 328.15 127.14 370.51 120.44 387.25C120.133 388.01 120.005 388.831 120.067 389.648C120.128 390.465 120.377 391.258 120.793 391.964C121.21 392.669 121.784 393.27 122.47 393.718C123.156 394.167 123.936 394.451 124.75 394.55L185 401.91C185 401.91 208.92 348.63 259.33 372.66C309.74 396.69 366 386.46 396.28 336.84L329.81 317.56Z" fill="#F5F5F5"/>
<path d="M180.13 418.36C179.791 418.351 179.458 418.263 179.159 418.102C178.86 417.941 178.603 417.713 178.409 417.434C178.214 417.156 178.088 416.836 178.039 416.5C177.991 416.164 178.022 415.822 178.13 415.5L180.55 408.44C184.047 398.052 189.833 388.583 197.48 380.73C209.76 368.34 230.63 356.54 260.33 370.73C312.61 395.66 366.52 381.59 394.49 335.73C394.638 335.488 394.832 335.277 395.061 335.11C395.29 334.942 395.55 334.822 395.826 334.755C396.102 334.688 396.388 334.676 396.668 334.72C396.949 334.764 397.218 334.862 397.46 335.01C397.702 335.158 397.913 335.352 398.08 335.581C398.248 335.81 398.368 336.07 398.435 336.346C398.502 336.622 398.514 336.908 398.47 337.188C398.426 337.469 398.328 337.738 398.18 337.98C369 385.82 312.8 400.55 258.42 374.62C231 361.54 211.79 372.38 200.51 383.77C193.316 391.157 187.875 400.066 184.59 409.84L182.17 416.9C182.027 417.327 181.753 417.698 181.386 417.96C181.02 418.222 180.58 418.362 180.13 418.36Z" fill="#407BFF"/>
<path opacity="0.3" d="M180.13 418.36C179.791 418.351 179.458 418.263 179.159 418.102C178.86 417.941 178.603 417.713 178.409 417.434C178.214 417.156 178.088 416.836 178.039 416.5C177.991 416.164 178.022 415.822 178.13 415.5L180.55 408.44C184.047 398.052 189.833 388.583 197.48 380.73C209.76 368.34 230.63 356.54 260.33 370.73C312.61 395.66 366.52 381.59 394.49 335.73C394.638 335.488 394.832 335.277 395.061 335.11C395.29 334.942 395.55 334.822 395.826 334.755C396.102 334.688 396.388 334.676 396.668 334.72C396.949 334.764 397.218 334.862 397.46 335.01C397.702 335.158 397.913 335.352 398.08 335.581C398.248 335.81 398.368 336.07 398.435 336.346C398.502 336.622 398.514 336.908 398.47 337.188C398.426 337.469 398.328 337.738 398.18 337.98C369 385.82 312.8 400.55 258.42 374.62C231 361.54 211.79 372.38 200.51 383.77C193.316 391.157 187.875 400.066 184.59 409.84L182.17 416.9C182.027 417.327 181.753 417.698 181.386 417.96C181.02 418.222 180.58 418.362 180.13 418.36Z" fill="black"/>
<path d="M380.16 418.36C379.814 418.359 379.473 418.276 379.166 418.118C378.858 417.959 378.592 417.731 378.39 417.45L350.44 377.9C350.116 377.432 349.989 376.854 350.089 376.293C350.188 375.732 350.505 375.234 350.971 374.905C351.436 374.577 352.012 374.446 352.574 374.54C353.136 374.635 353.638 374.947 353.97 375.41L381.97 414.95C382.196 415.275 382.329 415.655 382.355 416.05C382.38 416.444 382.297 416.839 382.115 417.19C381.933 417.541 381.658 417.835 381.321 418.042C380.983 418.248 380.595 418.358 380.2 418.36H380.16Z" fill="#407BFF"/>
<path opacity="0.3" d="M380.16 418.36C379.814 418.359 379.473 418.276 379.166 418.118C378.858 417.959 378.592 417.731 378.39 417.45L350.44 377.9C350.116 377.432 349.989 376.854 350.089 376.293C350.188 375.732 350.505 375.234 350.971 374.905C351.436 374.577 352.012 374.446 352.574 374.54C353.136 374.635 353.638 374.947 353.97 375.41L381.97 414.95C382.196 415.275 382.329 415.655 382.355 416.05C382.38 416.444 382.297 416.839 382.115 417.19C381.933 417.541 381.658 417.835 381.321 418.042C380.983 418.248 380.595 418.358 380.2 418.36H380.16Z" fill="black"/>
<path d="M391.64 344.13C390.972 340.744 389.908 337.447 388.47 334.31C387.094 331.294 385.541 328.363 383.82 325.53C382.108 322.723 380.239 320.015 378.22 317.42L374.79 319.79C376.29 322.46 377.79 325.28 379.07 328.09C380.409 330.867 381.581 333.723 382.58 336.64C383.584 339.406 384.289 342.273 384.68 345.19C384.957 347.105 384.851 349.056 384.37 350.93C382.298 351.543 380.186 352.011 378.05 352.33C375.383 352.722 372.694 352.946 370 353C367.277 353.028 364.556 352.891 361.85 352.59C360.49 352.45 359.14 352.26 357.8 352.03C357.13 351.92 356.47 351.79 355.8 351.66C355.13 351.53 354.44 351.37 353.96 351.25L351.64 359.34C352.56 359.6 353.25 359.76 354.04 359.94C354.83 360.12 355.57 360.25 356.34 360.38C357.87 360.65 359.4 360.86 360.94 361.03C364.017 361.328 367.11 361.422 370.2 361.31C371.75 361.25 373.3 361.14 374.85 360.97C376.4 360.8 377.93 360.55 379.46 360.24C382.528 359.624 385.538 358.751 388.46 357.63L389.91 357.07L390.54 355.8C391.449 353.925 391.963 351.882 392.05 349.8C392.141 347.9 392.003 345.997 391.64 344.13Z" fill="#E4897B"/>
<path d="M377.21 323.35L368.36 318.25L376.93 312.45C376.93 312.45 380.16 316.94 379.73 321.04L377.21 323.35Z" fill="#E4897B"/>
<path d="M364.24 312.91L371.41 309.8L376.93 312.45L368.36 318.25L364.24 312.91Z" fill="#E4897B"/>
<path d="M315.09 327.44C314.76 326.98 314.57 326.7 314.34 326.34L313.7 325.34C313.29 324.66 312.9 323.97 312.54 323.28C311.807 321.893 311.14 320.477 310.54 319.03C309.369 316.126 308.494 313.11 307.93 310.03C307.648 308.475 307.451 306.906 307.34 305.33C307.255 303.744 307.255 302.156 307.34 300.57C307.441 298.983 307.638 297.403 307.93 295.84C308.06 295.05 308.27 294.28 308.44 293.5L308.76 292.36L308.92 291.78V291.64L309 291.42L309.15 290.98C309.627 289.729 310.407 288.615 311.42 287.74C312.376 286.929 313.505 286.348 314.72 286.04C316.577 285.594 318.505 285.522 320.39 285.83C323.49 286.344 326.514 287.244 329.39 288.51C334.81 290.832 339.991 293.676 344.86 297L342.74 300.59C340.23 299.42 337.64 298.26 335.05 297.22C332.46 296.18 329.87 295.17 327.27 294.38C324.814 293.564 322.275 293.02 319.7 292.76C318.746 292.661 317.782 292.746 316.86 293.01C316.722 293.032 316.594 293.097 316.495 293.195C316.397 293.294 316.332 293.422 316.31 293.56L315.94 295.17C315.84 295.8 315.7 296.42 315.63 297.05C315.462 298.303 315.368 299.566 315.35 300.83C315.349 303.376 315.604 305.915 316.11 308.41C316.645 310.936 317.415 313.407 318.41 315.79C318.9 316.98 319.41 318.16 320.05 319.3C320.34 319.88 320.66 320.43 320.98 320.98L321.46 321.79L321.89 322.47L315.09 327.44Z" fill="#E4897B"/>
<path d="M341.1 299.47L348.63 305.63L350.63 295.47C350.63 295.47 344.97 293.47 341.37 295.47L341.1 299.47Z" fill="#E4897B"/>
<path d="M357.33 305.37L357.39 297.56L350.6 295.47L348.63 305.63L357.33 305.37Z" fill="#E4897B"/>
<path d="M360.53 291.56C355.88 291.92 344.35 292.35 339.9 306.17C335.45 319.99 315.9 317.97 321.81 329.04C331.43 346.96 345.44 350.46 359.26 346.37C373.08 342.28 390.31 326.79 378.96 307.07C367.61 287.35 360.53 291.56 360.53 291.56Z" fill="#263238"/>
<path d="M325.28 334.72C328.36 323.15 320.04 312.43 320.04 312.43L302.04 321.14C302.04 321.14 308.04 333.64 312.77 336.3C317.75 339.08 323.7 340.66 325.28 334.72Z" fill="#407BFF"/>
<path opacity="0.6" d="M325.28 334.72C328.36 323.15 320.04 312.43 320.04 312.43L302.04 321.14C302.04 321.14 308.04 333.64 312.77 336.3C317.75 339.08 323.7 340.66 325.28 334.72Z" fill="#F5F5F5"/>
<path d="M256.91 353.06C255.76 352.5 254.36 351.86 253.06 351.27L249.06 349.48C246.38 348.29 243.67 347.14 240.95 346.04C235.52 343.81 230.03 341.75 224.51 339.91C219.059 338.07 213.514 336.518 207.9 335.26C205.13 334.63 202.37 334.14 199.63 333.76L198.63 333.62C198.38 333.62 198.49 333.62 198.5 333.62C198.329 333.582 198.151 333.582 197.98 333.62C197.074 333.837 196.195 334.156 195.36 334.57C193.036 335.71 190.814 337.048 188.72 338.57C186.45 340.16 184.2 341.94 181.96 343.77C177.45 347.45 173.09 351.48 168.74 355.57C160.11 363.8 151.65 372.57 143.38 381.25L136.25 375.58C143.264 365.368 150.86 355.569 159 346.23C163.08 341.52 167.38 336.97 172 332.54C174.31 330.33 176.73 328.18 179.31 326.09C182.027 323.856 184.935 321.865 188 320.14C189.856 319.115 191.822 318.304 193.86 317.72C195.165 317.35 196.506 317.125 197.86 317.05C198.256 317.03 198.654 317.03 199.05 317.05H200.05L201.29 317.14C204.61 317.38 207.89 317.76 211.1 318.28C217.45 319.343 223.728 320.796 229.9 322.63C236.02 324.41 241.99 326.51 247.9 328.82C250.83 329.99 253.75 331.2 256.63 332.49C258.07 333.14 259.5 333.8 260.94 334.49C262.38 335.18 263.75 335.86 265.32 336.67L256.91 353.06Z" fill="#E4897B"/>
<path d="M136.49 372.38L147.2 377.2C147.384 377.289 147.537 377.433 147.637 377.612C147.738 377.791 147.78 377.996 147.76 378.2L146.27 387.73C146.236 387.955 146.149 388.169 146.018 388.355C145.886 388.541 145.713 388.694 145.511 388.8C145.31 388.907 145.087 388.966 144.859 388.971C144.631 388.976 144.406 388.928 144.2 388.83C140.41 387.17 138.63 386.34 133.92 384.22L119.52 377.73C115.61 375.97 116.52 371.65 118.35 372.02C126.35 373.68 131.52 373.35 134.71 372.25C135.298 372.062 135.936 372.108 136.49 372.38Z" fill="#263238"/>
<path d="M282.2 362.11C268.715 354.593 254.438 348.596 239.63 344.23C240.45 336.23 241.46 329.13 240.24 324.23C251.126 326.014 261.645 329.571 271.38 334.76L282.2 362.11Z" fill="#263238"/>
<path d="M238.53 322.23C238.53 322.23 239.9 332.6 237.6 348.01C239.605 348.908 241.687 349.624 243.82 350.15C243.93 350.15 248.82 339.3 245.72 324.15C243.405 323.235 240.993 322.591 238.53 322.23Z" fill="#407BFF"/>
<path opacity="0.4" d="M238.53 322.23C238.53 322.23 239.9 332.6 237.6 348.01C239.605 348.908 241.687 349.624 243.82 350.15C243.93 350.15 248.82 339.3 245.72 324.15C243.405 323.235 240.993 322.591 238.53 322.23Z" fill="#F5F5F5"/>
<path d="M134.09 372.92H133.87C132.38 372.61 130.34 372.19 129.95 371.2C129.885 371.005 129.872 370.796 129.912 370.594C129.952 370.393 130.045 370.205 130.18 370.05C130.256 369.93 130.361 369.832 130.485 369.764C130.609 369.696 130.748 369.66 130.89 369.66C132.18 369.66 134.08 372.36 134.29 372.66C134.314 372.689 134.328 372.724 134.332 372.761C134.336 372.797 134.329 372.835 134.312 372.868C134.295 372.901 134.269 372.928 134.236 372.946C134.204 372.964 134.167 372.973 134.13 372.97L134.09 372.92ZM130.85 370C130.77 369.999 130.691 370.018 130.621 370.057C130.551 370.096 130.492 370.152 130.45 370.22C130.356 370.324 130.29 370.45 130.258 370.587C130.227 370.723 130.231 370.865 130.27 371C130.56 371.75 132.33 372.16 133.64 372.43C132.94 371.51 131.64 370.01 130.85 370Z" fill="#FAFAFA"/>
<path d="M134.09 372.92C134.037 372.919 133.987 372.898 133.95 372.86C133 371.86 131.43 368.78 132.01 367.86C132.13 367.67 132.39 367.47 132.95 367.65C135.15 368.34 134.32 372.58 134.28 372.76C134.275 372.795 134.261 372.828 134.238 372.855C134.214 372.881 134.184 372.9 134.15 372.91L134.09 372.92ZM132.56 368C132.4 368 132.35 368.07 132.34 368.1C131.97 368.69 133 371.1 133.97 372.31C134.11 371.31 134.34 368.52 132.83 368.05C132.743 368.018 132.652 368.001 132.56 368Z" fill="#FAFAFA"/>
<path d="M265.51 365.31L263.61 364.48L261.61 363.63C260.25 363.06 258.88 362.5 257.5 361.96C254.75 360.86 251.98 359.8 249.18 358.81C243.61 356.81 237.97 355 232.32 353.47C226.745 351.943 221.077 350.784 215.35 350C212.54 349.64 209.76 349.39 207.03 349.31H206.03H205.61C205.639 349.319 205.671 349.319 205.7 349.31C205.7 349.31 205.61 349.31 205.3 349.38C204.441 349.683 203.621 350.089 202.86 350.59C200.657 352.009 198.585 353.622 196.67 355.41C194.58 357.3 192.54 359.41 190.51 361.51C186.43 365.79 182.51 370.41 178.68 375.09C171.01 384.48 163.59 394.35 156.35 404.19L148.58 399.45C154.375 388.276 160.802 377.442 167.83 367C171.35 361.75 175.12 356.63 179.18 351.58C181.24 349.06 183.4 346.58 185.75 344.17C188.197 341.573 190.875 339.203 193.75 337.09C195.521 335.808 197.442 334.747 199.47 333.93C200.783 333.408 202.152 333.042 203.55 332.84L204.8 332.71H205.54L206.83 332.65C210.238 332.534 213.65 332.604 217.05 332.86C223.642 333.414 230.183 334.457 236.62 335.98C242.935 337.452 249.167 339.258 255.29 341.39C258.29 342.46 261.35 343.58 264.29 344.79C265.78 345.4 267.29 346.02 268.76 346.67L270.99 347.67L273.31 348.76L265.51 365.31Z" fill="#E4897B"/>
<path d="M150.35 395.57L161.07 398.57C161.256 398.619 161.418 398.735 161.524 398.895C161.631 399.056 161.676 399.249 161.65 399.44L160.52 408.25C160.483 408.471 160.4 408.681 160.277 408.868C160.154 409.055 159.993 409.214 159.804 409.334C159.616 409.455 159.404 409.535 159.183 409.568C158.962 409.602 158.736 409.589 158.52 409.53C154.8 408.43 153.06 407.71 148.34 406.4C145.44 405.59 135.34 403.18 131.34 402.07C127.34 400.96 128.22 396.94 129.99 397.07C137.91 397.53 145.47 397.18 148.57 395.76C149.122 395.489 149.753 395.422 150.35 395.57Z" fill="#263238"/>
<path d="M358.6 354.54C346 367.89 323.06 366 300.09 369.29C295.392 369.929 290.741 370.881 286.17 372.14C283.32 364.91 277.24 349.58 271.38 334.73C275.85 336.34 281.3 336.09 286.88 334.85C302.28 331.45 318.75 320.61 318.75 320.61C323.77 323.395 328.646 326.432 333.36 329.71C338.244 333.371 342.856 337.381 347.16 341.71C351.281 345.701 355.105 349.99 358.6 354.54Z" fill="#407BFF"/>
<path opacity="0.6" d="M358.6 354.54C346 367.89 323.06 366 300.09 369.29C295.392 369.929 290.741 370.881 286.17 372.14C283.32 364.91 277.24 349.58 271.38 334.73C275.85 336.34 281.3 336.09 286.88 334.85C302.28 331.45 318.75 320.61 318.75 320.61C323.77 323.395 328.646 326.432 333.36 329.71C338.244 333.371 342.856 337.381 347.16 341.71C351.281 345.701 355.105 349.99 358.6 354.54Z" fill="#F5F5F5"/>
<path d="M300.09 369.29C295.392 369.929 290.741 370.881 286.17 372.14C283.32 364.91 277.24 349.58 271.38 334.73C275.85 336.34 281.3 336.09 286.88 334.85C294.67 343.58 303.23 362.56 300.09 369.29Z" fill="#E4897B"/>
<path d="M359.26 324.93C354.54 328.62 346.63 336.01 347.17 341.66C347.17 341.66 334.92 342.15 324.42 339.01C322.84 328.71 333.36 329.71 333.36 329.71C339.36 332.82 342.36 329.03 344.52 324.83L359.26 324.93Z" fill="#E4897B"/>
<path d="M353.25 324.89L344.52 324.83C344.04 325.818 343.475 326.761 342.83 327.65C344.96 329.01 349.28 329.79 351.19 327.98C352.054 327.08 352.752 326.034 353.25 324.89Z" fill="#CE6F64"/>
<path d="M369.13 315.68C362.95 323.32 360.5 326.68 353.54 327.92C343.08 329.76 335.05 320.5 338.82 311.17C342.22 302.77 351.76 291.68 361.82 294.07C364.048 294.583 366.108 295.658 367.804 297.192C369.499 298.726 370.774 300.669 371.507 302.835C372.239 305.001 372.406 307.318 371.99 309.567C371.574 311.815 370.589 313.92 369.13 315.68Z" fill="#E4897B"/>
<path d="M365.89 320.52C365.789 320.52 365.692 320.48 365.62 320.41L357.56 312.54C357.496 312.465 357.462 312.369 357.466 312.271C357.469 312.173 357.51 312.079 357.58 312.01C357.649 311.94 357.742 311.9 357.841 311.896C357.939 311.892 358.035 311.926 358.11 311.99L366.16 319.85C366.197 319.886 366.227 319.928 366.247 319.975C366.267 320.023 366.277 320.074 366.277 320.125C366.277 320.176 366.267 320.227 366.247 320.275C366.227 320.322 366.197 320.365 366.16 320.4C366.089 320.474 365.992 320.517 365.89 320.52Z" fill="#263238"/>
<path d="M357.58 295.1C357.91 297.26 362.58 306.26 367.27 308.62C365.6 310.35 355.33 317.47 363.4 322.29C371.47 327.11 381.3 317.13 378.24 310.2C384.37 303.05 378.49 296.34 373.04 292.73C367.59 289.12 356.36 287.2 357.58 295.1Z" fill="#263238"/>
<path d="M349.48 296.38C349.48 296.38 358.3 295.21 360.78 297.87C361.32 295.79 360.78 292.55 357.94 292.82C355.1 293.09 349.48 296.38 349.48 296.38Z" fill="#263238"/>
<path d="M379.48 309.45C379.398 309.451 379.317 309.427 379.25 309.38C379.161 309.318 379.101 309.222 379.082 309.116C379.063 309.009 379.088 308.899 379.15 308.81C381.27 305.81 381.82 302.81 380.74 300.02C379.49 296.83 376.09 294.29 371.87 293.4C371.766 293.376 371.675 293.313 371.617 293.223C371.559 293.133 371.539 293.025 371.56 292.92C371.584 292.815 371.647 292.724 371.736 292.665C371.825 292.605 371.934 292.582 372.04 292.6C376.52 293.55 380.14 296.28 381.49 299.73C382.32 301.84 382.7 305.21 379.81 309.28C379.773 309.334 379.724 309.377 379.666 309.407C379.609 309.436 379.545 309.451 379.48 309.45Z" fill="#263238"/>
<path d="M366.13 323.41C364.758 324.727 362.921 325.446 361.02 325.41C358.5 325.34 358.02 322.91 359.31 320.92C360.5 319.14 363.25 317.02 365.48 318.06C365.957 318.298 366.369 318.652 366.676 319.088C366.984 319.524 367.179 320.03 367.243 320.56C367.308 321.09 367.24 321.628 367.045 322.125C366.851 322.623 366.536 323.064 366.13 323.41Z" fill="#E4897B"/>
<path d="M274.5 342.94C274.5 342.94 262.72 338.94 246.03 334.94L244.2 360.1C260.31 368.26 274.52 379.43 286.2 372.1L274.5 342.94Z" fill="#407BFF"/>
<path opacity="0.7" d="M274.5 342.94C274.5 342.94 262.72 338.94 246.03 334.94L244.2 360.1C260.31 368.26 274.52 379.43 286.2 372.1L274.5 342.94Z" fill="black"/>
<path d="M243.8 333.3C244.562 342.572 243.956 351.905 242 361C243.943 362.022 245.975 362.865 248.07 363.52C250.449 354.145 251.459 344.475 251.07 334.81C248.712 334.032 246.273 333.525 243.8 333.3Z" fill="#407BFF"/>
<path opacity="0.6" d="M243.8 333.3C244.562 342.572 243.956 351.905 242 361C243.943 362.022 245.975 362.865 248.07 363.52C250.449 354.145 251.459 344.475 251.07 334.81C248.712 334.032 246.273 333.525 243.8 333.3Z" fill="#F5F5F5"/>
<path d="M288.59 371.83L285.59 374.03C285.513 374.058 285.431 374.069 285.35 374.063C285.269 374.056 285.19 374.033 285.118 373.995C285.047 373.956 284.984 373.903 284.934 373.838C284.884 373.773 284.849 373.699 284.83 373.62L269.08 333.85C268.94 333.51 269.02 333.1 269.43 333.11L273.43 333.81C273.614 333.829 273.788 333.906 273.927 334.03C274.065 334.154 274.161 334.318 274.2 334.5L288.68 371.11C288.728 371.228 288.745 371.356 288.729 371.482C288.713 371.608 288.665 371.728 288.59 371.83Z" fill="#407BFF"/>
<path opacity="0.3" d="M288.59 371.83L285.59 374.03C285.513 374.058 285.431 374.069 285.35 374.063C285.269 374.056 285.19 374.033 285.118 373.995C285.047 373.956 284.984 373.903 284.934 373.838C284.884 373.773 284.849 373.699 284.83 373.62L269.08 333.85C268.94 333.51 269.02 333.1 269.43 333.11L273.43 333.81C273.614 333.829 273.788 333.906 273.927 334.03C274.065 334.154 274.161 334.318 274.2 334.5L288.68 371.11C288.728 371.228 288.745 371.356 288.729 371.482C288.713 371.608 288.665 371.728 288.59 371.83Z" fill="black"/>
<path d="M282.34 368.41L282.74 369.41C282.82 369.61 282.99 369.72 283.11 369.66L287.27 367.46C287.39 367.4 287.43 367.18 287.35 366.98L286.94 365.98C286.86 365.77 286.7 365.66 286.58 365.73L282.42 367.92C282.353 367.981 282.309 368.062 282.295 368.151C282.28 368.24 282.296 368.331 282.34 368.41Z" fill="#263238"/>
<path d="M270 337.55L270.37 338.55C270.45 338.74 270.63 338.88 270.77 338.85L275.66 337.85C275.8 337.85 275.86 337.64 275.78 337.45L275.41 336.45C275.33 336.25 275.15 336.12 275.01 336.15L270.12 337.15C270 337.17 269.93 337.35 270 337.55Z" fill="#263238"/>
<path d="M276.21 353L276.61 354C276.69 354.2 276.86 354.33 276.99 354.28L281.43 352.7C281.56 352.65 281.61 352.45 281.53 352.25L281.13 351.25C281.05 351.05 280.88 350.92 280.75 350.97L276.31 352.55C276.18 352.58 276.14 352.78 276.21 353Z" fill="#263238"/>
<path d="M358.76 312C358.16 312.815 357.335 313.438 356.387 313.794C355.439 314.149 354.408 314.22 353.42 314C352.848 313.847 352.314 313.578 351.85 313.21C351.358 312.782 350.955 312.259 350.667 311.674C350.378 311.089 350.209 310.451 350.169 309.8C350.129 309.149 350.219 308.496 350.434 307.879C350.648 307.263 350.984 306.695 351.42 306.21L358.76 312Z" fill="#263238"/>
<path d="M351.29 307.35C351.199 307.351 351.11 307.319 351.04 307.26L349.85 306.26C349.809 306.228 349.776 306.188 349.751 306.143C349.726 306.097 349.711 306.047 349.707 305.996C349.702 305.944 349.708 305.892 349.724 305.843C349.74 305.794 349.766 305.749 349.8 305.71C349.833 305.671 349.873 305.638 349.919 305.614C349.964 305.59 350.014 305.576 350.065 305.571C350.116 305.566 350.167 305.572 350.216 305.587C350.265 305.602 350.311 305.627 350.35 305.66L351.54 306.66C351.613 306.733 351.654 306.832 351.654 306.935C351.654 307.038 351.613 307.137 351.54 307.21C351.476 307.285 351.388 307.335 351.29 307.35Z" fill="#263238"/>
<path d="M355.42 309.29C354.96 309.94 354.24 310.22 353.82 309.92C353.4 309.62 353.42 308.84 353.88 308.19C354.34 307.54 355.07 307.26 355.49 307.56C355.91 307.86 355.89 308.64 355.42 309.29Z" fill="#263238"/>
<path d="M350.86 305.78C350.262 306.598 349.438 307.224 348.489 307.579C347.54 307.934 346.508 308.004 345.52 307.78C344.966 307.625 344.449 307.359 344 307C341.94 305.39 341.75 302.31 343.57 300L350.86 305.78Z" fill="#263238"/>
<path d="M348.07 304.05C347.61 304.7 346.89 304.98 346.46 304.68C346.03 304.38 346.07 303.6 346.53 302.95C346.99 302.3 347.71 302.02 348.14 302.32C348.57 302.62 348.53 303.4 348.07 304.05Z" fill="#263238"/>
<path d="M348.3 302.49L347.06 300.93C347.06 300.93 347 302.72 348.3 302.49Z" fill="#263238"/>
<path d="M350.1 306.58C348.222 307.38 346.244 307.918 344.22 308.18C344.274 308.677 344.435 309.156 344.692 309.584C344.949 310.012 345.297 310.379 345.71 310.66L350.1 306.58Z" fill="#DE5753"/>
<path d="M350.51 316.64C349.045 316.636 347.62 316.167 346.44 315.3C346.418 315.286 346.4 315.268 346.386 315.246C346.372 315.225 346.362 315.201 346.357 315.176C346.353 315.15 346.353 315.125 346.359 315.1C346.364 315.074 346.375 315.051 346.39 315.03C346.428 314.996 346.478 314.977 346.53 314.977C346.582 314.977 346.631 314.996 346.67 315.03C347.469 315.632 348.399 316.037 349.385 316.211C350.37 316.385 351.383 316.323 352.34 316.03C352.363 316.02 352.389 316.016 352.414 316.016C352.44 316.016 352.465 316.022 352.488 316.032C352.511 316.042 352.533 316.057 352.55 316.076C352.567 316.094 352.581 316.116 352.59 316.14C352.61 316.189 352.609 316.244 352.589 316.293C352.568 316.341 352.529 316.38 352.48 316.4C351.841 316.589 351.175 316.67 350.51 316.64Z" fill="#263238"/>
<path d="M361.57 306.65C361.474 306.653 361.381 306.62 361.308 306.557C361.236 306.494 361.19 306.405 361.18 306.31C361.125 305.71 360.929 305.132 360.607 304.622C360.286 304.113 359.848 303.687 359.33 303.38C359.284 303.357 359.243 303.325 359.209 303.286C359.176 303.248 359.15 303.202 359.134 303.154C359.118 303.105 359.111 303.053 359.115 303.002C359.118 302.951 359.132 302.901 359.155 302.855C359.178 302.809 359.21 302.768 359.249 302.734C359.288 302.701 359.333 302.675 359.381 302.659C359.43 302.643 359.482 302.636 359.533 302.64C359.584 302.643 359.634 302.657 359.68 302.68C360.315 303.045 360.852 303.557 361.248 304.173C361.643 304.789 361.884 305.491 361.95 306.22C361.957 306.271 361.954 306.322 361.94 306.372C361.927 306.421 361.903 306.467 361.872 306.507C361.84 306.548 361.8 306.581 361.755 306.605C361.71 306.63 361.661 306.645 361.61 306.65H361.57Z" fill="#263238"/>
<path d="M350.58 299.86C350.52 299.86 350.461 299.847 350.407 299.821C350.353 299.795 350.306 299.757 350.27 299.71C349.867 299.262 349.362 298.917 348.798 298.705C348.235 298.493 347.628 298.419 347.03 298.49C346.979 298.497 346.927 298.493 346.877 298.479C346.828 298.465 346.782 298.441 346.742 298.408C346.703 298.375 346.671 298.334 346.648 298.288C346.625 298.242 346.612 298.191 346.61 298.14C346.604 298.089 346.609 298.038 346.624 297.989C346.638 297.94 346.663 297.895 346.696 297.856C346.728 297.817 346.768 297.784 346.814 297.761C346.859 297.738 346.909 297.724 346.96 297.72C347.688 297.64 348.424 297.735 349.108 297.998C349.792 298.261 350.403 298.683 350.89 299.23C350.951 299.313 350.978 299.417 350.965 299.519C350.952 299.622 350.9 299.715 350.82 299.78C350.749 299.83 350.666 299.858 350.58 299.86Z" fill="#263238"/>
<path d="M343.29 344.63C347.4 341.81 364.4 346.7 364.4 346.7L361.83 367.35C361.83 367.35 343.98 363.29 337.57 363.74C332.13 364.11 338.06 348.23 343.29 344.63Z" fill="#407BFF"/>
<path opacity="0.6" d="M343.29 344.63C347.4 341.81 364.4 346.7 364.4 346.7L361.83 367.35C361.83 367.35 343.98 363.29 337.57 363.74C332.13 364.11 338.06 348.23 343.29 344.63Z" fill="#F5F5F5"/>
<path d="M149.24 396.65C147.93 396.65 145.63 396.35 144.97 395.3C144.861 395.108 144.804 394.891 144.804 394.67C144.804 394.449 144.861 394.232 144.97 394.04C145.015 393.913 145.094 393.8 145.198 393.714C145.301 393.628 145.427 393.571 145.56 393.55C146.79 393.38 149.16 396.02 149.42 396.32C149.439 396.353 149.449 396.391 149.449 396.43C149.449 396.469 149.439 396.507 149.42 396.54C149.402 396.573 149.376 396.6 149.345 396.619C149.313 396.639 149.277 396.649 149.24 396.65ZM145.68 393.93H145.59C145.522 393.94 145.457 393.968 145.404 394.012C145.351 394.056 145.312 394.114 145.29 394.18C145.213 394.319 145.173 394.476 145.173 394.635C145.173 394.794 145.213 394.951 145.29 395.09C145.67 395.68 146.95 396.09 148.77 396.22C148 395.36 146.46 393.93 145.68 393.93Z" fill="#FAFAFA"/>
<path d="M149.24 396.65C149.215 396.651 149.19 396.646 149.168 396.635C149.145 396.625 149.125 396.609 149.11 396.59C148.35 395.83 147.19 393.31 147.7 392.31C147.779 392.151 147.911 392.024 148.073 391.951C148.235 391.878 148.418 391.864 148.59 391.91C148.762 391.936 148.927 391.999 149.074 392.093C149.22 392.188 149.345 392.313 149.44 392.46C150.21 393.65 149.44 396.39 149.44 396.46C149.431 396.493 149.413 396.524 149.388 396.549C149.364 396.573 149.333 396.591 149.3 396.6L149.24 396.65ZM148.4 392.29C148.326 392.283 148.253 392.298 148.188 392.333C148.124 392.369 148.072 392.424 148.04 392.49C147.7 393.17 148.46 395.11 149.15 396.03C149.32 395.26 149.64 393.48 149.15 392.67C149.087 392.569 149.003 392.483 148.902 392.419C148.802 392.354 148.688 392.314 148.57 392.3L148.4 392.29Z" fill="#FAFAFA"/>
<path d="M355.66 307.73L354.41 306.17C354.41 306.17 354.35 308 355.66 307.73Z" fill="#263238"/>
</svg>
