<svg width="500" height="500" viewBox="0 0 500 500" fill="none" xmlns="http://www.w3.org/2000/svg">
<path d="M272.73 156.84C239.47 75.67 137.73 30.15 84.34 136.29C63 178.73 75.57 222.77 107.7 253.51C137.85 282.34 177.14 275.58 211.88 294.42C248.23 314.13 254.22 364.3 295.88 374.02C335.76 383.32 380.75 347.19 403.38 316.9C431.76 278.9 436.81 231.67 386.71 216.11C338.12 201 296.29 214.34 272.73 156.84Z" fill="#407BFF"/>
<path opacity="0.9" d="M272.73 156.84C239.47 75.67 137.73 30.15 84.34 136.29C63 178.73 75.57 222.77 107.7 253.51C137.85 282.34 177.14 275.58 211.88 294.42C248.23 314.13 254.22 364.3 295.88 374.02C335.76 383.32 380.75 347.19 403.38 316.9C431.76 278.9 436.81 231.67 386.71 216.11C338.12 201 296.29 214.34 272.73 156.84Z" fill="white"/>
<path d="M250 436.61C306.957 436.61 353.13 433.915 353.13 430.59C353.13 427.265 306.957 424.57 250 424.57C193.043 424.57 146.87 427.265 146.87 430.59C146.87 433.915 193.043 436.61 250 436.61Z" fill="#F5F5F5"/>
<path d="M170 177.42C169.598 176.841 169.078 176.354 168.474 175.99C167.87 175.626 167.196 175.394 166.497 175.309C165.797 175.224 165.087 175.288 164.414 175.497C163.741 175.706 163.119 176.054 162.59 176.52C162.043 176.991 161.586 177.557 161.24 178.19C160.163 177.626 158.94 177.402 157.732 177.548C156.525 177.695 155.391 178.204 154.48 179.01C153.305 180.039 152.487 181.415 152.144 182.939C151.801 184.463 151.95 186.056 152.57 187.49C151.504 188.542 150.844 189.936 150.705 191.426C150.566 192.917 150.957 194.409 151.81 195.64L152.07 195.97C151.534 196.454 151.191 197.114 151.103 197.83C151.014 198.547 151.187 199.271 151.59 199.87C151.784 200.152 152.035 200.389 152.326 200.567C152.618 200.745 152.945 200.859 153.284 200.901C153.623 200.944 153.967 200.914 154.294 200.814C154.621 200.714 154.923 200.545 155.18 200.32L173.51 184.77C174.351 184.036 174.891 183.018 175.025 181.91C175.16 180.802 174.88 179.684 174.24 178.77C173.775 178.116 173.11 177.63 172.346 177.386C171.581 177.143 170.758 177.155 170 177.42Z" fill="#407BFF"/>
<path opacity="0.8" d="M170 177.42C169.598 176.841 169.078 176.354 168.474 175.99C167.87 175.626 167.196 175.394 166.497 175.309C165.797 175.224 165.087 175.288 164.414 175.497C163.741 175.706 163.119 176.054 162.59 176.52C162.043 176.991 161.586 177.557 161.24 178.19C160.163 177.626 158.94 177.402 157.732 177.548C156.525 177.695 155.391 178.204 154.48 179.01C153.305 180.039 152.487 181.415 152.144 182.939C151.801 184.463 151.95 186.056 152.57 187.49C151.504 188.542 150.844 189.936 150.705 191.426C150.566 192.917 150.957 194.409 151.81 195.64L152.07 195.97C151.534 196.454 151.191 197.114 151.103 197.83C151.014 198.547 151.187 199.271 151.59 199.87C151.784 200.152 152.035 200.389 152.326 200.567C152.618 200.745 152.945 200.859 153.284 200.901C153.623 200.944 153.967 200.914 154.294 200.814C154.621 200.714 154.923 200.545 155.18 200.32L173.51 184.77C174.351 184.036 174.891 183.018 175.025 181.91C175.16 180.802 174.88 179.684 174.24 178.77C173.775 178.116 173.11 177.63 172.346 177.386C171.581 177.143 170.758 177.155 170 177.42Z" fill="white"/>
<path d="M117.34 337C116.484 337.345 115.71 337.867 115.069 338.532C114.429 339.197 113.936 339.989 113.622 340.857C113.309 341.726 113.182 342.651 113.251 343.571C113.319 344.492 113.582 345.388 114.02 346.2C114.456 347.036 115.047 347.783 115.76 348.4C114.727 349.611 114.084 351.106 113.916 352.689C113.749 354.272 114.064 355.869 114.82 357.27C115.793 359.068 117.308 360.513 119.151 361.398C120.993 362.284 123.068 362.564 125.08 362.2C126.113 363.863 127.698 365.109 129.557 365.72C131.417 366.331 133.433 366.267 135.25 365.54L135.74 365.31C136.19 366.144 136.931 366.783 137.822 367.105C138.712 367.428 139.69 367.412 140.57 367.06C140.986 366.895 141.362 366.644 141.673 366.323C141.985 366.002 142.225 365.619 142.378 365.198C142.531 364.778 142.594 364.33 142.561 363.884C142.529 363.438 142.402 363.004 142.19 362.61L127.74 334.68C127.051 333.405 125.917 332.428 124.554 331.936C123.191 331.443 121.695 331.47 120.35 332.01C119.373 332.401 118.551 333.099 118.008 334C117.464 334.901 117.23 335.954 117.34 337Z" fill="#407BFF"/>
<path opacity="0.8" d="M117.34 337C116.484 337.345 115.71 337.867 115.069 338.532C114.429 339.197 113.936 339.989 113.622 340.857C113.309 341.726 113.182 342.651 113.251 343.571C113.319 344.492 113.582 345.388 114.02 346.2C114.456 347.036 115.047 347.783 115.76 348.4C114.727 349.611 114.084 351.106 113.916 352.689C113.749 354.272 114.064 355.869 114.82 357.27C115.793 359.068 117.308 360.513 119.151 361.398C120.993 362.284 123.068 362.564 125.08 362.2C126.113 363.863 127.698 365.109 129.557 365.72C131.417 366.331 133.433 366.267 135.25 365.54L135.74 365.31C136.19 366.144 136.931 366.783 137.822 367.105C138.712 367.428 139.69 367.412 140.57 367.06C140.986 366.895 141.362 366.644 141.673 366.323C141.985 366.002 142.225 365.619 142.378 365.198C142.531 364.778 142.594 364.33 142.561 363.884C142.529 363.438 142.402 363.004 142.19 362.61L127.74 334.68C127.051 333.405 125.917 332.428 124.554 331.936C123.191 331.443 121.695 331.47 120.35 332.01C119.373 332.401 118.551 333.099 118.008 334C117.464 334.901 117.23 335.954 117.34 337Z" fill="white"/>
<path d="M386.25 241.46C386.339 241.436 386.426 241.406 386.51 241.37C387.089 241.123 387.61 240.756 388.037 240.293C388.464 239.831 388.788 239.282 388.988 238.685C389.187 238.088 389.257 237.455 389.194 236.828C389.131 236.201 388.935 235.595 388.62 235.05C388.461 234.773 388.28 234.509 388.08 234.26C389.83 232.613 390.973 230.423 391.323 228.046C391.673 225.668 391.211 223.242 390.01 221.16C388.827 219.037 387.056 217.3 384.91 216.16C385.763 214.504 386.187 212.661 386.145 210.799C386.104 208.938 385.596 207.116 384.67 205.5C383.739 203.858 382.47 202.432 380.948 201.315C379.427 200.198 377.686 199.416 375.84 199.02C376.071 197.948 375.904 196.828 375.37 195.87C374.704 194.713 373.635 193.843 372.368 193.424C371.101 193.005 369.724 193.068 368.5 193.6C367.627 193.984 366.897 194.63 366.41 195.45C364.804 194.46 362.982 193.873 361.099 193.739C359.217 193.605 357.331 193.928 355.6 194.68C354.352 195.214 353.231 196.006 352.311 197.005C351.391 198.003 350.693 199.185 350.263 200.473C349.833 201.761 349.681 203.125 349.817 204.476C349.952 205.827 350.373 207.133 351.05 208.31L371.82 245.77C372.838 247.535 374.47 248.863 376.405 249.502C378.34 250.14 380.442 250.043 382.31 249.23C383.774 248.602 384.97 247.48 385.69 246.06C386.411 244.64 386.609 243.012 386.25 241.46Z" fill="#407BFF"/>
<path opacity="0.8" d="M386.25 241.46C386.339 241.436 386.426 241.406 386.51 241.37C387.089 241.123 387.61 240.756 388.037 240.293C388.464 239.831 388.788 239.282 388.988 238.685C389.187 238.088 389.257 237.455 389.194 236.828C389.131 236.201 388.935 235.595 388.62 235.05C388.461 234.773 388.28 234.509 388.08 234.26C389.83 232.613 390.973 230.423 391.323 228.046C391.673 225.668 391.211 223.242 390.01 221.16C388.827 219.037 387.056 217.3 384.91 216.16C385.763 214.504 386.187 212.661 386.145 210.799C386.104 208.938 385.596 207.116 384.67 205.5C383.739 203.858 382.47 202.432 380.948 201.315C379.427 200.198 377.686 199.416 375.84 199.02C376.071 197.948 375.904 196.828 375.37 195.87C374.704 194.713 373.635 193.843 372.368 193.424C371.101 193.005 369.724 193.068 368.5 193.6C367.627 193.984 366.897 194.63 366.41 195.45C364.804 194.46 362.982 193.873 361.099 193.739C359.217 193.605 357.331 193.928 355.6 194.68C354.352 195.214 353.231 196.006 352.311 197.005C351.391 198.003 350.693 199.185 350.263 200.473C349.833 201.761 349.681 203.125 349.817 204.476C349.952 205.827 350.373 207.133 351.05 208.31L371.82 245.77C372.838 247.535 374.47 248.863 376.405 249.502C378.34 250.14 380.442 250.043 382.31 249.23C383.774 248.602 384.97 247.48 385.69 246.06C386.411 244.64 386.609 243.012 386.25 241.46Z" fill="white"/>
<path d="M139.51 311.13C138.073 303.885 137.35 296.516 137.35 289.13H138.29C138.289 296.473 139.009 303.798 140.44 311L139.51 311.13Z" fill="#407BFF"/>
<path d="M355.08 253.63C353.714 249.581 352.114 245.614 350.29 241.75L351.15 241.34C352.988 245.244 354.601 249.251 355.98 253.34L355.08 253.63Z" fill="#407BFF"/>
<path d="M348.28 237.72C345.082 231.602 341.322 225.793 337.05 220.37L337.79 219.79C342.101 225.256 345.894 231.111 349.12 237.28L348.28 237.72Z" fill="#407BFF"/>
<path d="M138.46 283L137.46 282.94C137.61 280.36 137.84 277.77 138.15 275.23L139.09 275.35C138.83 277.89 138.6 280.47 138.46 283Z" fill="#407BFF"/>
<path d="M249.59 398.06C309.75 398.06 358.52 349.29 358.52 289.13C358.52 228.97 309.75 180.2 249.59 180.2C189.43 180.2 140.66 228.97 140.66 289.13C140.66 349.29 189.43 398.06 249.59 398.06Z" fill="#407BFF"/>
<g opacity="0.3">
<path d="M162.11 238.42C161.37 234.46 160.703 230.637 160.11 226.95C155.51 233.547 151.656 240.633 148.62 248.08C155.34 244.78 162.1 238.4 162.11 238.42Z" fill="white"/>
<path d="M182.39 362.44C184.96 358.94 186.79 355.57 185.65 352.07C184.51 348.57 171.36 344.71 171.43 344.7C168.363 342.78 165.33 340.833 162.33 338.86C162.309 336.151 161.233 333.558 159.33 331.63C158.329 330.736 157.151 330.062 155.873 329.652C154.594 329.242 153.244 329.105 151.91 329.25C149.55 326.07 147.25 322.867 145.01 319.64C151.317 341.234 164.155 360.345 181.76 374.35C182.3 373 184.42 367.26 182.39 362.44Z" fill="white"/>
<path d="M178.51 211.72L182.28 213.53C184.82 209 187.4 204.73 190.01 200.79C197.66 197.31 205.34 194.11 212.87 191.24C213.81 189.24 214.76 187.32 215.7 185.59C201.98 190.08 189.293 197.26 178.38 206.71C178.41 208.34 178.44 210 178.51 211.72Z" fill="white"/>
<path d="M214.86 206.31C218.98 206.68 221.79 201.18 221.78 201.24C221.18 200.04 220.59 198.87 220.01 197.73C216.17 198.87 212.317 200.053 208.45 201.28C208.43 201.23 210.73 205.85 214.86 206.31Z" fill="white"/>
<path d="M238.84 233C237.04 229.527 235.28 226.153 233.56 222.88C232.8 220.88 232.06 218.96 231.32 217.06C230.32 218.63 229.22 220.23 228.17 221.85L231.86 227.41C231.113 230.703 230.36 234.08 229.6 237.54C232.693 235.973 235.773 234.46 238.84 233Z" fill="white"/>
<path d="M223.09 228.22C222.69 230.51 222.28 232.85 221.89 235.22L227.1 232.78C227.9 231.16 228.69 229.55 229.49 227.97L226.44 225.88L223.09 228.22Z" fill="white"/>
<path d="M300.19 192.65L295.99 193.21C292.91 195.28 289.66 197.55 286.24 199.99C286.073 201.323 285.893 202.703 285.7 204.13L282.09 204.35C279.663 201.75 277.27 199.28 274.91 196.94L280.84 197.79L283.94 197.9C284.09 197.05 284.24 196.22 284.39 195.4C278.08 192.6 271.87 190.04 265.86 187.75C262.79 189.12 259.61 190.6 256.35 192.18C254.12 196.18 251.72 200.75 249.22 205.76C247.46 206.793 245.69 207.843 243.91 208.91C243.91 211.72 243.99 214.66 244.04 217.7C247.853 219.52 251.707 221.393 255.6 223.32C257.02 221.88 258.427 220.467 259.82 219.08C259.54 215.64 259.26 212.343 258.98 209.19C260.55 205.86 262.06 202.7 263.5 199.75L267.97 199.68C266.71 201.807 265.41 204.043 264.07 206.39C264.39 208.61 264.723 210.917 265.07 213.31L268.2 215.09C268.2 215.58 268.13 216.09 268.09 216.58L266.63 218.52L268.38 221.52C268.12 222.22 267.85 222.92 267.59 223.63C267.71 224.72 267.83 225.82 267.96 226.93C264.187 227.263 260.403 227.597 256.61 227.93C254.48 225.82 252.37 223.74 250.28 221.72L248.2 222.18C248.36 224.493 248.53 226.853 248.71 229.26L243.14 231.55C241.22 233.463 239.29 235.403 237.35 237.37C235.057 238.63 232.767 239.907 230.48 241.2L235 246.6C234.92 248.6 234.847 250.637 234.78 252.71C231.17 252.88 227.57 253.07 223.99 253.26C223.61 256.313 223.24 259.393 222.88 262.5C223.17 264.69 223.46 266.9 223.75 269.11L229.44 271.53L237.11 265.66C238.73 261.767 240.343 257.913 241.95 254.1L245.08 252.51L250.51 252.98C253.55 255.507 256.6 258.063 259.66 260.65C259.89 262.15 260.13 263.65 260.37 265.17L262.27 264.53C262.58 262.86 262.89 261.2 263.19 259.53C260.897 256.91 258.613 254.307 256.34 251.72L258.34 251.02C260.74 252.68 263.16 254.35 265.57 256.02C266.51 259.353 267.45 262.73 268.39 266.15C269.81 267.66 271.22 269.15 272.64 270.7L275.45 266.99C274.17 265.31 272.887 263.643 271.6 261.99L276.16 259.46C276.507 261.587 276.84 263.73 277.16 265.89C279.16 268.27 281.16 270.653 283.16 273.04L291.22 276.04V279.94L287.22 281.07H279.54L270.29 277.79L267.83 278.6C267.83 279.86 267.83 281.12 267.83 282.37C262.63 277.84 257.4 273.29 252.18 268.79C244.87 270.36 237.54 271.94 230.26 273.54L227 275C225.26 276.74 223.53 278.49 221.81 280.23C221.53 281.76 221.26 283.28 220.99 284.81C217.097 289.883 213.273 294.913 209.52 299.9C209.61 305.9 209.75 311.9 209.94 317.72C214.78 323.26 219.66 328.72 224.49 333.98C230.257 333.02 236.08 332.02 241.96 330.98C245.727 332.66 249.467 334.31 253.18 335.93C252.64 338.443 252.1 340.91 251.56 343.33C253.31 345.75 255.02 348.11 256.72 350.41C257.687 354.41 258.623 358.243 259.53 361.91C258.003 364.263 256.497 366.517 255.01 368.67C256.15 371.37 257.25 373.92 258.3 376.29C259.96 381.29 261.46 385.52 262.75 388.77C266.083 388.503 269.417 388.21 272.75 387.89C275.75 385.89 278.75 383.65 281.88 381.11C282.73 380.21 283.59 379.28 284.45 378.32L287.05 377.84C287.05 376.09 287.1 374.24 287.05 372.29C290.05 370.39 293.05 368.39 296.11 366.29C296.45 360.91 296.65 354.96 296.73 348.57C301.73 343.75 306.73 338.71 311.73 333.57C313.61 329.39 315.46 325.1 317.26 320.75C313.753 321.57 310.197 322.387 306.59 323.2C301.2 312.63 295.23 301.4 289 290L291.94 287.88L294.47 287.55C298.42 294.9 302.25 302.18 305.86 309.26C306.24 312.14 306.593 314.99 306.92 317.81C311.587 315.49 316.217 313.157 320.81 310.81C323.863 307.063 326.863 303.313 329.81 299.56C328.11 297.35 326.37 295.11 324.59 292.86H319.13C316.043 289.973 312.887 287.053 309.66 284.1L314.38 281.86C317.46 284.62 320.523 287.333 323.57 290L340.42 292.23C342.3 295.103 344.12 297.947 345.88 300.76L348.69 299.93C349.163 302.963 349.6 305.963 350 308.93C351.187 313.67 352.257 318.29 353.21 322.79C361.148 298.33 360.183 271.851 350.484 248.034C340.785 224.217 322.978 204.596 300.21 192.64L300.19 192.65Z" fill="white"/>
<path d="M309.46 366.08C309.79 364.47 310.11 362.8 310.46 361.08C307.59 363.39 304.71 365.63 301.85 367.77C300.78 370.77 299.68 373.65 298.57 376.27L299.22 378.09L302.4 377.89C304.74 374.36 307.12 370.39 309.46 366.08Z" fill="white"/>
</g>
<path d="M147.33 249C147.286 249.001 147.243 248.989 147.206 248.966C147.169 248.943 147.139 248.909 147.12 248.87C147.092 248.814 147.086 248.749 147.105 248.69C147.124 248.63 147.165 248.58 147.22 248.55C151.997 245.987 156.424 242.817 160.39 239.12L160.51 239.01C159.8 235.2 159.15 231.38 158.58 227.67C158.577 227.611 158.596 227.553 158.632 227.508C158.669 227.462 158.721 227.431 158.779 227.421C158.837 227.411 158.897 227.423 158.947 227.454C158.997 227.485 159.033 227.534 159.05 227.59C159.62 231.35 160.28 235.21 161 239.06C161.008 239.103 161.004 239.147 160.988 239.188C160.973 239.229 160.945 239.264 160.91 239.29L160.7 239.48C156.704 243.205 152.244 246.398 147.43 248.98C147.399 248.996 147.365 249.003 147.33 249Z" fill="white"/>
<path d="M180.4 375.26C180.374 375.27 180.346 375.27 180.32 375.26C180.291 375.25 180.264 375.234 180.241 375.214C180.218 375.193 180.199 375.168 180.186 375.14C180.173 375.112 180.166 375.081 180.165 375.051C180.164 375.02 180.169 374.989 180.18 374.96C181 372.91 182.71 367.67 180.83 363.22C180.811 363.185 180.801 363.145 180.801 363.105C180.801 363.065 180.811 363.025 180.83 362.99C183.18 359.79 185.2 356.35 184.06 352.84C183.4 350.9 178.38 348.3 170.29 345.72C170.171 345.685 170.054 345.641 169.94 345.59C166.88 343.68 163.82 341.71 160.84 339.74C160.806 339.714 160.779 339.681 160.76 339.643C160.74 339.605 160.73 339.563 160.73 339.52C160.698 336.893 159.643 334.382 157.79 332.52C156.818 331.65 155.674 330.993 154.432 330.594C153.189 330.194 151.877 330.06 150.58 330.2C150.537 330.207 150.493 330.203 150.453 330.187C150.412 330.171 150.377 330.144 150.35 330.11C148.04 327 145.71 323.77 143.44 320.49C143.405 320.438 143.392 320.374 143.403 320.313C143.414 320.251 143.449 320.196 143.5 320.16C143.553 320.127 143.616 320.115 143.677 320.126C143.738 320.138 143.792 320.171 143.83 320.22C146.07 323.46 148.37 326.65 150.65 329.72C151.998 329.589 153.358 329.74 154.644 330.163C155.93 330.587 157.114 331.274 158.12 332.18C160.045 334.116 161.149 336.72 161.2 339.45C164.14 341.38 167.2 343.32 170.2 345.21L170.46 345.3C175.3 346.84 183.57 349.86 184.54 352.72C185.74 356.39 183.72 359.92 181.32 363.19C183.19 367.77 181.47 373.08 180.63 375.19C180.602 375.222 180.565 375.245 180.525 375.257C180.484 375.27 180.441 375.271 180.4 375.26Z" fill="white"/>
<path d="M180.93 214.44C180.897 214.449 180.863 214.449 180.83 214.44L177.07 212.64C177.032 212.621 176.999 212.592 176.975 212.557C176.951 212.523 176.935 212.482 176.93 212.44C176.87 210.93 176.83 209.33 176.8 207.44C176.799 207.409 176.804 207.378 176.815 207.349C176.826 207.32 176.842 207.293 176.864 207.271C176.885 207.248 176.911 207.231 176.94 207.218C176.968 207.206 176.999 207.2 177.03 207.2C177.091 207.2 177.15 207.224 177.193 207.267C177.236 207.31 177.26 207.369 177.26 207.43C177.26 209.29 177.33 210.84 177.39 212.3L180.83 213.95C183.37 209.43 185.94 205.2 188.46 201.39C188.483 201.35 188.518 201.319 188.56 201.3C196.14 197.86 203.8 194.66 211.35 191.78C212.27 189.78 213.21 187.91 214.14 186.21C214.151 186.176 214.169 186.145 214.193 186.119C214.218 186.093 214.248 186.073 214.281 186.059C214.314 186.046 214.349 186.041 214.385 186.043C214.421 186.046 214.455 186.056 214.486 186.073C214.517 186.091 214.544 186.115 214.565 186.144C214.585 186.173 214.599 186.206 214.605 186.242C214.611 186.277 214.61 186.313 214.6 186.347C214.59 186.381 214.573 186.413 214.55 186.44C213.62 188.15 212.67 190.05 211.74 192.07C211.71 192.122 211.664 192.164 211.61 192.19C204.06 195.07 196.4 198.27 188.82 201.71C186.28 205.55 183.69 209.81 181.13 214.38C181.103 214.404 181.072 214.423 181.037 214.433C181.002 214.443 180.966 214.446 180.93 214.44Z" fill="white"/>
<path d="M213.91 207.24H213.49C209.49 206.78 207.15 202.56 206.9 202.08C206.876 202.025 206.874 201.964 206.894 201.908C206.915 201.852 206.956 201.806 207.01 201.78H207.06C210.89 200.56 214.77 199.37 218.61 198.24C218.663 198.225 218.72 198.228 218.771 198.25C218.823 198.272 218.864 198.311 218.89 198.36C219.46 199.49 220.06 200.66 220.66 201.86C220.682 201.898 220.694 201.941 220.694 201.985C220.694 202.029 220.682 202.072 220.66 202.11C219.9 203.34 217.38 207.24 213.91 207.24ZM213.54 206.75C216.91 207.04 219.44 203.16 220.17 201.9C219.623 200.8 219.083 199.73 218.55 198.69C214.86 199.78 211.13 200.92 207.45 202.09C208 203.08 210.13 206.36 213.54 206.75Z" fill="white"/>
<path d="M228.26 238.4C228.233 238.402 228.206 238.399 228.18 238.39C228.154 238.382 228.13 238.368 228.11 238.35C228.075 238.324 228.049 238.288 228.035 238.247C228.021 238.206 228.019 238.162 228.03 238.12C228.75 234.8 229.5 231.42 230.27 228.12C229.03 226.27 227.82 224.44 226.63 222.65C226.604 222.612 226.59 222.566 226.59 222.52C226.59 222.474 226.604 222.428 226.63 222.39C227.69 220.77 228.75 219.17 229.79 217.6C229.814 217.562 229.848 217.532 229.889 217.514C229.93 217.496 229.976 217.491 230.02 217.5C230.062 217.506 230.102 217.523 230.135 217.549C230.169 217.576 230.194 217.61 230.21 217.65L232.45 223.47C234.16 226.71 235.92 230.09 237.72 233.56C237.732 233.588 237.738 233.619 237.738 233.65C237.738 233.681 237.732 233.712 237.72 233.74C237.697 233.799 237.655 233.848 237.6 233.88C234.55 235.36 231.44 236.88 228.35 238.42C228.319 238.421 228.288 238.414 228.26 238.4ZM227.11 222.48L230.72 227.91C230.74 227.968 230.74 228.032 230.72 228.09C229.98 231.3 229.26 234.54 228.56 237.74C231.44 236.31 234.32 234.9 237.15 233.52C235.39 230.13 233.66 226.82 231.98 223.62C231.273 221.773 230.577 219.97 229.89 218.21C228.983 219.61 228.057 221.033 227.11 222.48Z" fill="white"/>
<path d="M220.54 236.13C220.494 236.144 220.446 236.144 220.4 236.13C220.365 236.104 220.337 236.069 220.322 236.028C220.306 235.987 220.302 235.943 220.31 235.9C220.71 233.53 221.11 231.19 221.52 228.9C221.528 228.837 221.56 228.779 221.61 228.74L224.96 226.41C225.001 226.385 225.047 226.372 225.095 226.372C225.143 226.372 225.189 226.385 225.23 226.41L228.23 228.41L228.32 228.47C228.368 228.501 228.403 228.549 228.418 228.604C228.433 228.66 228.427 228.719 228.4 228.77C227.6 230.35 226.81 231.96 226.01 233.58C225.983 233.629 225.941 233.668 225.89 233.69L220.68 236.13H220.54ZM222 229C221.62 231.12 221.25 233.28 220.88 235.46L225.61 233.26C226.37 231.72 227.123 230.2 227.87 228.7L225.13 226.82L222 229Z" fill="white"/>
<path d="M261.4 389.65C261.353 389.648 261.307 389.633 261.268 389.607C261.229 389.58 261.199 389.543 261.18 389.5C259.92 386.32 258.42 382.12 256.73 377.01C255.68 374.64 254.57 372.08 253.45 369.4C253.432 369.366 253.423 369.328 253.423 369.29C253.423 369.252 253.432 369.214 253.45 369.18C254.92 367.03 256.45 364.79 257.92 362.51C257.03 358.93 256.1 355.13 255.14 351.16C253.45 348.86 251.72 346.49 250.01 344.11C249.995 344.081 249.987 344.048 249.987 344.015C249.987 343.982 249.995 343.949 250.01 343.92C250.53 341.57 251.01 339.16 251.59 336.71C247.98 335.14 244.29 333.51 240.59 331.87C234.68 332.87 228.82 333.87 223.19 334.87C223.152 334.879 223.112 334.877 223.075 334.865C223.038 334.853 223.005 334.83 222.98 334.8C218.16 329.55 213.27 324.08 208.42 318.54C208.391 318.494 208.371 318.443 208.36 318.39C208.17 312.6 208.03 306.6 207.94 300.56C207.941 300.509 207.959 300.46 207.99 300.42C211.73 295.42 215.58 290.42 219.42 285.37L220.23 280.85C220.243 280.805 220.267 280.764 220.3 280.73C222.02 278.98 223.75 277.24 225.49 275.49C225.513 275.485 225.537 275.485 225.56 275.49L228.98 274.01C236.33 272.4 243.71 270.8 250.98 269.25C251.016 269.241 251.055 269.24 251.091 269.249C251.128 269.258 251.162 269.275 251.19 269.3C256.19 273.63 261.33 278.09 266.44 282.54C266.44 281.46 266.44 280.38 266.44 279.3C266.439 279.25 266.454 279.201 266.483 279.159C266.512 279.118 266.553 279.087 266.6 279.07L269.06 278.26C269.108 278.241 269.162 278.241 269.21 278.26L278.43 281.53H286L289.8 280.46C289.8 279.27 289.8 278.09 289.8 276.91L281.89 274.01L281.79 273.94C279.79 271.553 277.79 269.167 275.79 266.78C275.761 266.749 275.74 266.711 275.73 266.67C275.41 264.67 275.08 262.59 274.73 260.57L270.73 262.8L274.41 267.61C274.439 267.651 274.455 267.7 274.455 267.75C274.455 267.8 274.439 267.849 274.41 267.89L271.6 271.61C271.578 271.637 271.551 271.659 271.52 271.675C271.489 271.69 271.455 271.699 271.42 271.7C271.387 271.704 271.353 271.699 271.321 271.687C271.29 271.675 271.262 271.655 271.24 271.63C269.82 270.097 268.4 268.577 266.98 267.07C266.957 267.04 266.94 267.006 266.93 266.97C266 263.6 265.06 260.24 264.13 256.97C261.77 255.317 259.417 253.683 257.07 252.07L255.49 252.62C257.69 255.113 259.897 257.63 262.11 260.17C262.131 260.197 262.146 260.227 262.154 260.26C262.163 260.293 262.165 260.327 262.16 260.36C261.86 262.02 261.55 263.68 261.24 265.36C261.233 265.401 261.216 265.439 261.19 265.471C261.163 265.502 261.129 265.526 261.09 265.54L259.18 266.19C259.149 266.204 259.115 266.212 259.08 266.212C259.045 266.212 259.011 266.204 258.98 266.19C258.95 266.174 258.925 266.151 258.905 266.124C258.886 266.096 258.874 266.064 258.87 266.03L258.18 261.6C255.16 259.053 252.16 256.53 249.18 254.03L243.9 253.57L240.9 255.09C239.31 258.88 237.7 262.71 236.1 266.57C236.083 266.607 236.059 266.641 236.03 266.67C233.47 268.623 230.91 270.58 228.35 272.54C228.313 272.559 228.272 272.569 228.23 272.569C228.188 272.569 228.147 272.559 228.11 272.54L222.34 270C222.304 269.984 222.272 269.959 222.247 269.928C222.223 269.896 222.207 269.859 222.2 269.82C221.91 267.6 221.62 265.4 221.34 263.2C221.7 260.04 222.07 256.95 222.44 253.9C222.447 253.846 222.473 253.796 222.513 253.76C222.554 253.723 222.606 253.702 222.66 253.7L233.24 253.15C233.31 251.21 233.37 249.27 233.45 247.36L228.92 242.09C228.896 242.063 228.878 242.031 228.868 241.997C228.858 241.962 228.855 241.926 228.86 241.89C228.866 241.856 228.88 241.823 228.901 241.796C228.922 241.768 228.949 241.745 228.98 241.73C231.273 240.443 233.553 239.17 235.82 237.91C237.76 235.95 239.683 234.02 241.59 232.12C241.61 232.095 241.638 232.077 241.67 232.07C243.48 231.32 245.28 230.57 247.08 229.84C246.91 227.49 246.74 225.18 246.58 222.93C246.574 222.873 246.589 222.817 246.622 222.77C246.655 222.724 246.704 222.692 246.76 222.68L248.85 222.22C248.889 222.21 248.929 222.21 248.968 222.221C249.007 222.231 249.042 222.252 249.07 222.28C251.13 224.28 253.24 226.35 255.32 228.42C258.99 228.07 262.69 227.73 266.32 227.42C266.21 226.42 266.09 225.42 265.98 224.36C265.976 224.324 265.976 224.287 265.98 224.25L266.73 222.25C266.17 221.25 265.61 220.3 265.04 219.33C265.016 219.291 265.004 219.246 265.004 219.2C265.004 219.154 265.016 219.109 265.04 219.07L266.46 217.19L266.55 215.91L263.55 214.21C263.518 214.19 263.491 214.164 263.47 214.133C263.45 214.102 263.436 214.067 263.43 214.03C263.11 211.65 262.777 209.343 262.43 207.11C262.42 207.061 262.42 207.01 262.43 206.96C263.69 204.77 264.93 202.63 266.11 200.61L262.22 200.68C260.83 203.53 259.34 206.68 257.79 209.92C258.07 213.09 258.35 216.4 258.62 219.75C258.624 219.785 258.619 219.82 258.607 219.853C258.595 219.886 258.575 219.916 258.55 219.94C257.163 221.333 255.757 222.747 254.33 224.18C254.291 224.208 254.243 224.224 254.195 224.224C254.147 224.224 254.099 224.208 254.06 224.18C250.23 222.29 246.34 220.4 242.5 218.57C242.461 218.551 242.427 218.521 242.404 218.484C242.381 218.447 242.369 218.404 242.37 218.36C242.317 215.313 242.273 212.383 242.24 209.57C242.239 209.529 242.248 209.487 242.267 209.451C242.287 209.414 242.315 209.383 242.35 209.36C244.123 208.3 245.873 207.263 247.6 206.25C250.14 201.18 252.53 196.63 254.71 192.71C254.733 192.67 254.768 192.639 254.81 192.62C258.03 191.06 261.23 189.62 264.33 188.19C264.358 188.178 264.389 188.172 264.42 188.172C264.451 188.172 264.482 188.178 264.51 188.19C270.51 190.48 276.77 193.05 283.05 195.85C283.099 195.872 283.139 195.909 283.165 195.956C283.19 196.003 283.199 196.057 283.19 196.11C283.043 196.923 282.893 197.753 282.74 198.6C282.727 198.656 282.695 198.707 282.649 198.743C282.604 198.779 282.548 198.799 282.49 198.8L279.4 198.69L274.15 197.93C276.3 200.08 278.52 202.37 280.75 204.77L284.06 204.57C284.24 203.22 284.41 201.9 284.57 200.63C284.581 200.563 284.616 200.502 284.67 200.46C288.09 198.02 291.37 195.73 294.43 193.68C294.463 193.671 294.497 193.671 294.53 193.68L298.72 193.12C298.752 193.116 298.784 193.118 298.814 193.126C298.845 193.135 298.874 193.149 298.899 193.168C298.924 193.188 298.945 193.212 298.961 193.24C298.976 193.268 298.986 193.298 298.99 193.33C298.994 193.36 298.992 193.391 298.985 193.421C298.977 193.45 298.963 193.478 298.944 193.502C298.926 193.526 298.903 193.546 298.876 193.562C298.85 193.577 298.82 193.586 298.79 193.59L294.65 194.14C291.65 196.14 288.4 198.42 285.03 200.83C284.86 202.13 284.69 203.48 284.5 204.83C284.493 204.885 284.468 204.936 284.428 204.974C284.387 205.013 284.335 205.036 284.28 205.04L280.67 205.26C280.601 205.257 280.535 205.232 280.48 205.19C278.05 202.58 275.64 200.08 273.31 197.78C273.282 197.741 273.266 197.694 273.266 197.645C273.266 197.597 273.282 197.549 273.31 197.51C273.326 197.462 273.36 197.422 273.404 197.398C273.449 197.374 273.501 197.367 273.55 197.38C275.55 197.65 277.55 197.94 279.48 198.23L282.35 198.33C282.48 197.61 282.61 196.91 282.73 196.22C276.55 193.47 270.41 190.93 264.48 188.68C261.48 190.04 258.28 191.5 255.13 193.03C252.95 196.94 250.57 201.48 248.04 206.54C248.015 206.58 247.98 206.615 247.94 206.64C246.233 207.64 244.503 208.667 242.75 209.72C242.75 212.44 242.83 215.28 242.88 218.22C246.63 220.01 250.42 221.85 254.16 223.7C255.493 222.333 256.827 221 258.16 219.7C257.89 216.36 257.61 213.07 257.33 209.92C257.32 209.881 257.32 209.839 257.33 209.8C258.9 206.44 260.43 203.26 261.85 200.36C261.869 200.321 261.899 200.287 261.936 200.264C261.973 200.241 262.016 200.229 262.06 200.23L266.52 200.15C266.6 200.17 266.672 200.212 266.73 200.27C266.75 200.307 266.761 200.348 266.761 200.39C266.761 200.432 266.75 200.473 266.73 200.51C265.49 202.61 264.19 204.85 262.87 207.14C263.18 209.31 263.5 211.56 263.81 213.87L266.81 215.6C266.85 215.62 266.883 215.652 266.904 215.691C266.926 215.731 266.935 215.776 266.93 215.82L266.83 217.31C266.824 217.357 266.807 217.401 266.78 217.44L265.41 219.25C265.97 220.2 266.52 221.16 267.08 222.14C267.106 222.204 267.106 222.276 267.08 222.34L266.31 224.4C266.43 225.47 266.55 226.54 266.67 227.63C266.675 227.662 266.673 227.694 266.664 227.725C266.655 227.756 266.64 227.785 266.62 227.81C266.601 227.834 266.577 227.854 266.549 227.868C266.521 227.882 266.491 227.889 266.46 227.89C262.72 228.22 258.91 228.58 255.11 228.94C255.075 228.944 255.04 228.939 255.007 228.927C254.974 228.915 254.944 228.895 254.92 228.87C252.85 226.81 250.75 224.75 248.69 222.75L246.93 223.14C247.09 225.38 247.25 227.68 247.42 230.02C247.425 230.07 247.413 230.12 247.385 230.161C247.358 230.203 247.317 230.234 247.27 230.25L241.75 232.53C239.85 234.42 237.93 236.35 236 238.3H235.94L229.32 242L233.73 247.12C233.744 247.172 233.744 247.228 233.73 247.28C233.66 249.28 233.58 251.34 233.52 253.39C233.515 253.448 233.489 253.503 233.447 253.544C233.404 253.584 233.349 253.608 233.29 253.61L222.7 254.16C222.33 257.16 221.97 260.16 221.62 263.16C221.89 265.25 222.18 267.41 222.46 269.58L227.9 271.89L235.42 266.14C237.02 262.267 238.623 258.433 240.23 254.64C240.252 254.589 240.291 254.547 240.34 254.52L243.47 252.93C243.49 252.92 243.513 252.915 243.535 252.915C243.558 252.915 243.58 252.92 243.6 252.93L249.03 253.4C249.078 253.401 249.124 253.419 249.16 253.45C252.2 255.977 255.25 258.533 258.31 261.12C258.352 261.161 258.38 261.213 258.39 261.27L259.05 265.51L260.56 265C260.86 263.413 261.15 261.833 261.43 260.26C259.17 257.66 256.913 255.087 254.66 252.54C254.643 252.506 254.635 252.468 254.635 252.43C254.635 252.392 254.643 252.354 254.66 252.32C254.669 252.283 254.687 252.248 254.714 252.22C254.74 252.192 254.773 252.171 254.81 252.16L256.81 251.45C256.843 251.435 256.879 251.428 256.915 251.428C256.951 251.428 256.987 251.435 257.02 251.45C259.433 253.11 261.843 254.777 264.25 256.45C264.274 256.463 264.294 256.482 264.31 256.505C264.326 256.527 264.336 256.553 264.34 256.58C265.28 259.913 266.217 263.27 267.15 266.65L271.15 270.96L273.68 267.61C272.44 265.98 271.19 264.36 269.94 262.73C269.925 262.701 269.917 262.668 269.917 262.635C269.917 262.602 269.925 262.569 269.94 262.54C269.958 262.473 270.001 262.416 270.06 262.38L274.61 259.85C274.644 259.832 274.682 259.823 274.72 259.823C274.758 259.823 274.796 259.832 274.83 259.85C274.864 259.866 274.893 259.889 274.916 259.919C274.939 259.949 274.954 259.983 274.96 260.02C275.31 262.13 275.65 264.26 275.96 266.39C277.96 268.73 279.937 271.083 281.89 273.45C284.557 274.423 287.223 275.4 289.89 276.38C289.935 276.397 289.974 276.427 290.003 276.466C290.031 276.505 290.047 276.552 290.05 276.6C290.05 277.9 290.05 279.2 290.05 280.5C290.053 280.551 290.038 280.602 290.007 280.642C289.975 280.683 289.93 280.71 289.88 280.72L285.88 281.86H278.06L268.88 278.6L266.67 279.34V283C266.673 283.046 266.662 283.093 266.638 283.133C266.614 283.173 266.579 283.205 266.537 283.224C266.495 283.244 266.447 283.25 266.402 283.242C266.356 283.234 266.313 283.213 266.28 283.18C261.08 278.64 255.84 274.1 250.72 269.67C243.53 271.22 236.2 272.81 228.92 274.4L225.59 275.85C223.883 277.563 222.183 279.28 220.49 281L219.68 285.5C219.689 285.536 219.689 285.574 219.68 285.61C215.85 290.61 212.01 295.66 208.26 300.61C208.35 306.61 208.49 312.53 208.68 318.26C213.48 323.74 218.32 329.16 223.09 334.35C228.7 333.42 234.54 332.43 240.43 331.35C240.475 331.335 240.525 331.335 240.57 331.35C244.33 333.02 248.1 334.69 251.78 336.29C251.831 336.312 251.873 336.351 251.898 336.4C251.924 336.449 251.931 336.506 251.92 336.56C251.38 339.04 250.85 341.48 250.32 343.86C252.03 346.22 253.74 348.58 255.42 350.86C255.424 350.89 255.424 350.92 255.42 350.95C256.42 354.95 257.34 358.82 258.24 362.45C258.264 362.511 258.264 362.579 258.24 362.64C256.75 364.91 255.24 367.15 253.79 369.29C254.89 371.92 255.98 374.44 257.02 376.78C258.69 381.78 260.16 385.96 261.41 389.12C264.66 388.85 267.93 388.56 271.13 388.25C274.03 386.32 277.13 384.05 280.2 381.52C281.04 380.64 281.9 379.7 282.75 378.76C282.782 378.719 282.829 378.69 282.88 378.68L283.25 378.61L285.25 378.23C285.25 376.55 285.25 374.75 285.25 372.88C285.249 372.84 285.259 372.8 285.278 372.765C285.298 372.73 285.326 372.701 285.36 372.68C288.36 370.8 291.36 368.82 294.31 366.78C294.64 361.55 294.85 355.64 294.93 349.19C294.934 349.127 294.958 349.067 295 349.02C300 344.26 305 339.21 310 334.02C311.79 330.02 313.58 325.87 315.33 321.67C312.01 322.44 308.58 323.23 305.11 324.01C305.06 324.019 305.008 324.012 304.961 323.991C304.915 323.969 304.876 323.934 304.85 323.89C299.44 313.33 293.51 302.17 287.22 290.71C287.19 290.661 287.181 290.602 287.194 290.546C287.207 290.49 287.241 290.441 287.29 290.41L290.23 288.29C290.265 288.276 290.305 288.276 290.34 288.29L292.86 287.96C292.908 287.949 292.958 287.955 293.002 287.977C293.046 287.999 293.08 288.035 293.1 288.08C297.04 295.39 300.88 302.7 304.5 309.79V309.87C304.86 312.7 305.2 315.47 305.5 318.09C310.14 315.79 314.7 313.5 319.04 311.27C322.04 307.6 325.04 303.88 327.87 300.21C326.23 298.08 324.54 295.91 322.87 293.75H317.52C317.461 293.749 317.405 293.728 317.36 293.69C314.36 290.87 311.16 287.92 307.89 284.93C307.862 284.903 307.84 284.87 307.826 284.834C307.812 284.798 307.807 284.759 307.81 284.72C307.817 284.681 307.833 284.644 307.857 284.612C307.882 284.581 307.914 284.556 307.95 284.54L312.67 282.3C312.709 282.276 312.754 282.264 312.8 282.264C312.846 282.264 312.891 282.276 312.93 282.3C316.06 285.02 319.16 287.74 322.13 290.37L338.91 292.59C338.944 292.594 338.976 292.606 339.003 292.625C339.031 292.645 339.054 292.67 339.07 292.7C340.89 295.49 342.7 298.3 344.44 301.08L347.08 300.3C347.11 300.286 347.142 300.278 347.175 300.278C347.208 300.278 347.24 300.286 347.27 300.3C347.3 300.316 347.325 300.339 347.345 300.367C347.364 300.394 347.376 300.426 347.38 300.46C347.86 303.52 348.3 306.55 348.69 309.46C349.83 313.96 350.91 318.63 351.9 323.3C351.912 323.361 351.9 323.424 351.866 323.476C351.833 323.529 351.78 323.566 351.72 323.58C351.69 323.587 351.658 323.588 351.628 323.583C351.597 323.578 351.568 323.567 351.541 323.55C351.515 323.533 351.493 323.511 351.475 323.485C351.458 323.46 351.446 323.431 351.44 323.4C350.44 318.73 349.37 314.07 348.22 309.55C347.84 306.7 347.42 303.76 346.95 300.79L344.4 301.54C344.35 301.555 344.297 301.553 344.248 301.535C344.2 301.517 344.158 301.484 344.13 301.44C342.38 298.65 340.57 295.81 338.74 293.01L322 290.79C321.952 290.789 321.906 290.771 321.87 290.74C318.92 288.12 315.87 285.42 312.73 282.74L308.47 284.74C311.62 287.64 314.7 290.48 317.61 293.21H322.98C323.017 293.208 323.053 293.215 323.086 293.231C323.12 293.247 323.148 293.27 323.17 293.3C324.93 295.54 326.69 297.79 328.38 300C328.413 300.041 328.431 300.092 328.431 300.145C328.431 300.198 328.413 300.249 328.38 300.29C325.48 304.02 322.46 307.8 319.38 311.54L319.3 311.6C314.85 313.88 310.17 316.24 305.41 318.6C305.376 318.618 305.338 318.627 305.3 318.627C305.262 318.627 305.224 318.618 305.19 318.6C305.157 318.582 305.129 318.556 305.109 318.524C305.088 318.493 305.075 318.457 305.07 318.42C304.75 315.71 304.4 312.85 304.02 309.91C300.43 302.91 296.63 295.64 292.72 288.39L290.42 288.69L287.69 290.69C293.92 302.02 299.79 313.07 305.15 323.53C308.7 322.73 312.23 321.92 315.63 321.12C315.672 321.109 315.716 321.111 315.757 321.125C315.798 321.14 315.834 321.166 315.86 321.2C315.885 321.235 315.898 321.277 315.898 321.32C315.898 321.363 315.885 321.405 315.86 321.44C314.05 325.81 312.2 330.13 310.34 334.27L310.29 334.33C305.29 339.52 300.29 344.56 295.35 349.33C295.27 355.79 295.06 361.72 294.73 366.95C294.728 366.986 294.718 367.02 294.7 367.051C294.683 367.082 294.659 367.109 294.63 367.13C291.63 369.13 288.63 371.13 285.68 373.04C285.68 374.94 285.68 376.76 285.68 378.46C285.681 378.515 285.662 378.568 285.627 378.61C285.593 378.652 285.544 378.681 285.49 378.69L283.25 379.11L282.96 379.16C282.13 380.09 281.29 381.01 280.44 381.9C277.27 384.48 274.19 386.76 271.27 388.71H271.16C267.88 389.02 264.53 389.32 261.16 389.59L261.4 389.65Z" fill="white"/>
<path d="M297.83 379C297.78 378.999 297.731 378.984 297.69 378.955C297.649 378.927 297.618 378.887 297.6 378.84L297.47 378.47L297 377C296.988 376.972 296.982 376.941 296.982 376.91C296.982 376.879 296.988 376.848 297 376.82C298.09 374.26 299.19 371.4 300.27 368.34C300.288 368.295 300.316 368.254 300.35 368.22C303.21 366.09 306.1 363.84 308.96 361.54C309 361.513 309.047 361.498 309.095 361.498C309.143 361.498 309.19 361.513 309.23 361.54C309.272 361.563 309.305 361.598 309.325 361.642C309.345 361.685 309.35 361.734 309.34 361.78C309.05 363.41 308.73 365.1 308.39 366.78V366.85C306.01 371.23 303.62 375.21 301.27 378.67C301.252 378.702 301.225 378.729 301.194 378.748C301.163 378.767 301.127 378.778 301.09 378.78L297.91 378.98L297.83 379ZM297.43 376.95C297.6 377.41 297.76 377.87 297.92 378.31L297.99 378.52L300.88 378.33C303.19 374.91 305.54 370.99 307.88 366.67C308.18 365.21 308.46 363.75 308.72 362.33C306.03 364.48 303.32 366.59 300.64 368.59C299.59 371.6 298.51 374.42 297.43 377V376.95Z" fill="white"/>
</svg>
